# Blender 5.2.0 LTS
# www.blender.org
mtllib aldrich_cat_statue.mtl
o aldrich_cat_statue
v -0.240000 0.453000 0.125000
v -0.240000 0.773000 0.125000
v -0.240000 0.453000 -0.275000
v -0.240000 0.773000 -0.275000
v 0.240000 0.453000 0.125000
v 0.240000 0.773000 0.125000
v 0.240000 0.453000 -0.275000
v 0.240000 0.773000 -0.275000
v -0.160000 0.773000 -0.030000
v -0.160000 0.933000 -0.030000
v -0.160000 0.773000 -0.270000
v -0.160000 0.933000 -0.270000
v 0.160000 0.773000 -0.030000
v 0.160000 0.933000 -0.030000
v 0.160000 0.773000 -0.270000
v 0.160000 0.933000 -0.270000
v -0.160000 0.453000 0.185000
v -0.160000 0.773000 0.185000
v -0.160000 0.453000 0.025000
v -0.160000 0.773000 0.025000
v -0.080000 0.453000 0.185000
v -0.080000 0.773000 0.185000
v -0.080000 0.453000 0.025000
v -0.080000 0.773000 0.025000
v -0.160000 0.453000 0.215000
v -0.160000 0.533000 0.215000
v -0.160000 0.453000 0.135000
v -0.160000 0.533000 0.135000
v -0.080000 0.453000 0.215000
v -0.080000 0.533000 0.215000
v -0.080000 0.453000 0.135000
v -0.080000 0.533000 0.135000
v 0.080000 0.453000 0.185000
v 0.080000 0.773000 0.185000
v 0.080000 0.453000 0.025000
v 0.080000 0.773000 0.025000
v 0.160000 0.453000 0.185000
v 0.160000 0.773000 0.185000
v 0.160000 0.453000 0.025000
v 0.160000 0.773000 0.025000
v 0.080000 0.453000 0.215000
v 0.080000 0.533000 0.215000
v 0.080000 0.453000 0.135000
v 0.080000 0.533000 0.135000
v 0.160000 0.453000 0.215000
v 0.160000 0.533000 0.215000
v 0.160000 0.453000 0.135000
v 0.160000 0.533000 0.135000
v -0.200000 0.773000 0.170000
v -0.200000 1.013000 0.170000
v -0.200000 0.773000 -0.150000
v -0.200000 1.013000 -0.150000
v 0.200000 0.773000 0.170000
v 0.200000 1.013000 0.170000
v 0.200000 0.773000 -0.150000
v 0.200000 1.013000 -0.150000
v -0.160000 1.013000 0.165000
v -0.160000 1.173000 0.165000
v -0.160000 1.013000 -0.075000
v -0.160000 1.173000 -0.075000
v 0.160000 1.013000 0.165000
v 0.160000 1.173000 0.165000
v 0.160000 1.013000 -0.075000
v 0.160000 1.173000 -0.075000
v -0.080000 1.173000 0.125000
v -0.080000 1.253000 0.125000
v -0.080000 1.173000 -0.035000
v -0.080000 1.253000 -0.035000
v 0.080000 1.173000 0.125000
v 0.080000 1.253000 0.125000
v 0.080000 1.173000 -0.035000
v 0.080000 1.253000 -0.035000
v -0.160000 1.253000 0.190000
v -0.160000 1.493000 0.190000
v -0.160000 1.253000 -0.050000
v -0.160000 1.493000 -0.050000
v 0.160000 1.253000 0.190000
v 0.160000 1.493000 0.190000
v 0.160000 1.253000 -0.050000
v 0.160000 1.493000 -0.050000
v -0.080000 1.253000 0.210000
v -0.080000 1.333000 0.210000
v -0.080000 1.253000 0.130000
v -0.080000 1.333000 0.130000
v 0.080000 1.253000 0.210000
v 0.080000 1.333000 0.210000
v 0.080000 1.253000 0.130000
v 0.080000 1.333000 0.130000
v -0.160000 1.493000 0.110000
v -0.160000 1.573000 0.110000
v -0.160000 1.493000 0.030000
v -0.160000 1.573000 0.030000
v -0.080000 1.493000 0.110000
v -0.080000 1.573000 0.110000
v -0.080000 1.493000 0.030000
v -0.080000 1.573000 0.030000
v -0.200000 1.573000 0.110000
v -0.200000 1.653000 0.110000
v -0.200000 1.573000 0.030000
v -0.200000 1.653000 0.030000
v -0.120000 1.573000 0.110000
v -0.120000 1.653000 0.110000
v -0.120000 1.573000 0.030000
v -0.120000 1.653000 0.030000
v 0.080000 1.493000 0.110000
v 0.080000 1.573000 0.110000
v 0.080000 1.493000 0.030000
v 0.080000 1.573000 0.030000
v 0.160000 1.493000 0.110000
v 0.160000 1.573000 0.110000
v 0.160000 1.493000 0.030000
v 0.160000 1.573000 0.030000
v 0.120000 1.573000 0.110000
v 0.120000 1.653000 0.110000
v 0.120000 1.573000 0.030000
v 0.120000 1.653000 0.030000
v 0.200000 1.573000 0.110000
v 0.200000 1.653000 0.110000
v 0.200000 1.573000 0.030000
v 0.200000 1.653000 0.030000
v 0.160000 0.453000 -0.070000
v 0.160000 0.533000 -0.070000
v 0.160000 0.453000 -0.310000
v 0.160000 0.533000 -0.310000
v 0.240000 0.453000 -0.070000
v 0.240000 0.533000 -0.070000
v 0.240000 0.453000 -0.310000
v 0.240000 0.533000 -0.310000
v -0.020000 0.453000 0.020000
v -0.020000 0.533000 0.020000
v -0.020000 0.453000 -0.060000
v -0.020000 0.533000 -0.060000
v 0.220000 0.453000 0.020000
v 0.220000 0.533000 0.020000
v 0.220000 0.453000 -0.060000
v 0.220000 0.533000 -0.060000
v 0.240000 0.453000 0.170000
v 0.240000 0.533000 0.170000
v 0.240000 0.453000 0.010000
v 0.240000 0.533000 0.010000
v 0.320000 0.453000 0.170000
v 0.320000 0.533000 0.170000
v 0.320000 0.453000 0.010000
v 0.320000 0.533000 0.010000
v 0.240000 0.613000 0.170000
v 0.240000 0.453000 0.090000
v 0.240000 0.613000 0.090000
v 0.320000 0.613000 0.170000
v 0.320000 0.453000 0.090000
v 0.320000 0.613000 0.090000
v 0.000000 0.000000 -0.468700
v 0.000000 0.075000 -0.468700
v 0.275495 0.000000 -0.379186
v 0.275495 0.075000 -0.379186
v 0.445760 0.000000 -0.144836
v 0.445760 0.075000 -0.144836
v 0.445760 0.000000 0.144836
v 0.445760 0.075000 0.144836
v 0.275495 0.000000 0.379186
v 0.275495 0.075000 0.379186
v 0.000000 0.000000 0.468700
v 0.000000 0.075000 0.468700
v -0.275495 0.000000 0.379186
v -0.275495 0.075000 0.379186
v -0.445760 0.000000 0.144836
v -0.445760 0.075000 0.144836
v -0.445760 0.000000 -0.144836
v -0.445760 0.075000 -0.144836
v -0.275495 0.000000 -0.379186
v -0.275495 0.075000 -0.379186
v 0.000000 0.105000 -0.430000
v 0.000000 0.425000 -0.430000
v 0.252748 0.105000 -0.347877
v 0.252748 0.425000 -0.347877
v 0.408954 0.105000 -0.132877
v 0.408954 0.425000 -0.132877
v 0.408954 0.105000 0.132877
v 0.408954 0.425000 0.132877
v 0.252748 0.105000 0.347877
v 0.252748 0.425000 0.347877
v 0.000000 0.105000 0.430000
v 0.000000 0.425000 0.430000
v -0.252748 0.105000 0.347877
v -0.252748 0.425000 0.347877
v -0.408954 0.105000 0.132877
v -0.408954 0.425000 0.132877
v -0.408954 0.105000 -0.132877
v -0.408954 0.425000 -0.132877
v -0.252748 0.105000 -0.347877
v -0.252748 0.425000 -0.347877
v 0.000000 0.075000 -0.447200
v 0.000000 0.105000 -0.447200
v 0.262858 0.075000 -0.361792
v 0.262858 0.105000 -0.361792
v 0.425312 0.075000 -0.138192
v 0.425312 0.105000 -0.138192
v 0.425312 0.075000 0.138192
v 0.425312 0.105000 0.138192
v 0.262858 0.075000 0.361792
v 0.262858 0.105000 0.361792
v 0.000000 0.075000 0.447200
v 0.000000 0.105000 0.447200
v -0.262858 0.075000 0.361792
v -0.262858 0.105000 0.361792
v -0.425312 0.075000 0.138192
v -0.425312 0.105000 0.138192
v -0.425312 0.075000 -0.138192
v -0.425312 0.105000 -0.138192
v -0.262858 0.075000 -0.361792
v -0.262858 0.105000 -0.361792
v 0.000000 0.425000 -0.455800
v 0.000000 0.453000 -0.455800
v 0.267913 0.425000 -0.368750
v 0.267913 0.453000 -0.368750
v 0.433492 0.425000 -0.140850
v 0.433492 0.453000 -0.140850
v 0.433492 0.425000 0.140850
v 0.433492 0.453000 0.140850
v 0.267913 0.425000 0.368750
v 0.267913 0.453000 0.368750
v 0.000000 0.425000 0.455800
v 0.000000 0.453000 0.455800
v -0.267913 0.425000 0.368750
v -0.267913 0.453000 0.368750
v -0.433492 0.425000 0.140850
v -0.433492 0.453000 0.140850
v -0.433492 0.425000 -0.140850
v -0.433492 0.453000 -0.140850
v -0.267913 0.425000 -0.368750
v -0.267913 0.453000 -0.368750
v -0.120000 1.413000 0.175000
v -0.120000 1.493000 0.175000
v -0.120000 1.413000 0.095000
v -0.120000 1.493000 0.095000
v -0.040000 1.413000 0.175000
v -0.040000 1.493000 0.175000
v -0.040000 1.413000 0.095000
v -0.040000 1.493000 0.095000
v 0.040000 1.413000 0.175000
v 0.040000 1.493000 0.175000
v 0.040000 1.413000 0.095000
v 0.040000 1.493000 0.095000
v 0.120000 1.413000 0.175000
v 0.120000 1.493000 0.175000
v 0.120000 1.413000 0.095000
v 0.120000 1.493000 0.095000
v -0.040000 1.253000 0.245000
v -0.040000 1.333000 0.245000
v -0.040000 1.253000 0.165000
v -0.040000 1.333000 0.165000
v 0.040000 1.253000 0.245000
v 0.040000 1.333000 0.245000
v 0.040000 1.253000 0.165000
v 0.040000 1.333000 0.165000
vn -1.0000 -0.0000 -0.0000
vn -0.0000 -0.0000 -1.0000
vn 1.0000 -0.0000 -0.0000
vn -0.0000 -0.0000 1.0000
vn -0.0000 -1.0000 -0.0000
vn -0.0000 1.0000 -0.0000
vn 0.3090 -0.0000 -0.9511
vn 0.8090 -0.0000 -0.5878
vn 0.8090 -0.0000 0.5878
vn 0.3090 -0.0000 0.9511
vn -0.3090 -0.0000 0.9511
vn -0.8090 -0.0000 0.5878
vn -0.8090 -0.0000 -0.5878
vn -0.3090 -0.0000 -0.9511
vt 0.250000 0.250000
vt 0.750000 0.250000
vt 0.250000 0.750000
s 0
usemtl fur
f 1/1/1 2/1/1 4/1/1 3/1/1
f 3/1/2 4/1/2 8/1/2 7/1/2
f 7/1/3 8/1/3 6/1/3 5/1/3
f 5/1/4 6/1/4 2/1/4 1/1/4
f 3/1/5 7/1/5 5/1/5 1/1/5
f 8/1/6 4/1/6 2/1/6 6/1/6
f 9/1/1 10/1/1 12/1/1 11/1/1
f 11/1/2 12/1/2 16/1/2 15/1/2
f 15/1/3 16/1/3 14/1/3 13/1/3
f 13/1/4 14/1/4 10/1/4 9/1/4
f 11/1/5 15/1/5 13/1/5 9/1/5
f 16/1/6 12/1/6 10/1/6 14/1/6
f 17/1/1 18/1/1 20/1/1 19/1/1
f 19/1/2 20/1/2 24/1/2 23/1/2
f 23/1/3 24/1/3 22/1/3 21/1/3
f 21/1/4 22/1/4 18/1/4 17/1/4
f 19/1/5 23/1/5 21/1/5 17/1/5
f 24/1/6 20/1/6 18/1/6 22/1/6
f 25/1/1 26/1/1 28/1/1 27/1/1
f 27/1/2 28/1/2 32/1/2 31/1/2
f 31/1/3 32/1/3 30/1/3 29/1/3
f 29/1/4 30/1/4 26/1/4 25/1/4
f 27/1/5 31/1/5 29/1/5 25/1/5
f 32/1/6 28/1/6 26/1/6 30/1/6
f 33/1/1 34/1/1 36/1/1 35/1/1
f 35/1/2 36/1/2 40/1/2 39/1/2
f 39/1/3 40/1/3 38/1/3 37/1/3
f 37/1/4 38/1/4 34/1/4 33/1/4
f 35/1/5 39/1/5 37/1/5 33/1/5
f 40/1/6 36/1/6 34/1/6 38/1/6
f 41/1/1 42/1/1 44/1/1 43/1/1
f 43/1/2 44/1/2 48/1/2 47/1/2
f 47/1/3 48/1/3 46/1/3 45/1/3
f 45/1/4 46/1/4 42/1/4 41/1/4
f 43/1/5 47/1/5 45/1/5 41/1/5
f 48/1/6 44/1/6 42/1/6 46/1/6
f 49/1/1 50/1/1 52/1/1 51/1/1
f 51/1/2 52/1/2 56/1/2 55/1/2
f 55/1/3 56/1/3 54/1/3 53/1/3
f 53/1/4 54/1/4 50/1/4 49/1/4
f 51/1/5 55/1/5 53/1/5 49/1/5
f 56/1/6 52/1/6 50/1/6 54/1/6
f 57/1/1 58/1/1 60/1/1 59/1/1
f 59/1/2 60/1/2 64/1/2 63/1/2
f 63/1/3 64/1/3 62/1/3 61/1/3
f 61/1/4 62/1/4 58/1/4 57/1/4
f 59/1/5 63/1/5 61/1/5 57/1/5
f 64/1/6 60/1/6 58/1/6 62/1/6
f 65/1/1 66/1/1 68/1/1 67/1/1
f 67/1/2 68/1/2 72/1/2 71/1/2
f 71/1/3 72/1/3 70/1/3 69/1/3
f 69/1/4 70/1/4 66/1/4 65/1/4
f 67/1/5 71/1/5 69/1/5 65/1/5
f 72/1/6 68/1/6 66/1/6 70/1/6
f 73/1/1 74/1/1 76/1/1 75/1/1
f 75/1/2 76/1/2 80/1/2 79/1/2
f 79/1/3 80/1/3 78/1/3 77/1/3
f 77/1/4 78/1/4 74/1/4 73/1/4
f 75/1/5 79/1/5 77/1/5 73/1/5
f 80/1/6 76/1/6 74/1/6 78/1/6
f 81/1/1 82/1/1 84/1/1 83/1/1
f 83/1/2 84/1/2 88/1/2 87/1/2
f 87/1/3 88/1/3 86/1/3 85/1/3
f 85/1/4 86/1/4 82/1/4 81/1/4
f 83/1/5 87/1/5 85/1/5 81/1/5
f 88/1/6 84/1/6 82/1/6 86/1/6
f 89/1/1 90/1/1 92/1/1 91/1/1
f 91/1/2 92/1/2 96/1/2 95/1/2
f 95/1/3 96/1/3 94/1/3 93/1/3
f 93/1/4 94/1/4 90/1/4 89/1/4
f 91/1/5 95/1/5 93/1/5 89/1/5
f 96/1/6 92/1/6 90/1/6 94/1/6
f 97/1/1 98/1/1 100/1/1 99/1/1
f 99/1/2 100/1/2 104/1/2 103/1/2
f 103/1/3 104/1/3 102/1/3 101/1/3
f 101/1/4 102/1/4 98/1/4 97/1/4
f 99/1/5 103/1/5 101/1/5 97/1/5
f 104/1/6 100/1/6 98/1/6 102/1/6
f 105/1/1 106/1/1 108/1/1 107/1/1
f 107/1/2 108/1/2 112/1/2 111/1/2
f 111/1/3 112/1/3 110/1/3 109/1/3
f 109/1/4 110/1/4 106/1/4 105/1/4
f 107/1/5 111/1/5 109/1/5 105/1/5
f 112/1/6 108/1/6 106/1/6 110/1/6
f 113/1/1 114/1/1 116/1/1 115/1/1
f 115/1/2 116/1/2 120/1/2 119/1/2
f 119/1/3 120/1/3 118/1/3 117/1/3
f 117/1/4 118/1/4 114/1/4 113/1/4
f 115/1/5 119/1/5 117/1/5 113/1/5
f 120/1/6 116/1/6 114/1/6 118/1/6
f 121/1/1 122/1/1 124/1/1 123/1/1
f 123/1/2 124/1/2 128/1/2 127/1/2
f 127/1/3 128/1/3 126/1/3 125/1/3
f 125/1/4 126/1/4 122/1/4 121/1/4
f 123/1/5 127/1/5 125/1/5 121/1/5
f 128/1/6 124/1/6 122/1/6 126/1/6
f 129/1/1 130/1/1 132/1/1 131/1/1
f 131/1/2 132/1/2 136/1/2 135/1/2
f 135/1/3 136/1/3 134/1/3 133/1/3
f 133/1/4 134/1/4 130/1/4 129/1/4
f 131/1/5 135/1/5 133/1/5 129/1/5
f 136/1/6 132/1/6 130/1/6 134/1/6
f 137/1/1 138/1/1 140/1/1 139/1/1
f 139/1/2 140/1/2 144/1/2 143/1/2
f 143/1/3 144/1/3 142/1/3 141/1/3
f 141/1/4 142/1/4 138/1/4 137/1/4
f 139/1/5 143/1/5 141/1/5 137/1/5
f 144/1/6 140/1/6 138/1/6 142/1/6
f 137/1/1 145/1/1 147/1/1 146/1/1
f 146/1/2 147/1/2 150/1/2 149/1/2
f 149/1/3 150/1/3 148/1/3 141/1/3
f 141/1/4 148/1/4 145/1/4 137/1/4
f 146/1/5 149/1/5 141/1/5 137/1/5
f 150/1/6 147/1/6 145/1/6 148/1/6
usemtl stone
f 151/2/7 152/2/7 154/2/7 153/2/7
f 153/2/8 154/2/8 156/2/8 155/2/8
f 155/2/3 156/2/3 158/2/3 157/2/3
f 157/2/9 158/2/9 160/2/9 159/2/9
f 159/2/10 160/2/10 162/2/10 161/2/10
f 161/2/11 162/2/11 164/2/11 163/2/11
f 163/2/12 164/2/12 166/2/12 165/2/12
f 165/2/1 166/2/1 168/2/1 167/2/1
f 154/2/6 152/2/6 170/2/6 168/2/6 166/2/6 164/2/6 162/2/6 160/2/6 158/2/6 156/2/6
f 167/2/13 168/2/13 170/2/13 169/2/13
f 169/2/14 170/2/14 152/2/14 151/2/14
f 151/2/5 153/2/5 155/2/5 157/2/5 159/2/5 161/2/5 163/2/5 165/2/5 167/2/5 169/2/5
f 171/2/7 172/2/7 174/2/7 173/2/7
f 173/2/8 174/2/8 176/2/8 175/2/8
f 175/2/3 176/2/3 178/2/3 177/2/3
f 177/2/9 178/2/9 180/2/9 179/2/9
f 179/2/10 180/2/10 182/2/10 181/2/10
f 181/2/11 182/2/11 184/2/11 183/2/11
f 183/2/12 184/2/12 186/2/12 185/2/12
f 185/2/1 186/2/1 188/2/1 187/2/1
f 174/2/6 172/2/6 190/2/6 188/2/6 186/2/6 184/2/6 182/2/6 180/2/6 178/2/6 176/2/6
f 187/2/13 188/2/13 190/2/13 189/2/13
f 189/2/14 190/2/14 172/2/14 171/2/14
f 171/2/5 173/2/5 175/2/5 177/2/5 179/2/5 181/2/5 183/2/5 185/2/5 187/2/5 189/2/5
usemtl dark
f 191/3/7 192/3/7 194/3/7 193/3/7
f 193/3/8 194/3/8 196/3/8 195/3/8
f 195/3/3 196/3/3 198/3/3 197/3/3
f 197/3/9 198/3/9 200/3/9 199/3/9
f 199/3/10 200/3/10 202/3/10 201/3/10
f 201/3/11 202/3/11 204/3/11 203/3/11
f 203/3/12 204/3/12 206/3/12 205/3/12
f 205/3/1 206/3/1 208/3/1 207/3/1
f 194/3/6 192/3/6 210/3/6 208/3/6 206/3/6 204/3/6 202/3/6 200/3/6 198/3/6 196/3/6
f 207/3/13 208/3/13 210/3/13 209/3/13
f 209/3/14 210/3/14 192/3/14 191/3/14
f 191/3/5 193/3/5 195/3/5 197/3/5 199/3/5 201/3/5 203/3/5 205/3/5 207/3/5 209/3/5
f 211/3/7 212/3/7 214/3/7 213/3/7
f 213/3/8 214/3/8 216/3/8 215/3/8
f 215/3/3 216/3/3 218/3/3 217/3/3
f 217/3/9 218/3/9 220/3/9 219/3/9
f 219/3/10 220/3/10 222/3/10 221/3/10
f 221/3/11 222/3/11 224/3/11 223/3/11
f 223/3/12 224/3/12 226/3/12 225/3/12
f 225/3/1 226/3/1 228/3/1 227/3/1
f 214/3/6 212/3/6 230/3/6 228/3/6 226/3/6 224/3/6 222/3/6 220/3/6 218/3/6 216/3/6
f 227/3/13 228/3/13 230/3/13 229/3/13
f 229/3/14 230/3/14 212/3/14 211/3/14
f 211/3/5 213/3/5 215/3/5 217/3/5 219/3/5 221/3/5 223/3/5 225/3/5 227/3/5 229/3/5
f 231/3/1 232/3/1 234/3/1 233/3/1
f 233/3/2 234/3/2 238/3/2 237/3/2
f 237/3/3 238/3/3 236/3/3 235/3/3
f 235/3/4 236/3/4 232/3/4 231/3/4
f 233/3/5 237/3/5 235/3/5 231/3/5
f 238/3/6 234/3/6 232/3/6 236/3/6
f 239/3/1 240/3/1 242/3/1 241/3/1
f 241/3/2 242/3/2 246/3/2 245/3/2
f 245/3/3 246/3/3 244/3/3 243/3/3
f 243/3/4 244/3/4 240/3/4 239/3/4
f 241/3/5 245/3/5 243/3/5 239/3/5
f 246/3/6 242/3/6 240/3/6 244/3/6
f 247/3/1 248/3/1 250/3/1 249/3/1
f 249/3/2 250/3/2 254/3/2 253/3/2
f 253/3/3 254/3/3 252/3/3 251/3/3
f 251/3/4 252/3/4 248/3/4 247/3/4
f 249/3/5 253/3/5 251/3/5 247/3/5
f 254/3/6 250/3/6 248/3/6 252/3/6
