# Blender 5.2.0 LTS
# www.blender.org
mtllib aldrich_court_reliquary.mtl
o aldrich_court_reliquary
v -0.320000 0.000000 0.330000
v -0.320000 0.160000 0.330000
v -0.320000 0.000000 -0.330000
v -0.320000 0.160000 -0.330000
v 0.320000 0.000000 0.330000
v 0.320000 0.160000 0.330000
v 0.320000 0.000000 -0.330000
v 0.320000 0.160000 -0.330000
v -0.300000 0.160000 0.310000
v -0.300000 1.580000 0.310000
v -0.300000 0.160000 0.250000
v -0.300000 1.580000 0.250000
v 0.300000 0.160000 0.310000
v 0.300000 1.580000 0.310000
v 0.300000 0.160000 0.250000
v 0.300000 1.580000 0.250000
v -0.295000 0.160000 0.300000
v -0.295000 1.580000 0.300000
v -0.295000 0.160000 -0.300000
v -0.295000 1.580000 -0.300000
v -0.245000 0.160000 0.300000
v -0.245000 1.580000 0.300000
v -0.245000 0.160000 -0.300000
v -0.245000 1.580000 -0.300000
v 0.245000 0.160000 0.300000
v 0.245000 1.580000 0.300000
v 0.245000 0.160000 -0.300000
v 0.245000 1.580000 -0.300000
v 0.295000 0.160000 0.300000
v 0.295000 1.580000 0.300000
v 0.295000 0.160000 -0.300000
v 0.295000 1.580000 -0.300000
v -0.290000 1.015000 0.300000
v -0.290000 1.065000 0.300000
v -0.290000 1.015000 -0.300000
v -0.290000 1.065000 -0.300000
v 0.290000 1.015000 0.300000
v 0.290000 1.065000 0.300000
v 0.290000 1.015000 -0.300000
v 0.290000 1.065000 -0.300000
v -0.330000 1.575000 0.340000
v -0.330000 1.665000 0.340000
v -0.330000 1.575000 -0.340000
v -0.330000 1.665000 -0.340000
v 0.330000 1.575000 0.340000
v 0.330000 1.665000 0.340000
v 0.330000 1.575000 -0.340000
v 0.330000 1.665000 -0.340000
v 0.000000 1.660000 -0.090000
v 0.077942 1.660000 -0.045000
v 0.077942 1.660000 0.045000
v 0.000000 1.660000 0.090000
v -0.077942 1.660000 0.045000
v -0.077942 1.660000 -0.045000
v 0.000000 1.900000 0.000000
v -0.045000 1.080000 -0.275000
v -0.045000 1.200000 -0.275000
v -0.045000 1.080000 -0.325000
v -0.045000 1.200000 -0.325000
v 0.045000 1.080000 -0.275000
v 0.045000 1.200000 -0.275000
v 0.045000 1.080000 -0.325000
v 0.045000 1.200000 -0.325000
v -0.330000 0.180000 0.340000
v -0.330000 0.220000 0.340000
v -0.330000 0.180000 -0.340000
v -0.330000 0.220000 -0.340000
v 0.330000 0.180000 0.340000
v 0.330000 0.220000 0.340000
v 0.330000 0.180000 -0.340000
v 0.330000 0.220000 -0.340000
v -0.330000 1.520000 0.340000
v -0.330000 1.560000 0.340000
v -0.330000 1.520000 -0.340000
v -0.330000 1.560000 -0.340000
v 0.330000 1.520000 0.340000
v 0.330000 1.560000 0.340000
v 0.330000 1.520000 -0.340000
v 0.330000 1.560000 -0.340000
v 0.000000 1.403500 0.000000
v 0.000000 1.391270 -0.064866
v 0.000000 1.168730 -0.064866
v 0.000000 1.156500 0.000000
v 0.033154 1.391270 -0.052477
v 0.059741 1.357001 -0.094561
v 0.074496 1.307481 -0.117916
v 0.074496 1.252519 -0.117916
v 0.059741 1.202999 -0.094561
v 0.033154 1.168730 -0.052477
v 0.053644 1.391270 -0.020045
v 0.096664 1.357001 -0.036119
v 0.120537 1.307481 -0.045040
v 0.120537 1.252519 -0.045040
v 0.096664 1.202999 -0.036119
v 0.053644 1.168730 -0.020045
v 0.053644 1.391270 0.020045
v 0.096664 1.357001 0.036119
v 0.120537 1.307481 0.045040
v 0.120537 1.252519 0.045040
v 0.096664 1.202999 0.036119
v 0.053644 1.168730 0.020045
v 0.033154 1.391270 0.052477
v 0.059741 1.357001 0.094561
v 0.074496 1.307481 0.117916
v 0.074496 1.252519 0.117916
v 0.059741 1.202999 0.094561
v 0.033154 1.168730 0.052477
v 0.000000 1.391270 0.064866
v 0.000000 1.357001 0.116884
v 0.000000 1.307481 0.145752
v 0.000000 1.252519 0.145752
v 0.000000 1.202999 0.116884
v 0.000000 1.168730 0.064866
v -0.033154 1.391270 0.052477
v -0.059741 1.357001 0.094561
v -0.074496 1.307481 0.117916
v -0.074496 1.252519 0.117916
v -0.059741 1.202999 0.094561
v -0.033154 1.168730 0.052477
v -0.053644 1.391270 0.020045
v -0.096664 1.357001 0.036119
v -0.120537 1.307481 0.045040
v -0.120537 1.252519 0.045040
v -0.096664 1.202999 0.036119
v -0.053644 1.168730 0.020045
v -0.053644 1.391270 -0.020045
v -0.096664 1.357001 -0.036119
v -0.120537 1.307481 -0.045040
v -0.120537 1.252519 -0.045040
v -0.096664 1.202999 -0.036119
v -0.053644 1.168730 -0.020045
v -0.033154 1.391270 -0.052477
v -0.059741 1.357001 -0.094561
v -0.074496 1.307481 -0.117916
v -0.074496 1.252519 -0.117916
v -0.059741 1.202999 -0.094561
v -0.033154 1.168730 -0.052477
v -0.000000 1.357001 -0.116884
v -0.000000 1.307481 -0.145752
v -0.000000 1.252519 -0.145752
v -0.000000 1.202999 -0.116884
v -0.087750 1.146750 0.039000
v -0.087750 1.218250 0.039000
v -0.087750 1.146750 -0.104000
v -0.087750 1.218250 -0.104000
v 0.087750 1.146750 0.039000
v 0.087750 1.218250 0.039000
v 0.087750 1.146750 -0.104000
v 0.087750 1.218250 -0.104000
v -0.081900 1.265700 -0.084500
v -0.081900 1.320300 -0.084500
v -0.081900 1.265700 -0.123500
v -0.081900 1.320300 -0.123500
v -0.027300 1.265700 -0.084500
v -0.027300 1.320300 -0.084500
v -0.027300 1.265700 -0.123500
v -0.027300 1.320300 -0.123500
v 0.027300 1.265700 -0.084500
v 0.027300 1.320300 -0.084500
v 0.027300 1.265700 -0.123500
v 0.027300 1.320300 -0.123500
v 0.081900 1.265700 -0.084500
v 0.081900 1.320300 -0.084500
v 0.081900 1.265700 -0.123500
v 0.081900 1.320300 -0.123500
v -0.301411 0.600001 0.005667
v 0.080724 0.599999 -0.112541
v -0.296239 0.569690 0.022386
v 0.085896 0.569688 -0.095822
v -0.285896 0.569690 0.055822
v 0.096239 0.569688 -0.062386
v -0.280724 0.600001 0.072541
v 0.101411 0.599999 -0.045667
v -0.285896 0.630312 0.055822
v 0.096239 0.630310 -0.062386
v -0.296239 0.630312 0.022386
v 0.085896 0.630310 -0.095822
v -0.072161 0.680001 -0.082332
v 0.259421 0.679999 0.057858
v -0.078976 0.649690 -0.066214
v 0.252606 0.649688 0.073977
v -0.092606 0.649690 -0.033977
v 0.238976 0.649688 0.106214
v -0.099421 0.680001 -0.017858
v 0.232161 0.679999 0.122332
v -0.092606 0.710312 -0.033977
v 0.238976 0.710310 0.106214
v -0.078976 0.710312 -0.066214
v 0.252606 0.710310 0.073977
vn -1.0000 -0.0000 -0.0000
vn -0.0000 -0.0000 -1.0000
vn 1.0000 -0.0000 -0.0000
vn -0.0000 -0.0000 1.0000
vn -0.0000 -1.0000 -0.0000
vn -0.0000 1.0000 -0.0000
vn 0.4756 0.3089 -0.8237
vn 0.9511 0.3089 -0.0000
vn 0.4756 0.3089 0.8237
vn -0.4756 0.3089 0.8237
vn -0.9511 0.3089 -0.0000
vn -0.4756 0.3089 -0.8237
vn 0.3072 0.4793 -0.8221
vn 0.0691 0.9803 -0.1848
vn 0.2014 -0.8180 -0.5389
vn 0.3500 -0.0000 -0.9367
vn 0.2014 0.8180 -0.5389
vn 0.0691 -0.9803 -0.1848
vn 0.3072 -0.4793 -0.8221
vn 0.1802 -0.9770 -0.1139
vn 0.7550 -0.4499 -0.4770
vn 0.7550 0.4499 -0.4770
vn 0.1802 0.9770 -0.1139
vn 0.5125 -0.7953 -0.3238
vn 0.8454 -0.0000 -0.5341
vn 0.5125 0.7953 -0.3238
vn 0.9008 0.4343 -0.0000
vn 0.2223 0.9750 -0.0000
vn 0.6231 -0.7822 -0.0000
vn 0.6231 0.7822 -0.0000
vn 0.2223 -0.9750 -0.0000
vn 0.9008 -0.4343 -0.0000
vn 0.5125 -0.7953 0.3238
vn 0.8454 -0.0000 0.5341
vn 0.5125 0.7953 0.3238
vn 0.1802 -0.9770 0.1139
vn 0.7550 -0.4499 0.4770
vn 0.7550 0.4499 0.4770
vn 0.1802 0.9770 0.1139
vn 0.2014 -0.8180 0.5389
vn 0.3500 -0.0000 0.9367
vn 0.2014 0.8180 0.5389
vn 0.0691 -0.9803 0.1848
vn 0.3072 -0.4793 0.8221
vn 0.3072 0.4793 0.8221
vn 0.0691 0.9803 0.1848
vn -0.2014 0.8180 0.5389
vn -0.0691 -0.9803 0.1848
vn -0.3072 -0.4793 0.8221
vn -0.3072 0.4793 0.8221
vn -0.0691 0.9803 0.1848
vn -0.2014 -0.8180 0.5389
vn -0.3500 -0.0000 0.9367
vn -0.1802 -0.9770 0.1139
vn -0.7550 -0.4499 0.4770
vn -0.7550 0.4499 0.4770
vn -0.1802 0.9770 0.1139
vn -0.5125 -0.7953 0.3238
vn -0.8454 -0.0000 0.5341
vn -0.5125 0.7953 0.3238
vn -0.9008 -0.4343 -0.0000
vn -0.9008 0.4343 -0.0000
vn -0.2223 0.9750 -0.0000
vn -0.6231 -0.7822 -0.0000
vn -0.6231 0.7822 -0.0000
vn -0.2223 -0.9750 -0.0000
vn -0.1802 0.9770 -0.1139
vn -0.5125 -0.7953 -0.3238
vn -0.8454 -0.0000 -0.5341
vn -0.5125 0.7953 -0.3238
vn -0.1802 -0.9770 -0.1139
vn -0.7550 -0.4499 -0.4770
vn -0.7550 0.4499 -0.4770
vn -0.2014 -0.8180 -0.5389
vn -0.3500 -0.0000 -0.9367
vn -0.2014 0.8180 -0.5389
vn -0.0691 -0.9803 -0.1848
vn -0.3072 -0.4793 -0.8221
vn -0.3072 0.4793 -0.8221
vn -0.0691 0.9803 -0.1848
vn -0.2559 -0.5000 -0.8273
vn 0.2559 -0.5000 0.8273
vn 0.2559 0.5000 0.8273
vn 0.9553 -0.0000 -0.2955
vn -0.2559 0.5000 -0.8273
vn -0.9553 -0.0000 0.2955
vn 0.3372 -0.5000 -0.7977
vn -0.3372 -0.5000 0.7977
vn -0.3372 0.5000 0.7977
vn 0.9211 -0.0000 0.3894
vn 0.3372 0.5000 -0.7977
vn -0.9211 -0.0000 -0.3894
vt 0.250000 0.250000
vt 0.750000 0.250000
vt 0.250000 0.750000
s 0
usemtl slot0
f 1/1/1 2/1/1 4/1/1 3/1/1
f 3/1/2 4/1/2 8/1/2 7/1/2
f 7/1/3 8/1/3 6/1/3 5/1/3
f 5/1/4 6/1/4 2/1/4 1/1/4
f 3/1/5 7/1/5 5/1/5 1/1/5
f 8/1/6 4/1/6 2/1/6 6/1/6
f 9/1/1 10/1/1 12/1/1 11/1/1
f 11/1/2 12/1/2 16/1/2 15/1/2
f 15/1/3 16/1/3 14/1/3 13/1/3
f 13/1/4 14/1/4 10/1/4 9/1/4
f 11/1/5 15/1/5 13/1/5 9/1/5
f 16/1/6 12/1/6 10/1/6 14/1/6
f 17/1/1 18/1/1 20/1/1 19/1/1
f 19/1/2 20/1/2 24/1/2 23/1/2
f 23/1/3 24/1/3 22/1/3 21/1/3
f 21/1/4 22/1/4 18/1/4 17/1/4
f 19/1/5 23/1/5 21/1/5 17/1/5
f 24/1/6 20/1/6 18/1/6 22/1/6
f 25/1/1 26/1/1 28/1/1 27/1/1
f 27/1/2 28/1/2 32/1/2 31/1/2
f 31/1/3 32/1/3 30/1/3 29/1/3
f 29/1/4 30/1/4 26/1/4 25/1/4
f 27/1/5 31/1/5 29/1/5 25/1/5
f 32/1/6 28/1/6 26/1/6 30/1/6
f 33/1/1 34/1/1 36/1/1 35/1/1
f 35/1/2 36/1/2 40/1/2 39/1/2
f 39/1/3 40/1/3 38/1/3 37/1/3
f 37/1/4 38/1/4 34/1/4 33/1/4
f 35/1/5 39/1/5 37/1/5 33/1/5
f 40/1/6 36/1/6 34/1/6 38/1/6
f 41/1/1 42/1/1 44/1/1 43/1/1
f 43/1/2 44/1/2 48/1/2 47/1/2
f 47/1/3 48/1/3 46/1/3 45/1/3
f 45/1/4 46/1/4 42/1/4 41/1/4
f 43/1/5 47/1/5 45/1/5 41/1/5
f 48/1/6 44/1/6 42/1/6 46/1/6
f 49/1/7 55/1/7 50/1/7
f 50/1/8 55/1/8 51/1/8
f 51/1/9 55/1/9 52/1/9
f 52/1/10 55/1/10 53/1/10
f 49/1/5 50/1/5 51/1/5 52/1/5 53/1/5 54/1/5
f 53/1/11 55/1/11 54/1/11
f 54/1/12 55/1/12 49/1/12
f 56/2/1 57/2/1 59/2/1 58/2/1
f 58/2/2 59/2/2 63/2/2 62/2/2
f 62/2/3 63/2/3 61/2/3 60/2/3
f 60/2/4 61/2/4 57/2/4 56/2/4
f 58/2/5 62/2/5 60/2/5 56/2/5
f 63/2/6 59/2/6 57/2/6 61/2/6
f 64/2/1 65/2/1 67/2/1 66/2/1
f 66/2/2 67/2/2 71/2/2 70/2/2
f 70/2/3 71/2/3 69/2/3 68/2/3
f 68/2/4 69/2/4 65/2/4 64/2/4
f 66/2/5 70/2/5 68/2/5 64/2/5
f 71/2/6 67/2/6 65/2/6 69/2/6
f 72/2/1 73/2/1 75/2/1 74/2/1
f 74/2/2 75/2/2 79/2/2 78/2/2
f 78/2/3 79/2/3 77/2/3 76/2/3
f 76/2/4 77/2/4 73/2/4 72/2/4
f 74/2/5 78/2/5 76/2/5 72/2/5
f 79/2/6 75/2/6 73/2/6 77/2/6
f 139/3/13 138/3/13 85/3/13 86/3/13
f 81/3/14 80/3/14 84/3/14
f 82/3/15 141/3/15 88/3/15 89/3/15
f 140/3/16 139/3/16 86/3/16 87/3/16
f 138/3/17 81/3/17 84/3/17 85/3/17
f 83/3/18 82/3/18 89/3/18
f 141/3/19 140/3/19 87/3/19 88/3/19
f 83/3/20 89/3/20 95/3/20
f 88/3/21 87/3/21 93/3/21 94/3/21
f 86/3/22 85/3/22 91/3/22 92/3/22
f 84/3/23 80/3/23 90/3/23
f 89/3/24 88/3/24 94/3/24 95/3/24
f 87/3/25 86/3/25 92/3/25 93/3/25
f 85/3/26 84/3/26 90/3/26 91/3/26
f 92/3/27 91/3/27 97/3/27 98/3/27
f 90/3/28 80/3/28 96/3/28
f 95/3/29 94/3/29 100/3/29 101/3/29
f 93/3/3 92/3/3 98/3/3 99/3/3
f 91/3/30 90/3/30 96/3/30 97/3/30
f 83/3/31 95/3/31 101/3/31
f 94/3/32 93/3/32 99/3/32 100/3/32
f 101/3/33 100/3/33 106/3/33 107/3/33
f 99/3/34 98/3/34 104/3/34 105/3/34
f 97/3/35 96/3/35 102/3/35 103/3/35
f 83/3/36 101/3/36 107/3/36
f 100/3/37 99/3/37 105/3/37 106/3/37
f 98/3/38 97/3/38 103/3/38 104/3/38
f 96/3/39 80/3/39 102/3/39
f 107/3/40 106/3/40 112/3/40 113/3/40
f 105/3/41 104/3/41 110/3/41 111/3/41
f 103/3/42 102/3/42 108/3/42 109/3/42
f 83/3/43 107/3/43 113/3/43
f 106/3/44 105/3/44 111/3/44 112/3/44
f 104/3/45 103/3/45 109/3/45 110/3/45
f 102/3/46 80/3/46 108/3/46
f 109/3/47 108/3/47 114/3/47 115/3/47
f 83/3/48 113/3/48 119/3/48
f 112/3/49 111/3/49 117/3/49 118/3/49
f 110/3/50 109/3/50 115/3/50 116/3/50
f 108/3/51 80/3/51 114/3/51
f 113/3/52 112/3/52 118/3/52 119/3/52
f 111/3/53 110/3/53 116/3/53 117/3/53
f 83/3/54 119/3/54 125/3/54
f 118/3/55 117/3/55 123/3/55 124/3/55
f 116/3/56 115/3/56 121/3/56 122/3/56
f 114/3/57 80/3/57 120/3/57
f 119/3/58 118/3/58 124/3/58 125/3/58
f 117/3/59 116/3/59 122/3/59 123/3/59
f 115/3/60 114/3/60 120/3/60 121/3/60
f 124/3/61 123/3/61 129/3/61 130/3/61
f 122/3/62 121/3/62 127/3/62 128/3/62
f 120/3/63 80/3/63 126/3/63
f 125/3/64 124/3/64 130/3/64 131/3/64
f 123/3/1 122/3/1 128/3/1 129/3/1
f 121/3/65 120/3/65 126/3/65 127/3/65
f 83/3/66 125/3/66 131/3/66
f 126/3/67 80/3/67 132/3/67
f 131/3/68 130/3/68 136/3/68 137/3/68
f 129/3/69 128/3/69 134/3/69 135/3/69
f 127/3/70 126/3/70 132/3/70 133/3/70
f 83/3/71 131/3/71 137/3/71
f 130/3/72 129/3/72 135/3/72 136/3/72
f 128/3/73 127/3/73 133/3/73 134/3/73
f 137/3/74 136/3/74 141/3/74 82/3/74
f 135/3/75 134/3/75 139/3/75 140/3/75
f 133/3/76 132/3/76 81/3/76 138/3/76
f 83/3/77 137/3/77 82/3/77
f 136/3/78 135/3/78 140/3/78 141/3/78
f 134/3/79 133/3/79 138/3/79 139/3/79
f 132/3/80 80/3/80 81/3/80
f 142/3/1 143/3/1 145/3/1 144/3/1
f 144/3/2 145/3/2 149/3/2 148/3/2
f 148/3/3 149/3/3 147/3/3 146/3/3
f 146/3/4 147/3/4 143/3/4 142/3/4
f 144/3/5 148/3/5 146/3/5 142/3/5
f 149/3/6 145/3/6 143/3/6 147/3/6
f 150/3/1 151/3/1 153/3/1 152/3/1
f 152/3/2 153/3/2 157/3/2 156/3/2
f 156/3/3 157/3/3 155/3/3 154/3/3
f 154/3/4 155/3/4 151/3/4 150/3/4
f 152/3/5 156/3/5 154/3/5 150/3/5
f 157/3/6 153/3/6 151/3/6 155/3/6
f 158/3/1 159/3/1 161/3/1 160/3/1
f 160/3/2 161/3/2 165/3/2 164/3/2
f 164/3/3 165/3/3 163/3/3 162/3/3
f 162/3/4 163/3/4 159/3/4 158/3/4
f 160/3/5 164/3/5 162/3/5 158/3/5
f 165/3/6 161/3/6 159/3/6 163/3/6
f 166/3/81 167/3/81 169/3/81 168/3/81
f 168/3/5 169/3/5 171/3/5 170/3/5
f 170/3/82 171/3/82 173/3/82 172/3/82
f 172/3/83 173/3/83 175/3/83 174/3/83
f 169/3/84 167/3/84 177/3/84 175/3/84 173/3/84 171/3/84
f 174/3/6 175/3/6 177/3/6 176/3/6
f 176/3/85 177/3/85 167/3/85 166/3/85
f 166/3/86 168/3/86 170/3/86 172/3/86 174/3/86 176/3/86
f 178/3/87 179/3/87 181/3/87 180/3/87
f 180/3/5 181/3/5 183/3/5 182/3/5
f 182/3/88 183/3/88 185/3/88 184/3/88
f 184/3/89 185/3/89 187/3/89 186/3/89
f 181/3/90 179/3/90 189/3/90 187/3/90 185/3/90 183/3/90
f 186/3/6 187/3/6 189/3/6 188/3/6
f 188/3/91 189/3/91 179/3/91 178/3/91
f 178/3/92 180/3/92 182/3/92 184/3/92 186/3/92 188/3/92
