# Blender 5.2.0 LTS
# www.blender.org
mtllib aldrich_plague_mask.mtl
o aldrich_plague_mask
v -0.000000 0.133000 -0.073000
v -0.000000 0.125540 -0.055779
v -0.000000 0.072503 -0.031425
v -0.000000 0.035000 -0.028000
v -0.000000 -0.002503 -0.031425
v -0.000000 -0.055540 -0.055779
v -0.000000 -0.063000 -0.073000
v -0.015276 0.125540 -0.057485
v -0.028226 0.104296 -0.044331
v -0.036879 0.072503 -0.035543
v -0.039917 0.035000 -0.032456
v -0.036879 -0.002503 -0.035543
v -0.028226 -0.034296 -0.044331
v -0.015276 -0.055540 -0.057485
v -0.027526 0.125540 -0.062263
v -0.050861 0.104296 -0.053161
v -0.066453 0.072503 -0.047079
v -0.071929 0.035000 -0.044943
v -0.066453 -0.002503 -0.047079
v -0.050861 -0.034296 -0.053161
v -0.027526 -0.055540 -0.062263
v -0.034324 0.125540 -0.069168
v -0.063423 0.104296 -0.065919
v -0.082866 0.072503 -0.063749
v -0.089693 0.035000 -0.062987
v -0.082866 -0.002503 -0.063749
v -0.063423 -0.034296 -0.065919
v -0.034324 -0.055540 -0.069168
v -0.034324 0.125540 -0.076832
v -0.063423 0.104296 -0.080081
v -0.082866 0.072503 -0.082251
v -0.089693 0.035000 -0.083013
v -0.082866 -0.002503 -0.082251
v -0.063423 -0.034296 -0.080081
v -0.034324 -0.055540 -0.076832
v -0.027526 0.125540 -0.083737
v -0.050861 0.104296 -0.092839
v -0.066453 0.072503 -0.098921
v -0.071928 0.035000 -0.101057
v -0.066453 -0.002503 -0.098921
v -0.050861 -0.034296 -0.092839
v -0.027526 -0.055540 -0.083737
v -0.015276 0.125540 -0.088515
v -0.028226 0.104296 -0.101669
v -0.036879 0.072503 -0.110457
v -0.039917 0.035000 -0.113544
v -0.036879 -0.002503 -0.110457
v -0.028226 -0.034296 -0.101669
v -0.015276 -0.055540 -0.088515
v 0.000000 0.125540 -0.090221
v 0.000000 0.104296 -0.104820
v 0.000000 0.072503 -0.114575
v 0.000000 0.035000 -0.118000
v 0.000000 -0.002503 -0.114575
v 0.000000 -0.034296 -0.104820
v 0.000000 -0.055540 -0.090221
v 0.015276 0.125540 -0.088515
v 0.028226 0.104296 -0.101669
v 0.036879 0.072503 -0.110457
v 0.039917 0.035000 -0.113544
v 0.036879 -0.002503 -0.110457
v 0.028226 -0.034296 -0.101669
v 0.015276 -0.055540 -0.088515
v 0.027526 0.125540 -0.083737
v 0.050861 0.104296 -0.092839
v 0.066453 0.072503 -0.098921
v 0.071928 0.035000 -0.101057
v 0.066453 -0.002503 -0.098921
v 0.050861 -0.034296 -0.092839
v 0.027526 -0.055540 -0.083737
v 0.034324 0.125540 -0.076832
v 0.063423 0.104296 -0.080081
v 0.082866 0.072503 -0.082251
v 0.089693 0.035000 -0.083013
v 0.082866 -0.002503 -0.082251
v 0.063423 -0.034296 -0.080081
v 0.034324 -0.055540 -0.076832
v 0.034324 0.125540 -0.069168
v 0.063423 0.104296 -0.065919
v 0.082866 0.072503 -0.063749
v 0.089693 0.035000 -0.062987
v 0.082866 -0.002503 -0.063749
v 0.063423 -0.034296 -0.065919
v 0.034324 -0.055540 -0.069168
v 0.027526 0.125540 -0.062263
v 0.050861 0.104296 -0.053161
v 0.066453 0.072503 -0.047079
v 0.071928 0.035000 -0.044943
v 0.066453 -0.002503 -0.047079
v 0.050861 -0.034296 -0.053161
v 0.027526 -0.055540 -0.062263
v 0.015276 0.125540 -0.057485
v 0.028226 0.104296 -0.044331
v 0.036879 0.072503 -0.035543
v 0.039917 0.035000 -0.032456
v 0.036879 -0.002503 -0.035543
v 0.028226 -0.034296 -0.044331
v 0.015276 -0.055540 -0.057485
v -0.000000 0.104296 -0.041180
v -0.000000 -0.034296 -0.041180
v -0.104000 0.080000 -0.005000
v -0.098000 0.087000 -0.005000
v -0.092000 0.080000 -0.005000
v -0.098000 0.073000 -0.005000
v -0.096083 0.080000 0.039575
v -0.090540 0.087000 0.037003
v -0.084997 0.080000 0.034432
v -0.090540 0.073000 0.037003
v -0.073539 0.080000 0.077364
v -0.069296 0.087000 0.072612
v -0.065054 0.080000 0.067860
v -0.069296 0.073000 0.072612
v -0.039799 0.080000 0.102613
v -0.037503 0.087000 0.096405
v -0.035207 0.080000 0.090197
v -0.037503 0.073000 0.096405
v 0.000000 0.080000 0.111480
v 0.000000 0.087000 0.104760
v 0.000000 0.080000 0.098040
v 0.000000 0.073000 0.104760
v 0.039799 0.080000 0.102613
v 0.037503 0.087000 0.096405
v 0.035207 0.080000 0.090197
v 0.037503 0.073000 0.096405
v 0.073539 0.080000 0.077364
v 0.069296 0.087000 0.072612
v 0.065054 0.080000 0.067860
v 0.069296 0.073000 0.072612
v 0.096083 0.080000 0.039575
v 0.090540 0.087000 0.037003
v 0.084997 0.080000 0.034432
v 0.090540 0.073000 0.037003
v 0.104000 0.080000 -0.005000
v 0.098000 0.087000 -0.005000
v 0.092000 0.080000 -0.005000
v 0.098000 0.073000 -0.005000
v 0.096083 0.080000 -0.049575
v 0.090540 0.087000 -0.047003
v 0.084997 0.080000 -0.044432
v 0.090540 0.073000 -0.047003
v 0.073539 0.080000 -0.087364
v 0.069296 0.087000 -0.082612
v 0.065054 0.080000 -0.077860
v 0.069296 0.073000 -0.082612
v 0.039799 0.080000 -0.112613
v 0.037503 0.087000 -0.106405
v 0.035207 0.080000 -0.100197
v 0.037503 0.073000 -0.106405
v -0.000000 0.080000 -0.121480
v -0.000000 0.087000 -0.114760
v -0.000000 0.080000 -0.108040
v -0.000000 0.073000 -0.114760
v -0.039799 0.080000 -0.112613
v -0.037503 0.087000 -0.106405
v -0.035207 0.080000 -0.100197
v -0.037503 0.073000 -0.106405
v -0.073539 0.080000 -0.087364
v -0.069296 0.087000 -0.082612
v -0.065054 0.080000 -0.077860
v -0.069296 0.073000 -0.082612
v -0.096083 0.080000 -0.049575
v -0.090540 0.087000 -0.047003
v -0.084997 0.080000 -0.044432
v -0.090540 0.073000 -0.047003
v -0.000000 0.064667 -0.119707
v -0.000000 -0.017378 -0.294042
v -0.016505 0.058046 -0.117853
v -0.001834 -0.018113 -0.293836
v -0.026706 0.040713 -0.113000
v -0.002967 -0.020039 -0.293296
v -0.026706 0.019287 -0.107000
v -0.002967 -0.022420 -0.292630
v -0.016505 0.001954 -0.102147
v -0.001834 -0.024346 -0.292091
v -0.000000 -0.004667 -0.100293
v -0.000000 -0.025082 -0.291885
v 0.016505 0.001954 -0.102147
v 0.001834 -0.024346 -0.292091
v 0.026706 0.019287 -0.107000
v 0.002967 -0.022420 -0.292630
v 0.026706 0.040713 -0.113000
v 0.002967 -0.020039 -0.293296
v 0.016505 0.058046 -0.117853
v 0.001834 -0.018113 -0.293836
v -0.000000 0.069468 -0.113219
v -0.000000 0.013608 -0.252660
v -0.008660 0.064734 -0.111610
v -0.001732 0.012661 -0.252338
v -0.008660 0.055266 -0.108390
v -0.001732 0.010768 -0.251694
v -0.000000 0.050532 -0.106781
v -0.000000 0.009821 -0.251372
v 0.008660 0.055266 -0.108390
v 0.001732 0.010768 -0.251694
v 0.008660 0.064734 -0.111610
v 0.001732 0.012661 -0.252338
v 0.042000 0.094000 -0.115000
v 0.042000 0.094000 -0.127000
v 0.030000 0.090785 -0.115000
v 0.030000 0.090785 -0.127000
v 0.021215 0.082000 -0.115000
v 0.021215 0.082000 -0.127000
v 0.018000 0.070000 -0.115000
v 0.018000 0.070000 -0.127000
v 0.021215 0.058000 -0.115000
v 0.021215 0.058000 -0.127000
v 0.030000 0.049215 -0.115000
v 0.030000 0.049215 -0.127000
v 0.042000 0.046000 -0.115000
v 0.042000 0.046000 -0.127000
v 0.054000 0.049215 -0.115000
v 0.054000 0.049215 -0.127000
v 0.062785 0.058000 -0.115000
v 0.062785 0.058000 -0.127000
v 0.066000 0.070000 -0.115000
v 0.066000 0.070000 -0.127000
v 0.062785 0.082000 -0.115000
v 0.062785 0.082000 -0.127000
v 0.054000 0.090785 -0.115000
v 0.054000 0.090785 -0.127000
v -0.042000 0.094000 -0.115000
v -0.042000 0.094000 -0.127000
v -0.054000 0.090785 -0.115000
v -0.054000 0.090785 -0.127000
v -0.062785 0.082000 -0.115000
v -0.062785 0.082000 -0.127000
v -0.066000 0.070000 -0.115000
v -0.066000 0.070000 -0.127000
v -0.062785 0.058000 -0.115000
v -0.062785 0.058000 -0.127000
v -0.054000 0.049215 -0.115000
v -0.054000 0.049215 -0.127000
v -0.042000 0.046000 -0.115000
v -0.042000 0.046000 -0.127000
v -0.030000 0.049215 -0.115000
v -0.030000 0.049215 -0.127000
v -0.021215 0.058000 -0.115000
v -0.021215 0.058000 -0.127000
v -0.018000 0.070000 -0.115000
v -0.018000 0.070000 -0.127000
v -0.021215 0.082000 -0.115000
v -0.021215 0.082000 -0.127000
v -0.030000 0.090785 -0.115000
v -0.030000 0.090785 -0.127000
v 0.010500 0.070000 -0.125000
v 0.016000 0.070000 -0.130500
v 0.021500 0.070000 -0.125000
v 0.016000 0.070000 -0.119500
v 0.014720 0.085750 -0.125000
v 0.019483 0.083000 -0.130500
v 0.024246 0.080250 -0.125000
v 0.019483 0.083000 -0.119500
v 0.026250 0.097280 -0.125000
v 0.029000 0.092517 -0.130500
v 0.031750 0.087754 -0.125000
v 0.029000 0.092517 -0.119500
v 0.042000 0.101500 -0.125000
v 0.042000 0.096000 -0.130500
v 0.042000 0.090500 -0.125000
v 0.042000 0.096000 -0.119500
v 0.057750 0.097280 -0.125000
v 0.055000 0.092517 -0.130500
v 0.052250 0.087754 -0.125000
v 0.055000 0.092517 -0.119500
v 0.069280 0.085750 -0.125000
v 0.064517 0.083000 -0.130500
v 0.059754 0.080250 -0.125000
v 0.064517 0.083000 -0.119500
v 0.073500 0.070000 -0.125000
v 0.068000 0.070000 -0.130500
v 0.062500 0.070000 -0.125000
v 0.068000 0.070000 -0.119500
v 0.069280 0.054250 -0.125000
v 0.064517 0.057000 -0.130500
v 0.059754 0.059750 -0.125000
v 0.064517 0.057000 -0.119500
v 0.057750 0.042720 -0.125000
v 0.055000 0.047483 -0.130500
v 0.052250 0.052246 -0.125000
v 0.055000 0.047483 -0.119500
v 0.042000 0.038500 -0.125000
v 0.042000 0.044000 -0.130500
v 0.042000 0.049500 -0.125000
v 0.042000 0.044000 -0.119500
v 0.026250 0.042720 -0.125000
v 0.029000 0.047483 -0.130500
v 0.031750 0.052246 -0.125000
v 0.029000 0.047483 -0.119500
v 0.014720 0.054250 -0.125000
v 0.019483 0.057000 -0.130500
v 0.024246 0.059750 -0.125000
v 0.019483 0.057000 -0.119500
v -0.073500 0.070000 -0.125000
v -0.068000 0.070000 -0.130500
v -0.062500 0.070000 -0.125000
v -0.068000 0.070000 -0.119500
v -0.069280 0.085750 -0.125000
v -0.064517 0.083000 -0.130500
v -0.059754 0.080250 -0.125000
v -0.064517 0.083000 -0.119500
v -0.057750 0.097280 -0.125000
v -0.055000 0.092517 -0.130500
v -0.052250 0.087754 -0.125000
v -0.055000 0.092517 -0.119500
v -0.042000 0.101500 -0.125000
v -0.042000 0.096000 -0.130500
v -0.042000 0.090500 -0.125000
v -0.042000 0.096000 -0.119500
v -0.026250 0.097280 -0.125000
v -0.029000 0.092517 -0.130500
v -0.031750 0.087754 -0.125000
v -0.029000 0.092517 -0.119500
v -0.014720 0.085750 -0.125000
v -0.019483 0.083000 -0.130500
v -0.024246 0.080250 -0.125000
v -0.019483 0.083000 -0.119500
v -0.010500 0.070000 -0.125000
v -0.016000 0.070000 -0.130500
v -0.021500 0.070000 -0.125000
v -0.016000 0.070000 -0.119500
v -0.014720 0.054250 -0.125000
v -0.019483 0.057000 -0.130500
v -0.024246 0.059750 -0.125000
v -0.019483 0.057000 -0.119500
v -0.026250 0.042720 -0.125000
v -0.029000 0.047483 -0.130500
v -0.031750 0.052246 -0.125000
v -0.029000 0.047483 -0.119500
v -0.042000 0.038500 -0.125000
v -0.042000 0.044000 -0.130500
v -0.042000 0.049500 -0.125000
v -0.042000 0.044000 -0.119500
v -0.057750 0.042720 -0.125000
v -0.055000 0.047483 -0.130500
v -0.052250 0.052246 -0.125000
v -0.055000 0.047483 -0.119500
v -0.069280 0.054250 -0.125000
v -0.064517 0.057000 -0.130500
v -0.059754 0.059750 -0.125000
v -0.064517 0.057000 -0.119500
vn -0.0916 0.5640 0.8207
vn -0.0916 -0.5640 0.8207
vn -0.1105 -0.0904 0.9898
vn -0.1061 0.2917 0.9506
vn -0.0443 0.9167 0.3971
vn -0.0443 -0.9167 0.3971
vn -0.1061 -0.2917 0.9506
vn -0.1105 0.0904 0.9898
vn -0.3614 -0.1055 0.9264
vn -0.3423 0.3357 0.8776
vn -0.1270 0.9370 0.3255
vn -0.1270 -0.9370 0.3255
vn -0.3423 -0.3357 0.8776
vn -0.3614 0.1055 0.9264
vn -0.2840 0.6239 0.7281
vn -0.2840 -0.6239 0.7281
vn -0.1888 -0.9643 0.1859
vn -0.6415 -0.4354 0.6316
vn -0.7053 0.1425 0.6944
vn -0.4833 0.7348 0.4759
vn -0.4833 -0.7348 0.4759
vn -0.7053 -0.1425 0.6944
vn -0.6415 0.4354 0.6316
vn -0.1888 0.9643 0.1859
vn -0.9838 0.1791 -0.0000
vn -0.5896 0.8077 -0.0000
vn -0.5896 -0.8077 -0.0000
vn -0.9838 -0.1791 -0.0000
vn -0.8531 0.5217 -0.0000
vn -0.2124 0.9772 -0.0000
vn -0.2124 -0.9772 -0.0000
vn -0.8531 -0.5217 -0.0000
vn -0.4833 -0.7348 -0.4759
vn -0.7053 -0.1425 -0.6944
vn -0.6415 0.4354 -0.6316
vn -0.1888 0.9643 -0.1859
vn -0.1888 -0.9643 -0.1859
vn -0.6415 -0.4354 -0.6316
vn -0.7053 0.1425 -0.6944
vn -0.4833 0.7348 -0.4759
vn -0.3423 0.3357 -0.8776
vn -0.1270 0.9370 -0.3255
vn -0.1270 -0.9370 -0.3255
vn -0.3423 -0.3357 -0.8776
vn -0.3614 0.1055 -0.9264
vn -0.2840 0.6239 -0.7281
vn -0.2840 -0.6239 -0.7281
vn -0.3614 -0.1055 -0.9264
vn -0.0443 -0.9167 -0.3971
vn -0.1061 -0.2917 -0.9506
vn -0.1105 0.0904 -0.9898
vn -0.0916 0.5640 -0.8207
vn -0.0916 -0.5640 -0.8207
vn -0.1105 -0.0904 -0.9898
vn -0.1061 0.2917 -0.9506
vn -0.0443 0.9167 -0.3971
vn 0.0916 0.5640 -0.8207
vn 0.0916 -0.5640 -0.8207
vn 0.1105 -0.0904 -0.9898
vn 0.1061 0.2917 -0.9506
vn 0.0443 0.9167 -0.3971
vn 0.0443 -0.9167 -0.3971
vn 0.1061 -0.2917 -0.9506
vn 0.1105 0.0904 -0.9898
vn 0.2840 -0.6239 -0.7281
vn 0.3614 -0.1055 -0.9264
vn 0.3423 0.3357 -0.8776
vn 0.1270 0.9370 -0.3255
vn 0.1270 -0.9370 -0.3255
vn 0.3423 -0.3357 -0.8776
vn 0.3614 0.1055 -0.9264
vn 0.2840 0.6239 -0.7281
vn 0.1888 0.9643 -0.1859
vn 0.1888 -0.9643 -0.1859
vn 0.6415 -0.4354 -0.6316
vn 0.7053 0.1425 -0.6944
vn 0.4833 0.7348 -0.4759
vn 0.4833 -0.7348 -0.4759
vn 0.7053 -0.1425 -0.6944
vn 0.6415 0.4354 -0.6316
vn 0.8531 -0.5217 -0.0000
vn 0.9838 0.1791 -0.0000
vn 0.5896 0.8077 -0.0000
vn 0.5896 -0.8077 -0.0000
vn 0.9838 -0.1791 -0.0000
vn 0.8531 0.5217 -0.0000
vn 0.2124 0.9772 -0.0000
vn 0.2124 -0.9772 -0.0000
vn 0.4833 -0.7348 0.4759
vn 0.7053 -0.1425 0.6944
vn 0.6415 0.4354 0.6316
vn 0.1888 0.9643 0.1859
vn 0.1888 -0.9643 0.1859
vn 0.6415 -0.4354 0.6316
vn 0.7053 0.1425 0.6944
vn 0.4833 0.7348 0.4759
vn 0.3614 -0.1055 0.9264
vn 0.3423 0.3357 0.8776
vn 0.1270 0.9370 0.3255
vn 0.1270 -0.9370 0.3255
vn 0.3423 -0.3357 0.8776
vn 0.3614 0.1055 0.9264
vn 0.2840 0.6239 0.7281
vn 0.2840 -0.6239 0.7281
vn 0.0443 -0.9167 0.3971
vn 0.1061 -0.2917 0.9506
vn 0.1105 0.0904 0.9898
vn 0.0916 0.5640 0.8207
vn 0.0916 -0.5640 0.8207
vn 0.1105 -0.0904 0.9898
vn 0.1061 0.2917 0.9506
vn 0.0443 0.9167 0.3971
vn -0.7524 0.6450 0.1336
vn 0.7524 0.6450 -0.1336
vn 0.7524 -0.6450 -0.1336
vn -0.7524 -0.6450 0.1336
vn -0.6485 0.6556 0.3869
vn 0.6485 0.6556 -0.3869
vn 0.6485 -0.6556 -0.3869
vn -0.6485 -0.6556 0.3869
vn -0.4439 0.6717 0.5931
vn 0.4439 0.6717 -0.5931
vn 0.4439 -0.6717 -0.5931
vn -0.4439 -0.6717 0.5931
vn -0.1587 0.6838 0.7122
vn 0.1587 0.6838 -0.7122
vn 0.1587 -0.6838 -0.7122
vn -0.1587 -0.6838 0.7122
vn 0.1587 0.6838 0.7122
vn -0.1587 0.6838 -0.7122
vn -0.1587 -0.6838 -0.7122
vn 0.1587 -0.6838 0.7122
vn 0.4439 0.6717 0.5931
vn -0.4439 0.6717 -0.5931
vn -0.4439 -0.6717 -0.5931
vn 0.4439 -0.6717 0.5931
vn 0.6485 0.6556 0.3869
vn -0.6485 0.6556 -0.3869
vn -0.6485 -0.6556 -0.3869
vn 0.6485 -0.6556 0.3869
vn 0.7524 0.6450 0.1336
vn -0.7524 0.6450 -0.1336
vn -0.7524 -0.6450 -0.1336
vn 0.7524 -0.6450 0.1336
vn -0.3800 0.8369 -0.3939
vn -0.8623 0.4346 -0.2600
vn -0.9923 -0.0334 -0.1194
vn -0.8623 -0.5065 0.0035
vn -0.3800 -0.9198 0.0980
vn 0.3800 -0.9198 0.0980
vn 0.8623 -0.5065 0.0035
vn 0.9923 -0.0334 -0.1194
vn -0.0000 -0.2696 -0.9630
vn 0.8623 0.4346 -0.2600
vn 0.3800 0.8369 -0.3939
vn -0.0000 0.2696 0.9630
vn -0.4995 0.8042 -0.3222
vn -0.9989 -0.0149 -0.0437
vn -0.4995 -0.8339 0.2348
vn 0.4995 -0.8339 0.2348
vn -0.0000 -0.3219 -0.9468
vn 0.9989 -0.0149 -0.0437
vn 0.4995 0.8042 -0.3222
vn -0.0000 0.3219 0.9468
vn -0.2588 0.9659 -0.0000
vn -0.7071 0.7071 -0.0000
vn -0.9659 0.2588 -0.0000
vn -0.9659 -0.2588 -0.0000
vn -0.7071 -0.7071 -0.0000
vn -0.2588 -0.9659 -0.0000
vn 0.2588 -0.9659 -0.0000
vn 0.7071 -0.7071 -0.0000
vn 0.9659 -0.2588 -0.0000
vn 0.9659 0.2588 -0.0000
vn -0.0000 -0.0000 -1.0000
vn 0.7071 0.7071 -0.0000
vn 0.2588 0.9659 -0.0000
vn -0.0000 -0.0000 1.0000
vn -0.6947 0.1862 -0.6947
vn 0.6947 -0.1862 -0.6947
vn 0.6947 -0.1862 0.6947
vn -0.6947 0.1862 0.6947
vn -0.5086 0.5086 -0.6947
vn 0.5086 -0.5086 -0.6947
vn 0.5086 -0.5086 0.6947
vn -0.5086 0.5086 0.6947
vn -0.1862 0.6947 -0.6947
vn 0.1862 -0.6947 -0.6947
vn 0.1862 -0.6947 0.6947
vn -0.1862 0.6947 0.6947
vn 0.1862 0.6947 -0.6947
vn -0.1862 -0.6947 -0.6947
vn -0.1862 -0.6947 0.6947
vn 0.1862 0.6947 0.6947
vn 0.5086 0.5086 -0.6947
vn -0.5086 -0.5086 -0.6947
vn -0.5086 -0.5086 0.6947
vn 0.5086 0.5086 0.6947
vn 0.6947 0.1862 -0.6947
vn -0.6947 -0.1862 -0.6947
vn -0.6947 -0.1862 0.6947
vn 0.6947 0.1862 0.6947
vt 0.750000 0.750000
vt 0.250000 0.250000
vt 0.250000 0.750000
vt 0.750000 0.250000
s 0
usemtl leather
f 99/1/1 2/1/1 8/1/1 9/1/1
f 6/1/2 100/1/2 13/1/2 14/1/2
f 5/1/3 4/1/3 11/1/3 12/1/3
f 3/1/4 99/1/4 9/1/4 10/1/4
f 2/1/5 1/1/5 8/1/5
f 7/1/6 6/1/6 14/1/6
f 100/1/7 5/1/7 12/1/7 13/1/7
f 4/1/8 3/1/8 10/1/8 11/1/8
f 12/1/9 11/1/9 18/1/9 19/1/9
f 10/1/10 9/1/10 16/1/10 17/1/10
f 8/1/11 1/1/11 15/1/11
f 7/1/12 14/1/12 21/1/12
f 13/1/13 12/1/13 19/1/13 20/1/13
f 11/1/14 10/1/14 17/1/14 18/1/14
f 9/1/15 8/1/15 15/1/15 16/1/15
f 14/1/16 13/1/16 20/1/16 21/1/16
f 7/1/17 21/1/17 28/1/17
f 20/1/18 19/1/18 26/1/18 27/1/18
f 18/1/19 17/1/19 24/1/19 25/1/19
f 16/1/20 15/1/20 22/1/20 23/1/20
f 21/1/21 20/1/21 27/1/21 28/1/21
f 19/1/22 18/1/22 25/1/22 26/1/22
f 17/1/23 16/1/23 23/1/23 24/1/23
f 15/1/24 1/1/24 22/1/24
f 25/1/25 24/1/25 31/1/25 32/1/25
f 23/1/26 22/1/26 29/1/26 30/1/26
f 28/1/27 27/1/27 34/1/27 35/1/27
f 26/1/28 25/1/28 32/1/28 33/1/28
f 24/1/29 23/1/29 30/1/29 31/1/29
f 22/1/30 1/1/30 29/1/30
f 7/1/31 28/1/31 35/1/31
f 27/1/32 26/1/32 33/1/32 34/1/32
f 35/1/33 34/1/33 41/1/33 42/1/33
f 33/1/34 32/1/34 39/1/34 40/1/34
f 31/1/35 30/1/35 37/1/35 38/1/35
f 29/1/36 1/1/36 36/1/36
f 7/1/37 35/1/37 42/1/37
f 34/1/38 33/1/38 40/1/38 41/1/38
f 32/1/39 31/1/39 38/1/39 39/1/39
f 30/1/40 29/1/40 36/1/40 37/1/40
f 38/1/41 37/1/41 44/1/41 45/1/41
f 36/1/42 1/1/42 43/1/42
f 7/1/43 42/1/43 49/1/43
f 41/1/44 40/1/44 47/1/44 48/1/44
f 39/1/45 38/1/45 45/1/45 46/1/45
f 37/1/46 36/1/46 43/1/46 44/1/46
f 42/1/47 41/1/47 48/1/47 49/1/47
f 40/1/48 39/1/48 46/1/48 47/1/48
f 7/1/49 49/1/49 56/1/49
f 48/1/50 47/1/50 54/1/50 55/1/50
f 46/1/51 45/1/51 52/1/51 53/1/51
f 44/1/52 43/1/52 50/1/52 51/1/52
f 49/1/53 48/1/53 55/1/53 56/1/53
f 47/1/54 46/1/54 53/1/54 54/1/54
f 45/1/55 44/1/55 51/1/55 52/1/55
f 43/1/56 1/1/56 50/1/56
f 51/1/57 50/1/57 57/1/57 58/1/57
f 56/1/58 55/1/58 62/1/58 63/1/58
f 54/1/59 53/1/59 60/1/59 61/1/59
f 52/1/60 51/1/60 58/1/60 59/1/60
f 50/1/61 1/1/61 57/1/61
f 7/1/62 56/1/62 63/1/62
f 55/1/63 54/1/63 61/1/63 62/1/63
f 53/1/64 52/1/64 59/1/64 60/1/64
f 63/1/65 62/1/65 69/1/65 70/1/65
f 61/1/66 60/1/66 67/1/66 68/1/66
f 59/1/67 58/1/67 65/1/67 66/1/67
f 57/1/68 1/1/68 64/1/68
f 7/1/69 63/1/69 70/1/69
f 62/1/70 61/1/70 68/1/70 69/1/70
f 60/1/71 59/1/71 66/1/71 67/1/71
f 58/1/72 57/1/72 64/1/72 65/1/72
f 64/1/73 1/1/73 71/1/73
f 7/1/74 70/1/74 77/1/74
f 69/1/75 68/1/75 75/1/75 76/1/75
f 67/1/76 66/1/76 73/1/76 74/1/76
f 65/1/77 64/1/77 71/1/77 72/1/77
f 70/1/78 69/1/78 76/1/78 77/1/78
f 68/1/79 67/1/79 74/1/79 75/1/79
f 66/1/80 65/1/80 72/1/80 73/1/80
f 76/1/81 75/1/81 82/1/81 83/1/81
f 74/1/82 73/1/82 80/1/82 81/1/82
f 72/1/83 71/1/83 78/1/83 79/1/83
f 77/1/84 76/1/84 83/1/84 84/1/84
f 75/1/85 74/1/85 81/1/85 82/1/85
f 73/1/86 72/1/86 79/1/86 80/1/86
f 71/1/87 1/1/87 78/1/87
f 7/1/88 77/1/88 84/1/88
f 84/1/89 83/1/89 90/1/89 91/1/89
f 82/1/90 81/1/90 88/1/90 89/1/90
f 80/1/91 79/1/91 86/1/91 87/1/91
f 78/1/92 1/1/92 85/1/92
f 7/1/93 84/1/93 91/1/93
f 83/1/94 82/1/94 89/1/94 90/1/94
f 81/1/95 80/1/95 87/1/95 88/1/95
f 79/1/96 78/1/96 85/1/96 86/1/96
f 89/1/97 88/1/97 95/1/97 96/1/97
f 87/1/98 86/1/98 93/1/98 94/1/98
f 85/1/99 1/1/99 92/1/99
f 7/1/100 91/1/100 98/1/100
f 90/1/101 89/1/101 96/1/101 97/1/101
f 88/1/102 87/1/102 94/1/102 95/1/102
f 86/1/103 85/1/103 92/1/103 93/1/103
f 91/1/104 90/1/104 97/1/104 98/1/104
f 7/1/105 98/1/105 6/1/105
f 97/1/106 96/1/106 5/1/106 100/1/106
f 95/1/107 94/1/107 3/1/107 4/1/107
f 93/1/108 92/1/108 2/1/108 99/1/108
f 98/1/109 97/1/109 100/1/109 6/1/109
f 96/1/110 95/1/110 4/1/110 5/1/110
f 94/1/111 93/1/111 99/1/111 3/1/111
f 92/1/112 1/1/112 2/1/112
f 101/1/113 105/1/113 106/1/113 102/1/113
f 102/1/114 106/1/114 107/1/114 103/1/114
f 103/1/115 107/1/115 108/1/115 104/1/115
f 104/1/116 108/1/116 105/1/116 101/1/116
f 105/1/117 109/1/117 110/1/117 106/1/117
f 106/1/118 110/1/118 111/1/118 107/1/118
f 107/1/119 111/1/119 112/1/119 108/1/119
f 108/1/120 112/1/120 109/1/120 105/1/120
f 109/1/121 113/1/121 114/1/121 110/1/121
f 110/1/122 114/1/122 115/1/122 111/1/122
f 111/1/123 115/1/123 116/1/123 112/1/123
f 112/1/124 116/1/124 113/1/124 109/1/124
f 113/1/125 117/1/125 118/1/125 114/1/125
f 114/1/126 118/1/126 119/1/126 115/1/126
f 115/1/127 119/1/127 120/1/127 116/1/127
f 116/1/128 120/1/128 117/1/128 113/1/128
f 117/1/129 121/1/129 122/1/129 118/1/129
f 118/1/130 122/1/130 123/1/130 119/1/130
f 119/1/131 123/1/131 124/1/131 120/1/131
f 120/1/132 124/1/132 121/1/132 117/1/132
f 121/1/133 125/1/133 126/1/133 122/1/133
f 122/1/134 126/1/134 127/1/134 123/1/134
f 123/1/135 127/1/135 128/1/135 124/1/135
f 124/1/136 128/1/136 125/1/136 121/1/136
f 125/1/137 129/1/137 130/1/137 126/1/137
f 126/1/138 130/1/138 131/1/138 127/1/138
f 127/1/139 131/1/139 132/1/139 128/1/139
f 128/1/140 132/1/140 129/1/140 125/1/140
f 129/1/141 133/1/141 134/1/141 130/1/141
f 130/1/142 134/1/142 135/1/142 131/1/142
f 131/1/143 135/1/143 136/1/143 132/1/143
f 132/1/144 136/1/144 133/1/144 129/1/144
f 133/1/114 137/1/114 138/1/114 134/1/114
f 134/1/113 138/1/113 139/1/113 135/1/113
f 135/1/116 139/1/116 140/1/116 136/1/116
f 136/1/115 140/1/115 137/1/115 133/1/115
f 137/1/118 141/1/118 142/1/118 138/1/118
f 138/1/117 142/1/117 143/1/117 139/1/117
f 139/1/120 143/1/120 144/1/120 140/1/120
f 140/1/119 144/1/119 141/1/119 137/1/119
f 141/1/122 145/1/122 146/1/122 142/1/122
f 142/1/121 146/1/121 147/1/121 143/1/121
f 143/1/124 147/1/124 148/1/124 144/1/124
f 144/1/123 148/1/123 145/1/123 141/1/123
f 145/1/126 149/1/126 150/1/126 146/1/126
f 146/1/125 150/1/125 151/1/125 147/1/125
f 147/1/128 151/1/128 152/1/128 148/1/128
f 148/1/127 152/1/127 149/1/127 145/1/127
f 149/1/130 153/1/130 154/1/130 150/1/130
f 150/1/129 154/1/129 155/1/129 151/1/129
f 151/1/132 155/1/132 156/1/132 152/1/132
f 152/1/131 156/1/131 153/1/131 149/1/131
f 153/1/134 157/1/134 158/1/134 154/1/134
f 154/1/133 158/1/133 159/1/133 155/1/133
f 155/1/136 159/1/136 160/1/136 156/1/136
f 156/1/135 160/1/135 157/1/135 153/1/135
f 157/1/138 161/1/138 162/1/138 158/1/138
f 158/1/137 162/1/137 163/1/137 159/1/137
f 159/1/140 163/1/140 164/1/140 160/1/140
f 160/1/139 164/1/139 161/1/139 157/1/139
f 161/1/142 101/1/142 102/1/142 162/1/142
f 162/1/141 102/1/141 103/1/141 163/1/141
f 163/1/144 103/1/144 104/1/144 164/1/144
f 164/1/143 104/1/143 101/1/143 161/1/143
f 165/2/145 166/2/145 168/2/145 167/2/145
f 167/2/146 168/2/146 170/2/146 169/2/146
f 169/2/147 170/2/147 172/2/147 171/2/147
f 171/2/148 172/2/148 174/2/148 173/2/148
f 173/2/149 174/2/149 176/2/149 175/2/149
f 175/2/150 176/2/150 178/2/150 177/2/150
f 177/2/151 178/2/151 180/2/151 179/2/151
f 179/2/152 180/2/152 182/2/152 181/2/152
f 168/2/153 166/2/153 184/2/153 182/2/153 180/2/153 178/2/153 176/2/153 174/2/153 172/2/153 170/2/153
f 181/2/154 182/2/154 184/2/154 183/2/154
f 183/2/155 184/2/155 166/2/155 165/2/155
f 165/2/156 167/2/156 169/2/156 171/2/156 173/2/156 175/2/156 177/2/156 179/2/156 181/2/156 183/2/156
f 185/2/157 186/2/157 188/2/157 187/2/157
f 187/2/158 188/2/158 190/2/158 189/2/158
f 189/2/159 190/2/159 192/2/159 191/2/159
f 191/2/160 192/2/160 194/2/160 193/2/160
f 188/2/161 186/2/161 196/2/161 194/2/161 192/2/161 190/2/161
f 193/2/162 194/2/162 196/2/162 195/2/162
f 195/2/163 196/2/163 186/2/163 185/2/163
f 185/2/164 187/2/164 189/2/164 191/2/164 193/2/164 195/2/164
f 197/3/165 198/3/165 200/3/165 199/3/165
f 199/3/166 200/3/166 202/3/166 201/3/166
f 201/3/167 202/3/167 204/3/167 203/3/167
f 203/3/168 204/3/168 206/3/168 205/3/168
f 205/3/169 206/3/169 208/3/169 207/3/169
f 207/3/170 208/3/170 210/3/170 209/3/170
f 209/3/171 210/3/171 212/3/171 211/3/171
f 211/3/172 212/3/172 214/3/172 213/3/172
f 213/3/173 214/3/173 216/3/173 215/3/173
f 215/3/174 216/3/174 218/3/174 217/3/174
f 200/3/175 198/3/175 220/3/175 218/3/175 216/3/175 214/3/175 212/3/175 210/3/175 208/3/175 206/3/175 204/3/175 202/3/175
f 217/3/176 218/3/176 220/3/176 219/3/176
f 219/3/177 220/3/177 198/3/177 197/3/177
f 197/3/178 199/3/178 201/3/178 203/3/178 205/3/178 207/3/178 209/3/178 211/3/178 213/3/178 215/3/178 217/3/178 219/3/178
f 221/3/165 222/3/165 224/3/165 223/3/165
f 223/3/166 224/3/166 226/3/166 225/3/166
f 225/3/167 226/3/167 228/3/167 227/3/167
f 227/3/168 228/3/168 230/3/168 229/3/168
f 229/3/169 230/3/169 232/3/169 231/3/169
f 231/3/170 232/3/170 234/3/170 233/3/170
f 233/3/171 234/3/171 236/3/171 235/3/171
f 235/3/172 236/3/172 238/3/172 237/3/172
f 237/3/173 238/3/173 240/3/173 239/3/173
f 239/3/174 240/3/174 242/3/174 241/3/174
f 224/3/175 222/3/175 244/3/175 242/3/175 240/3/175 238/3/175 236/3/175 234/3/175 232/3/175 230/3/175 228/3/175 226/3/175
f 241/3/176 242/3/176 244/3/176 243/3/176
f 243/3/177 244/3/177 222/3/177 221/3/177
f 221/3/178 223/3/178 225/3/178 227/3/178 229/3/178 231/3/178 233/3/178 235/3/178 237/3/178 239/3/178 241/3/178 243/3/178
f 245/4/179 249/4/179 250/4/179 246/4/179
f 246/4/180 250/4/180 251/4/180 247/4/180
f 247/4/181 251/4/181 252/4/181 248/4/181
f 248/4/182 252/4/182 249/4/182 245/4/182
f 249/4/183 253/4/183 254/4/183 250/4/183
f 250/4/184 254/4/184 255/4/184 251/4/184
f 251/4/185 255/4/185 256/4/185 252/4/185
f 252/4/186 256/4/186 253/4/186 249/4/186
f 253/4/187 257/4/187 258/4/187 254/4/187
f 254/4/188 258/4/188 259/4/188 255/4/188
f 255/4/189 259/4/189 260/4/189 256/4/189
f 256/4/190 260/4/190 257/4/190 253/4/190
f 257/4/191 261/4/191 262/4/191 258/4/191
f 258/4/192 262/4/192 263/4/192 259/4/192
f 259/4/193 263/4/193 264/4/193 260/4/193
f 260/4/194 264/4/194 261/4/194 257/4/194
f 261/4/195 265/4/195 266/4/195 262/4/195
f 262/4/196 266/4/196 267/4/196 263/4/196
f 263/4/197 267/4/197 268/4/197 264/4/197
f 264/4/198 268/4/198 265/4/198 261/4/198
f 265/4/199 269/4/199 270/4/199 266/4/199
f 266/4/200 270/4/200 271/4/200 267/4/200
f 267/4/201 271/4/201 272/4/201 268/4/201
f 268/4/202 272/4/202 269/4/202 265/4/202
f 269/4/180 273/4/180 274/4/180 270/4/180
f 270/4/179 274/4/179 275/4/179 271/4/179
f 271/4/182 275/4/182 276/4/182 272/4/182
f 272/4/181 276/4/181 273/4/181 269/4/181
f 273/4/184 277/4/184 278/4/184 274/4/184
f 274/4/183 278/4/183 279/4/183 275/4/183
f 275/4/186 279/4/186 280/4/186 276/4/186
f 276/4/185 280/4/185 277/4/185 273/4/185
f 277/4/188 281/4/188 282/4/188 278/4/188
f 278/4/187 282/4/187 283/4/187 279/4/187
f 279/4/190 283/4/190 284/4/190 280/4/190
f 280/4/189 284/4/189 281/4/189 277/4/189
f 281/4/192 285/4/192 286/4/192 282/4/192
f 282/4/191 286/4/191 287/4/191 283/4/191
f 283/4/194 287/4/194 288/4/194 284/4/194
f 284/4/193 288/4/193 285/4/193 281/4/193
f 285/4/196 289/4/196 290/4/196 286/4/196
f 286/4/195 290/4/195 291/4/195 287/4/195
f 287/4/198 291/4/198 292/4/198 288/4/198
f 288/4/197 292/4/197 289/4/197 285/4/197
f 289/4/200 245/4/200 246/4/200 290/4/200
f 290/4/199 246/4/199 247/4/199 291/4/199
f 291/4/202 247/4/202 248/4/202 292/4/202
f 292/4/201 248/4/201 245/4/201 289/4/201
f 293/4/179 297/4/179 298/4/179 294/4/179
f 294/4/180 298/4/180 299/4/180 295/4/180
f 295/4/181 299/4/181 300/4/181 296/4/181
f 296/4/182 300/4/182 297/4/182 293/4/182
f 297/4/183 301/4/183 302/4/183 298/4/183
f 298/4/184 302/4/184 303/4/184 299/4/184
f 299/4/185 303/4/185 304/4/185 300/4/185
f 300/4/186 304/4/186 301/4/186 297/4/186
f 301/4/187 305/4/187 306/4/187 302/4/187
f 302/4/188 306/4/188 307/4/188 303/4/188
f 303/4/189 307/4/189 308/4/189 304/4/189
f 304/4/190 308/4/190 305/4/190 301/4/190
f 305/4/191 309/4/191 310/4/191 306/4/191
f 306/4/192 310/4/192 311/4/192 307/4/192
f 307/4/193 311/4/193 312/4/193 308/4/193
f 308/4/194 312/4/194 309/4/194 305/4/194
f 309/4/195 313/4/195 314/4/195 310/4/195
f 310/4/196 314/4/196 315/4/196 311/4/196
f 311/4/197 315/4/197 316/4/197 312/4/197
f 312/4/198 316/4/198 313/4/198 309/4/198
f 313/4/199 317/4/199 318/4/199 314/4/199
f 314/4/200 318/4/200 319/4/200 315/4/200
f 315/4/201 319/4/201 320/4/201 316/4/201
f 316/4/202 320/4/202 317/4/202 313/4/202
f 317/4/180 321/4/180 322/4/180 318/4/180
f 318/4/179 322/4/179 323/4/179 319/4/179
f 319/4/182 323/4/182 324/4/182 320/4/182
f 320/4/181 324/4/181 321/4/181 317/4/181
f 321/4/184 325/4/184 326/4/184 322/4/184
f 322/4/183 326/4/183 327/4/183 323/4/183
f 323/4/186 327/4/186 328/4/186 324/4/186
f 324/4/185 328/4/185 325/4/185 321/4/185
f 325/4/188 329/4/188 330/4/188 326/4/188
f 326/4/187 330/4/187 331/4/187 327/4/187
f 327/4/190 331/4/190 332/4/190 328/4/190
f 328/4/189 332/4/189 329/4/189 325/4/189
f 329/4/192 333/4/192 334/4/192 330/4/192
f 330/4/191 334/4/191 335/4/191 331/4/191
f 331/4/194 335/4/194 336/4/194 332/4/194
f 332/4/193 336/4/193 333/4/193 329/4/193
f 333/4/196 337/4/196 338/4/196 334/4/196
f 334/4/195 338/4/195 339/4/195 335/4/195
f 335/4/198 339/4/198 340/4/198 336/4/198
f 336/4/197 340/4/197 337/4/197 333/4/197
f 337/4/200 293/4/200 294/4/200 338/4/200
f 338/4/199 294/4/199 295/4/199 339/4/199
f 339/4/202 295/4/202 296/4/202 340/4/202
f 340/4/201 296/4/201 293/4/201 337/4/201
