# Blender 5.2.0 LTS
# www.blender.org
mtllib aldrich_veiled_mirror.mtl
o aldrich_veiled_mirror
v -0.067500 1.122000 0.400000
v -0.067500 2.402000 0.400000
v -0.067500 1.122000 -0.400000
v -0.067500 2.402000 -0.400000
v 0.002500 1.122000 0.400000
v 0.002500 2.402000 0.400000
v 0.002500 1.122000 -0.400000
v 0.002500 2.402000 -0.400000
v -0.067500 2.382000 0.150000
v -0.067500 2.542000 0.150000
v -0.067500 2.382000 -0.150000
v -0.067500 2.542000 -0.150000
v 0.002500 2.382000 0.150000
v 0.002500 2.542000 0.150000
v 0.002500 2.382000 -0.150000
v 0.002500 2.542000 -0.150000
v -0.002500 1.277000 0.340000
v -0.002500 1.266496 0.307672
v -0.002500 1.177504 0.307672
v -0.002500 1.167000 0.340000
v 0.020359 1.266496 0.317140
v 0.034487 1.238996 0.303013
v 0.034487 1.205004 0.303013
v 0.020359 1.177504 0.317140
v 0.029828 1.266496 0.340000
v 0.049808 1.238996 0.340000
v 0.049808 1.205004 0.340000
v 0.029828 1.177504 0.340000
v 0.020359 1.266496 0.362859
v 0.034487 1.238996 0.376987
v 0.034487 1.205004 0.376987
v 0.020359 1.177504 0.362859
v -0.002500 1.266496 0.372328
v -0.002500 1.238996 0.392308
v -0.002500 1.205004 0.392308
v -0.002500 1.177504 0.372328
v -0.025359 1.266496 0.362859
v -0.039487 1.238996 0.376987
v -0.039487 1.205004 0.376987
v -0.025359 1.177504 0.362859
v -0.034828 1.266496 0.340000
v -0.054808 1.238996 0.340000
v -0.054808 1.205004 0.340000
v -0.034828 1.177504 0.340000
v -0.025359 1.266496 0.317140
v -0.039487 1.238996 0.303013
v -0.039487 1.205004 0.303013
v -0.025359 1.177504 0.317140
v -0.002500 1.238996 0.287692
v -0.002500 1.205004 0.287692
v -0.002500 1.277000 -0.340000
v -0.002500 1.266496 -0.372328
v -0.002500 1.177504 -0.372328
v -0.002500 1.167000 -0.340000
v 0.020359 1.266496 -0.362859
v 0.034487 1.238996 -0.376987
v 0.034487 1.205004 -0.376987
v 0.020359 1.177504 -0.362859
v 0.029828 1.266496 -0.340000
v 0.049808 1.238996 -0.340000
v 0.049808 1.205004 -0.340000
v 0.029828 1.177504 -0.340000
v 0.020359 1.266496 -0.317140
v 0.034487 1.238996 -0.303013
v 0.034487 1.205004 -0.303013
v 0.020359 1.177504 -0.317140
v -0.002500 1.266496 -0.307672
v -0.002500 1.238996 -0.287692
v -0.002500 1.205004 -0.287692
v -0.002500 1.177504 -0.307672
v -0.025359 1.266496 -0.317140
v -0.039487 1.238996 -0.303013
v -0.039487 1.205004 -0.303013
v -0.025359 1.177504 -0.317140
v -0.034828 1.266496 -0.340000
v -0.054808 1.238996 -0.340000
v -0.054808 1.205004 -0.340000
v -0.034828 1.177504 -0.340000
v -0.025359 1.266496 -0.362859
v -0.039487 1.238996 -0.376987
v -0.039487 1.205004 -0.376987
v -0.025359 1.177504 -0.362859
v -0.002500 1.238996 -0.392308
v -0.002500 1.205004 -0.392308
v -0.002500 1.192000 0.330000
v -0.002500 2.292000 0.330000
v -0.002500 1.192000 -0.330000
v -0.002500 2.292000 -0.330000
v 0.027500 1.192000 0.330000
v 0.027500 2.292000 0.330000
v 0.027500 1.192000 -0.330000
v 0.027500 2.292000 -0.330000
v 0.017500 1.852000 0.460000
v 0.017500 2.512000 0.460000
v 0.017500 1.852000 -0.460000
v 0.017500 2.512000 -0.460000
v 0.067500 1.852000 0.460000
v 0.067500 2.512000 0.460000
v 0.067500 1.852000 -0.460000
v 0.067500 2.512000 -0.460000
v 0.017500 1.672000 0.380000
v 0.017500 1.892000 0.380000
v 0.017500 1.672000 0.220000
v 0.017500 1.892000 0.220000
v 0.067500 1.672000 0.380000
v 0.067500 1.892000 0.380000
v 0.067500 1.672000 0.220000
v 0.067500 1.892000 0.220000
v 0.017500 1.672000 0.180000
v 0.017500 1.892000 0.180000
v 0.017500 1.672000 0.020000
v 0.017500 1.892000 0.020000
v 0.067500 1.672000 0.180000
v 0.067500 1.892000 0.180000
v 0.067500 1.672000 0.020000
v 0.067500 1.892000 0.020000
v 0.017500 1.672000 -0.020000
v 0.017500 1.892000 -0.020000
v 0.017500 1.672000 -0.180000
v 0.017500 1.892000 -0.180000
v 0.067500 1.672000 -0.020000
v 0.067500 1.892000 -0.020000
v 0.067500 1.672000 -0.180000
v 0.067500 1.892000 -0.180000
v 0.017500 1.672000 -0.220000
v 0.017500 1.892000 -0.220000
v 0.017500 1.672000 -0.380000
v 0.017500 1.892000 -0.380000
v 0.067500 1.672000 -0.220000
v 0.067500 1.892000 -0.220000
v 0.067500 1.672000 -0.380000
v 0.067500 1.892000 -0.380000
vn -1.0000 -0.0000 -0.0000
vn -0.0000 -0.0000 -1.0000
vn 1.0000 -0.0000 -0.0000
vn -0.0000 -0.0000 1.0000
vn -0.0000 -1.0000 -0.0000
vn -0.0000 1.0000 -0.0000
vn 0.3177 -0.5573 -0.7671
vn 0.3177 0.5573 -0.7671
vn 0.1270 -0.9434 -0.3065
vn 0.3827 -0.0000 -0.9239
vn 0.1270 0.9434 -0.3065
vn 0.3065 0.9434 -0.1270
vn 0.7671 -0.5573 -0.3177
vn 0.7671 0.5573 -0.3177
vn 0.3065 -0.9434 -0.1270
vn 0.9239 -0.0000 -0.3827
vn 0.3065 0.9434 0.1270
vn 0.7671 -0.5573 0.3177
vn 0.7671 0.5573 0.3177
vn 0.3065 -0.9434 0.1270
vn 0.9239 -0.0000 0.3827
vn 0.1270 0.9434 0.3065
vn 0.3177 -0.5573 0.7671
vn 0.3177 0.5573 0.7671
vn 0.1270 -0.9434 0.3065
vn 0.3827 -0.0000 0.9239
vn -0.1270 0.9434 0.3065
vn -0.3177 -0.5573 0.7671
vn -0.3177 0.5573 0.7671
vn -0.1270 -0.9434 0.3065
vn -0.3827 -0.0000 0.9239
vn -0.3065 0.9434 0.1270
vn -0.7671 -0.5573 0.3177
vn -0.7671 0.5573 0.3177
vn -0.3065 -0.9434 0.1270
vn -0.9239 -0.0000 0.3827
vn -0.3065 0.9434 -0.1270
vn -0.7671 -0.5573 -0.3177
vn -0.7671 0.5573 -0.3177
vn -0.3065 -0.9434 -0.1270
vn -0.9239 -0.0000 -0.3827
vn -0.1270 0.9434 -0.3065
vn -0.3177 -0.5573 -0.7671
vn -0.3177 0.5573 -0.7671
vn -0.1270 -0.9434 -0.3065
vn -0.3827 -0.0000 -0.9239
vt 0.250000 0.250000
vt 0.250000 0.750000
vt 0.750000 0.250000
s 0
usemtl slot0
f 1/1/1 2/1/1 4/1/1 3/1/1
f 3/1/2 4/1/2 8/1/2 7/1/2
f 7/1/3 8/1/3 6/1/3 5/1/3
f 5/1/4 6/1/4 2/1/4 1/1/4
f 3/1/5 7/1/5 5/1/5 1/1/5
f 8/1/6 4/1/6 2/1/6 6/1/6
f 9/1/1 10/1/1 12/1/1 11/1/1
f 11/1/2 12/1/2 16/1/2 15/1/2
f 15/1/3 16/1/3 14/1/3 13/1/3
f 13/1/4 14/1/4 10/1/4 9/1/4
f 11/1/5 15/1/5 13/1/5 9/1/5
f 16/1/6 12/1/6 10/1/6 14/1/6
f 19/1/7 50/1/7 23/1/7 24/1/7
f 49/1/8 18/1/8 21/1/8 22/1/8
f 20/1/9 19/1/9 24/1/9
f 50/1/10 49/1/10 22/1/10 23/1/10
f 18/1/11 17/1/11 21/1/11
f 21/1/12 17/1/12 25/1/12
f 24/1/13 23/1/13 27/1/13 28/1/13
f 22/1/14 21/1/14 25/1/14 26/1/14
f 20/1/15 24/1/15 28/1/15
f 23/1/16 22/1/16 26/1/16 27/1/16
f 25/1/17 17/1/17 29/1/17
f 28/1/18 27/1/18 31/1/18 32/1/18
f 26/1/19 25/1/19 29/1/19 30/1/19
f 20/1/20 28/1/20 32/1/20
f 27/1/21 26/1/21 30/1/21 31/1/21
f 29/1/22 17/1/22 33/1/22
f 32/1/23 31/1/23 35/1/23 36/1/23
f 30/1/24 29/1/24 33/1/24 34/1/24
f 20/1/25 32/1/25 36/1/25
f 31/1/26 30/1/26 34/1/26 35/1/26
f 33/1/27 17/1/27 37/1/27
f 36/1/28 35/1/28 39/1/28 40/1/28
f 34/1/29 33/1/29 37/1/29 38/1/29
f 20/1/30 36/1/30 40/1/30
f 35/1/31 34/1/31 38/1/31 39/1/31
f 37/1/32 17/1/32 41/1/32
f 40/1/33 39/1/33 43/1/33 44/1/33
f 38/1/34 37/1/34 41/1/34 42/1/34
f 20/1/35 40/1/35 44/1/35
f 39/1/36 38/1/36 42/1/36 43/1/36
f 41/1/37 17/1/37 45/1/37
f 44/1/38 43/1/38 47/1/38 48/1/38
f 42/1/39 41/1/39 45/1/39 46/1/39
f 20/1/40 44/1/40 48/1/40
f 43/1/41 42/1/41 46/1/41 47/1/41
f 45/1/42 17/1/42 18/1/42
f 48/1/43 47/1/43 50/1/43 19/1/43
f 46/1/44 45/1/44 18/1/44 49/1/44
f 20/1/45 48/1/45 19/1/45
f 47/1/46 46/1/46 49/1/46 50/1/46
f 53/1/7 84/1/7 57/1/7 58/1/7
f 83/1/8 52/1/8 55/1/8 56/1/8
f 54/1/9 53/1/9 58/1/9
f 84/1/10 83/1/10 56/1/10 57/1/10
f 52/1/11 51/1/11 55/1/11
f 54/1/15 58/1/15 62/1/15
f 57/1/16 56/1/16 60/1/16 61/1/16
f 55/1/12 51/1/12 59/1/12
f 58/1/13 57/1/13 61/1/13 62/1/13
f 56/1/14 55/1/14 59/1/14 60/1/14
f 54/1/20 62/1/20 66/1/20
f 61/1/21 60/1/21 64/1/21 65/1/21
f 59/1/17 51/1/17 63/1/17
f 62/1/18 61/1/18 65/1/18 66/1/18
f 60/1/19 59/1/19 63/1/19 64/1/19
f 54/1/25 66/1/25 70/1/25
f 65/1/26 64/1/26 68/1/26 69/1/26
f 63/1/22 51/1/22 67/1/22
f 66/1/23 65/1/23 69/1/23 70/1/23
f 64/1/24 63/1/24 67/1/24 68/1/24
f 54/1/30 70/1/30 74/1/30
f 69/1/31 68/1/31 72/1/31 73/1/31
f 67/1/27 51/1/27 71/1/27
f 70/1/28 69/1/28 73/1/28 74/1/28
f 68/1/29 67/1/29 71/1/29 72/1/29
f 54/1/35 74/1/35 78/1/35
f 73/1/36 72/1/36 76/1/36 77/1/36
f 71/1/32 51/1/32 75/1/32
f 74/1/33 73/1/33 77/1/33 78/1/33
f 72/1/34 71/1/34 75/1/34 76/1/34
f 54/1/40 78/1/40 82/1/40
f 77/1/41 76/1/41 80/1/41 81/1/41
f 75/1/37 51/1/37 79/1/37
f 78/1/38 77/1/38 81/1/38 82/1/38
f 76/1/39 75/1/39 79/1/39 80/1/39
f 54/1/45 82/1/45 53/1/45
f 81/1/46 80/1/46 83/1/46 84/1/46
f 79/1/42 51/1/42 52/1/42
f 82/1/43 81/1/43 84/1/43 53/1/43
f 80/1/44 79/1/44 52/1/44 83/1/44
f 85/2/1 86/2/1 88/2/1 87/2/1
f 87/2/2 88/2/2 92/2/2 91/2/2
f 91/2/3 92/2/3 90/2/3 89/2/3
f 89/2/4 90/2/4 86/2/4 85/2/4
f 87/2/5 91/2/5 89/2/5 85/2/5
f 92/2/6 88/2/6 86/2/6 90/2/6
f 93/3/1 94/3/1 96/3/1 95/3/1
f 95/3/2 96/3/2 100/3/2 99/3/2
f 99/3/3 100/3/3 98/3/3 97/3/3
f 97/3/4 98/3/4 94/3/4 93/3/4
f 95/3/5 99/3/5 97/3/5 93/3/5
f 100/3/6 96/3/6 94/3/6 98/3/6
f 101/3/1 102/3/1 104/3/1 103/3/1
f 103/3/2 104/3/2 108/3/2 107/3/2
f 107/3/3 108/3/3 106/3/3 105/3/3
f 105/3/4 106/3/4 102/3/4 101/3/4
f 103/3/5 107/3/5 105/3/5 101/3/5
f 108/3/6 104/3/6 102/3/6 106/3/6
f 109/3/1 110/3/1 112/3/1 111/3/1
f 111/3/2 112/3/2 116/3/2 115/3/2
f 115/3/3 116/3/3 114/3/3 113/3/3
f 113/3/4 114/3/4 110/3/4 109/3/4
f 111/3/5 115/3/5 113/3/5 109/3/5
f 116/3/6 112/3/6 110/3/6 114/3/6
f 117/3/1 118/3/1 120/3/1 119/3/1
f 119/3/2 120/3/2 124/3/2 123/3/2
f 123/3/3 124/3/3 122/3/3 121/3/3
f 121/3/4 122/3/4 118/3/4 117/3/4
f 119/3/5 123/3/5 121/3/5 117/3/5
f 124/3/6 120/3/6 118/3/6 122/3/6
f 125/3/1 126/3/1 128/3/1 127/3/1
f 127/3/2 128/3/2 132/3/2 131/3/2
f 131/3/3 132/3/3 130/3/3 129/3/3
f 129/3/4 130/3/4 126/3/4 125/3/4
f 127/3/5 131/3/5 129/3/5 125/3/5
f 132/3/6 128/3/6 126/3/6 130/3/6
