# Blender 5.2.0 LTS
# www.blender.org
mtllib aldrich_blood_brazier.mtl
o aldrich_blood_brazier
v -0.035000 0.002284 -0.282113
v -0.035000 0.513883 -0.189018
v -0.035000 0.014816 -0.350982
v -0.035000 0.526415 -0.257887
v 0.035000 0.002284 -0.282113
v 0.035000 0.513883 -0.189018
v 0.035000 0.014816 -0.350982
v 0.035000 0.526415 -0.257887
v -0.065000 0.004349 -0.205000
v -0.065000 0.064349 -0.205000
v -0.065000 0.004349 -0.335000
v -0.065000 0.064349 -0.335000
v 0.065000 0.004349 -0.205000
v 0.065000 0.064349 -0.205000
v 0.065000 0.004349 -0.335000
v 0.065000 0.064349 -0.335000
v -0.308117 0.017083 0.193227
v -0.227711 0.528699 0.146490
v -0.309094 0.010868 0.123510
v -0.228688 0.522483 0.076773
v -0.238966 0.006215 0.193227
v -0.158560 0.517831 0.146490
v -0.239942 0.000000 0.123510
v -0.159537 0.511616 0.076773
v -0.298827 0.004349 0.200000
v -0.298827 0.064349 0.200000
v -0.298827 0.004349 0.070000
v -0.298827 0.064349 0.070000
v -0.168827 0.004349 0.200000
v -0.168827 0.064349 0.200000
v -0.168827 0.004349 0.070000
v -0.168827 0.064349 0.070000
v 0.238966 0.006215 0.193227
v 0.158560 0.517831 0.146490
v 0.239942 0.000000 0.123510
v 0.159537 0.511616 0.076773
v 0.308117 0.017083 0.193227
v 0.227711 0.528699 0.146490
v 0.309094 0.010868 0.123510
v 0.228688 0.522483 0.076773
v 0.168827 0.004349 0.200000
v 0.168827 0.064349 0.200000
v 0.168827 0.004349 0.070000
v 0.168827 0.064349 0.070000
v 0.298827 0.004349 0.200000
v 0.298827 0.064349 0.200000
v 0.298827 0.004349 0.070000
v 0.298827 0.064349 0.070000
v -0.000000 0.504349 -0.210000
v 0.000000 0.764349 -0.400000
v 0.105000 0.504349 -0.181865
v 0.200000 0.764349 -0.346410
v 0.181865 0.504349 -0.105000
v 0.346410 0.764349 -0.200000
v 0.210000 0.504349 -0.000000
v 0.400000 0.764349 -0.000000
v 0.181865 0.504349 0.105000
v 0.346410 0.764349 0.200000
v 0.105000 0.504349 0.181865
v 0.200000 0.764349 0.346410
v -0.000000 0.504349 0.210000
v 0.000000 0.764349 0.400000
v -0.105000 0.504349 0.181865
v -0.200000 0.764349 0.346410
v -0.181865 0.504349 0.105000
v -0.346410 0.764349 0.200000
v -0.210000 0.504349 -0.000000
v -0.400000 0.764349 -0.000000
v -0.181865 0.504349 -0.105000
v -0.346410 0.764349 -0.200000
v -0.105000 0.504349 -0.181865
v -0.200000 0.764349 -0.346410
v 0.445000 0.784349 -0.000000
v 0.400000 0.829349 0.000000
v 0.355000 0.784349 -0.000000
v 0.400000 0.739349 -0.000000
v 0.400931 0.784349 -0.193078
v 0.360388 0.829349 -0.173553
v 0.319844 0.784349 -0.154029
v 0.360388 0.739349 -0.173553
v 0.277453 0.784349 -0.347915
v 0.249396 0.829349 -0.312733
v 0.221339 0.784349 -0.277550
v 0.249396 0.739349 -0.312733
v 0.099022 0.784349 -0.433843
v 0.089008 0.829349 -0.389971
v 0.078995 0.784349 -0.346099
v 0.089008 0.739349 -0.389971
v -0.099022 0.784349 -0.433843
v -0.089008 0.829349 -0.389971
v -0.078995 0.784349 -0.346099
v -0.089008 0.739349 -0.389971
v -0.277453 0.784349 -0.347915
v -0.249396 0.829349 -0.312733
v -0.221339 0.784349 -0.277550
v -0.249396 0.739349 -0.312733
v -0.400931 0.784349 -0.193078
v -0.360388 0.829349 -0.173554
v -0.319844 0.784349 -0.154029
v -0.360388 0.739349 -0.173554
v -0.445000 0.784349 -0.000000
v -0.400000 0.829349 -0.000000
v -0.355000 0.784349 -0.000000
v -0.400000 0.739349 -0.000000
v -0.400931 0.784349 0.193078
v -0.360388 0.829349 0.173553
v -0.319844 0.784349 0.154029
v -0.360388 0.739349 0.173553
v -0.277453 0.784349 0.347915
v -0.249396 0.829349 0.312732
v -0.221339 0.784349 0.277550
v -0.249396 0.739349 0.312732
v -0.099022 0.784349 0.433843
v -0.089008 0.829349 0.389971
v -0.078995 0.784349 0.346099
v -0.089008 0.739349 0.389971
v 0.099022 0.784349 0.433843
v 0.089008 0.829349 0.389971
v 0.078995 0.784349 0.346099
v 0.089008 0.739349 0.389971
v 0.277453 0.784349 0.347915
v 0.249396 0.829349 0.312733
v 0.221339 0.784349 0.277550
v 0.249396 0.739349 0.312733
v 0.400931 0.784349 0.193078
v 0.360387 0.829349 0.173554
v 0.319844 0.784349 0.154029
v 0.360387 0.739349 0.173554
v 0.295000 0.504349 0.025000
v 0.295000 0.744349 0.025000
v 0.295000 0.504349 -0.025000
v 0.295000 0.744349 -0.025000
v 0.345000 0.504349 0.025000
v 0.345000 0.744349 0.025000
v 0.345000 0.504349 -0.025000
v 0.345000 0.744349 -0.025000
v 0.169151 0.504349 -0.242977
v 0.169151 0.744349 -0.242977
v 0.125849 0.504349 -0.267978
v 0.125849 0.744349 -0.267978
v 0.194151 0.504349 -0.286279
v 0.194151 0.744349 -0.286279
v 0.150849 0.504349 -0.311279
v 0.150849 0.744349 -0.311279
v -0.125849 0.504349 -0.267978
v -0.125849 0.744349 -0.267978
v -0.169151 0.504349 -0.242977
v -0.169151 0.744349 -0.242977
v -0.150849 0.504349 -0.311279
v -0.150849 0.744349 -0.311279
v -0.194151 0.504349 -0.286279
v -0.194151 0.744349 -0.286279
v -0.295000 0.504349 -0.025000
v -0.295000 0.744349 -0.025000
v -0.295000 0.504349 0.025000
v -0.295000 0.744349 0.025000
v -0.345000 0.504349 -0.025000
v -0.345000 0.744349 -0.025000
v -0.345000 0.504349 0.025000
v -0.345000 0.744349 0.025000
v -0.169151 0.504349 0.242977
v -0.169151 0.744349 0.242977
v -0.125849 0.504349 0.267977
v -0.125849 0.744349 0.267977
v -0.194151 0.504349 0.286279
v -0.194151 0.744349 0.286279
v -0.150849 0.504349 0.311279
v -0.150849 0.744349 0.311279
v 0.125849 0.504349 0.267977
v 0.125849 0.744349 0.267977
v 0.169151 0.504349 0.242977
v 0.169151 0.744349 0.242977
v 0.150849 0.504349 0.311279
v 0.150849 0.744349 0.311279
v 0.194151 0.504349 0.286279
v 0.194151 0.744349 0.286279
v 0.000000 0.744349 -0.330000
v 0.000000 0.804349 -0.330000
v 0.165000 0.744349 -0.285788
v 0.165000 0.804349 -0.285788
v 0.285788 0.744349 -0.165000
v 0.285788 0.804349 -0.165000
v 0.330000 0.744349 -0.000000
v 0.330000 0.804349 -0.000000
v 0.285788 0.744349 0.165000
v 0.285788 0.804349 0.165000
v 0.165000 0.744349 0.285788
v 0.165000 0.804349 0.285788
v 0.000000 0.744349 0.330000
v 0.000000 0.804349 0.330000
v -0.165000 0.744349 0.285788
v -0.165000 0.804349 0.285788
v -0.285788 0.744349 0.165000
v -0.285788 0.804349 0.165000
v -0.330000 0.744349 -0.000000
v -0.330000 0.804349 -0.000000
v -0.285788 0.744349 -0.165000
v -0.285788 0.804349 -0.165000
v -0.165000 0.744349 -0.285788
v -0.165000 0.804349 -0.285788
v 0.112583 0.784349 -0.175000
v 0.207846 0.784349 -0.120000
v 0.207846 0.784349 -0.010000
v 0.112583 0.784349 0.045000
v 0.017321 0.784349 -0.010000
v 0.017321 0.784349 -0.120000
v 0.112583 1.124349 -0.065000
v -0.112583 0.784349 -0.175000
v -0.017321 0.784349 -0.120000
v -0.017321 0.784349 -0.010000
v -0.112583 0.784349 0.045000
v -0.207846 0.784349 -0.010000
v -0.207846 0.784349 -0.120000
v -0.112583 1.124349 -0.065000
v 0.000000 0.784349 0.020000
v 0.095263 0.784349 0.075000
v 0.095263 0.784349 0.185000
v 0.000000 0.784349 0.240000
v -0.095263 0.784349 0.185000
v -0.095263 0.784349 0.075000
v 0.000000 1.124349 0.130000
vn -1.0000 -0.0000 -0.0000
vn -0.0000 0.1790 -0.9838
vn 1.0000 -0.0000 -0.0000
vn -0.0000 -0.1790 0.9838
vn -0.0000 -0.9838 -0.1790
vn -0.0000 0.9838 0.1790
vn -0.0000 -0.0000 -1.0000
vn -0.0000 -0.0000 1.0000
vn -0.0000 -1.0000 -0.0000
vn -0.0000 1.0000 -0.0000
vn -0.9879 0.1553 -0.0000
vn -0.0140 -0.0888 -0.9960
vn 0.9879 -0.1553 -0.0000
vn 0.0140 0.0888 0.9960
vn -0.1546 -0.9839 0.0899
vn 0.1546 0.9839 -0.0899
vn -0.9879 -0.1553 -0.0000
vn 0.0140 -0.0888 -0.9960
vn 0.9879 0.1553 -0.0000
vn -0.0140 0.0888 0.9960
vn 0.1546 -0.9839 0.0899
vn -0.1546 0.9839 -0.0899
vn 0.2114 -0.5767 -0.7891
vn 0.5777 -0.5767 -0.5777
vn 0.7891 -0.5767 -0.2114
vn 0.7891 -0.5767 0.2114
vn 0.5777 -0.5767 0.5777
vn 0.2114 -0.5767 0.7891
vn -0.2114 -0.5767 0.7891
vn -0.5777 -0.5767 0.5777
vn -0.7891 -0.5767 0.2114
vn -0.7891 -0.5767 -0.2114
vn -0.5777 -0.5767 -0.5777
vn -0.2114 -0.5767 -0.7891
vn 0.6981 0.6981 -0.1593
vn -0.6981 0.6981 0.1593
vn -0.6981 -0.6981 0.1593
vn 0.6981 -0.6981 -0.1593
vn 0.5598 0.6981 -0.4464
vn -0.5598 0.6981 0.4464
vn -0.5598 -0.6981 0.4464
vn 0.5598 -0.6981 -0.4464
vn 0.3107 0.6981 -0.6451
vn -0.3107 0.6981 0.6451
vn -0.3107 -0.6981 0.6451
vn 0.3107 -0.6981 -0.6451
vn -0.0000 0.6981 -0.7160
vn -0.0000 0.6981 0.7160
vn -0.0000 -0.6981 0.7160
vn -0.0000 -0.6981 -0.7160
vn -0.3107 0.6981 -0.6451
vn 0.3107 0.6981 0.6451
vn 0.3107 -0.6981 0.6451
vn -0.3107 -0.6981 -0.6451
vn -0.5598 0.6981 -0.4464
vn 0.5598 0.6981 0.4464
vn 0.5598 -0.6981 0.4464
vn -0.5598 -0.6981 -0.4464
vn -0.6981 0.6981 -0.1593
vn 0.6981 0.6981 0.1593
vn 0.6981 -0.6981 0.1593
vn -0.6981 -0.6981 -0.1593
vn -0.5000 -0.0000 0.8660
vn -0.8660 -0.0000 -0.5000
vn 0.5000 -0.0000 -0.8660
vn 0.8660 -0.0000 0.5000
vn 0.5000 -0.0000 0.8660
vn -0.8660 -0.0000 0.5000
vn -0.5000 -0.0000 -0.8660
vn 0.8660 -0.0000 -0.5000
vn 0.2588 -0.0000 -0.9659
vn 0.7071 -0.0000 -0.7071
vn 0.9659 -0.0000 -0.2588
vn 0.9659 -0.0000 0.2588
vn 0.7071 -0.0000 0.7071
vn 0.2588 -0.0000 0.9659
vn -0.2588 -0.0000 0.9659
vn -0.7071 -0.0000 0.7071
vn -0.9659 -0.0000 0.2588
vn -0.9659 -0.0000 -0.2588
vn -0.7071 -0.0000 -0.7071
vn -0.2588 -0.0000 -0.9659
vn 0.4815 0.2698 -0.8339
vn 0.9629 0.2698 -0.0000
vn 0.4815 0.2698 0.8339
vn -0.4815 0.2698 0.8339
vn -0.9629 0.2698 -0.0000
vn -0.4815 0.2698 -0.8339
vt 0.250000 0.250000
vt 0.250000 0.750000
vt 0.750000 0.250000
s 0
usemtl slot0
f 1/1/1 2/1/1 4/1/1 3/1/1
f 3/1/2 4/1/2 8/1/2 7/1/2
f 7/1/3 8/1/3 6/1/3 5/1/3
f 5/1/4 6/1/4 2/1/4 1/1/4
f 3/1/5 7/1/5 5/1/5 1/1/5
f 8/1/6 4/1/6 2/1/6 6/1/6
f 9/1/1 10/1/1 12/1/1 11/1/1
f 11/1/7 12/1/7 16/1/7 15/1/7
f 15/1/3 16/1/3 14/1/3 13/1/3
f 13/1/8 14/1/8 10/1/8 9/1/8
f 11/1/9 15/1/9 13/1/9 9/1/9
f 16/1/10 12/1/10 10/1/10 14/1/10
f 17/1/11 18/1/11 20/1/11 19/1/11
f 19/1/12 20/1/12 24/1/12 23/1/12
f 23/1/13 24/1/13 22/1/13 21/1/13
f 21/1/14 22/1/14 18/1/14 17/1/14
f 19/1/15 23/1/15 21/1/15 17/1/15
f 24/1/16 20/1/16 18/1/16 22/1/16
f 25/1/1 26/1/1 28/1/1 27/1/1
f 27/1/7 28/1/7 32/1/7 31/1/7
f 31/1/3 32/1/3 30/1/3 29/1/3
f 29/1/8 30/1/8 26/1/8 25/1/8
f 27/1/9 31/1/9 29/1/9 25/1/9
f 32/1/10 28/1/10 26/1/10 30/1/10
f 33/1/17 34/1/17 36/1/17 35/1/17
f 35/1/18 36/1/18 40/1/18 39/1/18
f 39/1/19 40/1/19 38/1/19 37/1/19
f 37/1/20 38/1/20 34/1/20 33/1/20
f 35/1/21 39/1/21 37/1/21 33/1/21
f 40/1/22 36/1/22 34/1/22 38/1/22
f 41/1/1 42/1/1 44/1/1 43/1/1
f 43/1/7 44/1/7 48/1/7 47/1/7
f 47/1/3 48/1/3 46/1/3 45/1/3
f 45/1/8 46/1/8 42/1/8 41/1/8
f 43/1/9 47/1/9 45/1/9 41/1/9
f 48/1/10 44/1/10 42/1/10 46/1/10
f 49/1/23 50/1/23 52/1/23 51/1/23
f 51/1/24 52/1/24 54/1/24 53/1/24
f 53/1/25 54/1/25 56/1/25 55/1/25
f 55/1/26 56/1/26 58/1/26 57/1/26
f 57/1/27 58/1/27 60/1/27 59/1/27
f 59/1/28 60/1/28 62/1/28 61/1/28
f 61/1/29 62/1/29 64/1/29 63/1/29
f 63/1/30 64/1/30 66/1/30 65/1/30
f 65/1/31 66/1/31 68/1/31 67/1/31
f 67/1/32 68/1/32 70/1/32 69/1/32
f 52/1/10 50/1/10 72/1/10 70/1/10 68/1/10 66/1/10 64/1/10 62/1/10 60/1/10 58/1/10 56/1/10 54/1/10
f 69/1/33 70/1/33 72/1/33 71/1/33
f 71/1/34 72/1/34 50/1/34 49/1/34
f 49/1/9 51/1/9 53/1/9 55/1/9 57/1/9 59/1/9 61/1/9 63/1/9 65/1/9 67/1/9 69/1/9 71/1/9
f 73/1/35 77/1/35 78/1/35 74/1/35
f 74/1/36 78/1/36 79/1/36 75/1/36
f 75/1/37 79/1/37 80/1/37 76/1/37
f 76/1/38 80/1/38 77/1/38 73/1/38
f 77/1/39 81/1/39 82/1/39 78/1/39
f 78/1/40 82/1/40 83/1/40 79/1/40
f 79/1/41 83/1/41 84/1/41 80/1/41
f 80/1/42 84/1/42 81/1/42 77/1/42
f 81/1/43 85/1/43 86/1/43 82/1/43
f 82/1/44 86/1/44 87/1/44 83/1/44
f 83/1/45 87/1/45 88/1/45 84/1/45
f 84/1/46 88/1/46 85/1/46 81/1/46
f 85/1/47 89/1/47 90/1/47 86/1/47
f 86/1/48 90/1/48 91/1/48 87/1/48
f 87/1/49 91/1/49 92/1/49 88/1/49
f 88/1/50 92/1/50 89/1/50 85/1/50
f 89/1/51 93/1/51 94/1/51 90/1/51
f 90/1/52 94/1/52 95/1/52 91/1/52
f 91/1/53 95/1/53 96/1/53 92/1/53
f 92/1/54 96/1/54 93/1/54 89/1/54
f 93/1/55 97/1/55 98/1/55 94/1/55
f 94/1/56 98/1/56 99/1/56 95/1/56
f 95/1/57 99/1/57 100/1/57 96/1/57
f 96/1/58 100/1/58 97/1/58 93/1/58
f 97/1/59 101/1/59 102/1/59 98/1/59
f 98/1/60 102/1/60 103/1/60 99/1/60
f 99/1/61 103/1/61 104/1/61 100/1/61
f 100/1/62 104/1/62 101/1/62 97/1/62
f 101/1/36 105/1/36 106/1/36 102/1/36
f 102/1/35 106/1/35 107/1/35 103/1/35
f 103/1/38 107/1/38 108/1/38 104/1/38
f 104/1/37 108/1/37 105/1/37 101/1/37
f 105/1/40 109/1/40 110/1/40 106/1/40
f 106/1/39 110/1/39 111/1/39 107/1/39
f 107/1/42 111/1/42 112/1/42 108/1/42
f 108/1/41 112/1/41 109/1/41 105/1/41
f 109/1/44 113/1/44 114/1/44 110/1/44
f 110/1/43 114/1/43 115/1/43 111/1/43
f 111/1/46 115/1/46 116/1/46 112/1/46
f 112/1/45 116/1/45 113/1/45 109/1/45
f 113/1/48 117/1/48 118/1/48 114/1/48
f 114/1/47 118/1/47 119/1/47 115/1/47
f 115/1/50 119/1/50 120/1/50 116/1/50
f 116/1/49 120/1/49 117/1/49 113/1/49
f 117/1/52 121/1/52 122/1/52 118/1/52
f 118/1/51 122/1/51 123/1/51 119/1/51
f 119/1/54 123/1/54 124/1/54 120/1/54
f 120/1/53 124/1/53 121/1/53 117/1/53
f 121/1/56 125/1/56 126/1/56 122/1/56
f 122/1/55 126/1/55 127/1/55 123/1/55
f 123/1/58 127/1/58 128/1/58 124/1/58
f 124/1/57 128/1/57 125/1/57 121/1/57
f 125/1/60 73/1/60 74/1/60 126/1/60
f 126/1/59 74/1/59 75/1/59 127/1/59
f 127/1/62 75/1/62 76/1/62 128/1/62
f 128/1/61 76/1/61 73/1/61 125/1/61
f 129/1/1 130/1/1 132/1/1 131/1/1
f 131/1/7 132/1/7 136/1/7 135/1/7
f 135/1/3 136/1/3 134/1/3 133/1/3
f 133/1/8 134/1/8 130/1/8 129/1/8
f 131/1/9 135/1/9 133/1/9 129/1/9
f 136/1/10 132/1/10 130/1/10 134/1/10
f 137/1/63 138/1/63 140/1/63 139/1/63
f 139/1/64 140/1/64 144/1/64 143/1/64
f 143/1/65 144/1/65 142/1/65 141/1/65
f 141/1/66 142/1/66 138/1/66 137/1/66
f 139/1/9 143/1/9 141/1/9 137/1/9
f 144/1/10 140/1/10 138/1/10 142/1/10
f 145/1/67 146/1/67 148/1/67 147/1/67
f 147/1/68 148/1/68 152/1/68 151/1/68
f 151/1/69 152/1/69 150/1/69 149/1/69
f 149/1/70 150/1/70 146/1/70 145/1/70
f 147/1/9 151/1/9 149/1/9 145/1/9
f 152/1/10 148/1/10 146/1/10 150/1/10
f 153/1/3 154/1/3 156/1/3 155/1/3
f 155/1/8 156/1/8 160/1/8 159/1/8
f 159/1/1 160/1/1 158/1/1 157/1/1
f 157/1/7 158/1/7 154/1/7 153/1/7
f 155/1/9 159/1/9 157/1/9 153/1/9
f 160/1/10 156/1/10 154/1/10 158/1/10
f 161/1/65 162/1/65 164/1/65 163/1/65
f 163/1/66 164/1/66 168/1/66 167/1/66
f 167/1/63 168/1/63 166/1/63 165/1/63
f 165/1/64 166/1/64 162/1/64 161/1/64
f 163/1/9 167/1/9 165/1/9 161/1/9
f 168/1/10 164/1/10 162/1/10 166/1/10
f 169/1/69 170/1/69 172/1/69 171/1/69
f 171/1/70 172/1/70 176/1/70 175/1/70
f 175/1/67 176/1/67 174/1/67 173/1/67
f 173/1/68 174/1/68 170/1/68 169/1/68
f 171/1/9 175/1/9 173/1/9 169/1/9
f 176/1/10 172/1/10 170/1/10 174/1/10
f 177/2/71 178/2/71 180/2/71 179/2/71
f 179/2/72 180/2/72 182/2/72 181/2/72
f 181/2/73 182/2/73 184/2/73 183/2/73
f 183/2/74 184/2/74 186/2/74 185/2/74
f 185/2/75 186/2/75 188/2/75 187/2/75
f 187/2/76 188/2/76 190/2/76 189/2/76
f 189/2/77 190/2/77 192/2/77 191/2/77
f 191/2/78 192/2/78 194/2/78 193/2/78
f 193/2/79 194/2/79 196/2/79 195/2/79
f 195/2/80 196/2/80 198/2/80 197/2/80
f 180/2/10 178/2/10 200/2/10 198/2/10 196/2/10 194/2/10 192/2/10 190/2/10 188/2/10 186/2/10 184/2/10 182/2/10
f 197/2/81 198/2/81 200/2/81 199/2/81
f 199/2/82 200/2/82 178/2/82 177/2/82
f 177/2/9 179/2/9 181/2/9 183/2/9 185/2/9 187/2/9 189/2/9 191/2/9 193/2/9 195/2/9 197/2/9 199/2/9
f 201/3/83 207/3/83 202/3/83
f 202/3/84 207/3/84 203/3/84
f 203/3/85 207/3/85 204/3/85
f 204/3/86 207/3/86 205/3/86
f 201/3/9 202/3/9 203/3/9 204/3/9 205/3/9 206/3/9
f 205/3/87 207/3/87 206/3/87
f 206/3/88 207/3/88 201/3/88
f 208/3/83 214/3/83 209/3/83
f 209/3/84 214/3/84 210/3/84
f 210/3/85 214/3/85 211/3/85
f 211/3/86 214/3/86 212/3/86
f 208/3/9 209/3/9 210/3/9 211/3/9 212/3/9 213/3/9
f 212/3/87 214/3/87 213/3/87
f 213/3/88 214/3/88 208/3/88
f 215/3/83 221/3/83 216/3/83
f 216/3/84 221/3/84 217/3/84
f 217/3/85 221/3/85 218/3/85
f 218/3/86 221/3/86 219/3/86
f 215/3/9 216/3/9 217/3/9 218/3/9 219/3/9 220/3/9
f 219/3/87 221/3/87 220/3/87
f 220/3/88 221/3/88 215/3/88
