# Blender 5.2.0 LTS
# www.blender.org
mtllib aldrich_cat_statue.mtl
o aldrich_cat_statue
v -0.240000 0.545000 0.125000
v -0.240000 0.865000 0.125000
v -0.240000 0.545000 -0.275000
v -0.240000 0.865000 -0.275000
v 0.240000 0.545000 0.125000
v 0.240000 0.865000 0.125000
v 0.240000 0.545000 -0.275000
v 0.240000 0.865000 -0.275000
v -0.160000 0.865000 -0.030000
v -0.160000 1.025000 -0.030000
v -0.160000 0.865000 -0.270000
v -0.160000 1.025000 -0.270000
v 0.160000 0.865000 -0.030000
v 0.160000 1.025000 -0.030000
v 0.160000 0.865000 -0.270000
v 0.160000 1.025000 -0.270000
v -0.160000 0.545000 0.185000
v -0.160000 0.865000 0.185000
v -0.160000 0.545000 0.025000
v -0.160000 0.865000 0.025000
v -0.080000 0.545000 0.185000
v -0.080000 0.865000 0.185000
v -0.080000 0.545000 0.025000
v -0.080000 0.865000 0.025000
v -0.160000 0.545000 0.215000
v -0.160000 0.625000 0.215000
v -0.160000 0.545000 0.135000
v -0.160000 0.625000 0.135000
v -0.080000 0.545000 0.215000
v -0.080000 0.625000 0.215000
v -0.080000 0.545000 0.135000
v -0.080000 0.625000 0.135000
v 0.080000 0.545000 0.185000
v 0.080000 0.865000 0.185000
v 0.080000 0.545000 0.025000
v 0.080000 0.865000 0.025000
v 0.160000 0.545000 0.185000
v 0.160000 0.865000 0.185000
v 0.160000 0.545000 0.025000
v 0.160000 0.865000 0.025000
v 0.080000 0.545000 0.215000
v 0.080000 0.625000 0.215000
v 0.080000 0.545000 0.135000
v 0.080000 0.625000 0.135000
v 0.160000 0.545000 0.215000
v 0.160000 0.625000 0.215000
v 0.160000 0.545000 0.135000
v 0.160000 0.625000 0.135000
v -0.200000 0.865000 0.170000
v -0.200000 1.105000 0.170000
v -0.200000 0.865000 -0.150000
v -0.200000 1.105000 -0.150000
v 0.200000 0.865000 0.170000
v 0.200000 1.105000 0.170000
v 0.200000 0.865000 -0.150000
v 0.200000 1.105000 -0.150000
v -0.160000 1.105000 0.165000
v -0.160000 1.265000 0.165000
v -0.160000 1.105000 -0.075000
v -0.160000 1.265000 -0.075000
v 0.160000 1.105000 0.165000
v 0.160000 1.265000 0.165000
v 0.160000 1.105000 -0.075000
v 0.160000 1.265000 -0.075000
v -0.080000 1.265000 0.125000
v -0.080000 1.345000 0.125000
v -0.080000 1.265000 -0.035000
v -0.080000 1.345000 -0.035000
v 0.080000 1.265000 0.125000
v 0.080000 1.345000 0.125000
v 0.080000 1.265000 -0.035000
v 0.080000 1.345000 -0.035000
v -0.160000 1.345000 0.190000
v -0.160000 1.585000 0.190000
v -0.160000 1.345000 -0.050000
v -0.160000 1.585000 -0.050000
v 0.160000 1.345000 0.190000
v 0.160000 1.585000 0.190000
v 0.160000 1.345000 -0.050000
v 0.160000 1.585000 -0.050000
v -0.080000 1.345000 0.210000
v -0.080000 1.425000 0.210000
v -0.080000 1.345000 0.130000
v -0.080000 1.425000 0.130000
v 0.080000 1.345000 0.210000
v 0.080000 1.425000 0.210000
v 0.080000 1.345000 0.130000
v 0.080000 1.425000 0.130000
v -0.160000 1.585000 0.110000
v -0.160000 1.665000 0.110000
v -0.160000 1.585000 0.030000
v -0.160000 1.665000 0.030000
v -0.080000 1.585000 0.110000
v -0.080000 1.665000 0.110000
v -0.080000 1.585000 0.030000
v -0.080000 1.665000 0.030000
v -0.200000 1.665000 0.110000
v -0.200000 1.745000 0.110000
v -0.200000 1.665000 0.030000
v -0.200000 1.745000 0.030000
v -0.120000 1.665000 0.110000
v -0.120000 1.745000 0.110000
v -0.120000 1.665000 0.030000
v -0.120000 1.745000 0.030000
v 0.080000 1.585000 0.110000
v 0.080000 1.665000 0.110000
v 0.080000 1.585000 0.030000
v 0.080000 1.665000 0.030000
v 0.160000 1.585000 0.110000
v 0.160000 1.665000 0.110000
v 0.160000 1.585000 0.030000
v 0.160000 1.665000 0.030000
v 0.120000 1.665000 0.110000
v 0.120000 1.745000 0.110000
v 0.120000 1.665000 0.030000
v 0.120000 1.745000 0.030000
v 0.200000 1.665000 0.110000
v 0.200000 1.745000 0.110000
v 0.200000 1.665000 0.030000
v 0.200000 1.745000 0.030000
v 0.160000 0.545000 -0.070000
v 0.160000 0.625000 -0.070000
v 0.160000 0.545000 -0.310000
v 0.160000 0.625000 -0.310000
v 0.240000 0.545000 -0.070000
v 0.240000 0.625000 -0.070000
v 0.240000 0.545000 -0.310000
v 0.240000 0.625000 -0.310000
v -0.020000 0.545000 0.020000
v -0.020000 0.625000 0.020000
v -0.020000 0.545000 -0.060000
v -0.020000 0.625000 -0.060000
v 0.220000 0.545000 0.020000
v 0.220000 0.625000 0.020000
v 0.220000 0.545000 -0.060000
v 0.220000 0.625000 -0.060000
v 0.240000 0.545000 0.170000
v 0.240000 0.625000 0.170000
v 0.240000 0.545000 0.010000
v 0.240000 0.625000 0.010000
v 0.320000 0.545000 0.170000
v 0.320000 0.625000 0.170000
v 0.320000 0.545000 0.010000
v 0.320000 0.625000 0.010000
v 0.240000 0.705000 0.170000
v 0.240000 0.545000 0.090000
v 0.240000 0.705000 0.090000
v 0.320000 0.705000 0.170000
v 0.320000 0.545000 0.090000
v 0.320000 0.705000 0.090000
v -0.480000 0.000000 0.480000
v -0.480000 0.070000 0.480000
v -0.480000 0.000000 -0.480000
v -0.480000 0.070000 -0.480000
v 0.480000 0.000000 0.480000
v 0.480000 0.070000 0.480000
v 0.480000 0.000000 -0.480000
v 0.480000 0.070000 -0.480000
v 0.000000 0.092000 -0.468700
v 0.000000 0.167000 -0.468700
v 0.275495 0.092000 -0.379186
v 0.275495 0.167000 -0.379186
v 0.445760 0.092000 -0.144836
v 0.445760 0.167000 -0.144836
v 0.445760 0.092000 0.144836
v 0.445760 0.167000 0.144836
v 0.275495 0.092000 0.379186
v 0.275495 0.167000 0.379186
v 0.000000 0.092000 0.468700
v 0.000000 0.167000 0.468700
v -0.275495 0.092000 0.379186
v -0.275495 0.167000 0.379186
v -0.445760 0.092000 0.144836
v -0.445760 0.167000 0.144836
v -0.445760 0.092000 -0.144836
v -0.445760 0.167000 -0.144836
v -0.275495 0.092000 -0.379186
v -0.275495 0.167000 -0.379186
v 0.000000 0.197000 -0.430000
v 0.000000 0.517000 -0.430000
v 0.252748 0.197000 -0.347877
v 0.252748 0.517000 -0.347877
v 0.408954 0.197000 -0.132877
v 0.408954 0.517000 -0.132877
v 0.408954 0.197000 0.132877
v 0.408954 0.517000 0.132877
v 0.252748 0.197000 0.347877
v 0.252748 0.517000 0.347877
v 0.000000 0.197000 0.430000
v 0.000000 0.517000 0.430000
v -0.252748 0.197000 0.347877
v -0.252748 0.517000 0.347877
v -0.408954 0.197000 0.132877
v -0.408954 0.517000 0.132877
v -0.408954 0.197000 -0.132877
v -0.408954 0.517000 -0.132877
v -0.252748 0.197000 -0.347877
v -0.252748 0.517000 -0.347877
v -0.470400 0.070000 0.470400
v -0.470400 0.092000 0.470400
v -0.470400 0.070000 -0.470400
v -0.470400 0.092000 -0.470400
v 0.470400 0.070000 0.470400
v 0.470400 0.092000 0.470400
v 0.470400 0.070000 -0.470400
v 0.470400 0.092000 -0.470400
v 0.000000 0.167000 -0.447200
v 0.000000 0.197000 -0.447200
v 0.262858 0.167000 -0.361792
v 0.262858 0.197000 -0.361792
v 0.425312 0.167000 -0.138192
v 0.425312 0.197000 -0.138192
v 0.425312 0.167000 0.138192
v 0.425312 0.197000 0.138192
v 0.262858 0.167000 0.361792
v 0.262858 0.197000 0.361792
v 0.000000 0.167000 0.447200
v 0.000000 0.197000 0.447200
v -0.262858 0.167000 0.361792
v -0.262858 0.197000 0.361792
v -0.425312 0.167000 0.138192
v -0.425312 0.197000 0.138192
v -0.425312 0.167000 -0.138192
v -0.425312 0.197000 -0.138192
v -0.262858 0.167000 -0.361792
v -0.262858 0.197000 -0.361792
v 0.000000 0.517000 -0.455800
v 0.000000 0.545000 -0.455800
v 0.267913 0.517000 -0.368750
v 0.267913 0.545000 -0.368750
v 0.433492 0.517000 -0.140850
v 0.433492 0.545000 -0.140850
v 0.433492 0.517000 0.140850
v 0.433492 0.545000 0.140850
v 0.267913 0.517000 0.368750
v 0.267913 0.545000 0.368750
v 0.000000 0.517000 0.455800
v 0.000000 0.545000 0.455800
v -0.267913 0.517000 0.368750
v -0.267913 0.545000 0.368750
v -0.433492 0.517000 0.140850
v -0.433492 0.545000 0.140850
v -0.433492 0.517000 -0.140850
v -0.433492 0.545000 -0.140850
v -0.267913 0.517000 -0.368750
v -0.267913 0.545000 -0.368750
v -0.100000 1.525000 0.166000
v -0.100000 1.565000 0.166000
v -0.100000 1.525000 0.138000
v -0.100000 1.565000 0.138000
v -0.060000 1.525000 0.166000
v -0.060000 1.565000 0.166000
v -0.060000 1.525000 0.138000
v -0.060000 1.565000 0.138000
v 0.060000 1.525000 0.166000
v 0.060000 1.565000 0.166000
v 0.060000 1.525000 0.138000
v 0.060000 1.565000 0.138000
v 0.100000 1.525000 0.166000
v 0.100000 1.565000 0.166000
v 0.100000 1.525000 0.138000
v 0.100000 1.565000 0.138000
v -0.040000 1.361000 0.230000
v -0.040000 1.441000 0.230000
v -0.040000 1.361000 0.202000
v -0.040000 1.441000 0.202000
v 0.040000 1.361000 0.230000
v 0.040000 1.441000 0.230000
v 0.040000 1.361000 0.202000
v 0.040000 1.441000 0.202000
v -0.120000 1.505000 0.175000
v -0.120000 1.585000 0.175000
v -0.120000 1.505000 0.095000
v -0.120000 1.585000 0.095000
v -0.040000 1.505000 0.175000
v -0.040000 1.585000 0.175000
v -0.040000 1.505000 0.095000
v -0.040000 1.585000 0.095000
v 0.040000 1.505000 0.175000
v 0.040000 1.585000 0.175000
v 0.040000 1.505000 0.095000
v 0.040000 1.585000 0.095000
v 0.120000 1.505000 0.175000
v 0.120000 1.585000 0.175000
v 0.120000 1.505000 0.095000
v 0.120000 1.585000 0.095000
vn -1.0000 -0.0000 -0.0000
vn -0.0000 -0.0000 -1.0000
vn 1.0000 -0.0000 -0.0000
vn -0.0000 -0.0000 1.0000
vn -0.0000 -1.0000 -0.0000
vn -0.0000 1.0000 -0.0000
vn 0.3090 -0.0000 -0.9511
vn 0.8090 -0.0000 -0.5878
vn 0.8090 -0.0000 0.5878
vn 0.3090 -0.0000 0.9511
vn -0.3090 -0.0000 0.9511
vn -0.8090 -0.0000 0.5878
vn -0.8090 -0.0000 -0.5878
vn -0.3090 -0.0000 -0.9511
vt 0.250000 0.250000
vt 0.750000 0.250000
vt 0.250000 0.750000
vt 0.750000 0.750000
s 0
usemtl fur
f 1/1/1 2/1/1 4/1/1 3/1/1
f 3/1/2 4/1/2 8/1/2 7/1/2
f 7/1/3 8/1/3 6/1/3 5/1/3
f 5/1/4 6/1/4 2/1/4 1/1/4
f 3/1/5 7/1/5 5/1/5 1/1/5
f 8/1/6 4/1/6 2/1/6 6/1/6
f 9/1/1 10/1/1 12/1/1 11/1/1
f 11/1/2 12/1/2 16/1/2 15/1/2
f 15/1/3 16/1/3 14/1/3 13/1/3
f 13/1/4 14/1/4 10/1/4 9/1/4
f 11/1/5 15/1/5 13/1/5 9/1/5
f 16/1/6 12/1/6 10/1/6 14/1/6
f 17/1/1 18/1/1 20/1/1 19/1/1
f 19/1/2 20/1/2 24/1/2 23/1/2
f 23/1/3 24/1/3 22/1/3 21/1/3
f 21/1/4 22/1/4 18/1/4 17/1/4
f 19/1/5 23/1/5 21/1/5 17/1/5
f 24/1/6 20/1/6 18/1/6 22/1/6
f 25/1/1 26/1/1 28/1/1 27/1/1
f 27/1/2 28/1/2 32/1/2 31/1/2
f 31/1/3 32/1/3 30/1/3 29/1/3
f 29/1/4 30/1/4 26/1/4 25/1/4
f 27/1/5 31/1/5 29/1/5 25/1/5
f 32/1/6 28/1/6 26/1/6 30/1/6
f 33/1/1 34/1/1 36/1/1 35/1/1
f 35/1/2 36/1/2 40/1/2 39/1/2
f 39/1/3 40/1/3 38/1/3 37/1/3
f 37/1/4 38/1/4 34/1/4 33/1/4
f 35/1/5 39/1/5 37/1/5 33/1/5
f 40/1/6 36/1/6 34/1/6 38/1/6
f 41/1/1 42/1/1 44/1/1 43/1/1
f 43/1/2 44/1/2 48/1/2 47/1/2
f 47/1/3 48/1/3 46/1/3 45/1/3
f 45/1/4 46/1/4 42/1/4 41/1/4
f 43/1/5 47/1/5 45/1/5 41/1/5
f 48/1/6 44/1/6 42/1/6 46/1/6
f 49/1/1 50/1/1 52/1/1 51/1/1
f 51/1/2 52/1/2 56/1/2 55/1/2
f 55/1/3 56/1/3 54/1/3 53/1/3
f 53/1/4 54/1/4 50/1/4 49/1/4
f 51/1/5 55/1/5 53/1/5 49/1/5
f 56/1/6 52/1/6 50/1/6 54/1/6
f 57/1/1 58/1/1 60/1/1 59/1/1
f 59/1/2 60/1/2 64/1/2 63/1/2
f 63/1/3 64/1/3 62/1/3 61/1/3
f 61/1/4 62/1/4 58/1/4 57/1/4
f 59/1/5 63/1/5 61/1/5 57/1/5
f 64/1/6 60/1/6 58/1/6 62/1/6
f 65/1/1 66/1/1 68/1/1 67/1/1
f 67/1/2 68/1/2 72/1/2 71/1/2
f 71/1/3 72/1/3 70/1/3 69/1/3
f 69/1/4 70/1/4 66/1/4 65/1/4
f 67/1/5 71/1/5 69/1/5 65/1/5
f 72/1/6 68/1/6 66/1/6 70/1/6
f 73/1/1 74/1/1 76/1/1 75/1/1
f 75/1/2 76/1/2 80/1/2 79/1/2
f 79/1/3 80/1/3 78/1/3 77/1/3
f 77/1/4 78/1/4 74/1/4 73/1/4
f 75/1/5 79/1/5 77/1/5 73/1/5
f 80/1/6 76/1/6 74/1/6 78/1/6
f 81/1/1 82/1/1 84/1/1 83/1/1
f 83/1/2 84/1/2 88/1/2 87/1/2
f 87/1/3 88/1/3 86/1/3 85/1/3
f 85/1/4 86/1/4 82/1/4 81/1/4
f 83/1/5 87/1/5 85/1/5 81/1/5
f 88/1/6 84/1/6 82/1/6 86/1/6
f 89/1/1 90/1/1 92/1/1 91/1/1
f 91/1/2 92/1/2 96/1/2 95/1/2
f 95/1/3 96/1/3 94/1/3 93/1/3
f 93/1/4 94/1/4 90/1/4 89/1/4
f 91/1/5 95/1/5 93/1/5 89/1/5
f 96/1/6 92/1/6 90/1/6 94/1/6
f 97/1/1 98/1/1 100/1/1 99/1/1
f 99/1/2 100/1/2 104/1/2 103/1/2
f 103/1/3 104/1/3 102/1/3 101/1/3
f 101/1/4 102/1/4 98/1/4 97/1/4
f 99/1/5 103/1/5 101/1/5 97/1/5
f 104/1/6 100/1/6 98/1/6 102/1/6
f 105/1/1 106/1/1 108/1/1 107/1/1
f 107/1/2 108/1/2 112/1/2 111/1/2
f 111/1/3 112/1/3 110/1/3 109/1/3
f 109/1/4 110/1/4 106/1/4 105/1/4
f 107/1/5 111/1/5 109/1/5 105/1/5
f 112/1/6 108/1/6 106/1/6 110/1/6
f 113/1/1 114/1/1 116/1/1 115/1/1
f 115/1/2 116/1/2 120/1/2 119/1/2
f 119/1/3 120/1/3 118/1/3 117/1/3
f 117/1/4 118/1/4 114/1/4 113/1/4
f 115/1/5 119/1/5 117/1/5 113/1/5
f 120/1/6 116/1/6 114/1/6 118/1/6
f 121/1/1 122/1/1 124/1/1 123/1/1
f 123/1/2 124/1/2 128/1/2 127/1/2
f 127/1/3 128/1/3 126/1/3 125/1/3
f 125/1/4 126/1/4 122/1/4 121/1/4
f 123/1/5 127/1/5 125/1/5 121/1/5
f 128/1/6 124/1/6 122/1/6 126/1/6
f 129/1/1 130/1/1 132/1/1 131/1/1
f 131/1/2 132/1/2 136/1/2 135/1/2
f 135/1/3 136/1/3 134/1/3 133/1/3
f 133/1/4 134/1/4 130/1/4 129/1/4
f 131/1/5 135/1/5 133/1/5 129/1/5
f 136/1/6 132/1/6 130/1/6 134/1/6
f 137/1/1 138/1/1 140/1/1 139/1/1
f 139/1/2 140/1/2 144/1/2 143/1/2
f 143/1/3 144/1/3 142/1/3 141/1/3
f 141/1/4 142/1/4 138/1/4 137/1/4
f 139/1/5 143/1/5 141/1/5 137/1/5
f 144/1/6 140/1/6 138/1/6 142/1/6
f 137/1/1 145/1/1 147/1/1 146/1/1
f 146/1/2 147/1/2 150/1/2 149/1/2
f 149/1/3 150/1/3 148/1/3 141/1/3
f 141/1/4 148/1/4 145/1/4 137/1/4
f 146/1/5 149/1/5 141/1/5 137/1/5
f 150/1/6 147/1/6 145/1/6 148/1/6
f 151/2/1 152/2/1 154/2/1 153/2/1
f 153/2/2 154/2/2 158/2/2 157/2/2
f 157/2/3 158/2/3 156/2/3 155/2/3
f 155/2/4 156/2/4 152/2/4 151/2/4
f 153/2/5 157/2/5 155/2/5 151/2/5
f 158/2/6 154/2/6 152/2/6 156/2/6
f 159/2/7 160/2/7 162/2/7 161/2/7
f 161/2/8 162/2/8 164/2/8 163/2/8
f 163/2/3 164/2/3 166/2/3 165/2/3
f 165/2/9 166/2/9 168/2/9 167/2/9
f 167/2/10 168/2/10 170/2/10 169/2/10
f 169/2/11 170/2/11 172/2/11 171/2/11
f 171/2/12 172/2/12 174/2/12 173/2/12
f 173/2/1 174/2/1 176/2/1 175/2/1
f 162/2/6 160/2/6 178/2/6 176/2/6 174/2/6 172/2/6 170/2/6 168/2/6 166/2/6 164/2/6
f 175/2/13 176/2/13 178/2/13 177/2/13
f 177/2/14 178/2/14 160/2/14 159/2/14
f 159/2/5 161/2/5 163/2/5 165/2/5 167/2/5 169/2/5 171/2/5 173/2/5 175/2/5 177/2/5
f 179/2/7 180/2/7 182/2/7 181/2/7
f 181/2/8 182/2/8 184/2/8 183/2/8
f 183/2/3 184/2/3 186/2/3 185/2/3
f 185/2/9 186/2/9 188/2/9 187/2/9
f 187/2/10 188/2/10 190/2/10 189/2/10
f 189/2/11 190/2/11 192/2/11 191/2/11
f 191/2/12 192/2/12 194/2/12 193/2/12
f 193/2/1 194/2/1 196/2/1 195/2/1
f 182/2/6 180/2/6 198/2/6 196/2/6 194/2/6 192/2/6 190/2/6 188/2/6 186/2/6 184/2/6
f 195/2/13 196/2/13 198/2/13 197/2/13
f 197/2/14 198/2/14 180/2/14 179/2/14
f 179/2/5 181/2/5 183/2/5 185/2/5 187/2/5 189/2/5 191/2/5 193/2/5 195/2/5 197/2/5
f 199/3/1 200/3/1 202/3/1 201/3/1
f 201/3/2 202/3/2 206/3/2 205/3/2
f 205/3/3 206/3/3 204/3/3 203/3/3
f 203/3/4 204/3/4 200/3/4 199/3/4
f 201/3/5 205/3/5 203/3/5 199/3/5
f 206/3/6 202/3/6 200/3/6 204/3/6
f 207/3/7 208/3/7 210/3/7 209/3/7
f 209/3/8 210/3/8 212/3/8 211/3/8
f 211/3/3 212/3/3 214/3/3 213/3/3
f 213/3/9 214/3/9 216/3/9 215/3/9
f 215/3/10 216/3/10 218/3/10 217/3/10
f 217/3/11 218/3/11 220/3/11 219/3/11
f 219/3/12 220/3/12 222/3/12 221/3/12
f 221/3/1 222/3/1 224/3/1 223/3/1
f 210/3/6 208/3/6 226/3/6 224/3/6 222/3/6 220/3/6 218/3/6 216/3/6 214/3/6 212/3/6
f 223/3/13 224/3/13 226/3/13 225/3/13
f 225/3/14 226/3/14 208/3/14 207/3/14
f 207/3/5 209/3/5 211/3/5 213/3/5 215/3/5 217/3/5 219/3/5 221/3/5 223/3/5 225/3/5
f 227/3/7 228/3/7 230/3/7 229/3/7
f 229/3/8 230/3/8 232/3/8 231/3/8
f 231/3/3 232/3/3 234/3/3 233/3/3
f 233/3/9 234/3/9 236/3/9 235/3/9
f 235/3/10 236/3/10 238/3/10 237/3/10
f 237/3/11 238/3/11 240/3/11 239/3/11
f 239/3/12 240/3/12 242/3/12 241/3/12
f 241/3/1 242/3/1 244/3/1 243/3/1
f 230/3/6 228/3/6 246/3/6 244/3/6 242/3/6 240/3/6 238/3/6 236/3/6 234/3/6 232/3/6
f 243/3/13 244/3/13 246/3/13 245/3/13
f 245/3/14 246/3/14 228/3/14 227/3/14
f 227/3/5 229/3/5 231/3/5 233/3/5 235/3/5 237/3/5 239/3/5 241/3/5 243/3/5 245/3/5
f 247/3/1 248/3/1 250/3/1 249/3/1
f 249/3/2 250/3/2 254/3/2 253/3/2
f 253/3/3 254/3/3 252/3/3 251/3/3
f 251/3/4 252/3/4 248/3/4 247/3/4
f 249/3/5 253/3/5 251/3/5 247/3/5
f 254/3/6 250/3/6 248/3/6 252/3/6
f 255/3/1 256/3/1 258/3/1 257/3/1
f 257/3/2 258/3/2 262/3/2 261/3/2
f 261/3/3 262/3/3 260/3/3 259/3/3
f 259/3/4 260/3/4 256/3/4 255/3/4
f 257/3/5 261/3/5 259/3/5 255/3/5
f 262/3/6 258/3/6 256/3/6 260/3/6
f 263/3/1 264/3/1 266/3/1 265/3/1
f 265/3/2 266/3/2 270/3/2 269/3/2
f 269/3/3 270/3/3 268/3/3 267/3/3
f 267/3/4 268/3/4 264/3/4 263/3/4
f 265/3/5 269/3/5 267/3/5 263/3/5
f 270/3/6 266/3/6 264/3/6 268/3/6
f 271/4/1 272/4/1 274/4/1 273/4/1
f 273/4/2 274/4/2 278/4/2 277/4/2
f 277/4/3 278/4/3 276/4/3 275/4/3
f 275/4/4 276/4/4 272/4/4 271/4/4
f 273/4/5 277/4/5 275/4/5 271/4/5
f 278/4/6 274/4/6 272/4/6 276/4/6
f 279/4/1 280/4/1 282/4/1 281/4/1
f 281/4/2 282/4/2 286/4/2 285/4/2
f 285/4/3 286/4/3 284/4/3 283/4/3
f 283/4/4 284/4/4 280/4/4 279/4/4
f 281/4/5 285/4/5 283/4/5 279/4/5
f 286/4/6 282/4/6 280/4/6 284/4/6
