# Blender 5.2.0 LTS
# www.blender.org
mtllib aldrich_count_coffin.mtl
o aldrich_count_coffin
v -2.185000 0.000000 0.460000
v -2.185000 0.460000 0.460000
v -2.185000 0.000000 -0.460000
v -2.185000 0.460000 -0.460000
v -0.885000 0.000000 0.460000
v -0.885000 0.460000 0.460000
v -0.885000 0.000000 -0.460000
v -0.885000 0.460000 -0.460000
v -0.990000 0.000000 0.350000
v -0.990000 0.460000 0.350000
v -0.990000 0.000000 -0.350000
v -0.990000 0.460000 -0.350000
v 0.260000 0.000000 0.350000
v 0.260000 0.460000 0.350000
v 0.260000 0.000000 -0.350000
v 0.260000 0.460000 -0.350000
v -2.275000 0.000000 0.490000
v -2.275000 0.100000 0.490000
v -2.275000 0.000000 -0.490000
v -2.275000 0.100000 -0.490000
v 0.305000 0.000000 0.490000
v 0.305000 0.100000 0.490000
v 0.305000 0.000000 -0.490000
v 0.305000 0.100000 -0.490000
v -2.305000 1.319636 0.471379
v -2.305000 1.334097 0.352253
v -2.305000 0.465903 0.367747
v -2.305000 0.480364 0.248621
v 0.135000 1.319636 0.471379
v 0.135000 1.334097 0.352253
v 0.135000 0.465903 0.367747
v 0.135000 0.480364 0.248621
v -2.135000 0.410000 0.360000
v -2.135000 0.470000 0.360000
v -2.135000 0.410000 -0.360000
v -2.135000 0.470000 -0.360000
v 0.165000 0.410000 0.360000
v 0.165000 0.470000 0.360000
v 0.165000 0.410000 -0.360000
v 0.165000 0.470000 -0.360000
v -2.075000 0.450000 0.220000
v -2.075000 0.550000 0.220000
v -2.075000 0.450000 -0.220000
v -2.075000 0.550000 -0.220000
v -1.735000 0.450000 0.220000
v -1.735000 0.550000 0.220000
v -1.735000 0.450000 -0.220000
v -1.735000 0.550000 -0.220000
v -1.970000 0.010000 0.495000
v -1.970000 0.510000 0.495000
v -1.970000 0.010000 -0.495000
v -1.970000 0.510000 -0.495000
v -1.900000 0.010000 0.495000
v -1.900000 0.510000 0.495000
v -1.900000 0.010000 -0.495000
v -1.900000 0.510000 -0.495000
v -1.320000 0.010000 0.495000
v -1.320000 0.510000 0.495000
v -1.320000 0.010000 -0.495000
v -1.320000 0.510000 -0.495000
v -1.250000 0.010000 0.495000
v -1.250000 0.510000 0.495000
v -1.250000 0.010000 -0.495000
v -1.250000 0.510000 -0.495000
v -0.670000 0.010000 0.495000
v -0.670000 0.510000 0.495000
v -0.670000 0.010000 -0.495000
v -0.670000 0.510000 -0.495000
v -0.600000 0.010000 0.495000
v -0.600000 0.510000 0.495000
v -0.600000 0.010000 -0.495000
v -0.600000 0.510000 -0.495000
v -0.070000 0.010000 0.495000
v -0.070000 0.510000 0.495000
v -0.070000 0.010000 -0.495000
v -0.070000 0.510000 -0.495000
v -0.000000 0.010000 0.495000
v -0.000000 0.510000 0.495000
v -0.000000 0.010000 -0.495000
v -0.000000 0.510000 -0.495000
v -2.135000 0.500004 0.390000
v 0.165000 0.499996 0.390000
v -2.135000 0.456703 0.415000
v 0.165000 0.456695 0.415000
v -2.135000 0.456703 0.465000
v 0.165000 0.456695 0.465000
v -2.135000 0.500004 0.490000
v 0.165000 0.499996 0.490000
v -2.135000 0.543305 0.465000
v 0.165000 0.543297 0.465000
v -2.135000 0.543305 0.415000
v 0.165000 0.543297 0.415000
vn -1.0000 -0.0000 -0.0000
vn -0.0000 -0.0000 -1.0000
vn 1.0000 -0.0000 -0.0000
vn -0.0000 -0.0000 1.0000
vn -0.0000 -1.0000 -0.0000
vn -0.0000 1.0000 -0.0000
vn -0.0000 -0.9927 -0.1205
vn -0.0000 0.9927 0.1205
vn -0.0000 -0.1205 0.9927
vn -0.0000 0.1205 -0.9927
vn -0.0000 -0.5000 -0.8660
vn -0.0000 -0.5000 0.8660
vn -0.0000 0.5000 0.8660
vn -0.0000 0.5000 -0.8660
vt 0.250000 0.250000
vt 0.250000 0.750000
vt 0.750000 0.250000
s 0
usemtl slot0
f 1/1/1 2/1/1 4/1/1 3/1/1
f 3/1/2 4/1/2 8/1/2 7/1/2
f 7/1/3 8/1/3 6/1/3 5/1/3
f 5/1/4 6/1/4 2/1/4 1/1/4
f 3/1/5 7/1/5 5/1/5 1/1/5
f 8/1/6 4/1/6 2/1/6 6/1/6
f 9/1/1 10/1/1 12/1/1 11/1/1
f 11/1/2 12/1/2 16/1/2 15/1/2
f 15/1/3 16/1/3 14/1/3 13/1/3
f 13/1/4 14/1/4 10/1/4 9/1/4
f 11/1/5 15/1/5 13/1/5 9/1/5
f 16/1/6 12/1/6 10/1/6 14/1/6
f 17/1/1 18/1/1 20/1/1 19/1/1
f 19/1/2 20/1/2 24/1/2 23/1/2
f 23/1/3 24/1/3 22/1/3 21/1/3
f 21/1/4 22/1/4 18/1/4 17/1/4
f 19/1/5 23/1/5 21/1/5 17/1/5
f 24/1/6 20/1/6 18/1/6 22/1/6
f 25/1/1 26/1/1 28/1/1 27/1/1
f 27/1/7 28/1/7 32/1/7 31/1/7
f 31/1/3 32/1/3 30/1/3 29/1/3
f 29/1/8 30/1/8 26/1/8 25/1/8
f 27/1/9 31/1/9 29/1/9 25/1/9
f 32/1/10 28/1/10 26/1/10 30/1/10
f 33/2/1 34/2/1 36/2/1 35/2/1
f 35/2/2 36/2/2 40/2/2 39/2/2
f 39/2/3 40/2/3 38/2/3 37/2/3
f 37/2/4 38/2/4 34/2/4 33/2/4
f 35/2/5 39/2/5 37/2/5 33/2/5
f 40/2/6 36/2/6 34/2/6 38/2/6
f 41/2/1 42/2/1 44/2/1 43/2/1
f 43/2/2 44/2/2 48/2/2 47/2/2
f 47/2/3 48/2/3 46/2/3 45/2/3
f 45/2/4 46/2/4 42/2/4 41/2/4
f 43/2/5 47/2/5 45/2/5 41/2/5
f 48/2/6 44/2/6 42/2/6 46/2/6
f 49/3/1 50/3/1 52/3/1 51/3/1
f 51/3/2 52/3/2 56/3/2 55/3/2
f 55/3/3 56/3/3 54/3/3 53/3/3
f 53/3/4 54/3/4 50/3/4 49/3/4
f 51/3/5 55/3/5 53/3/5 49/3/5
f 56/3/6 52/3/6 50/3/6 54/3/6
f 57/3/1 58/3/1 60/3/1 59/3/1
f 59/3/2 60/3/2 64/3/2 63/3/2
f 63/3/3 64/3/3 62/3/3 61/3/3
f 61/3/4 62/3/4 58/3/4 57/3/4
f 59/3/5 63/3/5 61/3/5 57/3/5
f 64/3/6 60/3/6 58/3/6 62/3/6
f 65/3/1 66/3/1 68/3/1 67/3/1
f 67/3/2 68/3/2 72/3/2 71/3/2
f 71/3/3 72/3/3 70/3/3 69/3/3
f 69/3/4 70/3/4 66/3/4 65/3/4
f 67/3/5 71/3/5 69/3/5 65/3/5
f 72/3/6 68/3/6 66/3/6 70/3/6
f 73/3/1 74/3/1 76/3/1 75/3/1
f 75/3/2 76/3/2 80/3/2 79/3/2
f 79/3/3 80/3/3 78/3/3 77/3/3
f 77/3/4 78/3/4 74/3/4 73/3/4
f 75/3/5 79/3/5 77/3/5 73/3/5
f 80/3/6 76/3/6 74/3/6 78/3/6
f 81/3/11 82/3/11 84/3/11 83/3/11
f 83/3/5 84/3/5 86/3/5 85/3/5
f 85/3/12 86/3/12 88/3/12 87/3/12
f 87/3/13 88/3/13 90/3/13 89/3/13
f 84/3/3 82/3/3 92/3/3 90/3/3 88/3/3 86/3/3
f 89/3/6 90/3/6 92/3/6 91/3/6
f 91/3/14 92/3/14 82/3/14 81/3/14
f 81/3/1 83/3/1 85/3/1 87/3/1 89/3/1 91/3/1
