# Blender 5.2.0 LTS
# www.blender.org
mtllib aldrich_blood_well.mtl
o aldrich_blood_well
v -1.050000 0.000000 -0.740000
v -1.050000 0.100000 -0.740000
v -0.728926 0.000000 -0.666717
v -0.728926 0.100000 -0.666717
v -0.471445 0.000000 -0.461383
v -0.471445 0.100000 -0.461383
v -0.328553 0.000000 -0.164666
v -0.328553 0.100000 -0.164666
v -0.328553 0.000000 0.164666
v -0.328553 0.100000 0.164666
v -0.471445 0.000000 0.461383
v -0.471445 0.100000 0.461383
v -0.728926 0.000000 0.666717
v -0.728926 0.100000 0.666717
v -1.050000 0.000000 0.740000
v -1.050000 0.100000 0.740000
v -1.371074 0.000000 0.666717
v -1.371074 0.100000 0.666717
v -1.628555 0.000000 0.461383
v -1.628555 0.100000 0.461383
v -1.771447 0.000000 0.164666
v -1.771447 0.100000 0.164666
v -1.771447 0.000000 -0.164666
v -1.771447 0.100000 -0.164666
v -1.628555 0.000000 -0.461383
v -1.628555 0.100000 -0.461383
v -1.371074 0.000000 -0.666717
v -1.371074 0.100000 -0.666717
v -0.340000 0.340000 0.000000
v -0.430000 0.620000 0.000000
v -0.520000 0.340000 0.000000
v -0.430000 0.060000 0.000000
v -0.394046 0.340000 -0.271705
v -0.477195 0.620000 -0.237264
v -0.560344 0.340000 -0.202822
v -0.477195 0.060000 -0.237264
v -0.547954 0.340000 -0.502046
v -0.611594 0.620000 -0.438406
v -0.675234 0.340000 -0.374767
v -0.611594 0.060000 -0.438406
v -0.778295 0.340000 -0.655954
v -0.812736 0.620000 -0.572805
v -0.847178 0.340000 -0.489656
v -0.812736 0.060000 -0.572805
v -1.050000 0.340000 -0.710000
v -1.050000 0.620000 -0.620000
v -1.050000 0.340000 -0.530000
v -1.050000 0.060000 -0.620000
v -1.321705 0.340000 -0.655954
v -1.287264 0.620000 -0.572805
v -1.252822 0.340000 -0.489656
v -1.287264 0.060000 -0.572805
v -1.552046 0.340000 -0.502046
v -1.488406 0.620000 -0.438406
v -1.424767 0.340000 -0.374766
v -1.488406 0.060000 -0.438406
v -1.705955 0.340000 -0.271705
v -1.622805 0.620000 -0.237264
v -1.539656 0.340000 -0.202822
v -1.622805 0.060000 -0.237264
v -1.760000 0.340000 -0.000000
v -1.670000 0.620000 -0.000000
v -1.580000 0.340000 -0.000000
v -1.670000 0.060000 -0.000000
v -1.705955 0.340000 0.271705
v -1.622805 0.620000 0.237264
v -1.539656 0.340000 0.202822
v -1.622805 0.060000 0.237264
v -1.552046 0.340000 0.502046
v -1.488406 0.620000 0.438406
v -1.424767 0.340000 0.374766
v -1.488406 0.060000 0.438406
v -1.321705 0.340000 0.655954
v -1.287264 0.620000 0.572805
v -1.252822 0.340000 0.489656
v -1.287264 0.060000 0.572805
v -1.050000 0.340000 0.710000
v -1.050000 0.620000 0.620000
v -1.050000 0.340000 0.530000
v -1.050000 0.060000 0.620000
v -0.778295 0.340000 0.655954
v -0.812736 0.620000 0.572805
v -0.847178 0.340000 0.489656
v -0.812736 0.060000 0.572805
v -0.547954 0.340000 0.502046
v -0.611594 0.620000 0.438406
v -0.675234 0.340000 0.374767
v -0.611594 0.060000 0.438406
v -0.394046 0.340000 0.271706
v -0.477195 0.620000 0.237264
v -0.560344 0.340000 0.202822
v -0.477195 0.060000 0.237264
v -0.530000 0.550000 0.070000
v -0.530000 0.690000 0.070000
v -0.530000 0.550000 -0.070000
v -0.530000 0.690000 -0.070000
v -0.330000 0.550000 0.070000
v -0.330000 0.690000 0.070000
v -0.330000 0.550000 -0.070000
v -0.330000 0.690000 -0.070000
v -0.632807 0.550000 -0.318198
v -0.632807 0.690000 -0.318198
v -0.731802 0.550000 -0.417193
v -0.731802 0.690000 -0.417193
v -0.491386 0.550000 -0.459619
v -0.491386 0.690000 -0.459619
v -0.590381 0.550000 -0.558614
v -0.590381 0.690000 -0.558614
v -0.980000 0.550000 -0.520000
v -0.980000 0.690000 -0.520000
v -1.120000 0.550000 -0.520000
v -1.120000 0.690000 -0.520000
v -0.980000 0.550000 -0.720000
v -0.980000 0.690000 -0.720000
v -1.120000 0.550000 -0.720000
v -1.120000 0.690000 -0.720000
v -1.368198 0.550000 -0.417193
v -1.368198 0.690000 -0.417193
v -1.467193 0.550000 -0.318198
v -1.467193 0.690000 -0.318198
v -1.509619 0.550000 -0.558614
v -1.509619 0.690000 -0.558614
v -1.608614 0.550000 -0.459619
v -1.608614 0.690000 -0.459619
v -1.570000 0.550000 -0.070000
v -1.570000 0.690000 -0.070000
v -1.570000 0.550000 0.070000
v -1.570000 0.690000 0.070000
v -1.770000 0.550000 -0.070000
v -1.770000 0.690000 -0.070000
v -1.770000 0.550000 0.070000
v -1.770000 0.690000 0.070000
v -1.467193 0.550000 0.318198
v -1.467193 0.690000 0.318198
v -1.368198 0.550000 0.417193
v -1.368198 0.690000 0.417193
v -1.608614 0.550000 0.459619
v -1.608614 0.690000 0.459619
v -1.509619 0.550000 0.558614
v -1.509619 0.690000 0.558614
v -1.120000 0.550000 0.520000
v -1.120000 0.690000 0.520000
v -0.980000 0.550000 0.520000
v -0.980000 0.690000 0.520000
v -1.120000 0.550000 0.720000
v -1.120000 0.690000 0.720000
v -0.980000 0.550000 0.720000
v -0.980000 0.690000 0.720000
v -0.731802 0.550000 0.417193
v -0.731802 0.690000 0.417193
v -0.632807 0.550000 0.318198
v -0.632807 0.690000 0.318198
v -0.590381 0.550000 0.558614
v -0.590381 0.690000 0.558614
v -0.491386 0.550000 0.459619
v -0.491386 0.690000 0.459619
v -1.050000 0.490000 -0.560000
v -1.050000 0.550000 -0.560000
v -0.835697 0.490000 -0.517373
v -0.835697 0.550000 -0.517373
v -0.654020 0.490000 -0.395980
v -0.654020 0.550000 -0.395980
v -0.532628 0.490000 -0.214303
v -0.532628 0.550000 -0.214303
v -0.490000 0.490000 0.000000
v -0.490000 0.550000 0.000000
v -0.532628 0.490000 0.214303
v -0.532628 0.550000 0.214303
v -0.654020 0.490000 0.395980
v -0.654020 0.550000 0.395980
v -0.835697 0.490000 0.517373
v -0.835697 0.550000 0.517373
v -1.050000 0.490000 0.560000
v -1.050000 0.550000 0.560000
v -1.264303 0.490000 0.517373
v -1.264303 0.550000 0.517373
v -1.445980 0.490000 0.395980
v -1.445980 0.550000 0.395980
v -1.567373 0.490000 0.214303
v -1.567373 0.550000 0.214303
v -1.610000 0.490000 0.000000
v -1.610000 0.550000 0.000000
v -1.567373 0.490000 -0.214303
v -1.567373 0.550000 -0.214303
v -1.445980 0.490000 -0.395980
v -1.445980 0.550000 -0.395980
v -1.264303 0.490000 -0.517373
v -1.264303 0.550000 -0.517373
v -0.360000 0.090000 -0.030000
v -0.360000 0.120000 -0.030000
v -0.360000 0.090000 -0.290000
v -0.360000 0.120000 -0.290000
v 0.100000 0.090000 -0.030000
v 0.100000 0.120000 -0.030000
v 0.100000 0.090000 -0.290000
v 0.100000 0.120000 -0.290000
v -2.000000 0.090000 0.070000
v -2.000000 1.710000 0.070000
v -2.000000 0.090000 -0.070000
v -2.000000 1.710000 -0.070000
v -1.860000 0.090000 0.070000
v -1.860000 1.710000 0.070000
v -1.860000 0.090000 -0.070000
v -1.860000 1.710000 -0.070000
v -0.240000 0.090000 0.070000
v -0.240000 1.710000 0.070000
v -0.240000 0.090000 -0.070000
v -0.240000 1.710000 -0.070000
v -0.100000 0.090000 0.070000
v -0.100000 1.710000 0.070000
v -0.100000 0.090000 -0.070000
v -0.100000 1.710000 -0.070000
v -2.050000 1.670000 0.080000
v -2.050000 1.810000 0.080000
v -2.050000 1.670000 -0.080000
v -2.050000 1.810000 -0.080000
v -0.050000 1.670000 0.080000
v -0.050000 1.810000 0.080000
v -0.050000 1.670000 -0.080000
v -0.050000 1.810000 -0.080000
v -1.800000 1.520003 -0.100000
v -0.300000 1.519997 -0.100000
v -1.800000 1.449292 -0.070711
v -0.300000 1.449287 -0.070711
v -1.800000 1.420003 0.000000
v -0.300000 1.419997 0.000000
v -1.800000 1.449292 0.070711
v -0.300000 1.449287 0.070711
v -1.800000 1.520003 0.100000
v -0.300000 1.519997 0.100000
v -1.800000 1.590713 0.070711
v -0.300000 1.590708 0.070711
v -1.800000 1.620003 0.000000
v -0.300000 1.619997 0.000000
v -1.800000 1.590713 -0.070711
v -0.300000 1.590708 -0.070711
v -0.220000 1.490000 0.030000
v -0.220000 1.550000 0.030000
v -0.220000 1.490000 -0.030000
v -0.220000 1.550000 -0.030000
v 0.080000 1.490000 0.030000
v 0.080000 1.550000 0.030000
v 0.080000 1.490000 -0.030000
v 0.080000 1.550000 -0.030000
v -0.865000 0.980000 0.015000
v -0.865000 1.500000 0.015000
v -0.865000 0.980000 -0.015000
v -0.865000 1.500000 -0.015000
v -0.835000 0.980000 0.015000
v -0.835000 1.500000 0.015000
v -0.835000 0.980000 -0.015000
v -0.835000 1.500000 -0.015000
v -0.870000 0.860000 -0.150000
v -0.870000 1.120000 -0.180000
v -0.781832 0.860000 -0.121353
v -0.764199 1.120000 -0.145623
v -0.727342 0.860000 -0.046353
v -0.698810 1.120000 -0.055623
v -0.727342 0.860000 0.046353
v -0.698810 1.120000 0.055623
v -0.781832 0.860000 0.121353
v -0.764199 1.120000 0.145623
v -0.870000 0.860000 0.150000
v -0.870000 1.120000 0.180000
v -0.958168 0.860000 0.121353
v -0.975801 1.120000 0.145623
v -1.012659 0.860000 0.046353
v -1.041190 1.120000 0.055623
v -1.012659 0.860000 -0.046353
v -1.041190 1.120000 -0.055623
v -0.958168 0.860000 -0.121353
v -0.975801 1.120000 -0.145623
v -2.100000 2.036514 0.497001
v -2.100000 2.096191 0.460413
v -2.100000 1.743809 0.019587
v -2.100000 1.803486 -0.017001
v -0.000000 2.036514 0.497001
v -0.000000 2.096191 0.460413
v -0.000000 1.743809 0.019587
v -0.000000 1.803486 -0.017001
v -2.100000 1.743809 -0.019587
v -2.100000 1.803486 0.017001
v -2.100000 2.036514 -0.497001
v -2.100000 2.096191 -0.460413
v -0.000000 1.743809 -0.019587
v -0.000000 1.803486 0.017001
v -0.000000 2.036514 -0.497001
v -0.000000 2.096191 -0.460413
vn 0.2225 -0.0000 -0.9749
vn 0.6235 -0.0000 -0.7818
vn 0.9010 -0.0000 -0.4339
vn 1.0000 -0.0000 -0.0000
vn 0.9010 -0.0000 0.4339
vn 0.6235 -0.0000 0.7818
vn 0.2225 -0.0000 0.9749
vn -0.2225 -0.0000 0.9749
vn -0.6235 -0.0000 0.7818
vn -0.9010 -0.0000 0.4339
vn -1.0000 -0.0000 -0.0000
vn -0.9010 -0.0000 -0.4339
vn -0.0000 1.0000 -0.0000
vn -0.6235 -0.0000 -0.7818
vn -0.2225 -0.0000 -0.9749
vn -0.0000 -1.0000 -0.0000
vn 0.9354 0.3007 -0.1861
vn -0.9354 0.3007 0.1861
vn -0.9354 -0.3007 0.1861
vn 0.9354 -0.3007 -0.1861
vn 0.7930 0.3007 -0.5299
vn -0.7930 0.3007 0.5299
vn -0.7930 -0.3007 0.5299
vn 0.7930 -0.3007 -0.5299
vn 0.5299 0.3007 -0.7930
vn -0.5299 0.3007 0.7930
vn -0.5299 -0.3007 0.7930
vn 0.5299 -0.3007 -0.7930
vn 0.1861 0.3007 -0.9354
vn -0.1861 0.3007 0.9354
vn -0.1861 -0.3007 0.9354
vn 0.1861 -0.3007 -0.9354
vn -0.1861 0.3007 -0.9354
vn 0.1861 0.3007 0.9354
vn 0.1861 -0.3007 0.9354
vn -0.1861 -0.3007 -0.9354
vn -0.5299 0.3007 -0.7930
vn 0.5299 0.3007 0.7930
vn 0.5299 -0.3007 0.7930
vn -0.5299 -0.3007 -0.7930
vn -0.7930 0.3007 -0.5299
vn 0.7930 0.3007 0.5299
vn 0.7930 -0.3007 0.5299
vn -0.7930 -0.3007 -0.5299
vn -0.9354 0.3007 -0.1861
vn 0.9354 0.3007 0.1861
vn 0.9354 -0.3007 0.1861
vn -0.9354 -0.3007 -0.1861
vn -0.0000 -0.0000 -1.0000
vn -0.0000 -0.0000 1.0000
vn -0.7071 -0.0000 0.7071
vn -0.7071 -0.0000 -0.7071
vn 0.7071 -0.0000 -0.7071
vn 0.7071 -0.0000 0.7071
vn 0.1951 -0.0000 -0.9808
vn 0.5556 -0.0000 -0.8315
vn 0.8315 -0.0000 -0.5556
vn 0.9808 -0.0000 -0.1951
vn 0.9808 -0.0000 0.1951
vn 0.8315 -0.0000 0.5556
vn 0.5556 -0.0000 0.8315
vn 0.1951 -0.0000 0.9808
vn -0.1951 -0.0000 0.9808
vn -0.5556 -0.0000 0.8315
vn -0.8315 -0.0000 0.5556
vn -0.9808 -0.0000 0.1951
vn -0.9808 -0.0000 -0.1951
vn -0.8315 -0.0000 -0.5556
vn -0.5556 -0.0000 -0.8315
vn -0.1951 -0.0000 -0.9808
vn -0.0000 -0.3827 -0.9239
vn -0.0000 -0.9239 -0.3827
vn -0.0000 -0.9239 0.3827
vn -0.0000 -0.3827 0.9239
vn -0.0000 0.3827 0.9239
vn -0.0000 0.9239 0.3827
vn -0.0000 0.9239 -0.3827
vn -0.0000 0.3827 -0.9239
vn 0.3072 -0.1091 -0.9454
vn 0.8042 -0.1091 -0.5843
vn 0.9940 -0.1091 -0.0000
vn 0.8042 -0.1091 0.5843
vn 0.3072 -0.1091 0.9454
vn -0.3072 -0.1091 0.9454
vn -0.8042 -0.1091 0.5843
vn -0.9940 -0.1091 -0.0000
vn -0.8042 -0.1091 -0.5843
vn -0.3072 -0.1091 -0.9454
vn -0.0000 -0.5227 -0.8525
vn -0.0000 0.5227 0.8525
vn -0.0000 -0.8525 0.5227
vn -0.0000 0.8525 -0.5227
vn -0.0000 0.5227 -0.8525
vn -0.0000 -0.5227 0.8525
vn -0.0000 -0.8525 -0.5227
vn -0.0000 0.8525 0.5227
vt 0.250000 0.250000
vt 0.250000 0.750000
vt 0.750000 0.250000
s 0
usemtl slot0
f 1/1/1 2/1/1 4/1/1 3/1/1
f 3/1/2 4/1/2 6/1/2 5/1/2
f 5/1/3 6/1/3 8/1/3 7/1/3
f 7/1/4 8/1/4 10/1/4 9/1/4
f 9/1/5 10/1/5 12/1/5 11/1/5
f 11/1/6 12/1/6 14/1/6 13/1/6
f 13/1/7 14/1/7 16/1/7 15/1/7
f 15/1/8 16/1/8 18/1/8 17/1/8
f 17/1/9 18/1/9 20/1/9 19/1/9
f 19/1/10 20/1/10 22/1/10 21/1/10
f 21/1/11 22/1/11 24/1/11 23/1/11
f 23/1/12 24/1/12 26/1/12 25/1/12
f 4/1/13 2/1/13 28/1/13 26/1/13 24/1/13 22/1/13 20/1/13 18/1/13 16/1/13 14/1/13 12/1/13 10/1/13 8/1/13 6/1/13
f 25/1/14 26/1/14 28/1/14 27/1/14
f 27/1/15 28/1/15 2/1/15 1/1/15
f 1/1/16 3/1/16 5/1/16 7/1/16 9/1/16 11/1/16 13/1/16 15/1/16 17/1/16 19/1/16 21/1/16 23/1/16 25/1/16 27/1/16
f 29/1/17 33/1/17 34/1/17 30/1/17
f 30/1/18 34/1/18 35/1/18 31/1/18
f 31/1/19 35/1/19 36/1/19 32/1/19
f 32/1/20 36/1/20 33/1/20 29/1/20
f 33/1/21 37/1/21 38/1/21 34/1/21
f 34/1/22 38/1/22 39/1/22 35/1/22
f 35/1/23 39/1/23 40/1/23 36/1/23
f 36/1/24 40/1/24 37/1/24 33/1/24
f 37/1/25 41/1/25 42/1/25 38/1/25
f 38/1/26 42/1/26 43/1/26 39/1/26
f 39/1/27 43/1/27 44/1/27 40/1/27
f 40/1/28 44/1/28 41/1/28 37/1/28
f 41/1/29 45/1/29 46/1/29 42/1/29
f 42/1/30 46/1/30 47/1/30 43/1/30
f 43/1/31 47/1/31 48/1/31 44/1/31
f 44/1/32 48/1/32 45/1/32 41/1/32
f 45/1/33 49/1/33 50/1/33 46/1/33
f 46/1/34 50/1/34 51/1/34 47/1/34
f 47/1/35 51/1/35 52/1/35 48/1/35
f 48/1/36 52/1/36 49/1/36 45/1/36
f 49/1/37 53/1/37 54/1/37 50/1/37
f 50/1/38 54/1/38 55/1/38 51/1/38
f 51/1/39 55/1/39 56/1/39 52/1/39
f 52/1/40 56/1/40 53/1/40 49/1/40
f 53/1/41 57/1/41 58/1/41 54/1/41
f 54/1/42 58/1/42 59/1/42 55/1/42
f 55/1/43 59/1/43 60/1/43 56/1/43
f 56/1/44 60/1/44 57/1/44 53/1/44
f 57/1/45 61/1/45 62/1/45 58/1/45
f 58/1/46 62/1/46 63/1/46 59/1/46
f 59/1/47 63/1/47 64/1/47 60/1/47
f 60/1/48 64/1/48 61/1/48 57/1/48
f 61/1/18 65/1/18 66/1/18 62/1/18
f 62/1/17 66/1/17 67/1/17 63/1/17
f 63/1/20 67/1/20 68/1/20 64/1/20
f 64/1/19 68/1/19 65/1/19 61/1/19
f 65/1/22 69/1/22 70/1/22 66/1/22
f 66/1/21 70/1/21 71/1/21 67/1/21
f 67/1/24 71/1/24 72/1/24 68/1/24
f 68/1/23 72/1/23 69/1/23 65/1/23
f 69/1/26 73/1/26 74/1/26 70/1/26
f 70/1/25 74/1/25 75/1/25 71/1/25
f 71/1/28 75/1/28 76/1/28 72/1/28
f 72/1/27 76/1/27 73/1/27 69/1/27
f 73/1/30 77/1/30 78/1/30 74/1/30
f 74/1/29 78/1/29 79/1/29 75/1/29
f 75/1/32 79/1/32 80/1/32 76/1/32
f 76/1/31 80/1/31 77/1/31 73/1/31
f 77/1/34 81/1/34 82/1/34 78/1/34
f 78/1/33 82/1/33 83/1/33 79/1/33
f 79/1/36 83/1/36 84/1/36 80/1/36
f 80/1/35 84/1/35 81/1/35 77/1/35
f 81/1/38 85/1/38 86/1/38 82/1/38
f 82/1/37 86/1/37 87/1/37 83/1/37
f 83/1/40 87/1/40 88/1/40 84/1/40
f 84/1/39 88/1/39 85/1/39 81/1/39
f 85/1/42 89/1/42 90/1/42 86/1/42
f 86/1/41 90/1/41 91/1/41 87/1/41
f 87/1/44 91/1/44 92/1/44 88/1/44
f 88/1/43 92/1/43 89/1/43 85/1/43
f 89/1/46 29/1/46 30/1/46 90/1/46
f 90/1/45 30/1/45 31/1/45 91/1/45
f 91/1/48 31/1/48 32/1/48 92/1/48
f 92/1/47 32/1/47 29/1/47 89/1/47
f 93/1/11 94/1/11 96/1/11 95/1/11
f 95/1/49 96/1/49 100/1/49 99/1/49
f 99/1/4 100/1/4 98/1/4 97/1/4
f 97/1/50 98/1/50 94/1/50 93/1/50
f 95/1/16 99/1/16 97/1/16 93/1/16
f 100/1/13 96/1/13 94/1/13 98/1/13
f 101/1/51 102/1/51 104/1/51 103/1/51
f 103/1/52 104/1/52 108/1/52 107/1/52
f 107/1/53 108/1/53 106/1/53 105/1/53
f 105/1/54 106/1/54 102/1/54 101/1/54
f 103/1/16 107/1/16 105/1/16 101/1/16
f 108/1/13 104/1/13 102/1/13 106/1/13
f 109/1/50 110/1/50 112/1/50 111/1/50
f 111/1/11 112/1/11 116/1/11 115/1/11
f 115/1/49 116/1/49 114/1/49 113/1/49
f 113/1/4 114/1/4 110/1/4 109/1/4
f 111/1/16 115/1/16 113/1/16 109/1/16
f 116/1/13 112/1/13 110/1/13 114/1/13
f 117/1/54 118/1/54 120/1/54 119/1/54
f 119/1/51 120/1/51 124/1/51 123/1/51
f 123/1/52 124/1/52 122/1/52 121/1/52
f 121/1/53 122/1/53 118/1/53 117/1/53
f 119/1/16 123/1/16 121/1/16 117/1/16
f 124/1/13 120/1/13 118/1/13 122/1/13
f 125/1/4 126/1/4 128/1/4 127/1/4
f 127/1/50 128/1/50 132/1/50 131/1/50
f 131/1/11 132/1/11 130/1/11 129/1/11
f 129/1/49 130/1/49 126/1/49 125/1/49
f 127/1/16 131/1/16 129/1/16 125/1/16
f 132/1/13 128/1/13 126/1/13 130/1/13
f 133/1/53 134/1/53 136/1/53 135/1/53
f 135/1/54 136/1/54 140/1/54 139/1/54
f 139/1/51 140/1/51 138/1/51 137/1/51
f 137/1/52 138/1/52 134/1/52 133/1/52
f 135/1/16 139/1/16 137/1/16 133/1/16
f 140/1/13 136/1/13 134/1/13 138/1/13
f 141/1/49 142/1/49 144/1/49 143/1/49
f 143/1/4 144/1/4 148/1/4 147/1/4
f 147/1/50 148/1/50 146/1/50 145/1/50
f 145/1/11 146/1/11 142/1/11 141/1/11
f 143/1/16 147/1/16 145/1/16 141/1/16
f 148/1/13 144/1/13 142/1/13 146/1/13
f 149/1/52 150/1/52 152/1/52 151/1/52
f 151/1/53 152/1/53 156/1/53 155/1/53
f 155/1/54 156/1/54 154/1/54 153/1/54
f 153/1/51 154/1/51 150/1/51 149/1/51
f 151/1/16 155/1/16 153/1/16 149/1/16
f 156/1/13 152/1/13 150/1/13 154/1/13
f 157/2/55 158/2/55 160/2/55 159/2/55
f 159/2/56 160/2/56 162/2/56 161/2/56
f 161/2/57 162/2/57 164/2/57 163/2/57
f 163/2/58 164/2/58 166/2/58 165/2/58
f 165/2/59 166/2/59 168/2/59 167/2/59
f 167/2/60 168/2/60 170/2/60 169/2/60
f 169/2/61 170/2/61 172/2/61 171/2/61
f 171/2/62 172/2/62 174/2/62 173/2/62
f 173/2/63 174/2/63 176/2/63 175/2/63
f 175/2/64 176/2/64 178/2/64 177/2/64
f 177/2/65 178/2/65 180/2/65 179/2/65
f 179/2/66 180/2/66 182/2/66 181/2/66
f 181/2/67 182/2/67 184/2/67 183/2/67
f 183/2/68 184/2/68 186/2/68 185/2/68
f 160/2/13 158/2/13 188/2/13 186/2/13 184/2/13 182/2/13 180/2/13 178/2/13 176/2/13 174/2/13 172/2/13 170/2/13 168/2/13 166/2/13 164/2/13 162/2/13
f 185/2/69 186/2/69 188/2/69 187/2/69
f 187/2/70 188/2/70 158/2/70 157/2/70
f 157/2/16 159/2/16 161/2/16 163/2/16 165/2/16 167/2/16 169/2/16 171/2/16 173/2/16 175/2/16 177/2/16 179/2/16 181/2/16 183/2/16 185/2/16 187/2/16
f 189/2/11 190/2/11 192/2/11 191/2/11
f 191/2/49 192/2/49 196/2/49 195/2/49
f 195/2/4 196/2/4 194/2/4 193/2/4
f 193/2/50 194/2/50 190/2/50 189/2/50
f 191/2/16 195/2/16 193/2/16 189/2/16
f 196/2/13 192/2/13 190/2/13 194/2/13
f 197/3/11 198/3/11 200/3/11 199/3/11
f 199/3/49 200/3/49 204/3/49 203/3/49
f 203/3/4 204/3/4 202/3/4 201/3/4
f 201/3/50 202/3/50 198/3/50 197/3/50
f 199/3/16 203/3/16 201/3/16 197/3/16
f 204/3/13 200/3/13 198/3/13 202/3/13
f 205/3/11 206/3/11 208/3/11 207/3/11
f 207/3/49 208/3/49 212/3/49 211/3/49
f 211/3/4 212/3/4 210/3/4 209/3/4
f 209/3/50 210/3/50 206/3/50 205/3/50
f 207/3/16 211/3/16 209/3/16 205/3/16
f 212/3/13 208/3/13 206/3/13 210/3/13
f 213/3/11 214/3/11 216/3/11 215/3/11
f 215/3/49 216/3/49 220/3/49 219/3/49
f 219/3/4 220/3/4 218/3/4 217/3/4
f 217/3/50 218/3/50 214/3/50 213/3/50
f 215/3/16 219/3/16 217/3/16 213/3/16
f 220/3/13 216/3/13 214/3/13 218/3/13
f 221/3/71 222/3/71 224/3/71 223/3/71
f 223/3/72 224/3/72 226/3/72 225/3/72
f 225/3/73 226/3/73 228/3/73 227/3/73
f 227/3/74 228/3/74 230/3/74 229/3/74
f 229/3/75 230/3/75 232/3/75 231/3/75
f 231/3/76 232/3/76 234/3/76 233/3/76
f 224/3/4 222/3/4 236/3/4 234/3/4 232/3/4 230/3/4 228/3/4 226/3/4
f 233/3/77 234/3/77 236/3/77 235/3/77
f 235/3/78 236/3/78 222/3/78 221/3/78
f 221/3/11 223/3/11 225/3/11 227/3/11 229/3/11 231/3/11 233/3/11 235/3/11
f 237/3/11 238/3/11 240/3/11 239/3/11
f 239/3/49 240/3/49 244/3/49 243/3/49
f 243/3/4 244/3/4 242/3/4 241/3/4
f 241/3/50 242/3/50 238/3/50 237/3/50
f 239/3/16 243/3/16 241/3/16 237/3/16
f 244/3/13 240/3/13 238/3/13 242/3/13
f 245/3/11 246/3/11 248/3/11 247/3/11
f 247/3/49 248/3/49 252/3/49 251/3/49
f 251/3/4 252/3/4 250/3/4 249/3/4
f 249/3/50 250/3/50 246/3/50 245/3/50
f 247/3/16 251/3/16 249/3/16 245/3/16
f 252/3/13 248/3/13 246/3/13 250/3/13
f 253/3/79 254/3/79 256/3/79 255/3/79
f 255/3/80 256/3/80 258/3/80 257/3/80
f 257/3/81 258/3/81 260/3/81 259/3/81
f 259/3/82 260/3/82 262/3/82 261/3/82
f 261/3/83 262/3/83 264/3/83 263/3/83
f 263/3/84 264/3/84 266/3/84 265/3/84
f 265/3/85 266/3/85 268/3/85 267/3/85
f 267/3/86 268/3/86 270/3/86 269/3/86
f 256/3/13 254/3/13 272/3/13 270/3/13 268/3/13 266/3/13 264/3/13 262/3/13 260/3/13 258/3/13
f 269/3/87 270/3/87 272/3/87 271/3/87
f 271/3/88 272/3/88 254/3/88 253/3/88
f 253/3/16 255/3/16 257/3/16 259/3/16 261/3/16 263/3/16 265/3/16 267/3/16 269/3/16 271/3/16
f 273/3/11 274/3/11 276/3/11 275/3/11
f 275/3/89 276/3/89 280/3/89 279/3/89
f 279/3/4 280/3/4 278/3/4 277/3/4
f 277/3/90 278/3/90 274/3/90 273/3/90
f 275/3/91 279/3/91 277/3/91 273/3/91
f 280/3/92 276/3/92 274/3/92 278/3/92
f 281/3/11 282/3/11 284/3/11 283/3/11
f 283/3/93 284/3/93 288/3/93 287/3/93
f 287/3/4 288/3/4 286/3/4 285/3/4
f 285/3/94 286/3/94 282/3/94 281/3/94
f 283/3/95 287/3/95 285/3/95 281/3/95
f 288/3/96 284/3/96 282/3/96 286/3/96
