# Blender 5.2.0 LTS
# www.blender.org
mtllib aldrich_crimson_candle.mtl
o aldrich_crimson_candle
v -0.035000 0.000000 -0.340000
v -0.035000 0.140000 -0.180000
v 0.164847 0.000000 -0.275066
v 0.070801 0.140000 -0.145623
v 0.288359 0.000000 -0.105066
v 0.136190 0.140000 -0.055623
v 0.288359 0.000000 0.105066
v 0.136190 0.140000 0.055623
v 0.164847 0.000000 0.275066
v 0.070801 0.140000 0.145623
v -0.035000 0.000000 0.340000
v -0.035000 0.140000 0.180000
v -0.234847 0.000000 0.275066
v -0.140801 0.140000 0.145623
v -0.358359 0.000000 0.105066
v -0.206190 0.140000 0.055623
v -0.358359 0.000000 -0.105066
v -0.206190 0.140000 -0.055623
v -0.234847 0.000000 -0.275066
v -0.140801 0.140000 -0.145623
v -0.035000 0.100000 -0.055000
v -0.035000 1.800000 -0.055000
v 0.003891 0.100000 -0.038891
v 0.003891 1.800000 -0.038891
v 0.020000 0.100000 0.000000
v 0.020000 1.800000 0.000000
v 0.003891 0.100000 0.038891
v 0.003891 1.800000 0.038891
v -0.035000 0.100000 0.055000
v -0.035000 1.800000 0.055000
v -0.073891 0.100000 0.038891
v -0.073891 1.800000 0.038891
v -0.090000 0.100000 0.000000
v -0.090000 1.800000 0.000000
v -0.073891 0.100000 -0.038891
v -0.073891 1.800000 -0.038891
v -0.035000 1.150000 0.000000
v -0.035000 1.112349 -0.078183
v -0.035000 0.987651 -0.078183
v -0.035000 0.950000 0.000000
v -0.009497 1.140097 -0.035102
v 0.010955 1.112349 -0.063251
v 0.022305 1.072252 -0.078873
v 0.022305 1.027748 -0.078873
v 0.010955 0.987651 -0.063251
v -0.009497 0.959903 -0.035102
v 0.006265 1.140097 -0.013408
v 0.039357 1.112349 -0.024160
v 0.057721 1.072252 -0.030127
v 0.057721 1.027748 -0.030127
v 0.039357 0.987651 -0.024160
v 0.006265 0.959903 -0.013408
v 0.006265 1.140097 0.013408
v 0.039357 1.112349 0.024160
v 0.057721 1.072252 0.030127
v 0.057721 1.027748 0.030127
v 0.039357 0.987651 0.024160
v 0.006265 0.959903 0.013408
v -0.009497 1.140097 0.035102
v 0.010955 1.112349 0.063251
v 0.022305 1.072252 0.078873
v 0.022305 1.027748 0.078873
v 0.010955 0.987651 0.063251
v -0.009497 0.959903 0.035102
v -0.035000 1.140097 0.043388
v -0.035000 1.112349 0.078183
v -0.035000 1.072252 0.097493
v -0.035000 1.027748 0.097493
v -0.035000 0.987651 0.078183
v -0.035000 0.959903 0.043388
v -0.060503 1.140097 0.035102
v -0.080955 1.112349 0.063251
v -0.092305 1.072252 0.078873
v -0.092305 1.027748 0.078873
v -0.080955 0.987651 0.063251
v -0.060503 0.959903 0.035102
v -0.076265 1.140097 0.013408
v -0.109357 1.112349 0.024160
v -0.127721 1.072252 0.030127
v -0.127721 1.027748 0.030127
v -0.109357 0.987651 0.024160
v -0.076265 0.959903 0.013408
v -0.076265 1.140097 -0.013408
v -0.109357 1.112349 -0.024160
v -0.127721 1.072252 -0.030127
v -0.127721 1.027748 -0.030127
v -0.109357 0.987651 -0.024160
v -0.076265 0.959903 -0.013408
v -0.060503 1.140097 -0.035102
v -0.080955 1.112349 -0.063251
v -0.092305 1.072252 -0.078873
v -0.092305 1.027748 -0.078873
v -0.080955 0.987651 -0.063251
v -0.060503 0.959903 -0.035102
v -0.035000 1.140097 -0.043388
v -0.035000 1.072252 -0.097493
v -0.035000 1.027748 -0.097493
v -0.035000 0.959903 -0.043388
v -0.035000 1.135000 0.025000
v -0.035000 1.185000 0.025000
v -0.035000 1.135000 -0.025000
v -0.035000 1.185000 -0.025000
v 0.295000 1.135000 0.025000
v 0.295000 1.185000 0.025000
v 0.295000 1.135000 -0.025000
v 0.295000 1.185000 -0.025000
v 0.295000 1.185000 -0.075000
v 0.295000 1.235000 -0.075000
v 0.348033 1.185000 -0.053033
v 0.348033 1.235000 -0.053033
v 0.370000 1.185000 0.000000
v 0.370000 1.235000 0.000000
v 0.348033 1.185000 0.053033
v 0.348033 1.235000 0.053033
v 0.295000 1.185000 0.075000
v 0.295000 1.235000 0.075000
v 0.241967 1.185000 0.053033
v 0.241967 1.235000 0.053033
v 0.220000 1.185000 0.000000
v 0.220000 1.235000 0.000000
v 0.241967 1.185000 -0.053033
v 0.241967 1.235000 -0.053033
v -0.013349 1.135000 -0.012500
v -0.013349 1.185000 -0.012500
v -0.056651 1.135000 0.012500
v -0.056651 1.185000 0.012500
v -0.178349 1.135000 -0.298288
v -0.178349 1.185000 -0.298288
v -0.221651 1.135000 -0.273288
v -0.221651 1.185000 -0.273288
v -0.200000 1.185000 -0.360788
v -0.200000 1.235000 -0.360788
v -0.146967 1.185000 -0.338821
v -0.146967 1.235000 -0.338821
v -0.125000 1.185000 -0.285788
v -0.125000 1.235000 -0.285788
v -0.146967 1.185000 -0.232755
v -0.146967 1.235000 -0.232755
v -0.200000 1.185000 -0.210788
v -0.200000 1.235000 -0.210788
v -0.253033 1.185000 -0.232755
v -0.253033 1.235000 -0.232755
v -0.275000 1.185000 -0.285788
v -0.275000 1.235000 -0.285788
v -0.253033 1.185000 -0.338821
v -0.253033 1.235000 -0.338821
v -0.056651 1.135000 -0.012500
v -0.056651 1.185000 -0.012500
v -0.013349 1.135000 0.012500
v -0.013349 1.185000 0.012500
v -0.221651 1.135000 0.273288
v -0.221651 1.185000 0.273288
v -0.178349 1.135000 0.298288
v -0.178349 1.185000 0.298288
v -0.200000 1.185000 0.210788
v -0.200000 1.235000 0.210788
v -0.146967 1.185000 0.232755
v -0.146967 1.235000 0.232755
v -0.125000 1.185000 0.285788
v -0.125000 1.235000 0.285788
v -0.146967 1.185000 0.338821
v -0.146967 1.235000 0.338821
v -0.200000 1.185000 0.360788
v -0.200000 1.235000 0.360788
v -0.253033 1.185000 0.338821
v -0.253033 1.235000 0.338821
v -0.275000 1.185000 0.285788
v -0.275000 1.235000 0.285788
v -0.253033 1.185000 0.232755
v -0.253033 1.235000 0.232755
v -0.013349 1.595000 0.012500
v -0.013349 1.645000 0.012500
v -0.056651 1.595000 -0.012500
v -0.056651 1.645000 -0.012500
v 0.116651 1.595000 -0.212667
v 0.116651 1.645000 -0.212667
v 0.073349 1.595000 -0.237667
v 0.073349 1.645000 -0.237667
v 0.095000 1.645000 -0.300167
v 0.095000 1.695000 -0.300167
v 0.148033 1.645000 -0.278200
v 0.148033 1.695000 -0.278200
v 0.170000 1.645000 -0.225167
v 0.170000 1.695000 -0.225167
v 0.148033 1.645000 -0.172134
v 0.148033 1.695000 -0.172134
v 0.095000 1.645000 -0.150167
v 0.095000 1.695000 -0.150167
v 0.041967 1.645000 -0.172134
v 0.041967 1.695000 -0.172134
v 0.020000 1.645000 -0.225167
v 0.020000 1.695000 -0.225167
v 0.041967 1.645000 -0.278200
v 0.041967 1.695000 -0.278200
v -0.035000 1.595000 -0.025000
v -0.035000 1.645000 -0.025000
v -0.035000 1.595000 0.025000
v -0.035000 1.645000 0.025000
v -0.295000 1.595000 -0.025000
v -0.295000 1.645000 -0.025000
v -0.295000 1.595000 0.025000
v -0.295000 1.645000 0.025000
v -0.295000 1.645000 -0.075000
v -0.295000 1.695000 -0.075000
v -0.241967 1.645000 -0.053033
v -0.241967 1.695000 -0.053033
v -0.220000 1.645000 -0.000000
v -0.220000 1.695000 -0.000000
v -0.241967 1.645000 0.053033
v -0.241967 1.695000 0.053033
v -0.295000 1.645000 0.075000
v -0.295000 1.695000 0.075000
v -0.348033 1.645000 0.053033
v -0.348033 1.695000 0.053033
v -0.370000 1.645000 -0.000000
v -0.370000 1.695000 -0.000000
v -0.348033 1.645000 -0.053033
v -0.348033 1.695000 -0.053033
v -0.056651 1.595000 0.012500
v -0.056651 1.645000 0.012500
v -0.013349 1.595000 -0.012500
v -0.013349 1.645000 -0.012500
v 0.073349 1.595000 0.237667
v 0.073349 1.645000 0.237667
v 0.116651 1.595000 0.212667
v 0.116651 1.645000 0.212667
v 0.095000 1.645000 0.150167
v 0.095000 1.695000 0.150167
v 0.148033 1.645000 0.172134
v 0.148033 1.695000 0.172134
v 0.170000 1.645000 0.225167
v 0.170000 1.695000 0.225167
v 0.148033 1.645000 0.278200
v 0.148033 1.695000 0.278200
v 0.095000 1.645000 0.300167
v 0.095000 1.695000 0.300167
v 0.041967 1.645000 0.278200
v 0.041967 1.695000 0.278200
v 0.020000 1.645000 0.225167
v 0.020000 1.695000 0.225167
v 0.041967 1.645000 0.172134
v 0.041967 1.695000 0.172134
v 0.295000 1.230000 -0.050000
v 0.295000 1.490000 -0.050000
v 0.338301 1.230000 -0.025000
v 0.338301 1.490000 -0.025000
v 0.338301 1.230000 0.025000
v 0.338301 1.490000 0.025000
v 0.295000 1.230000 0.050000
v 0.295000 1.490000 0.050000
v 0.251699 1.230000 0.025000
v 0.251699 1.490000 0.025000
v 0.251699 1.230000 -0.025000
v 0.251699 1.490000 -0.025000
v -0.200000 1.230000 -0.335788
v -0.200000 1.490000 -0.335788
v -0.156699 1.230000 -0.310788
v -0.156699 1.490000 -0.310788
v -0.156699 1.230000 -0.260788
v -0.156699 1.490000 -0.260788
v -0.200000 1.230000 -0.235788
v -0.200000 1.490000 -0.235788
v -0.243301 1.230000 -0.260788
v -0.243301 1.490000 -0.260788
v -0.243301 1.230000 -0.310788
v -0.243301 1.490000 -0.310788
v -0.200000 1.230000 0.235788
v -0.200000 1.490000 0.235788
v -0.156699 1.230000 0.260788
v -0.156699 1.490000 0.260788
v -0.156699 1.230000 0.310788
v -0.156699 1.490000 0.310788
v -0.200000 1.230000 0.335788
v -0.200000 1.490000 0.335788
v -0.243301 1.230000 0.310788
v -0.243301 1.490000 0.310788
v -0.243301 1.230000 0.260788
v -0.243301 1.490000 0.260788
v 0.095000 1.690000 -0.275167
v 0.095000 1.950000 -0.275167
v 0.138301 1.690000 -0.250167
v 0.138301 1.950000 -0.250167
v 0.138301 1.690000 -0.200167
v 0.138301 1.950000 -0.200167
v 0.095000 1.690000 -0.175167
v 0.095000 1.950000 -0.175167
v 0.051699 1.690000 -0.200167
v 0.051699 1.950000 -0.200167
v 0.051699 1.690000 -0.250167
v 0.051699 1.950000 -0.250167
v -0.295000 1.690000 -0.050000
v -0.295000 1.950000 -0.050000
v -0.251699 1.690000 -0.025000
v -0.251699 1.950000 -0.025000
v -0.251699 1.690000 0.025000
v -0.251699 1.950000 0.025000
v -0.295000 1.690000 0.050000
v -0.295000 1.950000 0.050000
v -0.338301 1.690000 0.025000
v -0.338301 1.950000 0.025000
v -0.338301 1.690000 -0.025000
v -0.338301 1.950000 -0.025000
v 0.095000 1.690000 0.175167
v 0.095000 1.950000 0.175167
v 0.138301 1.690000 0.200167
v 0.138301 1.950000 0.200167
v 0.138301 1.690000 0.250167
v 0.138301 1.950000 0.250167
v 0.095000 1.690000 0.275167
v 0.095000 1.950000 0.275167
v 0.051699 1.690000 0.250167
v 0.051699 1.950000 0.250167
v 0.051699 1.690000 0.200167
v 0.051699 1.950000 0.200167
v -0.035000 1.810000 -0.055000
v -0.035000 2.110000 -0.055000
v 0.012631 1.810000 -0.027500
v 0.012631 2.110000 -0.027500
v 0.012631 1.810000 0.027500
v 0.012631 2.110000 0.027500
v -0.035000 1.810000 0.055000
v -0.035000 2.110000 0.055000
v -0.082631 1.810000 0.027500
v -0.082631 2.110000 0.027500
v -0.082631 1.810000 -0.027500
v -0.082631 2.110000 -0.027500
v 0.295000 1.265000 0.000000
v 0.295000 1.256406 -0.026450
v 0.295000 1.233906 -0.042798
v 0.295000 1.206094 -0.042798
v 0.295000 1.183594 -0.026450
v 0.295000 1.175000 0.000000
v 0.313703 1.256406 -0.018703
v 0.325262 1.233906 -0.030262
v 0.325262 1.206094 -0.030262
v 0.313703 1.183594 -0.018703
v 0.321450 1.256406 0.000000
v 0.337798 1.233906 0.000000
v 0.337798 1.206094 0.000000
v 0.321450 1.183594 0.000000
v 0.313703 1.256406 0.018703
v 0.325262 1.233906 0.030262
v 0.325262 1.206094 0.030262
v 0.313703 1.183594 0.018703
v 0.295000 1.256406 0.026450
v 0.295000 1.233906 0.042798
v 0.295000 1.206094 0.042798
v 0.295000 1.183594 0.026450
v 0.276297 1.256406 0.018703
v 0.264738 1.233906 0.030262
v 0.264738 1.206094 0.030262
v 0.276297 1.183594 0.018703
v 0.268550 1.256406 0.000000
v 0.252202 1.233906 0.000000
v 0.252202 1.206094 0.000000
v 0.268550 1.183594 0.000000
v 0.276297 1.256406 -0.018703
v 0.264738 1.233906 -0.030262
v 0.264738 1.206094 -0.030262
v 0.276297 1.183594 -0.018703
v -0.200000 1.265000 -0.285788
v -0.200000 1.256406 -0.312239
v -0.200000 1.233906 -0.328586
v -0.200000 1.206094 -0.328586
v -0.200000 1.183594 -0.312239
v -0.200000 1.175000 -0.285788
v -0.181297 1.256406 -0.304492
v -0.169738 1.233906 -0.316051
v -0.169738 1.206094 -0.316051
v -0.181297 1.183594 -0.304492
v -0.173550 1.256406 -0.285788
v -0.157202 1.233906 -0.285788
v -0.157202 1.206094 -0.285788
v -0.173550 1.183594 -0.285788
v -0.181297 1.256406 -0.267085
v -0.169738 1.233906 -0.255526
v -0.169738 1.206094 -0.255526
v -0.181297 1.183594 -0.267085
v -0.200000 1.256406 -0.259338
v -0.200000 1.233906 -0.242991
v -0.200000 1.206094 -0.242991
v -0.200000 1.183594 -0.259338
v -0.218703 1.256406 -0.267085
v -0.230262 1.233906 -0.255526
v -0.230262 1.206094 -0.255526
v -0.218703 1.183594 -0.267085
v -0.226450 1.256406 -0.285788
v -0.242798 1.233906 -0.285788
v -0.242798 1.206094 -0.285788
v -0.226450 1.183594 -0.285788
v -0.218703 1.256406 -0.304492
v -0.230262 1.233906 -0.316051
v -0.230262 1.206094 -0.316051
v -0.218703 1.183594 -0.304492
v -0.200000 1.265000 0.285788
v -0.200000 1.256406 0.259338
v -0.200000 1.233906 0.242991
v -0.200000 1.206094 0.242991
v -0.200000 1.183594 0.259338
v -0.200000 1.175000 0.285788
v -0.181297 1.256406 0.267085
v -0.169738 1.233906 0.255526
v -0.169738 1.206094 0.255526
v -0.181297 1.183594 0.267085
v -0.173550 1.256406 0.285788
v -0.157202 1.233906 0.285788
v -0.157202 1.206094 0.285788
v -0.173550 1.183594 0.285788
v -0.181297 1.256406 0.304492
v -0.169738 1.233906 0.316051
v -0.169738 1.206094 0.316051
v -0.181297 1.183594 0.304492
v -0.200000 1.256406 0.312239
v -0.200000 1.233906 0.328586
v -0.200000 1.206094 0.328586
v -0.200000 1.183594 0.312239
v -0.218703 1.256406 0.304492
v -0.230262 1.233906 0.316051
v -0.230262 1.206094 0.316051
v -0.218703 1.183594 0.304492
v -0.226450 1.256406 0.285788
v -0.242798 1.233906 0.285788
v -0.242798 1.206094 0.285788
v -0.226450 1.183594 0.285788
v -0.218703 1.256406 0.267085
v -0.230262 1.233906 0.255526
v -0.230262 1.206094 0.255526
v -0.218703 1.183594 0.267085
v 0.095000 1.725000 -0.225167
v 0.095000 1.716406 -0.251617
v 0.095000 1.693906 -0.267964
v 0.095000 1.666094 -0.267964
v 0.095000 1.643594 -0.251617
v 0.095000 1.635000 -0.225167
v 0.113703 1.716406 -0.243870
v 0.125262 1.693906 -0.255429
v 0.125262 1.666094 -0.255429
v 0.113703 1.643594 -0.243870
v 0.121450 1.716406 -0.225167
v 0.137798 1.693906 -0.225167
v 0.137798 1.666094 -0.225167
v 0.121450 1.643594 -0.225167
v 0.113703 1.716406 -0.206463
v 0.125262 1.693906 -0.194904
v 0.125262 1.666094 -0.194904
v 0.113703 1.643594 -0.206463
v 0.095000 1.716406 -0.198716
v 0.095000 1.693906 -0.182369
v 0.095000 1.666094 -0.182369
v 0.095000 1.643594 -0.198716
v 0.076297 1.716406 -0.206463
v 0.064738 1.693906 -0.194904
v 0.064738 1.666094 -0.194904
v 0.076297 1.643594 -0.206463
v 0.068550 1.716406 -0.225167
v 0.052202 1.693906 -0.225167
v 0.052202 1.666094 -0.225167
v 0.068550 1.643594 -0.225167
v 0.076297 1.716406 -0.243870
v 0.064738 1.693906 -0.255429
v 0.064738 1.666094 -0.255429
v 0.076297 1.643594 -0.243870
v -0.295000 1.725000 -0.000000
v -0.295000 1.716406 -0.026450
v -0.295000 1.693906 -0.042798
v -0.295000 1.666094 -0.042798
v -0.295000 1.643594 -0.026450
v -0.295000 1.635000 -0.000000
v -0.276297 1.716406 -0.018703
v -0.264738 1.693906 -0.030262
v -0.264738 1.666094 -0.030262
v -0.276297 1.643594 -0.018703
v -0.268550 1.716406 -0.000000
v -0.252202 1.693906 -0.000000
v -0.252202 1.666094 -0.000000
v -0.268550 1.643594 -0.000000
v -0.276297 1.716406 0.018703
v -0.264738 1.693906 0.030262
v -0.264738 1.666094 0.030262
v -0.276297 1.643594 0.018703
v -0.295000 1.716406 0.026450
v -0.295000 1.693906 0.042798
v -0.295000 1.666094 0.042798
v -0.295000 1.643594 0.026450
v -0.313703 1.716406 0.018703
v -0.325262 1.693906 0.030262
v -0.325262 1.666094 0.030262
v -0.313703 1.643594 0.018703
v -0.321450 1.716406 -0.000000
v -0.337798 1.693906 -0.000000
v -0.337798 1.666094 -0.000000
v -0.321450 1.643594 -0.000000
v -0.313703 1.716406 -0.018703
v -0.325262 1.693906 -0.030262
v -0.325262 1.666094 -0.030262
v -0.313703 1.643594 -0.018703
v 0.095000 1.725000 0.225167
v 0.095000 1.716406 0.198716
v 0.095000 1.693906 0.182369
v 0.095000 1.666094 0.182369
v 0.095000 1.643594 0.198716
v 0.095000 1.635000 0.225167
v 0.113703 1.716406 0.206463
v 0.125262 1.693906 0.194904
v 0.125262 1.666094 0.194904
v 0.113703 1.643594 0.206463
v 0.121450 1.716406 0.225167
v 0.137798 1.693906 0.225167
v 0.137798 1.666094 0.225167
v 0.121450 1.643594 0.225167
v 0.113703 1.716406 0.243870
v 0.125262 1.693906 0.255429
v 0.125262 1.666094 0.255429
v 0.113703 1.643594 0.243870
v 0.095000 1.716406 0.251617
v 0.095000 1.693906 0.267964
v 0.095000 1.666094 0.267964
v 0.095000 1.643594 0.251617
v 0.076297 1.716406 0.243870
v 0.064738 1.693906 0.255429
v 0.064738 1.666094 0.255429
v 0.076297 1.643594 0.243870
v 0.068550 1.716406 0.225167
v 0.052202 1.693906 0.225167
v 0.052202 1.666094 0.225167
v 0.068550 1.643594 0.225167
v 0.076297 1.716406 0.206463
v 0.064738 1.693906 0.194904
v 0.064738 1.666094 0.194904
v 0.076297 1.643594 0.206463
v -0.035000 1.870000 0.000000
v -0.035000 1.860451 -0.029389
v -0.035000 1.779549 -0.029389
v -0.035000 1.770000 0.000000
v -0.014219 1.860451 -0.020781
v -0.001375 1.835451 -0.033625
v -0.001375 1.804549 -0.033625
v -0.014219 1.779549 -0.020781
v -0.005611 1.860451 0.000000
v 0.012553 1.835451 0.000000
v 0.012553 1.804549 0.000000
v -0.005611 1.779549 0.000000
v -0.014219 1.860451 0.020781
v -0.001375 1.835451 0.033625
v -0.001375 1.804549 0.033625
v -0.014219 1.779549 0.020781
v -0.035000 1.860451 0.029389
v -0.035000 1.835451 0.047553
v -0.035000 1.804549 0.047553
v -0.035000 1.779549 0.029389
v -0.055781 1.860451 0.020781
v -0.068625 1.835451 0.033625
v -0.068625 1.804549 0.033625
v -0.055781 1.779549 0.020781
v -0.064389 1.860451 0.000000
v -0.082553 1.835451 0.000000
v -0.082553 1.804549 0.000000
v -0.064389 1.779549 0.000000
v -0.055781 1.860451 -0.020781
v -0.068625 1.835451 -0.033625
v -0.068625 1.804549 -0.033625
v -0.055781 1.779549 -0.020781
v -0.035000 1.835451 -0.047553
v -0.035000 1.804549 -0.047553
vn 0.2092 0.7359 -0.6439
vn 0.5478 0.7359 -0.3980
vn 0.6771 0.7359 -0.0000
vn 0.5478 0.7359 0.3980
vn 0.2092 0.7359 0.6439
vn -0.2092 0.7359 0.6439
vn -0.5478 0.7359 0.3980
vn -0.6771 0.7359 -0.0000
vn -0.0000 1.0000 -0.0000
vn -0.5478 0.7359 -0.3980
vn -0.2092 0.7359 -0.6439
vn -0.0000 -1.0000 -0.0000
vn 0.3827 -0.0000 -0.9239
vn 0.9239 -0.0000 -0.3827
vn 0.9239 -0.0000 0.3827
vn 0.3827 -0.0000 0.9239
vn -0.3827 -0.0000 0.9239
vn -0.9239 -0.0000 0.3827
vn -0.9239 -0.0000 -0.3827
vn -0.3827 -0.0000 -0.9239
vn 0.3090 -0.0000 -0.9511
vn 0.1986 0.7663 -0.6111
vn 0.0721 -0.9724 -0.2219
vn 0.2810 -0.4164 -0.8647
vn 0.2810 0.4164 -0.8647
vn 0.0721 0.9724 -0.2219
vn 0.1986 -0.7663 -0.6111
vn 0.5198 -0.7663 -0.3777
vn 0.8090 -0.0000 -0.5878
vn 0.5198 0.7663 -0.3777
vn 0.1888 -0.9724 -0.1372
vn 0.7355 -0.4164 -0.5344
vn 0.7355 0.4164 -0.5344
vn 0.1888 0.9724 -0.1372
vn 1.0000 -0.0000 -0.0000
vn 0.6425 0.7663 -0.0000
vn 0.2334 -0.9724 -0.0000
vn 0.9092 -0.4164 -0.0000
vn 0.9092 0.4164 -0.0000
vn 0.2334 0.9724 -0.0000
vn 0.6425 -0.7663 -0.0000
vn 0.1888 -0.9724 0.1372
vn 0.7355 -0.4164 0.5344
vn 0.7355 0.4164 0.5344
vn 0.1888 0.9724 0.1372
vn 0.5198 -0.7663 0.3777
vn 0.8090 -0.0000 0.5878
vn 0.5198 0.7663 0.3777
vn 0.0721 -0.9724 0.2219
vn 0.2810 -0.4164 0.8647
vn 0.2810 0.4164 0.8647
vn 0.0721 0.9724 0.2219
vn 0.1986 -0.7663 0.6111
vn 0.3090 -0.0000 0.9511
vn 0.1986 0.7663 0.6111
vn -0.2810 0.4164 0.8647
vn -0.0721 0.9724 0.2219
vn -0.1985 -0.7663 0.6111
vn -0.3090 -0.0000 0.9511
vn -0.1986 0.7663 0.6111
vn -0.0721 -0.9724 0.2219
vn -0.2810 -0.4164 0.8647
vn -0.5198 -0.7663 0.3777
vn -0.8090 -0.0000 0.5878
vn -0.5198 0.7663 0.3777
vn -0.1888 -0.9724 0.1372
vn -0.7355 -0.4164 0.5344
vn -0.7355 0.4164 0.5344
vn -0.1888 0.9724 0.1372
vn -0.6425 -0.7663 -0.0000
vn -1.0000 -0.0000 -0.0000
vn -0.6425 0.7663 -0.0000
vn -0.2334 -0.9724 -0.0000
vn -0.9092 -0.4164 -0.0000
vn -0.9092 0.4164 -0.0000
vn -0.2334 0.9724 -0.0000
vn -0.5198 0.7663 -0.3777
vn -0.1888 -0.9724 -0.1372
vn -0.7355 -0.4164 -0.5344
vn -0.7355 0.4164 -0.5344
vn -0.1888 0.9724 -0.1372
vn -0.5198 -0.7663 -0.3777
vn -0.8090 -0.0000 -0.5878
vn -0.0721 -0.9724 -0.2219
vn -0.2810 -0.4164 -0.8647
vn -0.2810 0.4164 -0.8647
vn -0.0721 0.9724 -0.2219
vn -0.1986 -0.7663 -0.6111
vn -0.3090 -0.0000 -0.9511
vn -0.1986 0.7663 -0.6111
vn -0.0000 -0.0000 -1.0000
vn -0.0000 -0.0000 1.0000
vn 0.5000 -0.0000 0.8660
vn -0.8660 -0.0000 0.5000
vn -0.5000 -0.0000 -0.8660
vn 0.8660 -0.0000 -0.5000
vn 0.5000 -0.0000 -0.8660
vn 0.8660 -0.0000 0.5000
vn -0.5000 -0.0000 0.8660
vn -0.8660 -0.0000 -0.5000
vn 0.3177 -0.5573 -0.7671
vn 0.3177 0.5573 -0.7671
vn 0.1270 -0.9434 -0.3065
vn 0.1270 0.9434 -0.3065
vn 0.7671 -0.5573 -0.3177
vn 0.7671 0.5573 -0.3177
vn 0.3065 -0.9434 -0.1270
vn 0.3065 0.9434 -0.1270
vn 0.7671 -0.5573 0.3177
vn 0.7671 0.5573 0.3177
vn 0.3065 -0.9434 0.1270
vn 0.3065 0.9434 0.1270
vn 0.3177 -0.5573 0.7671
vn 0.3177 0.5573 0.7671
vn 0.1270 -0.9434 0.3065
vn 0.1270 0.9434 0.3065
vn -0.3177 -0.5573 0.7671
vn -0.3177 0.5573 0.7671
vn -0.1270 -0.9434 0.3065
vn -0.1270 0.9434 0.3065
vn -0.7671 -0.5573 0.3177
vn -0.7671 0.5573 0.3177
vn -0.3065 -0.9434 0.1270
vn -0.3065 0.9434 0.1270
vn -0.7671 -0.5573 -0.3177
vn -0.7671 0.5573 -0.3177
vn -0.3065 -0.9434 -0.1270
vn -0.3065 0.9434 -0.1270
vn -0.3177 -0.5573 -0.7671
vn -0.3177 0.5573 -0.7671
vn -0.1270 -0.9434 -0.3065
vn -0.1270 0.9434 -0.3065
vt 0.250000 0.250000
vt 0.750000 0.250000
vt 0.250000 0.750000
s 0
usemtl slot0
f 1/1/1 2/1/1 4/1/1 3/1/1
f 3/1/2 4/1/2 6/1/2 5/1/2
f 5/1/3 6/1/3 8/1/3 7/1/3
f 7/1/4 8/1/4 10/1/4 9/1/4
f 9/1/5 10/1/5 12/1/5 11/1/5
f 11/1/6 12/1/6 14/1/6 13/1/6
f 13/1/7 14/1/7 16/1/7 15/1/7
f 15/1/8 16/1/8 18/1/8 17/1/8
f 4/1/9 2/1/9 20/1/9 18/1/9 16/1/9 14/1/9 12/1/9 10/1/9 8/1/9 6/1/9
f 17/1/10 18/1/10 20/1/10 19/1/10
f 19/1/11 20/1/11 2/1/11 1/1/11
f 1/1/12 3/1/12 5/1/12 7/1/12 9/1/12 11/1/12 13/1/12 15/1/12 17/1/12 19/1/12
f 21/1/13 22/1/13 24/1/13 23/1/13
f 23/1/14 24/1/14 26/1/14 25/1/14
f 25/1/15 26/1/15 28/1/15 27/1/15
f 27/1/16 28/1/16 30/1/16 29/1/16
f 29/1/17 30/1/17 32/1/17 31/1/17
f 31/1/18 32/1/18 34/1/18 33/1/18
f 24/1/9 22/1/9 36/1/9 34/1/9 32/1/9 30/1/9 28/1/9 26/1/9
f 33/1/19 34/1/19 36/1/19 35/1/19
f 35/1/20 36/1/20 22/1/20 21/1/20
f 21/1/12 23/1/12 25/1/12 27/1/12 29/1/12 31/1/12 33/1/12 35/1/12
f 97/1/21 96/1/21 43/1/21 44/1/21
f 38/1/22 95/1/22 41/1/22 42/1/22
f 40/1/23 98/1/23 46/1/23
f 39/1/24 97/1/24 44/1/24 45/1/24
f 96/1/25 38/1/25 42/1/25 43/1/25
f 95/1/26 37/1/26 41/1/26
f 98/1/27 39/1/27 45/1/27 46/1/27
f 46/1/28 45/1/28 51/1/28 52/1/28
f 44/1/29 43/1/29 49/1/29 50/1/29
f 42/1/30 41/1/30 47/1/30 48/1/30
f 40/1/31 46/1/31 52/1/31
f 45/1/32 44/1/32 50/1/32 51/1/32
f 43/1/33 42/1/33 48/1/33 49/1/33
f 41/1/34 37/1/34 47/1/34
f 50/1/35 49/1/35 55/1/35 56/1/35
f 48/1/36 47/1/36 53/1/36 54/1/36
f 40/1/37 52/1/37 58/1/37
f 51/1/38 50/1/38 56/1/38 57/1/38
f 49/1/39 48/1/39 54/1/39 55/1/39
f 47/1/40 37/1/40 53/1/40
f 52/1/41 51/1/41 57/1/41 58/1/41
f 40/1/42 58/1/42 64/1/42
f 57/1/43 56/1/43 62/1/43 63/1/43
f 55/1/44 54/1/44 60/1/44 61/1/44
f 53/1/45 37/1/45 59/1/45
f 58/1/46 57/1/46 63/1/46 64/1/46
f 56/1/47 55/1/47 61/1/47 62/1/47
f 54/1/48 53/1/48 59/1/48 60/1/48
f 40/1/49 64/1/49 70/1/49
f 63/1/50 62/1/50 68/1/50 69/1/50
f 61/1/51 60/1/51 66/1/51 67/1/51
f 59/1/52 37/1/52 65/1/52
f 64/1/53 63/1/53 69/1/53 70/1/53
f 62/1/54 61/1/54 67/1/54 68/1/54
f 60/1/55 59/1/55 65/1/55 66/1/55
f 67/1/56 66/1/56 72/1/56 73/1/56
f 65/1/57 37/1/57 71/1/57
f 70/1/58 69/1/58 75/1/58 76/1/58
f 68/1/59 67/1/59 73/1/59 74/1/59
f 66/1/60 65/1/60 71/1/60 72/1/60
f 40/1/61 70/1/61 76/1/61
f 69/1/62 68/1/62 74/1/62 75/1/62
f 76/1/63 75/1/63 81/1/63 82/1/63
f 74/1/64 73/1/64 79/1/64 80/1/64
f 72/1/65 71/1/65 77/1/65 78/1/65
f 40/1/66 76/1/66 82/1/66
f 75/1/67 74/1/67 80/1/67 81/1/67
f 73/1/68 72/1/68 78/1/68 79/1/68
f 71/1/69 37/1/69 77/1/69
f 82/1/70 81/1/70 87/1/70 88/1/70
f 80/1/71 79/1/71 85/1/71 86/1/71
f 78/1/72 77/1/72 83/1/72 84/1/72
f 40/1/73 82/1/73 88/1/73
f 81/1/74 80/1/74 86/1/74 87/1/74
f 79/1/75 78/1/75 84/1/75 85/1/75
f 77/1/76 37/1/76 83/1/76
f 84/1/77 83/1/77 89/1/77 90/1/77
f 40/1/78 88/1/78 94/1/78
f 87/1/79 86/1/79 92/1/79 93/1/79
f 85/1/80 84/1/80 90/1/80 91/1/80
f 83/1/81 37/1/81 89/1/81
f 88/1/82 87/1/82 93/1/82 94/1/82
f 86/1/83 85/1/83 91/1/83 92/1/83
f 40/1/84 94/1/84 98/1/84
f 93/1/85 92/1/85 97/1/85 39/1/85
f 91/1/86 90/1/86 38/1/86 96/1/86
f 89/1/87 37/1/87 95/1/87
f 94/1/88 93/1/88 39/1/88 98/1/88
f 92/1/89 91/1/89 96/1/89 97/1/89
f 90/1/90 89/1/90 95/1/90 38/1/90
f 99/1/71 100/1/71 102/1/71 101/1/71
f 101/1/91 102/1/91 106/1/91 105/1/91
f 105/1/35 106/1/35 104/1/35 103/1/35
f 103/1/92 104/1/92 100/1/92 99/1/92
f 101/1/12 105/1/12 103/1/12 99/1/12
f 106/1/9 102/1/9 100/1/9 104/1/9
f 107/1/13 108/1/13 110/1/13 109/1/13
f 109/1/14 110/1/14 112/1/14 111/1/14
f 111/1/15 112/1/15 114/1/15 113/1/15
f 113/1/16 114/1/16 116/1/16 115/1/16
f 115/1/17 116/1/17 118/1/17 117/1/17
f 117/1/18 118/1/18 120/1/18 119/1/18
f 110/1/9 108/1/9 122/1/9 120/1/9 118/1/9 116/1/9 114/1/9 112/1/9
f 119/1/19 120/1/19 122/1/19 121/1/19
f 121/1/20 122/1/20 108/1/20 107/1/20
f 107/1/12 109/1/12 111/1/12 113/1/12 115/1/12 117/1/12 119/1/12 121/1/12
f 123/1/93 124/1/93 126/1/93 125/1/93
f 125/1/94 126/1/94 130/1/94 129/1/94
f 129/1/95 130/1/95 128/1/95 127/1/95
f 127/1/96 128/1/96 124/1/96 123/1/96
f 125/1/12 129/1/12 127/1/12 123/1/12
f 130/1/9 126/1/9 124/1/9 128/1/9
f 131/1/13 132/1/13 134/1/13 133/1/13
f 133/1/14 134/1/14 136/1/14 135/1/14
f 135/1/15 136/1/15 138/1/15 137/1/15
f 137/1/16 138/1/16 140/1/16 139/1/16
f 139/1/17 140/1/17 142/1/17 141/1/17
f 141/1/18 142/1/18 144/1/18 143/1/18
f 134/1/9 132/1/9 146/1/9 144/1/9 142/1/9 140/1/9 138/1/9 136/1/9
f 143/1/19 144/1/19 146/1/19 145/1/19
f 145/1/20 146/1/20 132/1/20 131/1/20
f 131/1/12 133/1/12 135/1/12 137/1/12 139/1/12 141/1/12 143/1/12 145/1/12
f 147/1/97 148/1/97 150/1/97 149/1/97
f 149/1/98 150/1/98 154/1/98 153/1/98
f 153/1/99 154/1/99 152/1/99 151/1/99
f 151/1/100 152/1/100 148/1/100 147/1/100
f 149/1/12 153/1/12 151/1/12 147/1/12
f 154/1/9 150/1/9 148/1/9 152/1/9
f 155/1/13 156/1/13 158/1/13 157/1/13
f 157/1/14 158/1/14 160/1/14 159/1/14
f 159/1/15 160/1/15 162/1/15 161/1/15
f 161/1/16 162/1/16 164/1/16 163/1/16
f 163/1/17 164/1/17 166/1/17 165/1/17
f 165/1/18 166/1/18 168/1/18 167/1/18
f 158/1/9 156/1/9 170/1/9 168/1/9 166/1/9 164/1/9 162/1/9 160/1/9
f 167/1/19 168/1/19 170/1/19 169/1/19
f 169/1/20 170/1/20 156/1/20 155/1/20
f 155/1/12 157/1/12 159/1/12 161/1/12 163/1/12 165/1/12 167/1/12 169/1/12
f 171/1/99 172/1/99 174/1/99 173/1/99
f 173/1/100 174/1/100 178/1/100 177/1/100
f 177/1/97 178/1/97 176/1/97 175/1/97
f 175/1/98 176/1/98 172/1/98 171/1/98
f 173/1/12 177/1/12 175/1/12 171/1/12
f 178/1/9 174/1/9 172/1/9 176/1/9
f 179/1/13 180/1/13 182/1/13 181/1/13
f 181/1/14 182/1/14 184/1/14 183/1/14
f 183/1/15 184/1/15 186/1/15 185/1/15
f 185/1/16 186/1/16 188/1/16 187/1/16
f 187/1/17 188/1/17 190/1/17 189/1/17
f 189/1/18 190/1/18 192/1/18 191/1/18
f 182/1/9 180/1/9 194/1/9 192/1/9 190/1/9 188/1/9 186/1/9 184/1/9
f 191/1/19 192/1/19 194/1/19 193/1/19
f 193/1/20 194/1/20 180/1/20 179/1/20
f 179/1/12 181/1/12 183/1/12 185/1/12 187/1/12 189/1/12 191/1/12 193/1/12
f 195/1/35 196/1/35 198/1/35 197/1/35
f 197/1/92 198/1/92 202/1/92 201/1/92
f 201/1/71 202/1/71 200/1/71 199/1/71
f 199/1/91 200/1/91 196/1/91 195/1/91
f 197/1/12 201/1/12 199/1/12 195/1/12
f 202/1/9 198/1/9 196/1/9 200/1/9
f 203/1/13 204/1/13 206/1/13 205/1/13
f 205/1/14 206/1/14 208/1/14 207/1/14
f 207/1/15 208/1/15 210/1/15 209/1/15
f 209/1/16 210/1/16 212/1/16 211/1/16
f 211/1/17 212/1/17 214/1/17 213/1/17
f 213/1/18 214/1/18 216/1/18 215/1/18
f 206/1/9 204/1/9 218/1/9 216/1/9 214/1/9 212/1/9 210/1/9 208/1/9
f 215/1/19 216/1/19 218/1/19 217/1/19
f 217/1/20 218/1/20 204/1/20 203/1/20
f 203/1/12 205/1/12 207/1/12 209/1/12 211/1/12 213/1/12 215/1/12 217/1/12
f 219/1/95 220/1/95 222/1/95 221/1/95
f 221/1/96 222/1/96 226/1/96 225/1/96
f 225/1/93 226/1/93 224/1/93 223/1/93
f 223/1/94 224/1/94 220/1/94 219/1/94
f 221/1/12 225/1/12 223/1/12 219/1/12
f 226/1/9 222/1/9 220/1/9 224/1/9
f 227/1/13 228/1/13 230/1/13 229/1/13
f 229/1/14 230/1/14 232/1/14 231/1/14
f 231/1/15 232/1/15 234/1/15 233/1/15
f 233/1/16 234/1/16 236/1/16 235/1/16
f 235/1/17 236/1/17 238/1/17 237/1/17
f 237/1/18 238/1/18 240/1/18 239/1/18
f 230/1/9 228/1/9 242/1/9 240/1/9 238/1/9 236/1/9 234/1/9 232/1/9
f 239/1/19 240/1/19 242/1/19 241/1/19
f 241/1/20 242/1/20 228/1/20 227/1/20
f 227/1/12 229/1/12 231/1/12 233/1/12 235/1/12 237/1/12 239/1/12 241/1/12
f 243/2/97 244/2/97 246/2/97 245/2/97
f 245/2/35 246/2/35 248/2/35 247/2/35
f 247/2/93 248/2/93 250/2/93 249/2/93
f 249/2/99 250/2/99 252/2/99 251/2/99
f 246/2/9 244/2/9 254/2/9 252/2/9 250/2/9 248/2/9
f 251/2/71 252/2/71 254/2/71 253/2/71
f 253/2/95 254/2/95 244/2/95 243/2/95
f 243/2/12 245/2/12 247/2/12 249/2/12 251/2/12 253/2/12
f 255/2/97 256/2/97 258/2/97 257/2/97
f 257/2/35 258/2/35 260/2/35 259/2/35
f 259/2/93 260/2/93 262/2/93 261/2/93
f 261/2/99 262/2/99 264/2/99 263/2/99
f 258/2/9 256/2/9 266/2/9 264/2/9 262/2/9 260/2/9
f 263/2/71 264/2/71 266/2/71 265/2/71
f 265/2/95 266/2/95 256/2/95 255/2/95
f 255/2/12 257/2/12 259/2/12 261/2/12 263/2/12 265/2/12
f 267/2/97 268/2/97 270/2/97 269/2/97
f 269/2/35 270/2/35 272/2/35 271/2/35
f 271/2/93 272/2/93 274/2/93 273/2/93
f 273/2/99 274/2/99 276/2/99 275/2/99
f 270/2/9 268/2/9 278/2/9 276/2/9 274/2/9 272/2/9
f 275/2/71 276/2/71 278/2/71 277/2/71
f 277/2/95 278/2/95 268/2/95 267/2/95
f 267/2/12 269/2/12 271/2/12 273/2/12 275/2/12 277/2/12
f 279/2/97 280/2/97 282/2/97 281/2/97
f 281/2/35 282/2/35 284/2/35 283/2/35
f 283/2/93 284/2/93 286/2/93 285/2/93
f 285/2/99 286/2/99 288/2/99 287/2/99
f 282/2/9 280/2/9 290/2/9 288/2/9 286/2/9 284/2/9
f 287/2/71 288/2/71 290/2/71 289/2/71
f 289/2/95 290/2/95 280/2/95 279/2/95
f 279/2/12 281/2/12 283/2/12 285/2/12 287/2/12 289/2/12
f 291/2/97 292/2/97 294/2/97 293/2/97
f 293/2/35 294/2/35 296/2/35 295/2/35
f 295/2/93 296/2/93 298/2/93 297/2/93
f 297/2/99 298/2/99 300/2/99 299/2/99
f 294/2/9 292/2/9 302/2/9 300/2/9 298/2/9 296/2/9
f 299/2/71 300/2/71 302/2/71 301/2/71
f 301/2/95 302/2/95 292/2/95 291/2/95
f 291/2/12 293/2/12 295/2/12 297/2/12 299/2/12 301/2/12
f 303/2/97 304/2/97 306/2/97 305/2/97
f 305/2/35 306/2/35 308/2/35 307/2/35
f 307/2/93 308/2/93 310/2/93 309/2/93
f 309/2/99 310/2/99 312/2/99 311/2/99
f 306/2/9 304/2/9 314/2/9 312/2/9 310/2/9 308/2/9
f 311/2/71 312/2/71 314/2/71 313/2/71
f 313/2/95 314/2/95 304/2/95 303/2/95
f 303/2/12 305/2/12 307/2/12 309/2/12 311/2/12 313/2/12
f 315/2/97 316/2/97 318/2/97 317/2/97
f 317/2/35 318/2/35 320/2/35 319/2/35
f 319/2/93 320/2/93 322/2/93 321/2/93
f 321/2/99 322/2/99 324/2/99 323/2/99
f 318/2/9 316/2/9 326/2/9 324/2/9 322/2/9 320/2/9
f 323/2/71 324/2/71 326/2/71 325/2/71
f 325/2/95 326/2/95 316/2/95 315/2/95
f 315/2/12 317/2/12 319/2/12 321/2/12 323/2/12 325/2/12
f 331/3/101 330/3/101 335/3/101 336/3/101
f 329/3/102 328/3/102 333/3/102 334/3/102
f 332/3/103 331/3/103 336/3/103
f 330/3/13 329/3/13 334/3/13 335/3/13
f 328/3/104 327/3/104 333/3/104
f 336/3/105 335/3/105 339/3/105 340/3/105
f 334/3/106 333/3/106 337/3/106 338/3/106
f 332/3/107 336/3/107 340/3/107
f 335/3/14 334/3/14 338/3/14 339/3/14
f 333/3/108 327/3/108 337/3/108
f 340/3/109 339/3/109 343/3/109 344/3/109
f 338/3/110 337/3/110 341/3/110 342/3/110
f 332/3/111 340/3/111 344/3/111
f 339/3/15 338/3/15 342/3/15 343/3/15
f 337/3/112 327/3/112 341/3/112
f 344/3/113 343/3/113 347/3/113 348/3/113
f 342/3/114 341/3/114 345/3/114 346/3/114
f 332/3/115 344/3/115 348/3/115
f 343/3/16 342/3/16 346/3/16 347/3/16
f 341/3/116 327/3/116 345/3/116
f 348/3/117 347/3/117 351/3/117 352/3/117
f 346/3/118 345/3/118 349/3/118 350/3/118
f 332/3/119 348/3/119 352/3/119
f 347/3/17 346/3/17 350/3/17 351/3/17
f 345/3/120 327/3/120 349/3/120
f 352/3/121 351/3/121 355/3/121 356/3/121
f 350/3/122 349/3/122 353/3/122 354/3/122
f 332/3/123 352/3/123 356/3/123
f 351/3/18 350/3/18 354/3/18 355/3/18
f 349/3/124 327/3/124 353/3/124
f 356/3/125 355/3/125 359/3/125 360/3/125
f 354/3/126 353/3/126 357/3/126 358/3/126
f 332/3/127 356/3/127 360/3/127
f 355/3/19 354/3/19 358/3/19 359/3/19
f 353/3/128 327/3/128 357/3/128
f 360/3/129 359/3/129 330/3/129 331/3/129
f 358/3/130 357/3/130 328/3/130 329/3/130
f 332/3/131 360/3/131 331/3/131
f 359/3/20 358/3/20 329/3/20 330/3/20
f 357/3/132 327/3/132 328/3/132
f 364/3/13 363/3/13 368/3/13 369/3/13
f 362/3/104 361/3/104 367/3/104
f 365/3/101 364/3/101 369/3/101 370/3/101
f 363/3/102 362/3/102 367/3/102 368/3/102
f 366/3/103 365/3/103 370/3/103
f 366/3/107 370/3/107 374/3/107
f 369/3/14 368/3/14 372/3/14 373/3/14
f 367/3/108 361/3/108 371/3/108
f 370/3/105 369/3/105 373/3/105 374/3/105
f 368/3/106 367/3/106 371/3/106 372/3/106
f 366/3/111 374/3/111 378/3/111
f 373/3/15 372/3/15 376/3/15 377/3/15
f 371/3/112 361/3/112 375/3/112
f 374/3/109 373/3/109 377/3/109 378/3/109
f 372/3/110 371/3/110 375/3/110 376/3/110
f 366/3/115 378/3/115 382/3/115
f 377/3/16 376/3/16 380/3/16 381/3/16
f 375/3/116 361/3/116 379/3/116
f 378/3/113 377/3/113 381/3/113 382/3/113
f 376/3/114 375/3/114 379/3/114 380/3/114
f 366/3/119 382/3/119 386/3/119
f 381/3/17 380/3/17 384/3/17 385/3/17
f 379/3/120 361/3/120 383/3/120
f 382/3/117 381/3/117 385/3/117 386/3/117
f 380/3/118 379/3/118 383/3/118 384/3/118
f 366/3/123 386/3/123 390/3/123
f 385/3/18 384/3/18 388/3/18 389/3/18
f 383/3/124 361/3/124 387/3/124
f 386/3/121 385/3/121 389/3/121 390/3/121
f 384/3/122 383/3/122 387/3/122 388/3/122
f 366/3/127 390/3/127 394/3/127
f 389/3/19 388/3/19 392/3/19 393/3/19
f 387/3/128 361/3/128 391/3/128
f 390/3/125 389/3/125 393/3/125 394/3/125
f 388/3/126 387/3/126 391/3/126 392/3/126
f 366/3/131 394/3/131 365/3/131
f 393/3/20 392/3/20 363/3/20 364/3/20
f 391/3/132 361/3/132 362/3/132
f 394/3/129 393/3/129 364/3/129 365/3/129
f 392/3/130 391/3/130 362/3/130 363/3/130
f 397/3/102 396/3/102 401/3/102 402/3/102
f 400/3/103 399/3/103 404/3/103
f 398/3/13 397/3/13 402/3/13 403/3/13
f 396/3/104 395/3/104 401/3/104
f 399/3/101 398/3/101 403/3/101 404/3/101
f 404/3/105 403/3/105 407/3/105 408/3/105
f 402/3/106 401/3/106 405/3/106 406/3/106
f 400/3/107 404/3/107 408/3/107
f 403/3/14 402/3/14 406/3/14 407/3/14
f 401/3/108 395/3/108 405/3/108
f 408/3/109 407/3/109 411/3/109 412/3/109
f 406/3/110 405/3/110 409/3/110 410/3/110
f 400/3/111 408/3/111 412/3/111
f 407/3/15 406/3/15 410/3/15 411/3/15
f 405/3/112 395/3/112 409/3/112
f 412/3/113 411/3/113 415/3/113 416/3/113
f 410/3/114 409/3/114 413/3/114 414/3/114
f 400/3/115 412/3/115 416/3/115
f 411/3/16 410/3/16 414/3/16 415/3/16
f 409/3/116 395/3/116 413/3/116
f 416/3/117 415/3/117 419/3/117 420/3/117
f 414/3/118 413/3/118 417/3/118 418/3/118
f 400/3/119 416/3/119 420/3/119
f 415/3/17 414/3/17 418/3/17 419/3/17
f 413/3/120 395/3/120 417/3/120
f 420/3/121 419/3/121 423/3/121 424/3/121
f 418/3/122 417/3/122 421/3/122 422/3/122
f 400/3/123 420/3/123 424/3/123
f 419/3/18 418/3/18 422/3/18 423/3/18
f 417/3/124 395/3/124 421/3/124
f 424/3/125 423/3/125 427/3/125 428/3/125
f 422/3/126 421/3/126 425/3/126 426/3/126
f 400/3/127 424/3/127 428/3/127
f 423/3/19 422/3/19 426/3/19 427/3/19
f 421/3/128 395/3/128 425/3/128
f 428/3/129 427/3/129 398/3/129 399/3/129
f 426/3/130 425/3/130 396/3/130 397/3/130
f 400/3/131 428/3/131 399/3/131
f 427/3/20 426/3/20 397/3/20 398/3/20
f 425/3/132 395/3/132 396/3/132
f 434/3/103 433/3/103 438/3/103
f 432/3/13 431/3/13 436/3/13 437/3/13
f 430/3/104 429/3/104 435/3/104
f 433/3/101 432/3/101 437/3/101 438/3/101
f 431/3/102 430/3/102 435/3/102 436/3/102
f 436/3/106 435/3/106 439/3/106 440/3/106
f 434/3/107 438/3/107 442/3/107
f 437/3/14 436/3/14 440/3/14 441/3/14
f 435/3/108 429/3/108 439/3/108
f 438/3/105 437/3/105 441/3/105 442/3/105
f 440/3/110 439/3/110 443/3/110 444/3/110
f 434/3/111 442/3/111 446/3/111
f 441/3/15 440/3/15 444/3/15 445/3/15
f 439/3/112 429/3/112 443/3/112
f 442/3/109 441/3/109 445/3/109 446/3/109
f 444/3/114 443/3/114 447/3/114 448/3/114
f 434/3/115 446/3/115 450/3/115
f 445/3/16 444/3/16 448/3/16 449/3/16
f 443/3/116 429/3/116 447/3/116
f 446/3/113 445/3/113 449/3/113 450/3/113
f 448/3/118 447/3/118 451/3/118 452/3/118
f 434/3/119 450/3/119 454/3/119
f 449/3/17 448/3/17 452/3/17 453/3/17
f 447/3/120 429/3/120 451/3/120
f 450/3/117 449/3/117 453/3/117 454/3/117
f 452/3/122 451/3/122 455/3/122 456/3/122
f 434/3/123 454/3/123 458/3/123
f 453/3/18 452/3/18 456/3/18 457/3/18
f 451/3/124 429/3/124 455/3/124
f 454/3/121 453/3/121 457/3/121 458/3/121
f 456/3/126 455/3/126 459/3/126 460/3/126
f 434/3/127 458/3/127 462/3/127
f 457/3/19 456/3/19 460/3/19 461/3/19
f 455/3/128 429/3/128 459/3/128
f 458/3/125 457/3/125 461/3/125 462/3/125
f 460/3/130 459/3/130 430/3/130 431/3/130
f 434/3/131 462/3/131 433/3/131
f 461/3/20 460/3/20 431/3/20 432/3/20
f 459/3/132 429/3/132 430/3/132
f 462/3/129 461/3/129 432/3/129 433/3/129
f 468/3/103 467/3/103 472/3/103
f 466/3/13 465/3/13 470/3/13 471/3/13
f 464/3/104 463/3/104 469/3/104
f 467/3/101 466/3/101 471/3/101 472/3/101
f 465/3/102 464/3/102 469/3/102 470/3/102
f 468/3/107 472/3/107 476/3/107
f 471/3/14 470/3/14 474/3/14 475/3/14
f 469/3/108 463/3/108 473/3/108
f 472/3/105 471/3/105 475/3/105 476/3/105
f 470/3/106 469/3/106 473/3/106 474/3/106
f 468/3/111 476/3/111 480/3/111
f 475/3/15 474/3/15 478/3/15 479/3/15
f 473/3/112 463/3/112 477/3/112
f 476/3/109 475/3/109 479/3/109 480/3/109
f 474/3/110 473/3/110 477/3/110 478/3/110
f 468/3/115 480/3/115 484/3/115
f 479/3/16 478/3/16 482/3/16 483/3/16
f 477/3/116 463/3/116 481/3/116
f 480/3/113 479/3/113 483/3/113 484/3/113
f 478/3/114 477/3/114 481/3/114 482/3/114
f 468/3/119 484/3/119 488/3/119
f 483/3/17 482/3/17 486/3/17 487/3/17
f 481/3/120 463/3/120 485/3/120
f 484/3/117 483/3/117 487/3/117 488/3/117
f 482/3/118 481/3/118 485/3/118 486/3/118
f 468/3/123 488/3/123 492/3/123
f 487/3/18 486/3/18 490/3/18 491/3/18
f 485/3/124 463/3/124 489/3/124
f 488/3/121 487/3/121 491/3/121 492/3/121
f 486/3/122 485/3/122 489/3/122 490/3/122
f 468/3/127 492/3/127 496/3/127
f 491/3/19 490/3/19 494/3/19 495/3/19
f 489/3/128 463/3/128 493/3/128
f 492/3/125 491/3/125 495/3/125 496/3/125
f 490/3/126 489/3/126 493/3/126 494/3/126
f 468/3/131 496/3/131 467/3/131
f 495/3/20 494/3/20 465/3/20 466/3/20
f 493/3/132 463/3/132 464/3/132
f 496/3/129 495/3/129 466/3/129 467/3/129
f 494/3/130 493/3/130 464/3/130 465/3/130
f 502/3/103 501/3/103 506/3/103
f 500/3/13 499/3/13 504/3/13 505/3/13
f 498/3/104 497/3/104 503/3/104
f 501/3/101 500/3/101 505/3/101 506/3/101
f 499/3/102 498/3/102 503/3/102 504/3/102
f 504/3/106 503/3/106 507/3/106 508/3/106
f 502/3/107 506/3/107 510/3/107
f 505/3/14 504/3/14 508/3/14 509/3/14
f 503/3/108 497/3/108 507/3/108
f 506/3/105 505/3/105 509/3/105 510/3/105
f 508/3/110 507/3/110 511/3/110 512/3/110
f 502/3/111 510/3/111 514/3/111
f 509/3/15 508/3/15 512/3/15 513/3/15
f 507/3/112 497/3/112 511/3/112
f 510/3/109 509/3/109 513/3/109 514/3/109
f 512/3/114 511/3/114 515/3/114 516/3/114
f 502/3/115 514/3/115 518/3/115
f 513/3/16 512/3/16 516/3/16 517/3/16
f 511/3/116 497/3/116 515/3/116
f 514/3/113 513/3/113 517/3/113 518/3/113
f 516/3/118 515/3/118 519/3/118 520/3/118
f 502/3/119 518/3/119 522/3/119
f 517/3/17 516/3/17 520/3/17 521/3/17
f 515/3/120 497/3/120 519/3/120
f 518/3/117 517/3/117 521/3/117 522/3/117
f 520/3/122 519/3/122 523/3/122 524/3/122
f 502/3/123 522/3/123 526/3/123
f 521/3/18 520/3/18 524/3/18 525/3/18
f 519/3/124 497/3/124 523/3/124
f 522/3/121 521/3/121 525/3/121 526/3/121
f 524/3/126 523/3/126 527/3/126 528/3/126
f 502/3/127 526/3/127 530/3/127
f 525/3/19 524/3/19 528/3/19 529/3/19
f 523/3/128 497/3/128 527/3/128
f 526/3/125 525/3/125 529/3/125 530/3/125
f 528/3/130 527/3/130 498/3/130 499/3/130
f 502/3/131 530/3/131 501/3/131
f 529/3/20 528/3/20 499/3/20 500/3/20
f 527/3/132 497/3/132 498/3/132
f 530/3/129 529/3/129 500/3/129 501/3/129
f 534/3/103 533/3/103 538/3/103
f 564/3/13 563/3/13 536/3/13 537/3/13
f 532/3/104 531/3/104 535/3/104
f 533/3/101 564/3/101 537/3/101 538/3/101
f 563/3/102 532/3/102 535/3/102 536/3/102
f 538/3/105 537/3/105 541/3/105 542/3/105
f 536/3/106 535/3/106 539/3/106 540/3/106
f 534/3/107 538/3/107 542/3/107
f 537/3/14 536/3/14 540/3/14 541/3/14
f 535/3/108 531/3/108 539/3/108
f 542/3/109 541/3/109 545/3/109 546/3/109
f 540/3/110 539/3/110 543/3/110 544/3/110
f 534/3/111 542/3/111 546/3/111
f 541/3/15 540/3/15 544/3/15 545/3/15
f 539/3/112 531/3/112 543/3/112
f 546/3/113 545/3/113 549/3/113 550/3/113
f 544/3/114 543/3/114 547/3/114 548/3/114
f 534/3/115 546/3/115 550/3/115
f 545/3/16 544/3/16 548/3/16 549/3/16
f 543/3/116 531/3/116 547/3/116
f 550/3/117 549/3/117 553/3/117 554/3/117
f 548/3/118 547/3/118 551/3/118 552/3/118
f 534/3/119 550/3/119 554/3/119
f 549/3/17 548/3/17 552/3/17 553/3/17
f 547/3/120 531/3/120 551/3/120
f 554/3/121 553/3/121 557/3/121 558/3/121
f 552/3/122 551/3/122 555/3/122 556/3/122
f 534/3/123 554/3/123 558/3/123
f 553/3/18 552/3/18 556/3/18 557/3/18
f 551/3/124 531/3/124 555/3/124
f 558/3/125 557/3/125 561/3/125 562/3/125
f 556/3/126 555/3/126 559/3/126 560/3/126
f 534/3/127 558/3/127 562/3/127
f 557/3/19 556/3/19 560/3/19 561/3/19
f 555/3/128 531/3/128 559/3/128
f 562/3/129 561/3/129 564/3/129 533/3/129
f 560/3/130 559/3/130 532/3/130 563/3/130
f 534/3/131 562/3/131 533/3/131
f 561/3/20 560/3/20 563/3/20 564/3/20
f 559/3/132 531/3/132 532/3/132
