# Blender 5.2.0 LTS
# www.blender.org
mtllib aldrich_impaled_stake_03.mtl
o aldrich_impaled_stake
v 0.000000 0.000000 -0.120000
v 0.000000 2.360000 -0.120000
v 0.063640 0.000000 -0.093640
v 0.063640 2.360000 -0.093640
v 0.090000 0.000000 -0.030000
v 0.090000 2.360000 -0.030000
v 0.063640 0.000000 0.033640
v 0.063640 2.360000 0.033640
v 0.000000 0.000000 0.060000
v 0.000000 2.360000 0.060000
v -0.063640 0.000000 0.033640
v -0.063640 2.360000 0.033640
v -0.090000 0.000000 -0.030000
v -0.090000 2.360000 -0.030000
v -0.063640 0.000000 -0.093640
v -0.063640 2.360000 -0.093640
v -0.310000 0.000000 0.310000
v -0.310000 0.200000 0.310000
v -0.310000 0.000000 -0.310000
v -0.310000 0.200000 -0.310000
v 0.310000 0.000000 0.310000
v 0.310000 0.200000 0.310000
v 0.310000 0.000000 -0.310000
v 0.310000 0.200000 -0.310000
v -0.094775 0.091794 0.030000
v -0.399251 0.722107 0.030000
v -0.094775 0.091794 -0.030000
v -0.399251 0.722107 -0.030000
v -0.040749 0.117892 0.030000
v -0.345225 0.748205 0.030000
v -0.040749 0.117892 -0.030000
v -0.345225 0.748205 -0.030000
v 0.040749 0.117892 0.030000
v 0.345225 0.748205 0.030000
v 0.040749 0.117892 -0.030000
v 0.345225 0.748205 -0.030000
v 0.094775 0.091794 0.030000
v 0.399251 0.722107 0.030000
v 0.094775 0.091794 -0.030000
v 0.399251 0.722107 -0.030000
v -0.155000 2.360000 -0.105000
v -0.155000 2.640000 -0.105000
v -0.155000 2.360000 -0.205000
v -0.155000 2.640000 -0.205000
v 0.065000 2.360000 -0.105000
v 0.065000 2.640000 -0.105000
v 0.065000 2.360000 -0.205000
v 0.065000 2.640000 -0.205000
v -0.155000 2.620000 0.065000
v -0.155000 2.670000 0.065000
v -0.155000 2.620000 -0.155000
v -0.155000 2.670000 -0.155000
v 0.065000 2.620000 0.065000
v 0.065000 2.670000 0.065000
v 0.065000 2.620000 -0.155000
v 0.065000 2.670000 -0.155000
v -0.220000 2.390000 -0.015000
v -0.220000 2.590000 -0.015000
v -0.220000 2.390000 -0.145000
v -0.220000 2.590000 -0.145000
v -0.170000 2.390000 -0.015000
v -0.170000 2.590000 -0.015000
v -0.170000 2.390000 -0.145000
v -0.170000 2.590000 -0.145000
v 0.080000 2.390000 -0.015000
v 0.080000 2.590000 -0.015000
v 0.080000 2.390000 -0.145000
v 0.080000 2.590000 -0.145000
v 0.130000 2.390000 -0.015000
v 0.130000 2.590000 -0.015000
v 0.130000 2.390000 -0.145000
v 0.130000 2.590000 -0.145000
v -0.022500 2.190000 -0.090000
v -0.022500 2.610000 -0.090000
v 0.025131 2.190000 -0.062500
v 0.025131 2.610000 -0.062500
v 0.025131 2.190000 -0.007500
v 0.025131 2.610000 -0.007500
v -0.022500 2.190000 0.020000
v -0.022500 2.610000 0.020000
v -0.070131 2.190000 -0.007500
v -0.070131 2.610000 -0.007500
v -0.070131 2.190000 -0.062500
v -0.070131 2.610000 -0.062500
v -0.200000 2.230000 0.110000
v -0.200000 2.430000 0.110000
v -0.200000 2.230000 -0.150000
v -0.200000 2.430000 -0.150000
v 0.200000 2.230000 0.110000
v 0.200000 2.430000 0.110000
v 0.200000 2.230000 -0.150000
v 0.200000 2.430000 -0.150000
v -0.065000 2.380000 0.025000
v -0.065000 2.500000 0.025000
v -0.065000 2.380000 -0.105000
v -0.065000 2.500000 -0.105000
v 0.065000 2.380000 0.025000
v 0.065000 2.500000 0.025000
v 0.065000 2.380000 -0.105000
v 0.065000 2.500000 -0.105000
v -0.045000 2.675000 -0.040000
v -0.045000 2.659650 -0.107252
v -0.045000 2.616641 -0.161184
v -0.045000 2.423359 -0.161184
v -0.045000 2.380350 -0.107252
v -0.045000 2.365000 -0.040000
v -0.005470 2.659650 -0.094408
v 0.026230 2.616641 -0.138040
v 0.043822 2.554491 -0.162254
v 0.043822 2.485509 -0.162254
v 0.026230 2.423359 -0.138040
v -0.005470 2.380350 -0.094408
v 0.018960 2.659650 -0.060782
v 0.070253 2.616641 -0.077448
v 0.098718 2.554491 -0.086697
v 0.098718 2.485509 -0.086697
v 0.070253 2.423359 -0.077448
v 0.018960 2.380350 -0.060782
v 0.018960 2.659650 -0.019218
v 0.070253 2.616641 -0.002552
v 0.098718 2.554491 0.006697
v 0.098718 2.485509 0.006697
v 0.070253 2.423359 -0.002552
v 0.018960 2.380350 -0.019218
v -0.005470 2.659650 0.014408
v 0.026230 2.616641 0.058040
v 0.043822 2.554491 0.082254
v 0.043822 2.485509 0.082254
v 0.026230 2.423359 0.058040
v -0.005470 2.380350 0.014408
v -0.045000 2.659650 0.027252
v -0.045000 2.616641 0.081184
v -0.045000 2.554491 0.111114
v -0.045000 2.485509 0.111114
v -0.045000 2.423359 0.081184
v -0.045000 2.380350 0.027252
v -0.084530 2.659650 0.014408
v -0.116230 2.616641 0.058040
v -0.133822 2.554491 0.082254
v -0.133822 2.485509 0.082254
v -0.116230 2.423359 0.058040
v -0.084530 2.380350 0.014408
v -0.108960 2.659650 -0.019218
v -0.160253 2.616641 -0.002552
v -0.188718 2.554491 0.006697
v -0.188718 2.485509 0.006697
v -0.160253 2.423359 -0.002552
v -0.108960 2.380350 -0.019218
v -0.108960 2.659650 -0.060782
v -0.160253 2.616641 -0.077448
v -0.188718 2.554491 -0.086697
v -0.188718 2.485509 -0.086697
v -0.160253 2.423359 -0.077448
v -0.108960 2.380350 -0.060782
v -0.084530 2.659650 -0.094408
v -0.116230 2.616641 -0.138040
v -0.133822 2.554491 -0.162254
v -0.133822 2.485509 -0.162254
v -0.116230 2.423359 -0.138040
v -0.084530 2.380350 -0.094408
v -0.045000 2.554491 -0.191114
v -0.045000 2.485509 -0.191114
v -0.343351 1.546058 0.010000
v -0.366137 1.925374 0.010000
v -0.343351 1.546058 -0.090000
v -0.366137 1.925374 -0.090000
v -0.243531 1.552054 0.010000
v -0.266317 1.931370 0.010000
v -0.243531 1.552054 -0.090000
v -0.266317 1.931370 -0.090000
v -0.371227 1.439056 0.005000
v -0.371227 1.559056 0.005000
v -0.371227 1.439056 -0.085000
v -0.371227 1.559056 -0.085000
v -0.261227 1.439056 0.005000
v -0.261227 1.559056 0.005000
v -0.261227 1.439056 -0.085000
v -0.261227 1.559056 -0.085000
v -0.174429 0.784328 0.020000
v -0.224708 1.201307 0.020000
v -0.174429 0.784328 -0.100000
v -0.224708 1.201307 -0.100000
v -0.055292 0.798693 0.020000
v -0.105571 1.215672 0.020000
v -0.055292 0.798693 -0.100000
v -0.105571 1.215672 -0.100000
v 0.243531 1.552054 0.010000
v 0.266317 1.931370 0.010000
v 0.243531 1.552054 -0.090000
v 0.266317 1.931370 -0.090000
v 0.343351 1.546058 0.010000
v 0.366137 1.925374 0.010000
v 0.343351 1.546058 -0.090000
v 0.366137 1.925374 -0.090000
v 0.261227 1.439056 0.005000
v 0.261227 1.559056 0.005000
v 0.261227 1.439056 -0.085000
v 0.261227 1.559056 -0.085000
v 0.371227 1.439056 0.005000
v 0.371227 1.559056 0.005000
v 0.371227 1.439056 -0.085000
v 0.371227 1.559056 -0.085000
v 0.055292 0.798693 0.020000
v 0.105571 1.215672 0.020000
v 0.055292 0.798693 -0.100000
v 0.105571 1.215672 -0.100000
v 0.174429 0.784328 0.020000
v 0.224708 1.201307 0.020000
v 0.174429 0.784328 -0.100000
v 0.224708 1.201307 -0.100000
v -0.220000 1.710000 0.130000
v -0.220000 2.330000 0.130000
v -0.220000 1.710000 -0.170000
v -0.220000 2.330000 -0.170000
v 0.220000 1.710000 0.130000
v 0.220000 2.330000 0.130000
v 0.220000 1.710000 -0.170000
v 0.220000 2.330000 -0.170000
v -0.200000 1.390000 0.120000
v -0.200000 1.730000 0.120000
v -0.200000 1.390000 -0.160000
v -0.200000 1.730000 -0.160000
v 0.200000 1.390000 0.120000
v 0.200000 1.730000 0.120000
v 0.200000 1.390000 -0.160000
v 0.200000 1.730000 -0.160000
v -0.225000 1.710000 0.135000
v -0.225000 1.770000 0.135000
v -0.225000 1.710000 -0.175000
v -0.225000 1.770000 -0.175000
v 0.225000 1.710000 0.135000
v 0.225000 1.770000 0.135000
v 0.225000 1.710000 -0.175000
v 0.225000 1.770000 -0.175000
v -0.273704 1.915458 0.025000
v -0.357145 2.327086 0.025000
v -0.273704 1.915458 -0.105000
v -0.357145 2.327086 -0.105000
v -0.146296 1.941285 0.025000
v -0.229737 2.352913 0.025000
v -0.146296 1.941285 -0.105000
v -0.229737 2.352913 -0.105000
v -0.172912 1.192316 0.035000
v -0.216009 1.549727 0.035000
v -0.172912 1.192316 -0.115000
v -0.216009 1.549727 -0.115000
v -0.023991 1.210273 0.035000
v -0.067088 1.567684 0.035000
v -0.023991 1.210273 -0.115000
v -0.067088 1.567684 -0.115000
v 0.146296 1.941285 0.025000
v 0.229737 2.352913 0.025000
v 0.146296 1.941285 -0.105000
v 0.229737 2.352913 -0.105000
v 0.273704 1.915458 0.025000
v 0.357145 2.327086 0.025000
v 0.273704 1.915458 -0.105000
v 0.357145 2.327086 -0.105000
v 0.023991 1.210273 0.035000
v 0.067088 1.567684 0.035000
v 0.023991 1.210273 -0.115000
v 0.067088 1.567684 -0.115000
v 0.172912 1.192316 0.035000
v 0.216009 1.549727 0.035000
v 0.172912 1.192316 -0.115000
v 0.216009 1.549727 -0.115000
v -0.130000 1.910000 0.155000
v -0.130000 2.210000 0.155000
v -0.130000 1.910000 0.125000
v -0.130000 2.210000 0.125000
v 0.130000 1.910000 0.155000
v 0.130000 2.210000 0.155000
v 0.130000 1.910000 0.125000
v 0.130000 2.210000 0.125000
v -0.097500 1.730000 0.154000
v -0.097500 1.930000 0.154000
v -0.097500 1.730000 0.126000
v -0.097500 1.930000 0.126000
v -0.042500 1.730000 0.154000
v -0.042500 1.930000 0.154000
v -0.042500 1.730000 0.126000
v -0.042500 1.930000 0.126000
v 0.057500 1.790000 0.154000
v 0.057500 1.930000 0.154000
v 0.057500 1.790000 0.126000
v 0.057500 1.930000 0.126000
v 0.102500 1.790000 0.154000
v 0.102500 1.930000 0.154000
v 0.102500 1.790000 0.126000
v 0.102500 1.930000 0.126000
v -0.045000 2.620000 -0.090000
v 0.002631 2.620000 -0.062500
v 0.002631 2.620000 -0.007500
v -0.045000 2.620000 0.020000
v -0.092631 2.620000 -0.007500
v -0.092631 2.620000 -0.062500
v -0.045000 2.920000 -0.035000
v -0.067500 2.340000 0.118000
v -0.067500 2.500000 0.118000
v -0.067500 2.340000 0.092000
v -0.067500 2.500000 0.092000
v -0.022500 2.340000 0.118000
v -0.022500 2.500000 0.118000
v -0.022500 2.340000 0.092000
v -0.022500 2.500000 0.092000
v -0.107500 2.320000 0.089000
v -0.107500 2.400000 0.089000
v -0.107500 2.320000 0.061000
v -0.107500 2.400000 0.061000
v 0.062500 2.320000 0.089000
v 0.062500 2.400000 0.089000
v 0.062500 2.320000 0.061000
v 0.062500 2.400000 0.061000
v -0.035000 0.610000 0.080000
v -0.035000 1.910000 0.080000
v -0.035000 0.610000 0.040000
v -0.035000 1.910000 0.040000
v 0.035000 0.610000 0.080000
v 0.035000 1.910000 0.080000
v 0.035000 0.610000 0.040000
v 0.035000 1.910000 0.040000
v 0.000000 1.070000 0.080000
v 0.000000 1.060451 0.050611
v 0.000000 0.979549 0.050611
v 0.000000 0.970000 0.080000
v 0.020781 1.060451 0.059219
v 0.033625 1.035451 0.046375
v 0.033625 1.004549 0.046375
v 0.020781 0.979549 0.059219
v 0.029389 1.060451 0.080000
v 0.047553 1.035451 0.080000
v 0.047553 1.004549 0.080000
v 0.029389 0.979549 0.080000
v 0.020781 1.060451 0.100781
v 0.033625 1.035451 0.113625
v 0.033625 1.004549 0.113625
v 0.020781 0.979549 0.100781
v 0.000000 1.060451 0.109389
v 0.000000 1.035451 0.127553
v 0.000000 1.004549 0.127553
v 0.000000 0.979549 0.109389
v -0.020781 1.060451 0.100781
v -0.033625 1.035451 0.113625
v -0.033625 1.004549 0.113625
v -0.020781 0.979549 0.100781
v -0.029389 1.060451 0.080000
v -0.047553 1.035451 0.080000
v -0.047553 1.004549 0.080000
v -0.029389 0.979549 0.080000
v -0.020781 1.060451 0.059219
v -0.033625 1.035451 0.046375
v -0.033625 1.004549 0.046375
v -0.020781 0.979549 0.059219
v 0.000000 1.035451 0.032447
v 0.000000 1.004549 0.032447
v 0.000000 1.490000 0.080000
v 0.000000 1.480451 0.050611
v 0.000000 1.399549 0.050611
v 0.000000 1.390000 0.080000
v 0.020781 1.480451 0.059219
v 0.033625 1.455451 0.046375
v 0.033625 1.424549 0.046375
v 0.020781 1.399549 0.059219
v 0.029389 1.480451 0.080000
v 0.047553 1.455451 0.080000
v 0.047553 1.424549 0.080000
v 0.029389 1.399549 0.080000
v 0.020781 1.480451 0.100781
v 0.033625 1.455451 0.113625
v 0.033625 1.424549 0.113625
v 0.020781 1.399549 0.100781
v 0.000000 1.480451 0.109389
v 0.000000 1.455451 0.127553
v 0.000000 1.424549 0.127553
v 0.000000 1.399549 0.109389
v -0.020781 1.480451 0.100781
v -0.033625 1.455451 0.113625
v -0.033625 1.424549 0.113625
v -0.020781 1.399549 0.100781
v -0.029389 1.480451 0.080000
v -0.047553 1.455451 0.080000
v -0.047553 1.424549 0.080000
v -0.029389 1.399549 0.080000
v -0.020781 1.480451 0.059219
v -0.033625 1.455451 0.046375
v -0.033625 1.424549 0.046375
v -0.020781 1.399549 0.059219
v 0.000000 1.455451 0.032447
v 0.000000 1.424549 0.032447
v 0.000000 1.910000 0.080000
v 0.000000 1.900451 0.050611
v 0.000000 1.819549 0.050611
v 0.000000 1.810000 0.080000
v 0.020781 1.900451 0.059219
v 0.033625 1.875451 0.046375
v 0.033625 1.844549 0.046375
v 0.020781 1.819549 0.059219
v 0.029389 1.900451 0.080000
v 0.047553 1.875451 0.080000
v 0.047553 1.844549 0.080000
v 0.029389 1.819549 0.080000
v 0.020781 1.900451 0.100781
v 0.033625 1.875451 0.113625
v 0.033625 1.844549 0.113625
v 0.020781 1.819549 0.100781
v 0.000000 1.900451 0.109389
v 0.000000 1.875451 0.127553
v 0.000000 1.844549 0.127553
v 0.000000 1.819549 0.109389
v -0.020781 1.900451 0.100781
v -0.033625 1.875451 0.113625
v -0.033625 1.844549 0.113625
v -0.020781 1.819549 0.100781
v -0.029389 1.900451 0.080000
v -0.047553 1.875451 0.080000
v -0.047553 1.844549 0.080000
v -0.029389 1.819549 0.080000
v -0.020781 1.900451 0.059219
v -0.033625 1.875451 0.046375
v -0.033625 1.844549 0.046375
v -0.020781 1.819549 0.059219
v 0.000000 1.875451 0.032447
v 0.000000 1.844549 0.032447
vn 0.3827 -0.0000 -0.9239
vn 0.9239 -0.0000 -0.3827
vn 0.9239 -0.0000 0.3827
vn 0.3827 -0.0000 0.9239
vn -0.3827 -0.0000 0.9239
vn -0.9239 -0.0000 0.3827
vn -0.0000 1.0000 -0.0000
vn -0.9239 -0.0000 -0.3827
vn -0.3827 -0.0000 -0.9239
vn -0.0000 -1.0000 -0.0000
vn -1.0000 -0.0000 -0.0000
vn -0.0000 -0.0000 -1.0000
vn 1.0000 -0.0000 -0.0000
vn -0.0000 -0.0000 1.0000
vn -0.9004 -0.4350 -0.0000
vn 0.9004 0.4350 -0.0000
vn 0.4350 -0.9004 -0.0000
vn -0.4350 0.9004 -0.0000
vn -0.9004 0.4350 -0.0000
vn 0.9004 -0.4350 -0.0000
vn -0.4350 -0.9004 -0.0000
vn 0.4350 0.9004 -0.0000
vn 0.5000 -0.0000 -0.8660
vn 0.5000 -0.0000 0.8660
vn -0.5000 -0.0000 0.8660
vn -0.5000 -0.0000 -0.8660
vn 0.3090 -0.0000 -0.9511
vn 0.1986 0.7663 -0.6111
vn 0.0721 -0.9724 -0.2219
vn 0.2810 -0.4164 -0.8647
vn 0.2810 0.4164 -0.8647
vn 0.0721 0.9724 -0.2219
vn 0.1986 -0.7663 -0.6111
vn 0.5198 -0.7663 -0.3777
vn 0.8090 -0.0000 -0.5878
vn 0.5198 0.7663 -0.3777
vn 0.1888 -0.9724 -0.1372
vn 0.7355 -0.4164 -0.5344
vn 0.7355 0.4164 -0.5344
vn 0.1888 0.9724 -0.1372
vn 0.6425 0.7663 -0.0000
vn 0.2334 -0.9724 -0.0000
vn 0.9092 -0.4164 -0.0000
vn 0.9092 0.4164 -0.0000
vn 0.2334 0.9724 -0.0000
vn 0.6425 -0.7663 -0.0000
vn 0.1888 -0.9724 0.1372
vn 0.7355 -0.4164 0.5344
vn 0.7355 0.4164 0.5344
vn 0.1888 0.9724 0.1372
vn 0.5198 -0.7663 0.3777
vn 0.8090 -0.0000 0.5878
vn 0.5198 0.7663 0.3777
vn 0.0721 -0.9724 0.2219
vn 0.2810 -0.4164 0.8647
vn 0.2810 0.4164 0.8647
vn 0.0721 0.9724 0.2219
vn 0.1986 -0.7663 0.6111
vn 0.3090 -0.0000 0.9511
vn 0.1986 0.7663 0.6111
vn -0.2810 0.4164 0.8647
vn -0.0721 0.9724 0.2219
vn -0.1986 -0.7663 0.6111
vn -0.3090 -0.0000 0.9511
vn -0.1986 0.7663 0.6111
vn -0.0721 -0.9724 0.2219
vn -0.2810 -0.4164 0.8647
vn -0.5198 -0.7663 0.3777
vn -0.8090 -0.0000 0.5878
vn -0.5198 0.7663 0.3777
vn -0.1888 -0.9724 0.1372
vn -0.7355 -0.4164 0.5344
vn -0.7355 0.4164 0.5344
vn -0.1888 0.9724 0.1372
vn -0.6425 -0.7663 -0.0000
vn -0.6425 0.7663 -0.0000
vn -0.2334 -0.9724 -0.0000
vn -0.9092 -0.4164 -0.0000
vn -0.9092 0.4164 -0.0000
vn -0.2334 0.9724 -0.0000
vn -0.5198 0.7663 -0.3777
vn -0.1888 -0.9724 -0.1372
vn -0.7355 -0.4164 -0.5344
vn -0.7355 0.4164 -0.5344
vn -0.1888 0.9724 -0.1372
vn -0.5198 -0.7663 -0.3777
vn -0.8090 -0.0000 -0.5878
vn -0.0721 -0.9724 -0.2219
vn -0.2810 -0.4164 -0.8647
vn -0.2810 0.4164 -0.8647
vn -0.0721 0.9724 -0.2219
vn -0.1986 -0.7663 -0.6111
vn -0.3090 -0.0000 -0.9511
vn -0.1986 0.7663 -0.6111
vn -0.9982 -0.0600 -0.0000
vn 0.9982 0.0600 -0.0000
vn 0.0600 -0.9982 -0.0000
vn -0.0600 0.9982 -0.0000
vn -0.9928 -0.1197 -0.0000
vn 0.9928 0.1197 -0.0000
vn 0.1197 -0.9928 -0.0000
vn -0.1197 0.9928 -0.0000
vn -0.9982 0.0600 -0.0000
vn 0.9982 -0.0600 -0.0000
vn -0.0600 -0.9982 -0.0000
vn 0.0600 0.9982 -0.0000
vn -0.9928 0.1197 -0.0000
vn 0.9928 -0.1197 -0.0000
vn -0.1197 -0.9928 -0.0000
vn 0.1197 0.9928 -0.0000
vn -0.9801 -0.1987 -0.0000
vn 0.9801 0.1987 -0.0000
vn 0.1987 -0.9801 -0.0000
vn -0.1987 0.9801 -0.0000
vn -0.9801 0.1987 -0.0000
vn 0.9801 -0.1987 -0.0000
vn -0.1987 -0.9801 -0.0000
vn 0.1987 0.9801 -0.0000
vn 0.4938 0.1568 -0.8553
vn 0.9876 0.1568 -0.0000
vn 0.4938 0.1568 0.8553
vn -0.4938 0.1568 0.8553
vn -0.9876 0.1568 -0.0000
vn -0.4938 0.1568 -0.8553
vn 0.3177 -0.5573 -0.7671
vn 0.3177 0.5573 -0.7671
vn 0.1270 -0.9434 -0.3065
vn 0.1270 0.9434 -0.3065
vn 0.3065 0.9434 -0.1270
vn 0.7671 -0.5573 -0.3177
vn 0.7671 0.5573 -0.3177
vn 0.3065 -0.9434 -0.1270
vn 0.3065 0.9434 0.1270
vn 0.7671 -0.5573 0.3177
vn 0.7671 0.5573 0.3177
vn 0.3065 -0.9434 0.1270
vn 0.1270 0.9434 0.3065
vn 0.3177 -0.5573 0.7671
vn 0.3177 0.5573 0.7671
vn 0.1270 -0.9434 0.3065
vn -0.1270 0.9434 0.3065
vn -0.3177 -0.5573 0.7671
vn -0.3177 0.5573 0.7671
vn -0.1270 -0.9434 0.3065
vn -0.3065 0.9434 0.1270
vn -0.7671 -0.5573 0.3177
vn -0.7671 0.5573 0.3177
vn -0.3065 -0.9434 0.1270
vn -0.3065 0.9434 -0.1270
vn -0.7671 -0.5573 -0.3177
vn -0.7671 0.5573 -0.3177
vn -0.3065 -0.9434 -0.1270
vn -0.1270 0.9434 -0.3065
vn -0.3177 -0.5573 -0.7671
vn -0.3177 0.5573 -0.7671
vn -0.1270 -0.9434 -0.3065
vt 0.250000 0.250000
vt 0.750000 0.250000
vt 0.250000 0.750000
vt 0.750000 0.750000
s 0
usemtl slot0
f 1/1/1 2/1/1 4/1/1 3/1/1
f 3/1/2 4/1/2 6/1/2 5/1/2
f 5/1/3 6/1/3 8/1/3 7/1/3
f 7/1/4 8/1/4 10/1/4 9/1/4
f 9/1/5 10/1/5 12/1/5 11/1/5
f 11/1/6 12/1/6 14/1/6 13/1/6
f 4/1/7 2/1/7 16/1/7 14/1/7 12/1/7 10/1/7 8/1/7 6/1/7
f 13/1/8 14/1/8 16/1/8 15/1/8
f 15/1/9 16/1/9 2/1/9 1/1/9
f 1/1/10 3/1/10 5/1/10 7/1/10 9/1/10 11/1/10 13/1/10 15/1/10
f 17/1/11 18/1/11 20/1/11 19/1/11
f 19/1/12 20/1/12 24/1/12 23/1/12
f 23/1/13 24/1/13 22/1/13 21/1/13
f 21/1/14 22/1/14 18/1/14 17/1/14
f 19/1/10 23/1/10 21/1/10 17/1/10
f 24/1/7 20/1/7 18/1/7 22/1/7
f 25/1/15 26/1/15 28/1/15 27/1/15
f 27/1/12 28/1/12 32/1/12 31/1/12
f 31/1/16 32/1/16 30/1/16 29/1/16
f 29/1/14 30/1/14 26/1/14 25/1/14
f 27/1/17 31/1/17 29/1/17 25/1/17
f 32/1/18 28/1/18 26/1/18 30/1/18
f 33/1/19 34/1/19 36/1/19 35/1/19
f 35/1/12 36/1/12 40/1/12 39/1/12
f 39/1/20 40/1/20 38/1/20 37/1/20
f 37/1/14 38/1/14 34/1/14 33/1/14
f 35/1/21 39/1/21 37/1/21 33/1/21
f 40/1/22 36/1/22 34/1/22 38/1/22
f 41/1/11 42/1/11 44/1/11 43/1/11
f 43/1/12 44/1/12 48/1/12 47/1/12
f 47/1/13 48/1/13 46/1/13 45/1/13
f 45/1/14 46/1/14 42/1/14 41/1/14
f 43/1/10 47/1/10 45/1/10 41/1/10
f 48/1/7 44/1/7 42/1/7 46/1/7
f 49/1/11 50/1/11 52/1/11 51/1/11
f 51/1/12 52/1/12 56/1/12 55/1/12
f 55/1/13 56/1/13 54/1/13 53/1/13
f 53/1/14 54/1/14 50/1/14 49/1/14
f 51/1/10 55/1/10 53/1/10 49/1/10
f 56/1/7 52/1/7 50/1/7 54/1/7
f 57/1/11 58/1/11 60/1/11 59/1/11
f 59/1/12 60/1/12 64/1/12 63/1/12
f 63/1/13 64/1/13 62/1/13 61/1/13
f 61/1/14 62/1/14 58/1/14 57/1/14
f 59/1/10 63/1/10 61/1/10 57/1/10
f 64/1/7 60/1/7 58/1/7 62/1/7
f 65/1/11 66/1/11 68/1/11 67/1/11
f 67/1/12 68/1/12 72/1/12 71/1/12
f 71/1/13 72/1/13 70/1/13 69/1/13
f 69/1/14 70/1/14 66/1/14 65/1/14
f 67/1/10 71/1/10 69/1/10 65/1/10
f 72/1/7 68/1/7 66/1/7 70/1/7
f 73/1/23 74/1/23 76/1/23 75/1/23
f 75/1/13 76/1/13 78/1/13 77/1/13
f 77/1/24 78/1/24 80/1/24 79/1/24
f 79/1/25 80/1/25 82/1/25 81/1/25
f 76/1/7 74/1/7 84/1/7 82/1/7 80/1/7 78/1/7
f 81/1/11 82/1/11 84/1/11 83/1/11
f 83/1/26 84/1/26 74/1/26 73/1/26
f 73/1/10 75/1/10 77/1/10 79/1/10 81/1/10 83/1/10
f 85/2/11 86/2/11 88/2/11 87/2/11
f 87/2/12 88/2/12 92/2/12 91/2/12
f 91/2/13 92/2/13 90/2/13 89/2/13
f 89/2/14 90/2/14 86/2/14 85/2/14
f 87/2/10 91/2/10 89/2/10 85/2/10
f 92/2/7 88/2/7 86/2/7 90/2/7
f 93/2/11 94/2/11 96/2/11 95/2/11
f 95/2/12 96/2/12 100/2/12 99/2/12
f 99/2/13 100/2/13 98/2/13 97/2/13
f 97/2/14 98/2/14 94/2/14 93/2/14
f 95/2/10 99/2/10 97/2/10 93/2/10
f 100/2/7 96/2/7 94/2/7 98/2/7
f 162/2/27 161/2/27 109/2/27 110/2/27
f 103/2/28 102/2/28 107/2/28 108/2/28
f 106/2/29 105/2/29 112/2/29
f 104/2/30 162/2/30 110/2/30 111/2/30
f 161/2/31 103/2/31 108/2/31 109/2/31
f 102/2/32 101/2/32 107/2/32
f 105/2/33 104/2/33 111/2/33 112/2/33
f 112/2/34 111/2/34 117/2/34 118/2/34
f 110/2/35 109/2/35 115/2/35 116/2/35
f 108/2/36 107/2/36 113/2/36 114/2/36
f 106/2/37 112/2/37 118/2/37
f 111/2/38 110/2/38 116/2/38 117/2/38
f 109/2/39 108/2/39 114/2/39 115/2/39
f 107/2/40 101/2/40 113/2/40
f 116/2/13 115/2/13 121/2/13 122/2/13
f 114/2/41 113/2/41 119/2/41 120/2/41
f 106/2/42 118/2/42 124/2/42
f 117/2/43 116/2/43 122/2/43 123/2/43
f 115/2/44 114/2/44 120/2/44 121/2/44
f 113/2/45 101/2/45 119/2/45
f 118/2/46 117/2/46 123/2/46 124/2/46
f 106/2/47 124/2/47 130/2/47
f 123/2/48 122/2/48 128/2/48 129/2/48
f 121/2/49 120/2/49 126/2/49 127/2/49
f 119/2/50 101/2/50 125/2/50
f 124/2/51 123/2/51 129/2/51 130/2/51
f 122/2/52 121/2/52 127/2/52 128/2/52
f 120/2/53 119/2/53 125/2/53 126/2/53
f 106/2/54 130/2/54 136/2/54
f 129/2/55 128/2/55 134/2/55 135/2/55
f 127/2/56 126/2/56 132/2/56 133/2/56
f 125/2/57 101/2/57 131/2/57
f 130/2/58 129/2/58 135/2/58 136/2/58
f 128/2/59 127/2/59 133/2/59 134/2/59
f 126/2/60 125/2/60 131/2/60 132/2/60
f 133/2/61 132/2/61 138/2/61 139/2/61
f 131/2/62 101/2/62 137/2/62
f 136/2/63 135/2/63 141/2/63 142/2/63
f 134/2/64 133/2/64 139/2/64 140/2/64
f 132/2/65 131/2/65 137/2/65 138/2/65
f 106/2/66 136/2/66 142/2/66
f 135/2/67 134/2/67 140/2/67 141/2/67
f 142/2/68 141/2/68 147/2/68 148/2/68
f 140/2/69 139/2/69 145/2/69 146/2/69
f 138/2/70 137/2/70 143/2/70 144/2/70
f 106/2/71 142/2/71 148/2/71
f 141/2/72 140/2/72 146/2/72 147/2/72
f 139/2/73 138/2/73 144/2/73 145/2/73
f 137/2/74 101/2/74 143/2/74
f 148/2/75 147/2/75 153/2/75 154/2/75
f 146/2/11 145/2/11 151/2/11 152/2/11
f 144/2/76 143/2/76 149/2/76 150/2/76
f 106/2/77 148/2/77 154/2/77
f 147/2/78 146/2/78 152/2/78 153/2/78
f 145/2/79 144/2/79 150/2/79 151/2/79
f 143/2/80 101/2/80 149/2/80
f 150/2/81 149/2/81 155/2/81 156/2/81
f 106/2/82 154/2/82 160/2/82
f 153/2/83 152/2/83 158/2/83 159/2/83
f 151/2/84 150/2/84 156/2/84 157/2/84
f 149/2/85 101/2/85 155/2/85
f 154/2/86 153/2/86 159/2/86 160/2/86
f 152/2/87 151/2/87 157/2/87 158/2/87
f 106/2/88 160/2/88 105/2/88
f 159/2/89 158/2/89 162/2/89 104/2/89
f 157/2/90 156/2/90 103/2/90 161/2/90
f 155/2/91 101/2/91 102/2/91
f 160/2/92 159/2/92 104/2/92 105/2/92
f 158/2/93 157/2/93 161/2/93 162/2/93
f 156/2/94 155/2/94 102/2/94 103/2/94
f 163/2/95 164/2/95 166/2/95 165/2/95
f 165/2/12 166/2/12 170/2/12 169/2/12
f 169/2/96 170/2/96 168/2/96 167/2/96
f 167/2/14 168/2/14 164/2/14 163/2/14
f 165/2/97 169/2/97 167/2/97 163/2/97
f 170/2/98 166/2/98 164/2/98 168/2/98
f 171/2/11 172/2/11 174/2/11 173/2/11
f 173/2/12 174/2/12 178/2/12 177/2/12
f 177/2/13 178/2/13 176/2/13 175/2/13
f 175/2/14 176/2/14 172/2/14 171/2/14
f 173/2/10 177/2/10 175/2/10 171/2/10
f 178/2/7 174/2/7 172/2/7 176/2/7
f 179/2/99 180/2/99 182/2/99 181/2/99
f 181/2/12 182/2/12 186/2/12 185/2/12
f 185/2/100 186/2/100 184/2/100 183/2/100
f 183/2/14 184/2/14 180/2/14 179/2/14
f 181/2/101 185/2/101 183/2/101 179/2/101
f 186/2/102 182/2/102 180/2/102 184/2/102
f 187/2/103 188/2/103 190/2/103 189/2/103
f 189/2/12 190/2/12 194/2/12 193/2/12
f 193/2/104 194/2/104 192/2/104 191/2/104
f 191/2/14 192/2/14 188/2/14 187/2/14
f 189/2/105 193/2/105 191/2/105 187/2/105
f 194/2/106 190/2/106 188/2/106 192/2/106
f 195/2/11 196/2/11 198/2/11 197/2/11
f 197/2/12 198/2/12 202/2/12 201/2/12
f 201/2/13 202/2/13 200/2/13 199/2/13
f 199/2/14 200/2/14 196/2/14 195/2/14
f 197/2/10 201/2/10 199/2/10 195/2/10
f 202/2/7 198/2/7 196/2/7 200/2/7
f 203/2/107 204/2/107 206/2/107 205/2/107
f 205/2/12 206/2/12 210/2/12 209/2/12
f 209/2/108 210/2/108 208/2/108 207/2/108
f 207/2/14 208/2/14 204/2/14 203/2/14
f 205/2/109 209/2/109 207/2/109 203/2/109
f 210/2/110 206/2/110 204/2/110 208/2/110
f 211/3/11 212/3/11 214/3/11 213/3/11
f 213/3/12 214/3/12 218/3/12 217/3/12
f 217/3/13 218/3/13 216/3/13 215/3/13
f 215/3/14 216/3/14 212/3/14 211/3/14
f 213/3/10 217/3/10 215/3/10 211/3/10
f 218/3/7 214/3/7 212/3/7 216/3/7
f 219/3/11 220/3/11 222/3/11 221/3/11
f 221/3/12 222/3/12 226/3/12 225/3/12
f 225/3/13 226/3/13 224/3/13 223/3/13
f 223/3/14 224/3/14 220/3/14 219/3/14
f 221/3/10 225/3/10 223/3/10 219/3/10
f 226/3/7 222/3/7 220/3/7 224/3/7
f 227/3/11 228/3/11 230/3/11 229/3/11
f 229/3/12 230/3/12 234/3/12 233/3/12
f 233/3/13 234/3/13 232/3/13 231/3/13
f 231/3/14 232/3/14 228/3/14 227/3/14
f 229/3/10 233/3/10 231/3/10 227/3/10
f 234/3/7 230/3/7 228/3/7 232/3/7
f 235/3/111 236/3/111 238/3/111 237/3/111
f 237/3/12 238/3/12 242/3/12 241/3/12
f 241/3/112 242/3/112 240/3/112 239/3/112
f 239/3/14 240/3/14 236/3/14 235/3/14
f 237/3/113 241/3/113 239/3/113 235/3/113
f 242/3/114 238/3/114 236/3/114 240/3/114
f 243/3/99 244/3/99 246/3/99 245/3/99
f 245/3/12 246/3/12 250/3/12 249/3/12
f 249/3/100 250/3/100 248/3/100 247/3/100
f 247/3/14 248/3/14 244/3/14 243/3/14
f 245/3/101 249/3/101 247/3/101 243/3/101
f 250/3/102 246/3/102 244/3/102 248/3/102
f 251/3/115 252/3/115 254/3/115 253/3/115
f 253/3/12 254/3/12 258/3/12 257/3/12
f 257/3/116 258/3/116 256/3/116 255/3/116
f 255/3/14 256/3/14 252/3/14 251/3/14
f 253/3/117 257/3/117 255/3/117 251/3/117
f 258/3/118 254/3/118 252/3/118 256/3/118
f 259/3/107 260/3/107 262/3/107 261/3/107
f 261/3/12 262/3/12 266/3/12 265/3/12
f 265/3/108 266/3/108 264/3/108 263/3/108
f 263/3/14 264/3/14 260/3/14 259/3/14
f 261/3/109 265/3/109 263/3/109 259/3/109
f 266/3/110 262/3/110 260/3/110 264/3/110
f 267/4/11 268/4/11 270/4/11 269/4/11
f 269/4/12 270/4/12 274/4/12 273/4/12
f 273/4/13 274/4/13 272/4/13 271/4/13
f 271/4/14 272/4/14 268/4/14 267/4/14
f 269/4/10 273/4/10 271/4/10 267/4/10
f 274/4/7 270/4/7 268/4/7 272/4/7
f 275/4/11 276/4/11 278/4/11 277/4/11
f 277/4/12 278/4/12 282/4/12 281/4/12
f 281/4/13 282/4/13 280/4/13 279/4/13
f 279/4/14 280/4/14 276/4/14 275/4/14
f 277/4/10 281/4/10 279/4/10 275/4/10
f 282/4/7 278/4/7 276/4/7 280/4/7
f 283/4/11 284/4/11 286/4/11 285/4/11
f 285/4/12 286/4/12 290/4/12 289/4/12
f 289/4/13 290/4/13 288/4/13 287/4/13
f 287/4/14 288/4/14 284/4/14 283/4/14
f 285/4/10 289/4/10 287/4/10 283/4/10
f 290/4/7 286/4/7 284/4/7 288/4/7
f 291/4/119 297/4/119 292/4/119
f 292/4/120 297/4/120 293/4/120
f 293/4/121 297/4/121 294/4/121
f 294/4/122 297/4/122 295/4/122
f 291/4/10 292/4/10 293/4/10 294/4/10 295/4/10 296/4/10
f 295/4/123 297/4/123 296/4/123
f 296/4/124 297/4/124 291/4/124
f 298/4/11 299/4/11 301/4/11 300/4/11
f 300/4/12 301/4/12 305/4/12 304/4/12
f 304/4/13 305/4/13 303/4/13 302/4/13
f 302/4/14 303/4/14 299/4/14 298/4/14
f 300/4/10 304/4/10 302/4/10 298/4/10
f 305/4/7 301/4/7 299/4/7 303/4/7
f 306/4/11 307/4/11 309/4/11 308/4/11
f 308/4/12 309/4/12 313/4/12 312/4/12
f 312/4/13 313/4/13 311/4/13 310/4/13
f 310/4/14 311/4/14 307/4/14 306/4/14
f 308/4/10 312/4/10 310/4/10 306/4/10
f 313/4/7 309/4/7 307/4/7 311/4/7
f 314/4/11 315/4/11 317/4/11 316/4/11
f 316/4/12 317/4/12 321/4/12 320/4/12
f 320/4/13 321/4/13 319/4/13 318/4/13
f 318/4/14 319/4/14 315/4/14 314/4/14
f 316/4/10 320/4/10 318/4/10 314/4/10
f 321/4/7 317/4/7 315/4/7 319/4/7
f 324/4/125 355/4/125 328/4/125 329/4/125
f 354/4/126 323/4/126 326/4/126 327/4/126
f 325/4/127 324/4/127 329/4/127
f 355/4/1 354/4/1 327/4/1 328/4/1
f 323/4/128 322/4/128 326/4/128
f 326/4/129 322/4/129 330/4/129
f 329/4/130 328/4/130 332/4/130 333/4/130
f 327/4/131 326/4/131 330/4/131 331/4/131
f 325/4/132 329/4/132 333/4/132
f 328/4/2 327/4/2 331/4/2 332/4/2
f 330/4/133 322/4/133 334/4/133
f 333/4/134 332/4/134 336/4/134 337/4/134
f 331/4/135 330/4/135 334/4/135 335/4/135
f 325/4/136 333/4/136 337/4/136
f 332/4/3 331/4/3 335/4/3 336/4/3
f 334/4/137 322/4/137 338/4/137
f 337/4/138 336/4/138 340/4/138 341/4/138
f 335/4/139 334/4/139 338/4/139 339/4/139
f 325/4/140 337/4/140 341/4/140
f 336/4/4 335/4/4 339/4/4 340/4/4
f 338/4/141 322/4/141 342/4/141
f 341/4/142 340/4/142 344/4/142 345/4/142
f 339/4/143 338/4/143 342/4/143 343/4/143
f 325/4/144 341/4/144 345/4/144
f 340/4/5 339/4/5 343/4/5 344/4/5
f 342/4/145 322/4/145 346/4/145
f 345/4/146 344/4/146 348/4/146 349/4/146
f 343/4/147 342/4/147 346/4/147 347/4/147
f 325/4/148 345/4/148 349/4/148
f 344/4/6 343/4/6 347/4/6 348/4/6
f 346/4/149 322/4/149 350/4/149
f 349/4/150 348/4/150 352/4/150 353/4/150
f 347/4/151 346/4/151 350/4/151 351/4/151
f 325/4/152 349/4/152 353/4/152
f 348/4/8 347/4/8 351/4/8 352/4/8
f 350/4/153 322/4/153 323/4/153
f 353/4/154 352/4/154 355/4/154 324/4/154
f 351/4/155 350/4/155 323/4/155 354/4/155
f 325/4/156 353/4/156 324/4/156
f 352/4/9 351/4/9 354/4/9 355/4/9
f 358/4/125 389/4/125 362/4/125 363/4/125
f 388/4/126 357/4/126 360/4/126 361/4/126
f 359/4/127 358/4/127 363/4/127
f 389/4/1 388/4/1 361/4/1 362/4/1
f 357/4/128 356/4/128 360/4/128
f 363/4/130 362/4/130 366/4/130 367/4/130
f 361/4/131 360/4/131 364/4/131 365/4/131
f 359/4/132 363/4/132 367/4/132
f 362/4/2 361/4/2 365/4/2 366/4/2
f 360/4/129 356/4/129 364/4/129
f 367/4/134 366/4/134 370/4/134 371/4/134
f 365/4/135 364/4/135 368/4/135 369/4/135
f 359/4/136 367/4/136 371/4/136
f 366/4/3 365/4/3 369/4/3 370/4/3
f 364/4/133 356/4/133 368/4/133
f 371/4/138 370/4/138 374/4/138 375/4/138
f 369/4/139 368/4/139 372/4/139 373/4/139
f 359/4/140 371/4/140 375/4/140
f 370/4/4 369/4/4 373/4/4 374/4/4
f 368/4/137 356/4/137 372/4/137
f 375/4/142 374/4/142 378/4/142 379/4/142
f 373/4/143 372/4/143 376/4/143 377/4/143
f 359/4/144 375/4/144 379/4/144
f 374/4/5 373/4/5 377/4/5 378/4/5
f 372/4/141 356/4/141 376/4/141
f 379/4/146 378/4/146 382/4/146 383/4/146
f 377/4/147 376/4/147 380/4/147 381/4/147
f 359/4/148 379/4/148 383/4/148
f 378/4/6 377/4/6 381/4/6 382/4/6
f 376/4/145 356/4/145 380/4/145
f 383/4/150 382/4/150 386/4/150 387/4/150
f 381/4/151 380/4/151 384/4/151 385/4/151
f 359/4/152 383/4/152 387/4/152
f 382/4/8 381/4/8 385/4/8 386/4/8
f 380/4/149 356/4/149 384/4/149
f 387/4/154 386/4/154 389/4/154 358/4/154
f 385/4/155 384/4/155 357/4/155 388/4/155
f 359/4/156 387/4/156 358/4/156
f 386/4/9 385/4/9 388/4/9 389/4/9
f 384/4/153 356/4/153 357/4/153
f 422/4/126 391/4/126 394/4/126 395/4/126
f 393/4/127 392/4/127 397/4/127
f 423/4/1 422/4/1 395/4/1 396/4/1
f 391/4/128 390/4/128 394/4/128
f 392/4/125 423/4/125 396/4/125 397/4/125
f 397/4/130 396/4/130 400/4/130 401/4/130
f 395/4/131 394/4/131 398/4/131 399/4/131
f 393/4/132 397/4/132 401/4/132
f 396/4/2 395/4/2 399/4/2 400/4/2
f 394/4/129 390/4/129 398/4/129
f 401/4/134 400/4/134 404/4/134 405/4/134
f 399/4/135 398/4/135 402/4/135 403/4/135
f 393/4/136 401/4/136 405/4/136
f 400/4/3 399/4/3 403/4/3 404/4/3
f 398/4/133 390/4/133 402/4/133
f 405/4/138 404/4/138 408/4/138 409/4/138
f 403/4/139 402/4/139 406/4/139 407/4/139
f 393/4/140 405/4/140 409/4/140
f 404/4/4 403/4/4 407/4/4 408/4/4
f 402/4/137 390/4/137 406/4/137
f 409/4/142 408/4/142 412/4/142 413/4/142
f 407/4/143 406/4/143 410/4/143 411/4/143
f 393/4/144 409/4/144 413/4/144
f 408/4/5 407/4/5 411/4/5 412/4/5
f 406/4/141 390/4/141 410/4/141
f 413/4/146 412/4/146 416/4/146 417/4/146
f 411/4/147 410/4/147 414/4/147 415/4/147
f 393/4/148 413/4/148 417/4/148
f 412/4/6 411/4/6 415/4/6 416/4/6
f 410/4/145 390/4/145 414/4/145
f 417/4/150 416/4/150 420/4/150 421/4/150
f 415/4/151 414/4/151 418/4/151 419/4/151
f 393/4/152 417/4/152 421/4/152
f 416/4/8 415/4/8 419/4/8 420/4/8
f 414/4/149 390/4/149 418/4/149
f 421/4/154 420/4/154 423/4/154 392/4/154
f 419/4/155 418/4/155 391/4/155 422/4/155
f 393/4/156 421/4/156 392/4/156
f 420/4/9 419/4/9 422/4/9 423/4/9
f 418/4/153 390/4/153 391/4/153
