# Blender 5.2.0 LTS
# www.blender.org
mtllib aldrich_blood_circle.mtl
o aldrich_blood_circle
v -1.000000 0.000000 -0.460000
v -1.000000 0.080000 -0.460000
v -0.441282 0.000000 -0.348864
v -0.441282 0.080000 -0.348864
v 0.032376 0.000000 -0.032376
v 0.032376 0.080000 -0.032376
v 0.348864 0.000000 0.441282
v 0.348864 0.080000 0.441282
v 0.460000 0.000000 1.000000
v 0.460000 0.080000 1.000000
v 0.348864 0.000000 1.558718
v 0.348864 0.080000 1.558718
v 0.032376 0.000000 2.032376
v 0.032376 0.080000 2.032376
v -0.441282 0.000000 2.348864
v -0.441282 0.080000 2.348864
v -1.000000 0.000000 2.460000
v -1.000000 0.080000 2.460000
v -1.558718 0.000000 2.348864
v -1.558718 0.080000 2.348864
v -2.032376 0.000000 2.032376
v -2.032376 0.080000 2.032376
v -2.348864 0.000000 1.558718
v -2.348864 0.080000 1.558718
v -2.460000 0.000000 1.000000
v -2.460000 0.080000 1.000000
v -2.348864 0.000000 0.441282
v -2.348864 0.080000 0.441282
v -2.032376 0.000000 -0.032376
v -2.032376 0.080000 -0.032376
v -1.558718 0.000000 -0.348864
v -1.558718 0.080000 -0.348864
v 0.450000 0.090000 1.000000
v 0.400000 0.140000 1.000000
v 0.350000 0.090000 1.000000
v 0.400000 0.040000 1.000000
v 0.379032 0.090000 0.551926
v 0.331479 0.140000 0.567376
v 0.283926 0.090000 0.582827
v 0.331479 0.040000 0.567376
v 0.173075 0.090000 0.147711
v 0.132624 0.140000 0.177101
v 0.092173 0.090000 0.206490
v 0.132624 0.040000 0.177101
v -0.147712 0.090000 -0.173075
v -0.177101 0.140000 -0.132624
v -0.206490 0.090000 -0.092173
v -0.177101 0.040000 -0.132624
v -0.551925 0.090000 -0.379032
v -0.567376 0.140000 -0.331479
v -0.582827 0.090000 -0.283926
v -0.567376 0.040000 -0.331479
v -1.000000 0.090000 -0.450000
v -1.000000 0.140000 -0.400000
v -1.000000 0.090000 -0.350000
v -1.000000 0.040000 -0.400000
v -1.448075 0.090000 -0.379032
v -1.432624 0.140000 -0.331479
v -1.417173 0.090000 -0.283926
v -1.432624 0.040000 -0.331479
v -1.852289 0.090000 -0.173074
v -1.822900 0.140000 -0.132624
v -1.793510 0.090000 -0.092173
v -1.822900 0.040000 -0.132624
v -2.173075 0.090000 0.147712
v -2.132624 0.140000 0.177101
v -2.092173 0.090000 0.206490
v -2.132624 0.040000 0.177101
v -2.379032 0.090000 0.551925
v -2.331479 0.140000 0.567376
v -2.283926 0.090000 0.582827
v -2.331479 0.040000 0.567376
v -2.450000 0.090000 1.000000
v -2.400000 0.140000 1.000000
v -2.350000 0.090000 1.000000
v -2.400000 0.040000 1.000000
v -2.379032 0.090000 1.448074
v -2.331479 0.140000 1.432623
v -2.283926 0.090000 1.417172
v -2.331479 0.040000 1.432623
v -2.173075 0.090000 1.852288
v -2.132624 0.140000 1.822899
v -2.092173 0.090000 1.793510
v -2.132624 0.040000 1.822899
v -1.852289 0.090000 2.173074
v -1.822900 0.140000 2.132624
v -1.793510 0.090000 2.092173
v -1.822900 0.040000 2.132624
v -1.448075 0.090000 2.379032
v -1.432624 0.140000 2.331479
v -1.417173 0.090000 2.283926
v -1.432624 0.040000 2.331479
v -1.000000 0.090000 2.450000
v -1.000000 0.140000 2.400000
v -1.000000 0.090000 2.350000
v -1.000000 0.040000 2.400000
v -0.551925 0.090000 2.379032
v -0.567376 0.140000 2.331479
v -0.582827 0.090000 2.283926
v -0.567376 0.040000 2.331479
v -0.147712 0.090000 2.173075
v -0.177101 0.140000 2.132624
v -0.206491 0.090000 2.092174
v -0.177101 0.040000 2.132624
v 0.173074 0.090000 1.852289
v 0.132623 0.140000 1.822900
v 0.092173 0.090000 1.793511
v 0.132623 0.040000 1.822900
v 0.379032 0.090000 1.448075
v 0.331479 0.140000 1.432624
v 0.283926 0.090000 1.417173
v 0.331479 0.040000 1.432624
v -0.040000 0.090000 1.000000
v -0.080000 0.130000 1.000000
v -0.120000 0.090000 1.000000
v -0.080000 0.050000 1.000000
v -0.113076 0.090000 0.632624
v -0.150031 0.130000 0.647931
v -0.186986 0.090000 0.663239
v -0.150031 0.050000 0.647931
v -0.321178 0.090000 0.321177
v -0.349462 0.130000 0.349462
v -0.377746 0.090000 0.377746
v -0.349462 0.050000 0.349462
v -0.632624 0.090000 0.113076
v -0.647931 0.130000 0.150031
v -0.663238 0.090000 0.186986
v -0.647931 0.050000 0.150031
v -1.000000 0.090000 0.040000
v -1.000000 0.130000 0.080000
v -1.000000 0.090000 0.120000
v -1.000000 0.050000 0.080000
v -1.367376 0.090000 0.113076
v -1.352069 0.130000 0.150031
v -1.336761 0.090000 0.186986
v -1.352069 0.050000 0.150031
v -1.678823 0.090000 0.321178
v -1.650538 0.130000 0.349462
v -1.622254 0.090000 0.377746
v -1.650538 0.050000 0.349462
v -1.886924 0.090000 0.632624
v -1.849969 0.130000 0.647931
v -1.813014 0.090000 0.663239
v -1.849969 0.050000 0.647931
v -1.960000 0.090000 1.000000
v -1.920000 0.130000 1.000000
v -1.880000 0.090000 1.000000
v -1.920000 0.050000 1.000000
v -1.886925 0.090000 1.367376
v -1.849969 0.130000 1.352068
v -1.813014 0.090000 1.336761
v -1.849969 0.050000 1.352068
v -1.678823 0.090000 1.678822
v -1.650538 0.130000 1.650538
v -1.622254 0.090000 1.622254
v -1.650538 0.050000 1.650538
v -1.367376 0.090000 1.886924
v -1.352069 0.130000 1.849969
v -1.336761 0.090000 1.813014
v -1.352069 0.050000 1.849969
v -1.000000 0.090000 1.960000
v -1.000000 0.130000 1.920000
v -1.000000 0.090000 1.880000
v -1.000000 0.050000 1.920000
v -0.632624 0.090000 1.886924
v -0.647931 0.130000 1.849969
v -0.663238 0.090000 1.813014
v -0.647931 0.050000 1.849969
v -0.321178 0.090000 1.678823
v -0.349462 0.130000 1.650539
v -0.377746 0.090000 1.622254
v -0.349462 0.050000 1.650539
v -0.113076 0.090000 1.367376
v -0.150031 0.130000 1.352069
v -0.186986 0.090000 1.336762
v -0.150031 0.050000 1.352069
v -1.033287 0.065000 0.129185
v -1.033287 0.115000 0.129185
v -0.966713 0.065000 0.150816
v -0.966713 0.115000 0.150816
v -1.538782 0.065000 1.684939
v -1.538782 0.115000 1.684939
v -1.472208 0.065000 1.706570
v -1.472208 0.115000 1.706570
v -1.484923 0.065000 1.724070
v -1.484923 0.115000 1.724070
v -1.526068 0.065000 1.667439
v -1.526068 0.115000 1.667439
v -0.161519 0.065000 0.762561
v -0.161519 0.115000 0.762561
v -0.202664 0.065000 0.705930
v -0.202664 0.115000 0.705930
v -0.182091 0.065000 0.699245
v -0.182091 0.115000 0.699245
v -0.182091 0.065000 0.769245
v -0.182091 0.115000 0.769245
v -1.817909 0.065000 0.699245
v -1.817909 0.115000 0.699245
v -1.817909 0.065000 0.769246
v -1.817909 0.115000 0.769246
v -1.838481 0.065000 0.762561
v -1.838481 0.115000 0.762561
v -1.797336 0.065000 0.705930
v -1.797336 0.115000 0.705930
v -0.515077 0.065000 1.724070
v -0.515077 0.115000 1.724070
v -0.473932 0.065000 1.667439
v -0.473932 0.115000 1.667439
v -0.461218 0.065000 1.684939
v -0.461218 0.115000 1.684939
v -0.527792 0.065000 1.706570
v -0.527792 0.115000 1.706570
v -0.966713 0.065000 0.129185
v -0.966713 0.115000 0.129185
v -1.033287 0.065000 0.150816
v -1.033287 0.115000 0.150816
v -1.000000 0.080000 0.085000
v -1.000000 0.300000 0.085000
v -0.952369 0.080000 0.112500
v -0.952369 0.300000 0.112500
v -0.952369 0.080000 0.167500
v -0.952369 0.300000 0.167500
v -1.000000 0.080000 0.195000
v -1.000000 0.300000 0.195000
v -1.047631 0.080000 0.167500
v -1.047631 0.300000 0.167500
v -1.047631 0.080000 0.112500
v -1.047631 0.300000 0.112500
v -1.817909 0.080000 0.679245
v -1.817909 0.300000 0.679245
v -1.770277 0.080000 0.706745
v -1.770277 0.300000 0.706745
v -1.770277 0.080000 0.761745
v -1.770277 0.300000 0.761745
v -1.817909 0.080000 0.789245
v -1.817909 0.300000 0.789245
v -1.865540 0.080000 0.761745
v -1.865540 0.300000 0.761745
v -1.865540 0.080000 0.706745
v -1.865540 0.300000 0.706745
v -1.505495 0.080000 1.640755
v -1.505495 0.300000 1.640755
v -1.457864 0.080000 1.668255
v -1.457864 0.300000 1.668255
v -1.457864 0.080000 1.723255
v -1.457864 0.300000 1.723255
v -1.505495 0.080000 1.750755
v -1.505495 0.300000 1.750755
v -1.553127 0.080000 1.723255
v -1.553127 0.300000 1.723255
v -1.553127 0.080000 1.668255
v -1.553127 0.300000 1.668255
v -0.494505 0.080000 1.640755
v -0.494505 0.300000 1.640755
v -0.446873 0.080000 1.668255
v -0.446873 0.300000 1.668255
v -0.446873 0.080000 1.723255
v -0.446873 0.300000 1.723255
v -0.494505 0.080000 1.750755
v -0.494505 0.300000 1.750755
v -0.542136 0.080000 1.723255
v -0.542136 0.300000 1.723255
v -0.542136 0.080000 1.668255
v -0.542136 0.300000 1.668255
v -0.182091 0.080000 0.679245
v -0.182091 0.300000 0.679245
v -0.134460 0.080000 0.706745
v -0.134460 0.300000 0.706745
v -0.134460 0.080000 0.761745
v -0.134460 0.300000 0.761745
v -0.182091 0.080000 0.789245
v -0.182091 0.300000 0.789245
v -0.229723 0.080000 0.761745
v -0.229723 0.300000 0.761745
v -0.229723 0.080000 0.706745
v -0.229723 0.300000 0.706745
vn 0.1951 -0.0000 -0.9808
vn 0.5556 -0.0000 -0.8315
vn 0.8315 -0.0000 -0.5556
vn 0.9808 -0.0000 -0.1951
vn 0.9808 -0.0000 0.1951
vn 0.8315 -0.0000 0.5556
vn 0.5556 -0.0000 0.8315
vn 0.1951 -0.0000 0.9808
vn -0.1951 -0.0000 0.9808
vn -0.5556 -0.0000 0.8315
vn -0.8315 -0.0000 0.5556
vn -0.9808 -0.0000 0.1951
vn -0.9808 -0.0000 -0.1951
vn -0.8315 -0.0000 -0.5556
vn -0.0000 1.0000 -0.0000
vn -0.5556 -0.0000 -0.8315
vn -0.1951 -0.0000 -0.9808
vn -0.0000 -1.0000 -0.0000
vn 0.7027 0.7027 -0.1113
vn -0.7027 0.7027 0.1113
vn -0.7027 -0.7027 0.1113
vn 0.7027 -0.7027 -0.1113
vn 0.6339 0.7027 -0.3230
vn -0.6339 0.7027 0.3230
vn -0.6339 -0.7027 0.3230
vn 0.6339 -0.7027 -0.3230
vn 0.5031 0.7027 -0.5031
vn -0.5031 0.7027 0.5031
vn -0.5031 -0.7027 0.5031
vn 0.5031 -0.7027 -0.5031
vn 0.3230 0.7027 -0.6339
vn -0.3230 0.7027 0.6339
vn -0.3230 -0.7027 0.6339
vn 0.3230 -0.7027 -0.6339
vn 0.1113 0.7027 -0.7027
vn -0.1113 0.7027 0.7027
vn -0.1113 -0.7027 0.7027
vn 0.1113 -0.7027 -0.7027
vn -0.1113 0.7027 -0.7027
vn 0.1113 0.7027 0.7027
vn 0.1113 -0.7027 0.7027
vn -0.1113 -0.7027 -0.7027
vn -0.3230 0.7027 -0.6339
vn 0.3230 0.7027 0.6339
vn 0.3230 -0.7027 0.6339
vn -0.3230 -0.7027 -0.6339
vn -0.5031 0.7027 -0.5031
vn 0.5031 0.7027 0.5031
vn 0.5031 -0.7027 0.5031
vn -0.5031 -0.7027 -0.5031
vn -0.6339 0.7027 -0.3230
vn 0.6339 0.7027 0.3230
vn 0.6339 -0.7027 0.3230
vn -0.6339 -0.7027 -0.3230
vn -0.7027 0.7027 -0.1113
vn 0.7027 0.7027 0.1113
vn 0.7027 -0.7027 0.1113
vn -0.7027 -0.7027 -0.1113
vn 0.7002 0.7002 -0.1393
vn -0.7002 0.7002 0.1393
vn -0.7002 -0.7002 0.1393
vn 0.7002 -0.7002 -0.1393
vn 0.5936 0.7002 -0.3966
vn -0.5936 0.7002 0.3966
vn -0.5936 -0.7002 0.3966
vn 0.5936 -0.7002 -0.3966
vn 0.3966 0.7002 -0.5936
vn -0.3966 0.7002 0.5936
vn -0.3966 -0.7002 0.5936
vn 0.3966 -0.7002 -0.5936
vn 0.1393 0.7002 -0.7002
vn -0.1393 0.7002 0.7002
vn -0.1393 -0.7002 0.7002
vn 0.1393 -0.7002 -0.7002
vn -0.1393 0.7002 -0.7002
vn 0.1393 0.7002 0.7002
vn 0.1393 -0.7002 0.7002
vn -0.1393 -0.7002 -0.7002
vn -0.3966 0.7002 -0.5936
vn 0.3966 0.7002 0.5936
vn 0.3966 -0.7002 0.5936
vn -0.3966 -0.7002 -0.5936
vn -0.5936 0.7002 -0.3966
vn 0.5936 0.7002 0.3966
vn 0.5936 -0.7002 0.3966
vn -0.5936 -0.7002 -0.3966
vn -0.7002 0.7002 -0.1393
vn 0.7002 0.7002 0.1393
vn 0.7002 -0.7002 0.1393
vn -0.7002 -0.7002 -0.1393
vn 0.3090 -0.0000 -0.9511
vn 0.9511 -0.0000 0.3090
vn -0.3090 -0.0000 0.9511
vn -0.9511 -0.0000 -0.3090
vn -0.8090 -0.0000 0.5878
vn -0.5878 -0.0000 -0.8090
vn 0.8090 -0.0000 -0.5878
vn 0.5878 -0.0000 0.8090
vn 1.0000 -0.0000 -0.0000
vn -0.0000 -0.0000 1.0000
vn -1.0000 -0.0000 -0.0000
vn -0.0000 -0.0000 -1.0000
vn -0.8090 -0.0000 -0.5878
vn 0.5878 -0.0000 -0.8090
vn 0.8090 -0.0000 0.5878
vn -0.5878 -0.0000 0.8090
vn 0.3090 -0.0000 0.9511
vn -0.9511 -0.0000 0.3090
vn -0.3090 -0.0000 -0.9511
vn 0.9511 -0.0000 -0.3090
vn 0.5000 -0.0000 -0.8660
vn 0.5000 -0.0000 0.8660
vn -0.5000 -0.0000 0.8660
vn -0.5000 -0.0000 -0.8660
vt 0.250000 0.250000
vt 0.750000 0.250000
vt 0.250000 0.750000
s 0
usemtl slot0
f 1/1/1 2/1/1 4/1/1 3/1/1
f 3/1/2 4/1/2 6/1/2 5/1/2
f 5/1/3 6/1/3 8/1/3 7/1/3
f 7/1/4 8/1/4 10/1/4 9/1/4
f 9/1/5 10/1/5 12/1/5 11/1/5
f 11/1/6 12/1/6 14/1/6 13/1/6
f 13/1/7 14/1/7 16/1/7 15/1/7
f 15/1/8 16/1/8 18/1/8 17/1/8
f 17/1/9 18/1/9 20/1/9 19/1/9
f 19/1/10 20/1/10 22/1/10 21/1/10
f 21/1/11 22/1/11 24/1/11 23/1/11
f 23/1/12 24/1/12 26/1/12 25/1/12
f 25/1/13 26/1/13 28/1/13 27/1/13
f 27/1/14 28/1/14 30/1/14 29/1/14
f 4/1/15 2/1/15 32/1/15 30/1/15 28/1/15 26/1/15 24/1/15 22/1/15 20/1/15 18/1/15 16/1/15 14/1/15 12/1/15 10/1/15 8/1/15 6/1/15
f 29/1/16 30/1/16 32/1/16 31/1/16
f 31/1/17 32/1/17 2/1/17 1/1/17
f 1/1/18 3/1/18 5/1/18 7/1/18 9/1/18 11/1/18 13/1/18 15/1/18 17/1/18 19/1/18 21/1/18 23/1/18 25/1/18 27/1/18 29/1/18 31/1/18
f 33/1/19 37/1/19 38/1/19 34/1/19
f 34/1/20 38/1/20 39/1/20 35/1/20
f 35/1/21 39/1/21 40/1/21 36/1/21
f 36/1/22 40/1/22 37/1/22 33/1/22
f 37/1/23 41/1/23 42/1/23 38/1/23
f 38/1/24 42/1/24 43/1/24 39/1/24
f 39/1/25 43/1/25 44/1/25 40/1/25
f 40/1/26 44/1/26 41/1/26 37/1/26
f 41/1/27 45/1/27 46/1/27 42/1/27
f 42/1/28 46/1/28 47/1/28 43/1/28
f 43/1/29 47/1/29 48/1/29 44/1/29
f 44/1/30 48/1/30 45/1/30 41/1/30
f 45/1/31 49/1/31 50/1/31 46/1/31
f 46/1/32 50/1/32 51/1/32 47/1/32
f 47/1/33 51/1/33 52/1/33 48/1/33
f 48/1/34 52/1/34 49/1/34 45/1/34
f 49/1/35 53/1/35 54/1/35 50/1/35
f 50/1/36 54/1/36 55/1/36 51/1/36
f 51/1/37 55/1/37 56/1/37 52/1/37
f 52/1/38 56/1/38 53/1/38 49/1/38
f 53/1/39 57/1/39 58/1/39 54/1/39
f 54/1/40 58/1/40 59/1/40 55/1/40
f 55/1/41 59/1/41 60/1/41 56/1/41
f 56/1/42 60/1/42 57/1/42 53/1/42
f 57/1/43 61/1/43 62/1/43 58/1/43
f 58/1/44 62/1/44 63/1/44 59/1/44
f 59/1/45 63/1/45 64/1/45 60/1/45
f 60/1/46 64/1/46 61/1/46 57/1/46
f 61/1/47 65/1/47 66/1/47 62/1/47
f 62/1/48 66/1/48 67/1/48 63/1/48
f 63/1/49 67/1/49 68/1/49 64/1/49
f 64/1/50 68/1/50 65/1/50 61/1/50
f 65/1/51 69/1/51 70/1/51 66/1/51
f 66/1/52 70/1/52 71/1/52 67/1/52
f 67/1/53 71/1/53 72/1/53 68/1/53
f 68/1/54 72/1/54 69/1/54 65/1/54
f 69/1/55 73/1/55 74/1/55 70/1/55
f 70/1/56 74/1/56 75/1/56 71/1/56
f 71/1/57 75/1/57 76/1/57 72/1/57
f 72/1/58 76/1/58 73/1/58 69/1/58
f 73/1/20 77/1/20 78/1/20 74/1/20
f 74/1/19 78/1/19 79/1/19 75/1/19
f 75/1/22 79/1/22 80/1/22 76/1/22
f 76/1/21 80/1/21 77/1/21 73/1/21
f 77/1/24 81/1/24 82/1/24 78/1/24
f 78/1/23 82/1/23 83/1/23 79/1/23
f 79/1/26 83/1/26 84/1/26 80/1/26
f 80/1/25 84/1/25 81/1/25 77/1/25
f 81/1/28 85/1/28 86/1/28 82/1/28
f 82/1/27 86/1/27 87/1/27 83/1/27
f 83/1/30 87/1/30 88/1/30 84/1/30
f 84/1/29 88/1/29 85/1/29 81/1/29
f 85/1/32 89/1/32 90/1/32 86/1/32
f 86/1/31 90/1/31 91/1/31 87/1/31
f 87/1/34 91/1/34 92/1/34 88/1/34
f 88/1/33 92/1/33 89/1/33 85/1/33
f 89/1/36 93/1/36 94/1/36 90/1/36
f 90/1/35 94/1/35 95/1/35 91/1/35
f 91/1/38 95/1/38 96/1/38 92/1/38
f 92/1/37 96/1/37 93/1/37 89/1/37
f 93/1/40 97/1/40 98/1/40 94/1/40
f 94/1/39 98/1/39 99/1/39 95/1/39
f 95/1/42 99/1/42 100/1/42 96/1/42
f 96/1/41 100/1/41 97/1/41 93/1/41
f 97/1/44 101/1/44 102/1/44 98/1/44
f 98/1/43 102/1/43 103/1/43 99/1/43
f 99/1/46 103/1/46 104/1/46 100/1/46
f 100/1/45 104/1/45 101/1/45 97/1/45
f 101/1/48 105/1/48 106/1/48 102/1/48
f 102/1/47 106/1/47 107/1/47 103/1/47
f 103/1/50 107/1/50 108/1/50 104/1/50
f 104/1/49 108/1/49 105/1/49 101/1/49
f 105/1/52 109/1/52 110/1/52 106/1/52
f 106/1/51 110/1/51 111/1/51 107/1/51
f 107/1/54 111/1/54 112/1/54 108/1/54
f 108/1/53 112/1/53 109/1/53 105/1/53
f 109/1/56 33/1/56 34/1/56 110/1/56
f 110/1/55 34/1/55 35/1/55 111/1/55
f 111/1/58 35/1/58 36/1/58 112/1/58
f 112/1/57 36/1/57 33/1/57 109/1/57
f 113/1/59 117/1/59 118/1/59 114/1/59
f 114/1/60 118/1/60 119/1/60 115/1/60
f 115/1/61 119/1/61 120/1/61 116/1/61
f 116/1/62 120/1/62 117/1/62 113/1/62
f 117/1/63 121/1/63 122/1/63 118/1/63
f 118/1/64 122/1/64 123/1/64 119/1/64
f 119/1/65 123/1/65 124/1/65 120/1/65
f 120/1/66 124/1/66 121/1/66 117/1/66
f 121/1/67 125/1/67 126/1/67 122/1/67
f 122/1/68 126/1/68 127/1/68 123/1/68
f 123/1/69 127/1/69 128/1/69 124/1/69
f 124/1/70 128/1/70 125/1/70 121/1/70
f 125/1/71 129/1/71 130/1/71 126/1/71
f 126/1/72 130/1/72 131/1/72 127/1/72
f 127/1/73 131/1/73 132/1/73 128/1/73
f 128/1/74 132/1/74 129/1/74 125/1/74
f 129/1/75 133/1/75 134/1/75 130/1/75
f 130/1/76 134/1/76 135/1/76 131/1/76
f 131/1/77 135/1/77 136/1/77 132/1/77
f 132/1/78 136/1/78 133/1/78 129/1/78
f 133/1/79 137/1/79 138/1/79 134/1/79
f 134/1/80 138/1/80 139/1/80 135/1/80
f 135/1/81 139/1/81 140/1/81 136/1/81
f 136/1/82 140/1/82 137/1/82 133/1/82
f 137/1/83 141/1/83 142/1/83 138/1/83
f 138/1/84 142/1/84 143/1/84 139/1/84
f 139/1/85 143/1/85 144/1/85 140/1/85
f 140/1/86 144/1/86 141/1/86 137/1/86
f 141/1/87 145/1/87 146/1/87 142/1/87
f 142/1/88 146/1/88 147/1/88 143/1/88
f 143/1/89 147/1/89 148/1/89 144/1/89
f 144/1/90 148/1/90 145/1/90 141/1/90
f 145/1/60 149/1/60 150/1/60 146/1/60
f 146/1/59 150/1/59 151/1/59 147/1/59
f 147/1/62 151/1/62 152/1/62 148/1/62
f 148/1/61 152/1/61 149/1/61 145/1/61
f 149/1/64 153/1/64 154/1/64 150/1/64
f 150/1/63 154/1/63 155/1/63 151/1/63
f 151/1/66 155/1/66 156/1/66 152/1/66
f 152/1/65 156/1/65 153/1/65 149/1/65
f 153/1/68 157/1/68 158/1/68 154/1/68
f 154/1/67 158/1/67 159/1/67 155/1/67
f 155/1/70 159/1/70 160/1/70 156/1/70
f 156/1/69 160/1/69 157/1/69 153/1/69
f 157/1/72 161/1/72 162/1/72 158/1/72
f 158/1/71 162/1/71 163/1/71 159/1/71
f 159/1/74 163/1/74 164/1/74 160/1/74
f 160/1/73 164/1/73 161/1/73 157/1/73
f 161/1/76 165/1/76 166/1/76 162/1/76
f 162/1/75 166/1/75 167/1/75 163/1/75
f 163/1/78 167/1/78 168/1/78 164/1/78
f 164/1/77 168/1/77 165/1/77 161/1/77
f 165/1/80 169/1/80 170/1/80 166/1/80
f 166/1/79 170/1/79 171/1/79 167/1/79
f 167/1/82 171/1/82 172/1/82 168/1/82
f 168/1/81 172/1/81 169/1/81 165/1/81
f 169/1/84 173/1/84 174/1/84 170/1/84
f 170/1/83 174/1/83 175/1/83 171/1/83
f 171/1/86 175/1/86 176/1/86 172/1/86
f 172/1/85 176/1/85 173/1/85 169/1/85
f 173/1/88 113/1/88 114/1/88 174/1/88
f 174/1/87 114/1/87 115/1/87 175/1/87
f 175/1/90 115/1/90 116/1/90 176/1/90
f 176/1/89 116/1/89 113/1/89 173/1/89
f 177/2/91 178/2/91 180/2/91 179/2/91
f 179/2/92 180/2/92 184/2/92 183/2/92
f 183/2/93 184/2/93 182/2/93 181/2/93
f 181/2/94 182/2/94 178/2/94 177/2/94
f 179/2/18 183/2/18 181/2/18 177/2/18
f 184/2/15 180/2/15 178/2/15 182/2/15
f 185/2/95 186/2/95 188/2/95 187/2/95
f 187/2/96 188/2/96 192/2/96 191/2/96
f 191/2/97 192/2/97 190/2/97 189/2/97
f 189/2/98 190/2/98 186/2/98 185/2/98
f 187/2/18 191/2/18 189/2/18 185/2/18
f 192/2/15 188/2/15 186/2/15 190/2/15
f 193/2/99 194/2/99 196/2/99 195/2/99
f 195/2/100 196/2/100 200/2/100 199/2/100
f 199/2/101 200/2/101 198/2/101 197/2/101
f 197/2/102 198/2/102 194/2/102 193/2/102
f 195/2/18 199/2/18 197/2/18 193/2/18
f 200/2/15 196/2/15 194/2/15 198/2/15
f 201/2/103 202/2/103 204/2/103 203/2/103
f 203/2/104 204/2/104 208/2/104 207/2/104
f 207/2/105 208/2/105 206/2/105 205/2/105
f 205/2/106 206/2/106 202/2/106 201/2/106
f 203/2/18 207/2/18 205/2/18 201/2/18
f 208/2/15 204/2/15 202/2/15 206/2/15
f 209/2/107 210/2/107 212/2/107 211/2/107
f 211/2/108 212/2/108 216/2/108 215/2/108
f 215/2/109 216/2/109 214/2/109 213/2/109
f 213/2/110 214/2/110 210/2/110 209/2/110
f 211/2/18 215/2/18 213/2/18 209/2/18
f 216/2/15 212/2/15 210/2/15 214/2/15
f 217/3/111 218/3/111 220/3/111 219/3/111
f 219/3/99 220/3/99 222/3/99 221/3/99
f 221/3/112 222/3/112 224/3/112 223/3/112
f 223/3/113 224/3/113 226/3/113 225/3/113
f 220/3/15 218/3/15 228/3/15 226/3/15 224/3/15 222/3/15
f 225/3/101 226/3/101 228/3/101 227/3/101
f 227/3/114 228/3/114 218/3/114 217/3/114
f 217/3/18 219/3/18 221/3/18 223/3/18 225/3/18 227/3/18
f 229/3/111 230/3/111 232/3/111 231/3/111
f 231/3/99 232/3/99 234/3/99 233/3/99
f 233/3/112 234/3/112 236/3/112 235/3/112
f 235/3/113 236/3/113 238/3/113 237/3/113
f 232/3/15 230/3/15 240/3/15 238/3/15 236/3/15 234/3/15
f 237/3/101 238/3/101 240/3/101 239/3/101
f 239/3/114 240/3/114 230/3/114 229/3/114
f 229/3/18 231/3/18 233/3/18 235/3/18 237/3/18 239/3/18
f 241/3/111 242/3/111 244/3/111 243/3/111
f 243/3/99 244/3/99 246/3/99 245/3/99
f 245/3/112 246/3/112 248/3/112 247/3/112
f 247/3/113 248/3/113 250/3/113 249/3/113
f 244/3/15 242/3/15 252/3/15 250/3/15 248/3/15 246/3/15
f 249/3/101 250/3/101 252/3/101 251/3/101
f 251/3/114 252/3/114 242/3/114 241/3/114
f 241/3/18 243/3/18 245/3/18 247/3/18 249/3/18 251/3/18
f 253/3/111 254/3/111 256/3/111 255/3/111
f 255/3/99 256/3/99 258/3/99 257/3/99
f 257/3/112 258/3/112 260/3/112 259/3/112
f 259/3/113 260/3/113 262/3/113 261/3/113
f 256/3/15 254/3/15 264/3/15 262/3/15 260/3/15 258/3/15
f 261/3/101 262/3/101 264/3/101 263/3/101
f 263/3/114 264/3/114 254/3/114 253/3/114
f 253/3/18 255/3/18 257/3/18 259/3/18 261/3/18 263/3/18
f 265/3/111 266/3/111 268/3/111 267/3/111
f 267/3/99 268/3/99 270/3/99 269/3/99
f 269/3/112 270/3/112 272/3/112 271/3/112
f 271/3/113 272/3/113 274/3/113 273/3/113
f 268/3/15 266/3/15 276/3/15 274/3/15 272/3/15 270/3/15
f 273/3/101 274/3/101 276/3/101 275/3/101
f 275/3/114 276/3/114 266/3/114 265/3/114
f 265/3/18 267/3/18 269/3/18 271/3/18 273/3/18 275/3/18
