# Blender 5.2.0 LTS
# www.blender.org
mtllib aldrich_blood_altar.mtl
o aldrich_blood_altar
v -2.430000 0.000000 1.330000
v -2.430000 0.120000 1.330000
v -2.430000 0.000000 -0.330000
v -2.430000 0.120000 -0.330000
v 0.430000 0.000000 1.330000
v 0.430000 0.120000 1.330000
v 0.430000 0.000000 -0.330000
v 0.430000 0.120000 -0.330000
v -2.150000 0.110000 1.100000
v -2.150000 0.730000 1.100000
v -2.150000 0.110000 -0.100000
v -2.150000 0.730000 -0.100000
v 0.150000 0.110000 1.100000
v 0.150000 0.730000 1.100000
v 0.150000 0.110000 -0.100000
v 0.150000 0.730000 -0.100000
v -2.400000 0.890000 0.210000
v -2.400000 0.730000 -0.310000
v -2.400000 0.890000 -0.310000
v 0.400000 0.890000 0.210000
v 0.400000 0.730000 -0.310000
v 0.400000 0.890000 -0.310000
v -2.400000 0.730000 1.310000
v -2.400000 0.890000 1.310000
v -2.400000 0.890000 0.790000
v 0.400000 0.730000 1.310000
v 0.400000 0.890000 1.310000
v 0.400000 0.890000 0.790000
v -2.400000 0.730000 0.790000
v -2.400000 0.820000 0.790000
v -2.400000 0.730000 0.210000
v -2.400000 0.820000 0.210000
v 0.400000 0.730000 0.790000
v 0.400000 0.820000 0.790000
v 0.400000 0.730000 0.210000
v 0.400000 0.820000 0.210000
v -2.040000 0.730000 1.310000
v -2.040000 0.890000 1.310000
v -2.040000 0.730000 -0.310000
v -2.040000 0.890000 -0.310000
v -1.990000 0.813000 0.650000
v -1.990000 0.843000 0.650000
v -1.990000 0.813000 0.350000
v -1.990000 0.843000 0.350000
v 0.310000 0.813000 0.650000
v 0.310000 0.843000 0.650000
v 0.310000 0.813000 0.350000
v 0.310000 0.843000 0.350000
v 0.060000 0.875000 0.300000
v 0.060000 0.925000 0.300000
v 0.177557 0.875000 0.338197
v 0.177557 0.925000 0.338197
v 0.250211 0.875000 0.438197
v 0.250211 0.925000 0.438197
v 0.250211 0.875000 0.561803
v 0.250211 0.925000 0.561803
v 0.177557 0.875000 0.661803
v 0.177557 0.925000 0.661803
v 0.060000 0.875000 0.700000
v 0.060000 0.925000 0.700000
v -0.057557 0.875000 0.661803
v -0.057557 0.925000 0.661803
v -0.130211 0.875000 0.561803
v -0.130211 0.925000 0.561803
v -0.130211 0.875000 0.438197
v -0.130211 0.925000 0.438197
v -0.057557 0.875000 0.338197
v -0.057557 0.925000 0.338197
v 0.340000 0.880000 0.500000
v 0.290000 0.990000 0.500000
v 0.240000 0.880000 0.500000
v 0.290000 0.770000 0.500000
v 0.302487 0.880000 0.360000
v 0.259186 0.990000 0.385000
v 0.215884 0.880000 0.410000
v 0.259186 0.770000 0.385000
v 0.200000 0.880000 0.257513
v 0.175000 0.990000 0.300814
v 0.150000 0.880000 0.344115
v 0.175000 0.770000 0.300814
v 0.060000 0.880000 0.220000
v 0.060000 0.990000 0.270000
v 0.060000 0.880000 0.320000
v 0.060000 0.770000 0.270000
v -0.080000 0.880000 0.257513
v -0.055000 0.990000 0.300814
v -0.030000 0.880000 0.344115
v -0.055000 0.770000 0.300814
v -0.182487 0.880000 0.360000
v -0.139186 0.990000 0.385000
v -0.095885 0.880000 0.410000
v -0.139186 0.770000 0.385000
v -0.220000 0.880000 0.500000
v -0.170000 0.990000 0.500000
v -0.120000 0.880000 0.500000
v -0.170000 0.770000 0.500000
v -0.182487 0.880000 0.640000
v -0.139186 0.990000 0.615000
v -0.095885 0.880000 0.590000
v -0.139186 0.770000 0.615000
v -0.080000 0.880000 0.742487
v -0.055000 0.990000 0.699186
v -0.030000 0.880000 0.655885
v -0.055000 0.770000 0.699186
v 0.060000 0.880000 0.780000
v 0.060000 0.990000 0.730000
v 0.060000 0.880000 0.680000
v 0.060000 0.770000 0.730000
v 0.200000 0.880000 0.742487
v 0.175000 0.990000 0.699186
v 0.150000 0.880000 0.655885
v 0.175000 0.770000 0.699186
v 0.302487 0.880000 0.640000
v 0.259186 0.990000 0.615000
v 0.215884 0.880000 0.590000
v 0.259186 0.770000 0.615000
v -2.100000 0.875000 1.170000
v -2.100000 0.925000 1.170000
v -2.100000 0.875000 1.070000
v -2.100000 0.925000 1.070000
v -2.000000 0.875000 1.170000
v -2.000000 0.925000 1.170000
v -2.000000 0.875000 1.070000
v -2.000000 0.925000 1.070000
v -2.100000 0.875000 -0.070000
v -2.100000 0.925000 -0.070000
v -2.100000 0.875000 -0.170000
v -2.100000 0.925000 -0.170000
v -2.000000 0.875000 -0.070000
v -2.000000 0.925000 -0.070000
v -2.000000 0.875000 -0.170000
v -2.000000 0.925000 -0.170000
v -1.760000 0.890000 1.210000
v -1.760000 0.950000 1.210000
v -1.760000 0.890000 1.110000
v -1.760000 0.950000 1.110000
v -1.340000 0.890000 1.210000
v -1.340000 0.950000 1.210000
v -1.340000 0.890000 1.110000
v -1.340000 0.950000 1.110000
vn -1.0000 -0.0000 -0.0000
vn -0.0000 -0.0000 -1.0000
vn 1.0000 -0.0000 -0.0000
vn -0.0000 -0.0000 1.0000
vn -0.0000 -1.0000 -0.0000
vn -0.0000 1.0000 -0.0000
vn 0.3090 -0.0000 -0.9511
vn 0.8090 -0.0000 -0.5878
vn 0.8090 -0.0000 0.5878
vn 0.3090 -0.0000 0.9511
vn -0.3090 -0.0000 0.9511
vn -0.8090 -0.0000 0.5878
vn -0.8090 -0.0000 -0.5878
vn -0.3090 -0.0000 -0.9511
vn 0.8844 0.4020 -0.2370
vn -0.8844 0.4020 0.2370
vn -0.8844 -0.4020 0.2370
vn 0.8844 -0.4020 -0.2370
vn 0.6475 0.4020 -0.6475
vn -0.6475 0.4020 0.6475
vn -0.6475 -0.4020 0.6474
vn 0.6475 -0.4020 -0.6475
vn 0.2370 0.4020 -0.8844
vn -0.2370 0.4020 0.8844
vn -0.2370 -0.4020 0.8844
vn 0.2370 -0.4020 -0.8844
vn -0.2370 0.4020 -0.8844
vn 0.2370 0.4020 0.8844
vn 0.2370 -0.4020 0.8844
vn -0.2370 -0.4020 -0.8844
vn -0.6474 0.4020 -0.6475
vn 0.6474 0.4020 0.6475
vn 0.6475 -0.4020 0.6475
vn -0.6475 -0.4020 -0.6475
vn -0.8844 0.4020 -0.2370
vn 0.8844 0.4020 0.2370
vn 0.8844 -0.4020 0.2370
vn -0.8844 -0.4020 -0.2370
vn -0.6475 -0.4020 0.6475
vn 0.6475 0.4020 0.6475
vn -0.6475 0.4020 -0.6475
vn -0.6475 -0.4020 -0.6474
vt 0.250000 0.250000
vt 0.250000 0.750000
vt 0.750000 0.250000
s 0
usemtl slot0
f 1/1/1 2/1/1 4/1/1 3/1/1
f 3/1/2 4/1/2 8/1/2 7/1/2
f 7/1/3 8/1/3 6/1/3 5/1/3
f 5/1/4 6/1/4 2/1/4 1/1/4
f 3/1/5 7/1/5 5/1/5 1/1/5
f 8/1/6 4/1/6 2/1/6 6/1/6
f 9/1/1 10/1/1 12/1/1 11/1/1
f 11/1/2 12/1/2 16/1/2 15/1/2
f 15/1/3 16/1/3 14/1/3 13/1/3
f 13/1/4 14/1/4 10/1/4 9/1/4
f 11/1/5 15/1/5 13/1/5 9/1/5
f 16/1/6 12/1/6 10/1/6 14/1/6
f 31/1/1 17/1/1 19/1/1 18/1/1
f 18/1/2 19/1/2 22/1/2 21/1/2
f 21/1/3 22/1/3 20/1/3 35/1/3
f 35/1/4 20/1/4 17/1/4 31/1/4
f 18/1/5 21/1/5 35/1/5 31/1/5
f 22/1/6 19/1/6 17/1/6 20/1/6
f 23/1/1 24/1/1 25/1/1 29/1/1
f 29/1/2 25/1/2 28/1/2 33/1/2
f 33/1/3 28/1/3 27/1/3 26/1/3
f 26/1/4 27/1/4 24/1/4 23/1/4
f 29/1/5 33/1/5 26/1/5 23/1/5
f 28/1/6 25/1/6 24/1/6 27/1/6
f 29/1/1 30/1/1 32/1/1 31/1/1
f 31/1/2 32/1/2 36/1/2 35/1/2
f 35/1/3 36/1/3 34/1/3 33/1/3
f 33/1/4 34/1/4 30/1/4 29/1/4
f 31/1/5 35/1/5 33/1/5 29/1/5
f 36/1/6 32/1/6 30/1/6 34/1/6
f 23/1/1 24/1/1 19/1/1 18/1/1
f 18/1/2 19/1/2 40/1/2 39/1/2
f 39/1/3 40/1/3 38/1/3 37/1/3
f 37/1/4 38/1/4 24/1/4 23/1/4
f 18/1/5 39/1/5 37/1/5 23/1/5
f 40/1/6 19/1/6 24/1/6 38/1/6
f 41/2/1 42/2/1 44/2/1 43/2/1
f 43/2/2 44/2/2 48/2/2 47/2/2
f 47/2/3 48/2/3 46/2/3 45/2/3
f 45/2/4 46/2/4 42/2/4 41/2/4
f 43/2/5 47/2/5 45/2/5 41/2/5
f 48/2/6 44/2/6 42/2/6 46/2/6
f 49/2/7 50/2/7 52/2/7 51/2/7
f 51/2/8 52/2/8 54/2/8 53/2/8
f 53/2/3 54/2/3 56/2/3 55/2/3
f 55/2/9 56/2/9 58/2/9 57/2/9
f 57/2/10 58/2/10 60/2/10 59/2/10
f 59/2/11 60/2/11 62/2/11 61/2/11
f 61/2/12 62/2/12 64/2/12 63/2/12
f 63/2/1 64/2/1 66/2/1 65/2/1
f 52/2/6 50/2/6 68/2/6 66/2/6 64/2/6 62/2/6 60/2/6 58/2/6 56/2/6 54/2/6
f 65/2/13 66/2/13 68/2/13 67/2/13
f 67/2/14 68/2/14 50/2/14 49/2/14
f 49/2/5 51/2/5 53/2/5 55/2/5 57/2/5 59/2/5 61/2/5 63/2/5 65/2/5 67/2/5
f 69/3/15 73/3/15 74/3/15 70/3/15
f 70/3/16 74/3/16 75/3/16 71/3/16
f 71/3/17 75/3/17 76/3/17 72/3/17
f 72/3/18 76/3/18 73/3/18 69/3/18
f 73/3/19 77/3/19 78/3/19 74/3/19
f 74/3/20 78/3/20 79/3/20 75/3/20
f 75/3/21 79/3/21 80/3/21 76/3/21
f 76/3/22 80/3/22 77/3/22 73/3/22
f 77/3/23 81/3/23 82/3/23 78/3/23
f 78/3/24 82/3/24 83/3/24 79/3/24
f 79/3/25 83/3/25 84/3/25 80/3/25
f 80/3/26 84/3/26 81/3/26 77/3/26
f 81/3/27 85/3/27 86/3/27 82/3/27
f 82/3/28 86/3/28 87/3/28 83/3/28
f 83/3/29 87/3/29 88/3/29 84/3/29
f 84/3/30 88/3/30 85/3/30 81/3/30
f 85/3/31 89/3/31 90/3/31 86/3/31
f 86/3/32 90/3/32 91/3/32 87/3/32
f 87/3/33 91/3/33 92/3/33 88/3/33
f 88/3/34 92/3/34 89/3/34 85/3/34
f 89/3/35 93/3/35 94/3/35 90/3/35
f 90/3/36 94/3/36 95/3/36 91/3/36
f 91/3/37 95/3/37 96/3/37 92/3/37
f 92/3/38 96/3/38 93/3/38 89/3/38
f 93/3/16 97/3/16 98/3/16 94/3/16
f 94/3/15 98/3/15 99/3/15 95/3/15
f 95/3/18 99/3/18 100/3/18 96/3/18
f 96/3/17 100/3/17 97/3/17 93/3/17
f 97/3/20 101/3/20 102/3/20 98/3/20
f 98/3/19 102/3/19 103/3/19 99/3/19
f 99/3/22 103/3/22 104/3/22 100/3/22
f 100/3/39 104/3/39 101/3/39 97/3/39
f 101/3/24 105/3/24 106/3/24 102/3/24
f 102/3/23 106/3/23 107/3/23 103/3/23
f 103/3/26 107/3/26 108/3/26 104/3/26
f 104/3/25 108/3/25 105/3/25 101/3/25
f 105/3/28 109/3/28 110/3/28 106/3/28
f 106/3/27 110/3/27 111/3/27 107/3/27
f 107/3/30 111/3/30 112/3/30 108/3/30
f 108/3/29 112/3/29 109/3/29 105/3/29
f 109/3/40 113/3/40 114/3/40 110/3/40
f 110/3/41 114/3/41 115/3/41 111/3/41
f 111/3/42 115/3/42 116/3/42 112/3/42
f 112/3/33 116/3/33 113/3/33 109/3/33
f 113/3/36 69/3/36 70/3/36 114/3/36
f 114/3/35 70/3/35 71/3/35 115/3/35
f 115/3/38 71/3/38 72/3/38 116/3/38
f 116/3/37 72/3/37 69/3/37 113/3/37
f 117/3/1 118/3/1 120/3/1 119/3/1
f 119/3/2 120/3/2 124/3/2 123/3/2
f 123/3/3 124/3/3 122/3/3 121/3/3
f 121/3/4 122/3/4 118/3/4 117/3/4
f 119/3/5 123/3/5 121/3/5 117/3/5
f 124/3/6 120/3/6 118/3/6 122/3/6
f 125/3/1 126/3/1 128/3/1 127/3/1
f 127/3/2 128/3/2 132/3/2 131/3/2
f 131/3/3 132/3/3 130/3/3 129/3/3
f 129/3/4 130/3/4 126/3/4 125/3/4
f 127/3/5 131/3/5 129/3/5 125/3/5
f 132/3/6 128/3/6 126/3/6 130/3/6
f 133/3/1 134/3/1 136/3/1 135/3/1
f 135/3/2 136/3/2 140/3/2 139/3/2
f 139/3/3 140/3/3 138/3/3 137/3/3
f 137/3/4 138/3/4 134/3/4 133/3/4
f 135/3/5 139/3/5 137/3/5 133/3/5
f 140/3/6 136/3/6 134/3/6 138/3/6
