# Blender 5.2.0 LTS
# www.blender.org
mtllib aldrich_count_crypt.mtl
o aldrich_count_crypt
v -2.320000 0.000000 0.490000
v -2.320000 0.140000 0.490000
v -2.320000 0.000000 -0.490000
v -2.320000 0.140000 -0.490000
v 0.260000 0.000000 0.490000
v 0.260000 0.140000 0.490000
v 0.260000 0.000000 -0.490000
v 0.260000 0.140000 -0.490000
v -2.250000 0.140000 0.440000
v -2.250000 0.660000 0.440000
v -2.250000 0.140000 -0.440000
v -2.250000 0.660000 -0.440000
v 0.190000 0.140000 0.440000
v 0.190000 0.660000 0.440000
v 0.190000 0.140000 -0.440000
v 0.190000 0.660000 -0.440000
v -2.310000 0.660000 0.480000
v -2.310000 0.740000 0.480000
v -2.310000 0.660000 -0.480000
v -2.310000 0.740000 -0.480000
v 0.250000 0.660000 0.480000
v 0.250000 0.740000 0.480000
v 0.250000 0.660000 -0.480000
v 0.250000 0.740000 -0.480000
v -2.070000 0.180000 0.460000
v -2.070000 0.620000 0.460000
v -2.070000 0.180000 -0.460000
v -2.070000 0.620000 -0.460000
v -1.990000 0.180000 0.460000
v -1.990000 0.620000 0.460000
v -1.990000 0.180000 -0.460000
v -1.990000 0.620000 -0.460000
v -1.570000 0.180000 0.460000
v -1.570000 0.620000 0.460000
v -1.570000 0.180000 -0.460000
v -1.570000 0.620000 -0.460000
v -1.490000 0.180000 0.460000
v -1.490000 0.620000 0.460000
v -1.490000 0.180000 -0.460000
v -1.490000 0.620000 -0.460000
v -1.070000 0.180000 0.460000
v -1.070000 0.620000 0.460000
v -1.070000 0.180000 -0.460000
v -1.070000 0.620000 -0.460000
v -0.990000 0.180000 0.460000
v -0.990000 0.620000 0.460000
v -0.990000 0.180000 -0.460000
v -0.990000 0.620000 -0.460000
v -0.570000 0.180000 0.460000
v -0.570000 0.620000 0.460000
v -0.570000 0.180000 -0.460000
v -0.570000 0.620000 -0.460000
v -0.490000 0.180000 0.460000
v -0.490000 0.620000 0.460000
v -0.490000 0.180000 -0.460000
v -0.490000 0.620000 -0.460000
v -0.070000 0.180000 0.460000
v -0.070000 0.620000 0.460000
v -0.070000 0.180000 -0.460000
v -0.070000 0.620000 -0.460000
v 0.010000 0.180000 0.460000
v 0.010000 0.620000 0.460000
v 0.010000 0.180000 -0.460000
v 0.010000 0.620000 -0.460000
v -1.405000 0.915000 0.035000
v -1.405000 0.965000 0.035000
v -1.405000 0.915000 -0.035000
v -1.405000 0.965000 -0.035000
v -0.355000 0.915000 0.035000
v -0.355000 0.965000 0.035000
v -0.355000 0.915000 -0.035000
v -0.355000 0.965000 -0.035000
v -1.420000 0.915000 0.130000
v -1.420000 0.965000 0.130000
v -1.420000 0.915000 -0.130000
v -1.420000 0.965000 -0.130000
v -1.360000 0.915000 0.130000
v -1.360000 0.965000 0.130000
v -1.360000 0.915000 -0.130000
v -1.360000 0.965000 -0.130000
v -1.830000 0.740000 0.220000
v -1.830000 0.900000 0.220000
v -1.830000 0.740000 -0.220000
v -1.830000 0.900000 -0.220000
v -0.130000 0.740000 0.220000
v -0.130000 0.900000 0.220000
v -0.130000 0.740000 -0.220000
v -0.130000 0.900000 -0.220000
v -0.380000 0.740000 0.170000
v -0.380000 0.860000 0.170000
v -0.380000 0.740000 -0.170000
v -0.380000 0.860000 -0.170000
v 0.320000 0.740000 0.170000
v 0.320000 0.860000 0.170000
v 0.320000 0.740000 -0.170000
v 0.320000 0.860000 -0.170000
v -2.010000 1.050000 0.000000
v -2.010000 0.710000 0.000000
v -1.966645 1.033165 -0.059673
v -1.931877 0.985993 -0.107528
v -1.912582 0.917829 -0.134085
v -1.912582 0.842171 -0.134085
v -1.931877 0.774007 -0.107528
v -1.966645 0.726835 -0.059673
v -1.939850 1.033165 -0.022793
v -1.883594 0.985993 -0.041072
v -1.852374 0.917829 -0.051216
v -1.852374 0.842171 -0.051216
v -1.883594 0.774007 -0.041072
v -1.939850 0.726835 -0.022793
v -1.939850 1.033165 0.022793
v -1.883594 0.985993 0.041072
v -1.852374 0.917829 0.051216
v -1.852374 0.842171 0.051216
v -1.883594 0.774007 0.041072
v -1.939850 0.726835 0.022793
v -1.966645 1.033165 0.059673
v -1.931877 0.985993 0.107528
v -1.912582 0.917829 0.134085
v -1.912582 0.842171 0.134085
v -1.931877 0.774007 0.107528
v -1.966645 0.726835 0.059673
v -2.010000 1.033165 0.073760
v -2.010000 0.985993 0.132911
v -2.010000 0.917829 0.165738
v -2.010000 0.842171 0.165738
v -2.010000 0.774007 0.132911
v -2.010000 0.726835 0.073760
v -2.053355 1.033165 0.059673
v -2.088123 0.985993 0.107528
v -2.107418 0.917829 0.134085
v -2.107418 0.842171 0.134085
v -2.088123 0.774007 0.107528
v -2.053355 0.726835 0.059673
v -2.080150 1.033165 0.022793
v -2.136406 0.985993 0.041072
v -2.167626 0.917829 0.051216
v -2.167626 0.842171 0.051216
v -2.136406 0.774007 0.041072
v -2.080150 0.726835 0.022793
v -2.080150 1.033165 -0.022793
v -2.136406 0.985993 -0.041072
v -2.167626 0.917829 -0.051216
v -2.167626 0.842171 -0.051216
v -2.136406 0.774007 -0.041072
v -2.080150 0.726835 -0.022793
v -2.053355 1.033165 -0.059673
v -2.088123 0.985993 -0.107528
v -2.107418 0.917829 -0.134085
v -2.107418 0.842171 -0.134085
v -2.088123 0.774007 -0.107528
v -2.053355 0.726835 -0.059673
v -2.010000 1.033165 -0.073760
v -2.010000 0.985993 -0.132911
v -2.010000 0.917829 -0.165738
v -2.010000 0.842171 -0.165738
v -2.010000 0.774007 -0.132911
v -2.010000 0.726835 -0.073760
v -1.440000 0.860000 0.130000
v -1.440000 0.980000 0.130000
v -1.440000 0.860000 -0.130000
v -1.440000 0.980000 -0.130000
v -1.220000 0.860000 0.130000
v -1.220000 0.980000 0.130000
v -1.220000 0.860000 -0.130000
v -1.220000 0.980000 -0.130000
v 0.130000 0.770000 0.150000
v 0.130000 0.910000 0.150000
v 0.130000 0.770000 -0.150000
v 0.130000 0.910000 -0.150000
v 0.290000 0.770000 0.150000
v 0.290000 0.910000 0.150000
v 0.290000 0.770000 -0.150000
v 0.290000 0.910000 -0.150000
vn -1.0000 -0.0000 -0.0000
vn -0.0000 -0.0000 -1.0000
vn 1.0000 -0.0000 -0.0000
vn -0.0000 -0.0000 1.0000
vn -0.0000 -1.0000 -0.0000
vn -0.0000 1.0000 -0.0000
vn 0.1986 0.7663 -0.6111
vn 0.0721 -0.9724 -0.2219
vn 0.2810 -0.4164 -0.8647
vn 0.2810 0.4164 -0.8647
vn 0.0721 0.9724 -0.2219
vn 0.1986 -0.7663 -0.6111
vn 0.3090 -0.0000 -0.9511
vn 0.5198 -0.7663 -0.3777
vn 0.8090 -0.0000 -0.5878
vn 0.5198 0.7663 -0.3777
vn 0.1888 -0.9724 -0.1372
vn 0.7355 -0.4164 -0.5344
vn 0.7355 0.4164 -0.5344
vn 0.1888 0.9724 -0.1372
vn 0.6425 0.7663 -0.0000
vn 0.2334 -0.9724 -0.0000
vn 0.9092 -0.4164 -0.0000
vn 0.9092 0.4164 -0.0000
vn 0.2334 0.9724 -0.0000
vn 0.6425 -0.7663 -0.0000
vn 0.1888 -0.9724 0.1372
vn 0.7355 -0.4164 0.5344
vn 0.7355 0.4164 0.5344
vn 0.1888 0.9724 0.1372
vn 0.5198 -0.7663 0.3777
vn 0.8090 -0.0000 0.5878
vn 0.5198 0.7663 0.3777
vn 0.2810 -0.4164 0.8647
vn 0.2810 0.4164 0.8647
vn 0.0721 0.9724 0.2219
vn 0.1986 -0.7663 0.6111
vn 0.3090 -0.0000 0.9511
vn 0.1986 0.7663 0.6111
vn 0.0721 -0.9724 0.2219
vn -0.0721 0.9724 0.2219
vn -0.1986 -0.7663 0.6111
vn -0.3090 -0.0000 0.9511
vn -0.1986 0.7663 0.6111
vn -0.0721 -0.9724 0.2219
vn -0.2810 -0.4164 0.8647
vn -0.2810 0.4164 0.8647
vn -0.5198 -0.7663 0.3777
vn -0.8090 -0.0000 0.5878
vn -0.5198 0.7663 0.3777
vn -0.1888 -0.9724 0.1372
vn -0.7355 -0.4164 0.5344
vn -0.7355 0.4164 0.5344
vn -0.1888 0.9724 0.1372
vn -0.6425 0.7663 -0.0000
vn -0.2334 -0.9724 -0.0000
vn -0.9092 -0.4164 -0.0000
vn -0.9092 0.4164 -0.0000
vn -0.2334 0.9724 -0.0000
vn -0.6425 -0.7663 -0.0000
vn -0.1888 -0.9724 -0.1372
vn -0.7355 -0.4164 -0.5344
vn -0.7355 0.4164 -0.5344
vn -0.1888 0.9724 -0.1372
vn -0.5198 -0.7663 -0.3777
vn -0.8090 -0.0000 -0.5878
vn -0.5198 0.7663 -0.3777
vn -0.0721 -0.9724 -0.2219
vn -0.2810 -0.4164 -0.8647
vn -0.2810 0.4164 -0.8647
vn -0.0721 0.9724 -0.2219
vn -0.1986 -0.7663 -0.6111
vn -0.3090 -0.0000 -0.9511
vn -0.1986 0.7663 -0.6111
vt 0.250000 0.250000
vt 0.750000 0.250000
vt 0.250000 0.750000
s 0
usemtl slot0
f 1/1/1 2/1/1 4/1/1 3/1/1
f 3/1/2 4/1/2 8/1/2 7/1/2
f 7/1/3 8/1/3 6/1/3 5/1/3
f 5/1/4 6/1/4 2/1/4 1/1/4
f 3/1/5 7/1/5 5/1/5 1/1/5
f 8/1/6 4/1/6 2/1/6 6/1/6
f 9/1/1 10/1/1 12/1/1 11/1/1
f 11/1/2 12/1/2 16/1/2 15/1/2
f 15/1/3 16/1/3 14/1/3 13/1/3
f 13/1/4 14/1/4 10/1/4 9/1/4
f 11/1/5 15/1/5 13/1/5 9/1/5
f 16/1/6 12/1/6 10/1/6 14/1/6
f 17/1/1 18/1/1 20/1/1 19/1/1
f 19/1/2 20/1/2 24/1/2 23/1/2
f 23/1/3 24/1/3 22/1/3 21/1/3
f 21/1/4 22/1/4 18/1/4 17/1/4
f 19/1/5 23/1/5 21/1/5 17/1/5
f 24/1/6 20/1/6 18/1/6 22/1/6
f 25/2/1 26/2/1 28/2/1 27/2/1
f 27/2/2 28/2/2 32/2/2 31/2/2
f 31/2/3 32/2/3 30/2/3 29/2/3
f 29/2/4 30/2/4 26/2/4 25/2/4
f 27/2/5 31/2/5 29/2/5 25/2/5
f 32/2/6 28/2/6 26/2/6 30/2/6
f 33/2/1 34/2/1 36/2/1 35/2/1
f 35/2/2 36/2/2 40/2/2 39/2/2
f 39/2/3 40/2/3 38/2/3 37/2/3
f 37/2/4 38/2/4 34/2/4 33/2/4
f 35/2/5 39/2/5 37/2/5 33/2/5
f 40/2/6 36/2/6 34/2/6 38/2/6
f 41/2/1 42/2/1 44/2/1 43/2/1
f 43/2/2 44/2/2 48/2/2 47/2/2
f 47/2/3 48/2/3 46/2/3 45/2/3
f 45/2/4 46/2/4 42/2/4 41/2/4
f 43/2/5 47/2/5 45/2/5 41/2/5
f 48/2/6 44/2/6 42/2/6 46/2/6
f 49/2/1 50/2/1 52/2/1 51/2/1
f 51/2/2 52/2/2 56/2/2 55/2/2
f 55/2/3 56/2/3 54/2/3 53/2/3
f 53/2/4 54/2/4 50/2/4 49/2/4
f 51/2/5 55/2/5 53/2/5 49/2/5
f 56/2/6 52/2/6 50/2/6 54/2/6
f 57/2/1 58/2/1 60/2/1 59/2/1
f 59/2/2 60/2/2 64/2/2 63/2/2
f 63/2/3 64/2/3 62/2/3 61/2/3
f 61/2/4 62/2/4 58/2/4 57/2/4
f 59/2/5 63/2/5 61/2/5 57/2/5
f 64/2/6 60/2/6 58/2/6 62/2/6
f 65/2/1 66/2/1 68/2/1 67/2/1
f 67/2/2 68/2/2 72/2/2 71/2/2
f 71/2/3 72/2/3 70/2/3 69/2/3
f 69/2/4 70/2/4 66/2/4 65/2/4
f 67/2/5 71/2/5 69/2/5 65/2/5
f 72/2/6 68/2/6 66/2/6 70/2/6
f 73/2/1 74/2/1 76/2/1 75/2/1
f 75/2/2 76/2/2 80/2/2 79/2/2
f 79/2/3 80/2/3 78/2/3 77/2/3
f 77/2/4 78/2/4 74/2/4 73/2/4
f 75/2/5 79/2/5 77/2/5 73/2/5
f 80/2/6 76/2/6 74/2/6 78/2/6
f 81/3/1 82/3/1 84/3/1 83/3/1
f 83/3/2 84/3/2 88/3/2 87/3/2
f 87/3/3 88/3/3 86/3/3 85/3/3
f 85/3/4 86/3/4 82/3/4 81/3/4
f 83/3/5 87/3/5 85/3/5 81/3/5
f 88/3/6 84/3/6 82/3/6 86/3/6
f 89/3/1 90/3/1 92/3/1 91/3/1
f 91/3/2 92/3/2 96/3/2 95/3/2
f 95/3/3 96/3/3 94/3/3 93/3/3
f 93/3/4 94/3/4 90/3/4 89/3/4
f 91/3/5 95/3/5 93/3/5 89/3/5
f 96/3/6 92/3/6 90/3/6 94/3/6
f 154/3/7 153/3/7 99/3/7 100/3/7
f 98/3/8 158/3/8 104/3/8
f 157/3/9 156/3/9 102/3/9 103/3/9
f 155/3/10 154/3/10 100/3/10 101/3/10
f 153/3/11 97/3/11 99/3/11
f 158/3/12 157/3/12 103/3/12 104/3/12
f 156/3/13 155/3/13 101/3/13 102/3/13
f 104/3/14 103/3/14 109/3/14 110/3/14
f 102/3/15 101/3/15 107/3/15 108/3/15
f 100/3/16 99/3/16 105/3/16 106/3/16
f 98/3/17 104/3/17 110/3/17
f 103/3/18 102/3/18 108/3/18 109/3/18
f 101/3/19 100/3/19 106/3/19 107/3/19
f 99/3/20 97/3/20 105/3/20
f 106/3/21 105/3/21 111/3/21 112/3/21
f 98/3/22 110/3/22 116/3/22
f 109/3/23 108/3/23 114/3/23 115/3/23
f 107/3/24 106/3/24 112/3/24 113/3/24
f 105/3/25 97/3/25 111/3/25
f 110/3/26 109/3/26 115/3/26 116/3/26
f 108/3/3 107/3/3 113/3/3 114/3/3
f 98/3/27 116/3/27 122/3/27
f 115/3/28 114/3/28 120/3/28 121/3/28
f 113/3/29 112/3/29 118/3/29 119/3/29
f 111/3/30 97/3/30 117/3/30
f 116/3/31 115/3/31 121/3/31 122/3/31
f 114/3/32 113/3/32 119/3/32 120/3/32
f 112/3/33 111/3/33 117/3/33 118/3/33
f 121/3/34 120/3/34 126/3/34 127/3/34
f 119/3/35 118/3/35 124/3/35 125/3/35
f 117/3/36 97/3/36 123/3/36
f 122/3/37 121/3/37 127/3/37 128/3/37
f 120/3/38 119/3/38 125/3/38 126/3/38
f 118/3/39 117/3/39 123/3/39 124/3/39
f 98/3/40 122/3/40 128/3/40
f 123/3/41 97/3/41 129/3/41
f 128/3/42 127/3/42 133/3/42 134/3/42
f 126/3/43 125/3/43 131/3/43 132/3/43
f 124/3/44 123/3/44 129/3/44 130/3/44
f 98/3/45 128/3/45 134/3/45
f 127/3/46 126/3/46 132/3/46 133/3/46
f 125/3/47 124/3/47 130/3/47 131/3/47
f 134/3/48 133/3/48 139/3/48 140/3/48
f 132/3/49 131/3/49 137/3/49 138/3/49
f 130/3/50 129/3/50 135/3/50 136/3/50
f 98/3/51 134/3/51 140/3/51
f 133/3/52 132/3/52 138/3/52 139/3/52
f 131/3/53 130/3/53 136/3/53 137/3/53
f 129/3/54 97/3/54 135/3/54
f 138/3/1 137/3/1 143/3/1 144/3/1
f 136/3/55 135/3/55 141/3/55 142/3/55
f 98/3/56 140/3/56 146/3/56
f 139/3/57 138/3/57 144/3/57 145/3/57
f 137/3/58 136/3/58 142/3/58 143/3/58
f 135/3/59 97/3/59 141/3/59
f 140/3/60 139/3/60 145/3/60 146/3/60
f 98/3/61 146/3/61 152/3/61
f 145/3/62 144/3/62 150/3/62 151/3/62
f 143/3/63 142/3/63 148/3/63 149/3/63
f 141/3/64 97/3/64 147/3/64
f 146/3/65 145/3/65 151/3/65 152/3/65
f 144/3/66 143/3/66 149/3/66 150/3/66
f 142/3/67 141/3/67 147/3/67 148/3/67
f 98/3/68 152/3/68 158/3/68
f 151/3/69 150/3/69 156/3/69 157/3/69
f 149/3/70 148/3/70 154/3/70 155/3/70
f 147/3/71 97/3/71 153/3/71
f 152/3/72 151/3/72 157/3/72 158/3/72
f 150/3/73 149/3/73 155/3/73 156/3/73
f 148/3/74 147/3/74 153/3/74 154/3/74
f 159/3/1 160/3/1 162/3/1 161/3/1
f 161/3/2 162/3/2 166/3/2 165/3/2
f 165/3/3 166/3/3 164/3/3 163/3/3
f 163/3/4 164/3/4 160/3/4 159/3/4
f 161/3/5 165/3/5 163/3/5 159/3/5
f 166/3/6 162/3/6 160/3/6 164/3/6
f 167/3/1 168/3/1 170/3/1 169/3/1
f 169/3/2 170/3/2 174/3/2 173/3/2
f 173/3/3 174/3/3 172/3/3 171/3/3
f 171/3/4 172/3/4 168/3/4 167/3/4
f 169/3/5 173/3/5 171/3/5 167/3/5
f 174/3/6 170/3/6 168/3/6 172/3/6
