# Blender 5.2.0 LTS
# www.blender.org
mtllib aldrich_mass_pyre.mtl
o aldrich_mass_pyre
v -2.200000 0.105004 0.920000
v 0.200000 0.104996 0.920000
v -2.200000 0.034294 0.949289
v 0.200000 0.034285 0.949289
v -2.200000 0.005004 1.020000
v 0.200000 0.004996 1.020000
v -2.200000 0.034294 1.090711
v 0.200000 0.034285 1.090711
v -2.200000 0.105004 1.120000
v 0.200000 0.104996 1.120000
v -2.200000 0.175715 1.090711
v 0.200000 0.175706 1.090711
v -2.200000 0.205004 1.020000
v 0.200000 0.204996 1.020000
v -2.200000 0.175715 0.949289
v 0.200000 0.175706 0.949289
v -2.200000 0.105004 0.570000
v 0.200000 0.104996 0.570000
v -2.200000 0.034294 0.599289
v 0.200000 0.034285 0.599289
v -2.200000 0.005004 0.670000
v 0.200000 0.004996 0.670000
v -2.200000 0.034294 0.740711
v 0.200000 0.034285 0.740711
v -2.200000 0.105004 0.770000
v 0.200000 0.104996 0.770000
v -2.200000 0.175715 0.740711
v 0.200000 0.175706 0.740711
v -2.200000 0.205004 0.670000
v 0.200000 0.204996 0.670000
v -2.200000 0.175715 0.599289
v 0.200000 0.175706 0.599289
v -2.200000 0.105004 0.220000
v 0.200000 0.104996 0.220000
v -2.200000 0.034294 0.249289
v 0.200000 0.034285 0.249289
v -2.200000 0.005004 0.320000
v 0.200000 0.004996 0.320000
v -2.200000 0.034294 0.390711
v 0.200000 0.034285 0.390711
v -2.200000 0.105004 0.420000
v 0.200000 0.104996 0.420000
v -2.200000 0.175715 0.390711
v 0.200000 0.175706 0.390711
v -2.200000 0.205004 0.320000
v 0.200000 0.204996 0.320000
v -2.200000 0.175715 0.249289
v 0.200000 0.175706 0.249289
v -2.200000 0.105004 -0.130000
v 0.200000 0.104996 -0.130000
v -2.200000 0.034294 -0.100711
v 0.200000 0.034285 -0.100711
v -2.200000 0.005004 -0.030000
v 0.200000 0.004996 -0.030000
v -2.200000 0.034294 0.040711
v 0.200000 0.034285 0.040711
v -2.200000 0.105004 0.070000
v 0.200000 0.104996 0.070000
v -2.200000 0.175715 0.040711
v 0.200000 0.175706 0.040711
v -2.200000 0.205004 -0.030000
v 0.200000 0.204996 -0.030000
v -2.200000 0.175715 -0.100711
v 0.200000 0.175706 -0.100711
v -1.900000 0.385003 -0.300000
v -1.900000 0.384997 1.300000
v -1.836360 0.358642 -0.300000
v -1.836360 0.358637 1.300000
v -1.810000 0.295003 -0.300000
v -1.810000 0.294997 1.300000
v -1.836360 0.231363 -0.300000
v -1.836360 0.231357 1.300000
v -1.900000 0.205003 -0.300000
v -1.900000 0.204997 1.300000
v -1.963640 0.231363 -0.300000
v -1.963640 0.231357 1.300000
v -1.990000 0.295003 -0.300000
v -1.990000 0.294997 1.300000
v -1.963640 0.358642 -0.300000
v -1.963640 0.358637 1.300000
v -1.300000 0.385003 -0.300000
v -1.300000 0.384997 1.300000
v -1.236360 0.358643 -0.300000
v -1.236360 0.358637 1.300000
v -1.210000 0.295003 -0.300000
v -1.210000 0.294997 1.300000
v -1.236360 0.231363 -0.300000
v -1.236360 0.231357 1.300000
v -1.300000 0.205003 -0.300000
v -1.300000 0.204997 1.300000
v -1.363640 0.231363 -0.300000
v -1.363640 0.231357 1.300000
v -1.390000 0.295003 -0.300000
v -1.390000 0.294997 1.300000
v -1.363640 0.358642 -0.300000
v -1.363640 0.358637 1.300000
v -0.700000 0.385003 -0.300000
v -0.700000 0.384997 1.300000
v -0.636360 0.358642 -0.300000
v -0.636360 0.358637 1.300000
v -0.610000 0.295003 -0.300000
v -0.610000 0.294997 1.300000
v -0.636360 0.231363 -0.300000
v -0.636360 0.231357 1.300000
v -0.700000 0.205003 -0.300000
v -0.700000 0.204997 1.300000
v -0.763640 0.231363 -0.300000
v -0.763640 0.231357 1.300000
v -0.790000 0.295003 -0.300000
v -0.790000 0.294997 1.300000
v -0.763640 0.358642 -0.300000
v -0.763640 0.358637 1.300000
v -0.100000 0.385003 -0.300000
v -0.100000 0.384997 1.300000
v -0.036360 0.358643 -0.300000
v -0.036360 0.358637 1.300000
v -0.010000 0.295003 -0.300000
v -0.010000 0.294997 1.300000
v -0.036360 0.231363 -0.300000
v -0.036360 0.231357 1.300000
v -0.100000 0.205003 -0.300000
v -0.100000 0.204997 1.300000
v -0.163640 0.231363 -0.300000
v -0.163640 0.231357 1.300000
v -0.190000 0.295003 -0.300000
v -0.190000 0.294997 1.300000
v -0.163640 0.358642 -0.300000
v -0.163640 0.358637 1.300000
v -2.185000 0.005000 1.265000
v -2.185000 0.865000 1.265000
v -2.185000 0.005000 1.175000
v -2.185000 0.865000 1.175000
v -2.095000 0.005000 1.265000
v -2.095000 0.865000 1.265000
v -2.095000 0.005000 1.175000
v -2.095000 0.865000 1.175000
v -2.185000 0.005000 -0.175000
v -2.185000 0.865000 -0.175000
v -2.185000 0.005000 -0.265000
v -2.185000 0.865000 -0.265000
v -2.095000 0.005000 -0.175000
v -2.095000 0.865000 -0.175000
v -2.095000 0.005000 -0.265000
v -2.095000 0.865000 -0.265000
v 0.095000 0.005000 1.265000
v 0.095000 0.865000 1.265000
v 0.095000 0.005000 1.175000
v 0.095000 0.865000 1.175000
v 0.185000 0.005000 1.265000
v 0.185000 0.865000 1.265000
v 0.185000 0.005000 1.175000
v 0.185000 0.865000 1.175000
v 0.095000 0.005000 -0.175000
v 0.095000 0.865000 -0.175000
v 0.095000 0.005000 -0.265000
v 0.095000 0.865000 -0.265000
v 0.185000 0.005000 -0.175000
v 0.185000 0.865000 -0.175000
v 0.185000 0.005000 -0.265000
v 0.185000 0.865000 -0.265000
v -1.860000 0.405000 1.110000
v -1.860000 0.645000 1.110000
v -1.860000 0.405000 0.810000
v -1.860000 0.645000 0.810000
v -0.140000 0.405000 1.110000
v -0.140000 0.645000 1.110000
v -0.140000 0.405000 0.810000
v -0.140000 0.645000 0.810000
v -1.860000 0.695000 0.960000
v -1.860000 0.674904 0.885000
v -1.860000 0.620000 0.830096
v -1.860000 0.545000 0.810000
v -1.860000 0.470000 0.830096
v -1.860000 0.415096 0.885000
v -1.860000 0.395000 0.960000
v -1.806967 0.674904 0.906967
v -1.768144 0.620000 0.868144
v -1.753934 0.545000 0.853934
v -1.768144 0.470000 0.868144
v -1.806967 0.415096 0.906967
v -1.785000 0.674904 0.960000
v -1.730096 0.620000 0.960000
v -1.710000 0.545000 0.960000
v -1.730096 0.470000 0.960000
v -1.785000 0.415096 0.960000
v -1.806967 0.674904 1.013033
v -1.768144 0.620000 1.051856
v -1.753934 0.545000 1.066066
v -1.768144 0.470000 1.051856
v -1.806967 0.415096 1.013033
v -1.860000 0.674904 1.035000
v -1.860000 0.620000 1.089904
v -1.860000 0.545000 1.110000
v -1.860000 0.470000 1.089904
v -1.860000 0.415096 1.035000
v -1.913033 0.674904 1.013033
v -1.951856 0.620000 1.051856
v -1.966066 0.545000 1.066066
v -1.951856 0.470000 1.051856
v -1.913033 0.415096 1.013033
v -1.935000 0.674904 0.960000
v -1.989904 0.620000 0.960000
v -2.010000 0.545000 0.960000
v -1.989904 0.470000 0.960000
v -1.935000 0.415096 0.960000
v -1.913033 0.674904 0.906967
v -1.951856 0.620000 0.868144
v -1.966066 0.545000 0.853934
v -1.951856 0.470000 0.868144
v -1.913033 0.415096 0.906967
v -1.725000 0.525000 0.790000
v -1.675000 0.525000 0.790000
v -1.725000 0.404792 0.839792
v -1.675000 0.404792 0.839792
v -1.725001 0.355000 0.960000
v -1.675001 0.355000 0.960000
v -1.725000 0.404792 1.080208
v -1.675000 0.404792 1.080208
v -1.725000 0.525000 1.130000
v -1.675000 0.525000 1.130000
v -1.725000 0.645208 1.080208
v -1.674999 0.645208 1.080208
v -1.724999 0.695000 0.960000
v -1.674999 0.695000 0.960000
v -1.725000 0.645208 0.839792
v -1.674999 0.645208 0.839792
v -0.285000 0.525000 0.790000
v -0.235000 0.525000 0.790000
v -0.285000 0.404792 0.839792
v -0.235000 0.404792 0.839792
v -0.285001 0.355000 0.960000
v -0.235001 0.355000 0.960000
v -0.285000 0.404792 1.080208
v -0.235000 0.404792 1.080208
v -0.285000 0.525000 1.130000
v -0.235000 0.525000 1.130000
v -0.285000 0.645208 1.080208
v -0.235000 0.645208 1.080208
v -0.284999 0.695000 0.960000
v -0.234999 0.695000 0.960000
v -0.285000 0.645208 0.839792
v -0.235000 0.645208 0.839792
v -1.860000 0.405000 0.650000
v -1.860000 0.645000 0.650000
v -1.860000 0.405000 0.350000
v -1.860000 0.645000 0.350000
v -0.140000 0.405000 0.650000
v -0.140000 0.645000 0.650000
v -0.140000 0.405000 0.350000
v -0.140000 0.645000 0.350000
v -1.860000 0.695000 0.500000
v -1.860000 0.674904 0.425000
v -1.860000 0.620000 0.370096
v -1.860000 0.545000 0.350000
v -1.860000 0.470000 0.370096
v -1.860000 0.415096 0.425000
v -1.860000 0.395000 0.500000
v -1.806967 0.674904 0.446967
v -1.768144 0.620000 0.408144
v -1.753934 0.545000 0.393934
v -1.768144 0.470000 0.408144
v -1.806967 0.415096 0.446967
v -1.785000 0.674904 0.500000
v -1.730096 0.620000 0.500000
v -1.710000 0.545000 0.500000
v -1.730096 0.470000 0.500000
v -1.785000 0.415096 0.500000
v -1.806967 0.674904 0.553033
v -1.768144 0.620000 0.591856
v -1.753934 0.545000 0.606066
v -1.768144 0.470000 0.591856
v -1.806967 0.415096 0.553033
v -1.860000 0.674904 0.575000
v -1.860000 0.620000 0.629904
v -1.860000 0.545000 0.650000
v -1.860000 0.470000 0.629904
v -1.860000 0.415096 0.575000
v -1.913033 0.674904 0.553033
v -1.951856 0.620000 0.591856
v -1.966066 0.545000 0.606066
v -1.951856 0.470000 0.591856
v -1.913033 0.415096 0.553033
v -1.935000 0.674904 0.500000
v -1.989904 0.620000 0.500000
v -2.010000 0.545000 0.500000
v -1.989904 0.470000 0.500000
v -1.935000 0.415096 0.500000
v -1.913033 0.674904 0.446967
v -1.951856 0.620000 0.408144
v -1.966066 0.545000 0.393934
v -1.951856 0.470000 0.408144
v -1.913033 0.415096 0.446967
v -1.725000 0.525000 0.330000
v -1.675000 0.525000 0.330000
v -1.725000 0.404792 0.379792
v -1.675000 0.404792 0.379792
v -1.725001 0.355000 0.500000
v -1.675001 0.355000 0.500000
v -1.725000 0.404792 0.620208
v -1.675000 0.404792 0.620208
v -1.725000 0.525000 0.670000
v -1.675000 0.525000 0.670000
v -1.725000 0.645208 0.620208
v -1.674999 0.645208 0.620208
v -1.724999 0.695000 0.500000
v -1.674999 0.695000 0.500000
v -1.725000 0.645208 0.379792
v -1.674999 0.645208 0.379792
v -0.285000 0.525000 0.330000
v -0.235000 0.525000 0.330000
v -0.285000 0.404792 0.379792
v -0.235000 0.404792 0.379792
v -0.285001 0.355000 0.500000
v -0.235001 0.355000 0.500000
v -0.285000 0.404792 0.620208
v -0.235000 0.404792 0.620208
v -0.285000 0.525000 0.670000
v -0.235000 0.525000 0.670000
v -0.285000 0.645208 0.620208
v -0.235000 0.645208 0.620208
v -0.284999 0.695000 0.500000
v -0.234999 0.695000 0.500000
v -0.285000 0.645208 0.379792
v -0.235000 0.645208 0.379792
v -1.860000 0.405000 0.190000
v -1.860000 0.645000 0.190000
v -1.860000 0.405000 -0.110000
v -1.860000 0.645000 -0.110000
v -0.140000 0.405000 0.190000
v -0.140000 0.645000 0.190000
v -0.140000 0.405000 -0.110000
v -0.140000 0.645000 -0.110000
v -1.860000 0.695000 0.040000
v -1.860000 0.674904 -0.035000
v -1.860000 0.620000 -0.089904
v -1.860000 0.545000 -0.110000
v -1.860000 0.470000 -0.089904
v -1.860000 0.415096 -0.035000
v -1.860000 0.395000 0.040000
v -1.806967 0.674904 -0.013033
v -1.768144 0.620000 -0.051856
v -1.753934 0.545000 -0.066066
v -1.768144 0.470000 -0.051856
v -1.806967 0.415096 -0.013033
v -1.785000 0.674904 0.040000
v -1.730096 0.620000 0.040000
v -1.710000 0.545000 0.040000
v -1.730096 0.470000 0.040000
v -1.785000 0.415096 0.040000
v -1.806967 0.674904 0.093033
v -1.768144 0.620000 0.131856
v -1.753934 0.545000 0.146066
v -1.768144 0.470000 0.131856
v -1.806967 0.415096 0.093033
v -1.860000 0.674904 0.115000
v -1.860000 0.620000 0.169904
v -1.860000 0.545000 0.190000
v -1.860000 0.470000 0.169904
v -1.860000 0.415096 0.115000
v -1.913033 0.674904 0.093033
v -1.951856 0.620000 0.131856
v -1.966066 0.545000 0.146066
v -1.951856 0.470000 0.131856
v -1.913033 0.415096 0.093033
v -1.935000 0.674904 0.040000
v -1.989904 0.620000 0.040000
v -2.010000 0.545000 0.040000
v -1.989904 0.470000 0.040000
v -1.935000 0.415096 0.040000
v -1.913033 0.674904 -0.013033
v -1.951856 0.620000 -0.051856
v -1.966066 0.545000 -0.066066
v -1.951856 0.470000 -0.051856
v -1.913033 0.415096 -0.013033
v -1.725000 0.525000 -0.130000
v -1.675000 0.525000 -0.130000
v -1.725000 0.404792 -0.080208
v -1.675000 0.404792 -0.080208
v -1.725001 0.355000 0.040000
v -1.675001 0.355000 0.040000
v -1.725000 0.404792 0.160208
v -1.675000 0.404792 0.160208
v -1.725000 0.525000 0.210000
v -1.675000 0.525000 0.210000
v -1.725000 0.645208 0.160208
v -1.674999 0.645208 0.160208
v -1.724999 0.695000 0.040000
v -1.674999 0.695000 0.040000
v -1.725000 0.645208 -0.080208
v -1.674999 0.645208 -0.080208
v -0.285000 0.525000 -0.130000
v -0.235000 0.525000 -0.130000
v -0.285000 0.404792 -0.080208
v -0.235000 0.404792 -0.080208
v -0.285001 0.355000 0.040000
v -0.235001 0.355000 0.040000
v -0.285000 0.404792 0.160208
v -0.235000 0.404792 0.160208
v -0.285000 0.525000 0.210000
v -0.235000 0.525000 0.210000
v -0.285000 0.645208 0.160208
v -0.235000 0.645208 0.160208
v -0.284999 0.695000 0.040000
v -0.234999 0.695000 0.040000
v -0.285000 0.645208 -0.080208
v -0.235000 0.645208 -0.080208
v -1.660000 0.625000 0.640000
v -1.521436 0.625000 0.720000
v -1.521436 0.625000 0.880000
v -1.660000 0.625000 0.960000
v -1.798564 0.625000 0.880000
v -1.798564 0.625000 0.720000
v -1.660000 1.145000 0.800000
v -0.900000 0.625000 0.000000
v -0.761436 0.625000 0.080000
v -0.761436 0.625000 0.240000
v -0.900000 0.625000 0.320000
v -1.038564 0.625000 0.240000
v -1.038564 0.625000 0.080000
v -0.900000 1.285000 0.160000
v -0.220000 0.625000 0.520000
v -0.081436 0.625000 0.600000
v -0.081436 0.625000 0.760000
v -0.220000 0.625000 0.840000
v -0.358564 0.625000 0.760000
v -0.358564 0.625000 0.600000
v -0.220000 1.065000 0.680000
v -1.000000 0.000000 -0.400000
v -1.000000 0.050000 -0.400000
v -0.550000 0.000000 -0.279423
v -0.550000 0.050000 -0.279423
v -0.220577 0.000000 0.050000
v -0.220577 0.050000 0.050000
v -0.100000 0.000000 0.500000
v -0.100000 0.050000 0.500000
v -0.220577 0.000000 0.950000
v -0.220577 0.050000 0.950000
v -0.550000 0.000000 1.279423
v -0.550000 0.050000 1.279423
v -1.000000 0.000000 1.400000
v -1.000000 0.050000 1.400000
v -1.450000 0.000000 1.279423
v -1.450000 0.050000 1.279423
v -1.779423 0.000000 0.950000
v -1.779423 0.050000 0.950000
v -1.900000 0.000000 0.500000
v -1.900000 0.050000 0.500000
v -1.779423 0.000000 0.050000
v -1.779423 0.050000 0.050000
v -1.450000 0.000000 -0.279423
v -1.450000 0.050000 -0.279423
vn -0.0000 -0.3827 -0.9239
vn -0.0000 -0.9239 -0.3827
vn -0.0000 -0.9239 0.3827
vn -0.0000 -0.3827 0.9239
vn -0.0000 0.3827 0.9239
vn -0.0000 0.9239 0.3827
vn 1.0000 -0.0000 -0.0000
vn -0.0000 0.9239 -0.3827
vn -0.0000 0.3827 -0.9239
vn -1.0000 -0.0000 -0.0000
vn 0.3827 0.9239 -0.0000
vn 0.9239 0.3827 -0.0000
vn 0.9239 -0.3827 -0.0000
vn 0.3827 -0.9239 -0.0000
vn -0.3827 -0.9239 -0.0000
vn -0.9239 -0.3827 -0.0000
vn -0.0000 -0.0000 1.0000
vn -0.9239 0.3827 -0.0000
vn -0.3827 0.9239 -0.0000
vn -0.0000 -0.0000 -1.0000
vn -0.0000 -1.0000 -0.0000
vn -0.0000 1.0000 -0.0000
vn 0.2811 0.6786 -0.6786
vn 0.2811 -0.6786 -0.6786
vn 0.3715 0.2403 -0.8968
vn 0.1066 0.9604 -0.2573
vn 0.1066 -0.9604 -0.2573
vn 0.3715 -0.2403 -0.8968
vn 0.6786 -0.6786 -0.2811
vn 0.8968 0.2403 -0.3715
vn 0.2573 0.9604 -0.1066
vn 0.2573 -0.9604 -0.1066
vn 0.8968 -0.2403 -0.3715
vn 0.6786 0.6786 -0.2811
vn 0.6786 -0.6786 0.2811
vn 0.8968 0.2403 0.3715
vn 0.2573 0.9604 0.1066
vn 0.2573 -0.9604 0.1066
vn 0.8968 -0.2403 0.3715
vn 0.6786 0.6786 0.2811
vn 0.3715 0.2403 0.8968
vn 0.1066 0.9604 0.2573
vn 0.1066 -0.9604 0.2573
vn 0.3715 -0.2403 0.8968
vn 0.2811 0.6786 0.6786
vn 0.2811 -0.6786 0.6786
vn -0.1066 0.9604 0.2573
vn -0.1066 -0.9604 0.2573
vn -0.3715 -0.2403 0.8968
vn -0.2811 0.6786 0.6786
vn -0.2811 -0.6786 0.6786
vn -0.3715 0.2403 0.8968
vn -0.2573 -0.9604 0.1066
vn -0.8968 -0.2403 0.3715
vn -0.6786 0.6786 0.2811
vn -0.6786 -0.6786 0.2811
vn -0.8968 0.2403 0.3715
vn -0.2573 0.9604 0.1066
vn -0.2573 -0.9604 -0.1066
vn -0.8968 -0.2403 -0.3715
vn -0.6786 0.6786 -0.2811
vn -0.6786 -0.6786 -0.2811
vn -0.8968 0.2403 -0.3715
vn -0.2573 0.9604 -0.1066
vn -0.1066 -0.9604 -0.2573
vn -0.3715 -0.2403 -0.8968
vn -0.2811 0.6786 -0.6786
vn -0.2811 -0.6786 -0.6786
vn -0.3715 0.2403 -0.8968
vn -0.1066 0.9604 -0.2573
vn 0.4831 0.2575 -0.8368
vn 0.9663 0.2575 -0.0000
vn 0.4831 0.2575 0.8368
vn -0.4831 0.2575 0.8368
vn -0.9663 0.2575 -0.0000
vn -0.4831 0.2575 -0.8368
vn 0.4893 0.2055 -0.8475
vn 0.9787 0.2055 -0.0000
vn 0.4893 0.2055 0.8475
vn -0.4893 0.2055 0.8475
vn -0.9787 0.2055 -0.0000
vn -0.4893 0.2055 -0.8475
vn 0.4769 0.3004 -0.8260
vn 0.9538 0.3004 -0.0000
vn 0.4769 0.3004 0.8260
vn -0.4769 0.3004 0.8260
vn -0.9538 0.3004 -0.0000
vn -0.4769 0.3004 -0.8260
vn 0.2588 -0.0000 -0.9659
vn 0.7071 -0.0000 -0.7071
vn 0.9659 -0.0000 -0.2588
vn 0.9659 -0.0000 0.2588
vn 0.7071 -0.0000 0.7071
vn 0.2588 -0.0000 0.9659
vn -0.2588 -0.0000 0.9659
vn -0.7071 -0.0000 0.7071
vn -0.9659 -0.0000 0.2588
vn -0.9659 -0.0000 -0.2588
vn -0.7071 -0.0000 -0.7071
vn -0.2588 -0.0000 -0.9659
vt 0.250000 0.250000
vt 0.750000 0.250000
vt 0.250000 0.750000
s 0
usemtl slot0
f 1/1/1 2/1/1 4/1/1 3/1/1
f 3/1/2 4/1/2 6/1/2 5/1/2
f 5/1/3 6/1/3 8/1/3 7/1/3
f 7/1/4 8/1/4 10/1/4 9/1/4
f 9/1/5 10/1/5 12/1/5 11/1/5
f 11/1/6 12/1/6 14/1/6 13/1/6
f 4/1/7 2/1/7 16/1/7 14/1/7 12/1/7 10/1/7 8/1/7 6/1/7
f 13/1/8 14/1/8 16/1/8 15/1/8
f 15/1/9 16/1/9 2/1/9 1/1/9
f 1/1/10 3/1/10 5/1/10 7/1/10 9/1/10 11/1/10 13/1/10 15/1/10
f 17/1/1 18/1/1 20/1/1 19/1/1
f 19/1/2 20/1/2 22/1/2 21/1/2
f 21/1/3 22/1/3 24/1/3 23/1/3
f 23/1/4 24/1/4 26/1/4 25/1/4
f 25/1/5 26/1/5 28/1/5 27/1/5
f 27/1/6 28/1/6 30/1/6 29/1/6
f 20/1/7 18/1/7 32/1/7 30/1/7 28/1/7 26/1/7 24/1/7 22/1/7
f 29/1/8 30/1/8 32/1/8 31/1/8
f 31/1/9 32/1/9 18/1/9 17/1/9
f 17/1/10 19/1/10 21/1/10 23/1/10 25/1/10 27/1/10 29/1/10 31/1/10
f 33/1/1 34/1/1 36/1/1 35/1/1
f 35/1/2 36/1/2 38/1/2 37/1/2
f 37/1/3 38/1/3 40/1/3 39/1/3
f 39/1/4 40/1/4 42/1/4 41/1/4
f 41/1/5 42/1/5 44/1/5 43/1/5
f 43/1/6 44/1/6 46/1/6 45/1/6
f 36/1/7 34/1/7 48/1/7 46/1/7 44/1/7 42/1/7 40/1/7 38/1/7
f 45/1/8 46/1/8 48/1/8 47/1/8
f 47/1/9 48/1/9 34/1/9 33/1/9
f 33/1/10 35/1/10 37/1/10 39/1/10 41/1/10 43/1/10 45/1/10 47/1/10
f 49/1/1 50/1/1 52/1/1 51/1/1
f 51/1/2 52/1/2 54/1/2 53/1/2
f 53/1/3 54/1/3 56/1/3 55/1/3
f 55/1/4 56/1/4 58/1/4 57/1/4
f 57/1/5 58/1/5 60/1/5 59/1/5
f 59/1/6 60/1/6 62/1/6 61/1/6
f 52/1/7 50/1/7 64/1/7 62/1/7 60/1/7 58/1/7 56/1/7 54/1/7
f 61/1/8 62/1/8 64/1/8 63/1/8
f 63/1/9 64/1/9 50/1/9 49/1/9
f 49/1/10 51/1/10 53/1/10 55/1/10 57/1/10 59/1/10 61/1/10 63/1/10
f 65/1/11 66/1/11 68/1/11 67/1/11
f 67/1/12 68/1/12 70/1/12 69/1/12
f 69/1/13 70/1/13 72/1/13 71/1/13
f 71/1/14 72/1/14 74/1/14 73/1/14
f 73/1/15 74/1/15 76/1/15 75/1/15
f 75/1/16 76/1/16 78/1/16 77/1/16
f 68/1/17 66/1/17 80/1/17 78/1/17 76/1/17 74/1/17 72/1/17 70/1/17
f 77/1/18 78/1/18 80/1/18 79/1/18
f 79/1/19 80/1/19 66/1/19 65/1/19
f 65/1/20 67/1/20 69/1/20 71/1/20 73/1/20 75/1/20 77/1/20 79/1/20
f 81/1/11 82/1/11 84/1/11 83/1/11
f 83/1/12 84/1/12 86/1/12 85/1/12
f 85/1/13 86/1/13 88/1/13 87/1/13
f 87/1/14 88/1/14 90/1/14 89/1/14
f 89/1/15 90/1/15 92/1/15 91/1/15
f 91/1/16 92/1/16 94/1/16 93/1/16
f 84/1/17 82/1/17 96/1/17 94/1/17 92/1/17 90/1/17 88/1/17 86/1/17
f 93/1/18 94/1/18 96/1/18 95/1/18
f 95/1/19 96/1/19 82/1/19 81/1/19
f 81/1/20 83/1/20 85/1/20 87/1/20 89/1/20 91/1/20 93/1/20 95/1/20
f 97/1/11 98/1/11 100/1/11 99/1/11
f 99/1/12 100/1/12 102/1/12 101/1/12
f 101/1/13 102/1/13 104/1/13 103/1/13
f 103/1/14 104/1/14 106/1/14 105/1/14
f 105/1/15 106/1/15 108/1/15 107/1/15
f 107/1/16 108/1/16 110/1/16 109/1/16
f 100/1/17 98/1/17 112/1/17 110/1/17 108/1/17 106/1/17 104/1/17 102/1/17
f 109/1/18 110/1/18 112/1/18 111/1/18
f 111/1/19 112/1/19 98/1/19 97/1/19
f 97/1/20 99/1/20 101/1/20 103/1/20 105/1/20 107/1/20 109/1/20 111/1/20
f 113/1/11 114/1/11 116/1/11 115/1/11
f 115/1/12 116/1/12 118/1/12 117/1/12
f 117/1/13 118/1/13 120/1/13 119/1/13
f 119/1/14 120/1/14 122/1/14 121/1/14
f 121/1/15 122/1/15 124/1/15 123/1/15
f 123/1/16 124/1/16 126/1/16 125/1/16
f 116/1/17 114/1/17 128/1/17 126/1/17 124/1/17 122/1/17 120/1/17 118/1/17
f 125/1/18 126/1/18 128/1/18 127/1/18
f 127/1/19 128/1/19 114/1/19 113/1/19
f 113/1/20 115/1/20 117/1/20 119/1/20 121/1/20 123/1/20 125/1/20 127/1/20
f 129/1/10 130/1/10 132/1/10 131/1/10
f 131/1/20 132/1/20 136/1/20 135/1/20
f 135/1/7 136/1/7 134/1/7 133/1/7
f 133/1/17 134/1/17 130/1/17 129/1/17
f 131/1/21 135/1/21 133/1/21 129/1/21
f 136/1/22 132/1/22 130/1/22 134/1/22
f 137/1/10 138/1/10 140/1/10 139/1/10
f 139/1/20 140/1/20 144/1/20 143/1/20
f 143/1/7 144/1/7 142/1/7 141/1/7
f 141/1/17 142/1/17 138/1/17 137/1/17
f 139/1/21 143/1/21 141/1/21 137/1/21
f 144/1/22 140/1/22 138/1/22 142/1/22
f 145/1/10 146/1/10 148/1/10 147/1/10
f 147/1/20 148/1/20 152/1/20 151/1/20
f 151/1/7 152/1/7 150/1/7 149/1/7
f 149/1/17 150/1/17 146/1/17 145/1/17
f 147/1/21 151/1/21 149/1/21 145/1/21
f 152/1/22 148/1/22 146/1/22 150/1/22
f 153/1/10 154/1/10 156/1/10 155/1/10
f 155/1/20 156/1/20 160/1/20 159/1/20
f 159/1/7 160/1/7 158/1/7 157/1/7
f 157/1/17 158/1/17 154/1/17 153/1/17
f 155/1/21 159/1/21 157/1/21 153/1/21
f 160/1/22 156/1/22 154/1/22 158/1/22
f 161/2/10 162/2/10 164/2/10 163/2/10
f 163/2/20 164/2/20 168/2/20 167/2/20
f 167/2/7 168/2/7 166/2/7 165/2/7
f 165/2/17 166/2/17 162/2/17 161/2/17
f 163/2/21 167/2/21 165/2/21 161/2/21
f 168/2/22 164/2/22 162/2/22 166/2/22
f 171/2/23 170/2/23 176/2/23 177/2/23
f 174/2/24 173/2/24 179/2/24 180/2/24
f 172/2/25 171/2/25 177/2/25 178/2/25
f 170/2/26 169/2/26 176/2/26
f 175/2/27 174/2/27 180/2/27
f 173/2/28 172/2/28 178/2/28 179/2/28
f 180/2/29 179/2/29 184/2/29 185/2/29
f 178/2/30 177/2/30 182/2/30 183/2/30
f 176/2/31 169/2/31 181/2/31
f 175/2/32 180/2/32 185/2/32
f 179/2/33 178/2/33 183/2/33 184/2/33
f 177/2/34 176/2/34 181/2/34 182/2/34
f 185/2/35 184/2/35 189/2/35 190/2/35
f 183/2/36 182/2/36 187/2/36 188/2/36
f 181/2/37 169/2/37 186/2/37
f 175/2/38 185/2/38 190/2/38
f 184/2/39 183/2/39 188/2/39 189/2/39
f 182/2/40 181/2/40 186/2/40 187/2/40
f 188/2/41 187/2/41 192/2/41 193/2/41
f 186/2/42 169/2/42 191/2/42
f 175/2/43 190/2/43 195/2/43
f 189/2/44 188/2/44 193/2/44 194/2/44
f 187/2/45 186/2/45 191/2/45 192/2/45
f 190/2/46 189/2/46 194/2/46 195/2/46
f 191/2/47 169/2/47 196/2/47
f 175/2/48 195/2/48 200/2/48
f 194/2/49 193/2/49 198/2/49 199/2/49
f 192/2/50 191/2/50 196/2/50 197/2/50
f 195/2/51 194/2/51 199/2/51 200/2/51
f 193/2/52 192/2/52 197/2/52 198/2/52
f 175/2/53 200/2/53 205/2/53
f 199/2/54 198/2/54 203/2/54 204/2/54
f 197/2/55 196/2/55 201/2/55 202/2/55
f 200/2/56 199/2/56 204/2/56 205/2/56
f 198/2/57 197/2/57 202/2/57 203/2/57
f 196/2/58 169/2/58 201/2/58
f 175/2/59 205/2/59 210/2/59
f 204/2/60 203/2/60 208/2/60 209/2/60
f 202/2/61 201/2/61 206/2/61 207/2/61
f 205/2/62 204/2/62 209/2/62 210/2/62
f 203/2/63 202/2/63 207/2/63 208/2/63
f 201/2/64 169/2/64 206/2/64
f 175/2/65 210/2/65 174/2/65
f 209/2/66 208/2/66 172/2/66 173/2/66
f 207/2/67 206/2/67 170/2/67 171/2/67
f 210/2/68 209/2/68 173/2/68 174/2/68
f 208/2/69 207/2/69 171/2/69 172/2/69
f 206/2/70 169/2/70 170/2/70
f 211/2/1 212/2/1 214/2/1 213/2/1
f 213/2/2 214/2/2 216/2/2 215/2/2
f 215/2/3 216/2/3 218/2/3 217/2/3
f 217/2/4 218/2/4 220/2/4 219/2/4
f 219/2/5 220/2/5 222/2/5 221/2/5
f 221/2/6 222/2/6 224/2/6 223/2/6
f 214/2/7 212/2/7 226/2/7 224/2/7 222/2/7 220/2/7 218/2/7 216/2/7
f 223/2/8 224/2/8 226/2/8 225/2/8
f 225/2/9 226/2/9 212/2/9 211/2/9
f 211/2/10 213/2/10 215/2/10 217/2/10 219/2/10 221/2/10 223/2/10 225/2/10
f 227/2/1 228/2/1 230/2/1 229/2/1
f 229/2/2 230/2/2 232/2/2 231/2/2
f 231/2/3 232/2/3 234/2/3 233/2/3
f 233/2/4 234/2/4 236/2/4 235/2/4
f 235/2/5 236/2/5 238/2/5 237/2/5
f 237/2/6 238/2/6 240/2/6 239/2/6
f 230/2/7 228/2/7 242/2/7 240/2/7 238/2/7 236/2/7 234/2/7 232/2/7
f 239/2/8 240/2/8 242/2/8 241/2/8
f 241/2/9 242/2/9 228/2/9 227/2/9
f 227/2/10 229/2/10 231/2/10 233/2/10 235/2/10 237/2/10 239/2/10 241/2/10
f 243/2/10 244/2/10 246/2/10 245/2/10
f 245/2/20 246/2/20 250/2/20 249/2/20
f 249/2/7 250/2/7 248/2/7 247/2/7
f 247/2/17 248/2/17 244/2/17 243/2/17
f 245/2/21 249/2/21 247/2/21 243/2/21
f 250/2/22 246/2/22 244/2/22 248/2/22
f 257/2/27 256/2/27 262/2/27
f 255/2/28 254/2/28 260/2/28 261/2/28
f 253/2/23 252/2/23 258/2/23 259/2/23
f 256/2/24 255/2/24 261/2/24 262/2/24
f 254/2/25 253/2/25 259/2/25 260/2/25
f 252/2/26 251/2/26 258/2/26
f 262/2/29 261/2/29 266/2/29 267/2/29
f 260/2/30 259/2/30 264/2/30 265/2/30
f 258/2/31 251/2/31 263/2/31
f 257/2/32 262/2/32 267/2/32
f 261/2/33 260/2/33 265/2/33 266/2/33
f 259/2/34 258/2/34 263/2/34 264/2/34
f 267/2/35 266/2/35 271/2/35 272/2/35
f 265/2/36 264/2/36 269/2/36 270/2/36
f 263/2/37 251/2/37 268/2/37
f 257/2/38 267/2/38 272/2/38
f 266/2/39 265/2/39 270/2/39 271/2/39
f 264/2/40 263/2/40 268/2/40 269/2/40
f 272/2/46 271/2/46 276/2/46 277/2/46
f 270/2/41 269/2/41 274/2/41 275/2/41
f 268/2/42 251/2/42 273/2/42
f 257/2/43 272/2/43 277/2/43
f 271/2/44 270/2/44 275/2/44 276/2/44
f 269/2/45 268/2/45 273/2/45 274/2/45
f 277/2/51 276/2/51 281/2/51 282/2/51
f 275/2/52 274/2/52 279/2/52 280/2/52
f 273/2/47 251/2/47 278/2/47
f 257/2/48 277/2/48 282/2/48
f 276/2/49 275/2/49 280/2/49 281/2/49
f 274/2/50 273/2/50 278/2/50 279/2/50
f 280/2/57 279/2/57 284/2/57 285/2/57
f 278/2/58 251/2/58 283/2/58
f 257/2/53 282/2/53 287/2/53
f 281/2/54 280/2/54 285/2/54 286/2/54
f 279/2/55 278/2/55 283/2/55 284/2/55
f 282/2/56 281/2/56 286/2/56 287/2/56
f 283/2/64 251/2/64 288/2/64
f 257/2/59 287/2/59 292/2/59
f 286/2/60 285/2/60 290/2/60 291/2/60
f 284/2/61 283/2/61 288/2/61 289/2/61
f 287/2/62 286/2/62 291/2/62 292/2/62
f 285/2/63 284/2/63 289/2/63 290/2/63
f 257/2/65 292/2/65 256/2/65
f 291/2/66 290/2/66 254/2/66 255/2/66
f 289/2/67 288/2/67 252/2/67 253/2/67
f 292/2/68 291/2/68 255/2/68 256/2/68
f 290/2/69 289/2/69 253/2/69 254/2/69
f 288/2/70 251/2/70 252/2/70
f 293/2/1 294/2/1 296/2/1 295/2/1
f 295/2/2 296/2/2 298/2/2 297/2/2
f 297/2/3 298/2/3 300/2/3 299/2/3
f 299/2/4 300/2/4 302/2/4 301/2/4
f 301/2/5 302/2/5 304/2/5 303/2/5
f 303/2/6 304/2/6 306/2/6 305/2/6
f 296/2/7 294/2/7 308/2/7 306/2/7 304/2/7 302/2/7 300/2/7 298/2/7
f 305/2/8 306/2/8 308/2/8 307/2/8
f 307/2/9 308/2/9 294/2/9 293/2/9
f 293/2/10 295/2/10 297/2/10 299/2/10 301/2/10 303/2/10 305/2/10 307/2/10
f 309/2/1 310/2/1 312/2/1 311/2/1
f 311/2/2 312/2/2 314/2/2 313/2/2
f 313/2/3 314/2/3 316/2/3 315/2/3
f 315/2/4 316/2/4 318/2/4 317/2/4
f 317/2/5 318/2/5 320/2/5 319/2/5
f 319/2/6 320/2/6 322/2/6 321/2/6
f 312/2/7 310/2/7 324/2/7 322/2/7 320/2/7 318/2/7 316/2/7 314/2/7
f 321/2/8 322/2/8 324/2/8 323/2/8
f 323/2/9 324/2/9 310/2/9 309/2/9
f 309/2/10 311/2/10 313/2/10 315/2/10 317/2/10 319/2/10 321/2/10 323/2/10
f 325/2/10 326/2/10 328/2/10 327/2/10
f 327/2/20 328/2/20 332/2/20 331/2/20
f 331/2/7 332/2/7 330/2/7 329/2/7
f 329/2/17 330/2/17 326/2/17 325/2/17
f 327/2/21 331/2/21 329/2/21 325/2/21
f 332/2/22 328/2/22 326/2/22 330/2/22
f 339/2/27 338/2/27 344/2/27
f 337/2/28 336/2/28 342/2/28 343/2/28
f 335/2/23 334/2/23 340/2/23 341/2/23
f 338/2/24 337/2/24 343/2/24 344/2/24
f 336/2/25 335/2/25 341/2/25 342/2/25
f 334/2/26 333/2/26 340/2/26
f 341/2/34 340/2/34 345/2/34 346/2/34
f 344/2/29 343/2/29 348/2/29 349/2/29
f 342/2/30 341/2/30 346/2/30 347/2/30
f 340/2/31 333/2/31 345/2/31
f 339/2/32 344/2/32 349/2/32
f 343/2/33 342/2/33 347/2/33 348/2/33
f 349/2/35 348/2/35 353/2/35 354/2/35
f 347/2/36 346/2/36 351/2/36 352/2/36
f 345/2/37 333/2/37 350/2/37
f 339/2/38 349/2/38 354/2/38
f 348/2/39 347/2/39 352/2/39 353/2/39
f 346/2/40 345/2/40 350/2/40 351/2/40
f 354/2/46 353/2/46 358/2/46 359/2/46
f 352/2/41 351/2/41 356/2/41 357/2/41
f 350/2/42 333/2/42 355/2/42
f 339/2/43 354/2/43 359/2/43
f 353/2/44 352/2/44 357/2/44 358/2/44
f 351/2/45 350/2/45 355/2/45 356/2/45
f 359/2/51 358/2/51 363/2/51 364/2/51
f 357/2/52 356/2/52 361/2/52 362/2/52
f 355/2/47 333/2/47 360/2/47
f 339/2/48 359/2/48 364/2/48
f 358/2/49 357/2/49 362/2/49 363/2/49
f 356/2/50 355/2/50 360/2/50 361/2/50
f 364/2/56 363/2/56 368/2/56 369/2/56
f 362/2/57 361/2/57 366/2/57 367/2/57
f 360/2/58 333/2/58 365/2/58
f 339/2/53 364/2/53 369/2/53
f 363/2/54 362/2/54 367/2/54 368/2/54
f 361/2/55 360/2/55 365/2/55 366/2/55
f 367/2/63 366/2/63 371/2/63 372/2/63
f 365/2/64 333/2/64 370/2/64
f 339/2/59 369/2/59 374/2/59
f 368/2/60 367/2/60 372/2/60 373/2/60
f 366/2/61 365/2/61 370/2/61 371/2/61
f 369/2/62 368/2/62 373/2/62 374/2/62
f 370/2/70 333/2/70 334/2/70
f 339/2/65 374/2/65 338/2/65
f 373/2/66 372/2/66 336/2/66 337/2/66
f 371/2/67 370/2/67 334/2/67 335/2/67
f 374/2/68 373/2/68 337/2/68 338/2/68
f 372/2/69 371/2/69 335/2/69 336/2/69
f 375/2/1 376/2/1 378/2/1 377/2/1
f 377/2/2 378/2/2 380/2/2 379/2/2
f 379/2/3 380/2/3 382/2/3 381/2/3
f 381/2/4 382/2/4 384/2/4 383/2/4
f 383/2/5 384/2/5 386/2/5 385/2/5
f 385/2/6 386/2/6 388/2/6 387/2/6
f 378/2/7 376/2/7 390/2/7 388/2/7 386/2/7 384/2/7 382/2/7 380/2/7
f 387/2/8 388/2/8 390/2/8 389/2/8
f 389/2/9 390/2/9 376/2/9 375/2/9
f 375/2/10 377/2/10 379/2/10 381/2/10 383/2/10 385/2/10 387/2/10 389/2/10
f 391/2/1 392/2/1 394/2/1 393/2/1
f 393/2/2 394/2/2 396/2/2 395/2/2
f 395/2/3 396/2/3 398/2/3 397/2/3
f 397/2/4 398/2/4 400/2/4 399/2/4
f 399/2/5 400/2/5 402/2/5 401/2/5
f 401/2/6 402/2/6 404/2/6 403/2/6
f 394/2/7 392/2/7 406/2/7 404/2/7 402/2/7 400/2/7 398/2/7 396/2/7
f 403/2/8 404/2/8 406/2/8 405/2/8
f 405/2/9 406/2/9 392/2/9 391/2/9
f 391/2/10 393/2/10 395/2/10 397/2/10 399/2/10 401/2/10 403/2/10 405/2/10
f 407/3/71 413/3/71 408/3/71
f 408/3/72 413/3/72 409/3/72
f 409/3/73 413/3/73 410/3/73
f 410/3/74 413/3/74 411/3/74
f 407/3/21 408/3/21 409/3/21 410/3/21 411/3/21 412/3/21
f 411/3/75 413/3/75 412/3/75
f 412/3/76 413/3/76 407/3/76
f 414/3/77 420/3/77 415/3/77
f 415/3/78 420/3/78 416/3/78
f 416/3/79 420/3/79 417/3/79
f 417/3/80 420/3/80 418/3/80
f 414/3/21 415/3/21 416/3/21 417/3/21 418/3/21 419/3/21
f 418/3/81 420/3/81 419/3/81
f 419/3/82 420/3/82 414/3/82
f 421/3/83 427/3/83 422/3/83
f 422/3/84 427/3/84 423/3/84
f 423/3/85 427/3/85 424/3/85
f 424/3/86 427/3/86 425/3/86
f 421/3/21 422/3/21 423/3/21 424/3/21 425/3/21 426/3/21
f 425/3/87 427/3/87 426/3/87
f 426/3/88 427/3/88 421/3/88
f 428/3/89 429/3/89 431/3/89 430/3/89
f 430/3/90 431/3/90 433/3/90 432/3/90
f 432/3/91 433/3/91 435/3/91 434/3/91
f 434/3/92 435/3/92 437/3/92 436/3/92
f 436/3/93 437/3/93 439/3/93 438/3/93
f 438/3/94 439/3/94 441/3/94 440/3/94
f 440/3/95 441/3/95 443/3/95 442/3/95
f 442/3/96 443/3/96 445/3/96 444/3/96
f 444/3/97 445/3/97 447/3/97 446/3/97
f 446/3/98 447/3/98 449/3/98 448/3/98
f 431/3/22 429/3/22 451/3/22 449/3/22 447/3/22 445/3/22 443/3/22 441/3/22 439/3/22 437/3/22 435/3/22 433/3/22
f 448/3/99 449/3/99 451/3/99 450/3/99
f 450/3/100 451/3/100 429/3/100 428/3/100
f 428/3/21 430/3/21 432/3/21 434/3/21 436/3/21 438/3/21 440/3/21 442/3/21 444/3/21 446/3/21 448/3/21 450/3/21
