# Blender 5.2.0 LTS
# www.blender.org
mtllib aldrich_court_banner_wall.mtl
o aldrich_court_banner_wall
v -0.055000 2.457001 -0.430000
v -0.055000 2.456998 0.430000
v -0.020359 2.437001 -0.430000
v -0.020359 2.436998 0.430000
v -0.020359 2.397001 -0.430000
v -0.020359 2.396998 0.430000
v -0.055000 2.377001 -0.430000
v -0.055000 2.376998 0.430000
v -0.089641 2.397001 -0.430000
v -0.089641 2.396998 0.430000
v -0.089641 2.437001 -0.430000
v -0.089641 2.436998 0.430000
v -0.120000 2.337000 0.455000
v -0.120000 2.497000 0.455000
v -0.120000 2.337000 0.385000
v -0.120000 2.497000 0.385000
v -0.030000 2.337000 0.455000
v -0.030000 2.497000 0.455000
v -0.030000 2.337000 0.385000
v -0.030000 2.497000 0.385000
v -0.120000 2.337000 -0.385000
v -0.120000 2.497000 -0.385000
v -0.120000 2.337000 -0.455000
v -0.120000 2.497000 -0.455000
v -0.030000 2.337000 -0.385000
v -0.030000 2.497000 -0.385000
v -0.030000 2.337000 -0.455000
v -0.030000 2.497000 -0.455000
v -0.050000 0.857000 0.390000
v -0.050000 2.377000 0.390000
v -0.050000 0.857000 -0.390000
v -0.050000 2.377000 -0.390000
v 0.000000 0.857000 0.390000
v 0.000000 2.377000 0.390000
v 0.000000 0.857000 -0.390000
v 0.000000 2.377000 -0.390000
v -0.050000 0.577000 0.395000
v -0.050000 0.857000 0.395000
v -0.050000 0.577000 0.145000
v -0.050000 0.857000 0.145000
v 0.000000 0.577000 0.395000
v 0.000000 0.857000 0.395000
v 0.000000 0.577000 0.145000
v 0.000000 0.857000 0.145000
v -0.050000 0.577000 0.125000
v -0.050000 0.857000 0.125000
v -0.050000 0.577000 -0.125000
v -0.050000 0.857000 -0.125000
v 0.000000 0.577000 0.125000
v 0.000000 0.857000 0.125000
v 0.000000 0.577000 -0.125000
v 0.000000 0.857000 -0.125000
v -0.050000 0.577000 -0.145000
v -0.050000 0.857000 -0.145000
v -0.050000 0.577000 -0.395000
v -0.050000 0.857000 -0.395000
v 0.000000 0.577000 -0.145000
v 0.000000 0.857000 -0.145000
v 0.000000 0.577000 -0.395000
v 0.000000 0.857000 -0.395000
v -0.005000 1.546931 0.279658
v -0.005000 1.621212 0.330476
v -0.005000 1.772788 -0.050476
v -0.005000 1.847069 -0.000000
v 0.025000 1.546931 0.279658
v 0.025000 1.621212 0.330476
v 0.025000 1.772788 -0.050476
v 0.025000 1.847069 -0.000000
v -0.005000 1.772788 0.050476
v -0.005000 1.546931 -0.279658
v -0.005000 1.621212 -0.330476
v 0.025000 1.772788 0.050476
v 0.025000 1.546931 -0.279658
v 0.025000 1.621212 -0.330476
v 0.010000 1.547000 -0.000000
v 0.010000 1.532263 -0.055000
v 0.010000 1.492000 -0.095263
v 0.010000 1.437000 -0.110000
v 0.010000 1.382000 -0.095263
v 0.010000 1.341737 -0.055000
v 0.010000 1.327000 -0.000000
v 0.048891 1.532263 -0.038891
v 0.077361 1.492000 -0.067361
v 0.087782 1.437000 -0.077782
v 0.077361 1.382000 -0.067361
v 0.048891 1.341737 -0.038891
v 0.065000 1.532263 -0.000000
v 0.105263 1.492000 -0.000000
v 0.120000 1.437000 -0.000000
v 0.105263 1.382000 -0.000000
v 0.065000 1.341737 -0.000000
v 0.048891 1.532263 0.038891
v 0.077361 1.492000 0.067361
v 0.087782 1.437000 0.077782
v 0.077361 1.382000 0.067361
v 0.048891 1.341737 0.038891
v 0.010000 1.532263 0.055000
v 0.010000 1.492000 0.095263
v 0.010000 1.437000 0.110000
v 0.010000 1.382000 0.095263
v 0.010000 1.341737 0.055000
v -0.028891 1.532263 0.038891
v -0.057361 1.492000 0.067361
v -0.067782 1.437000 0.077782
v -0.057361 1.382000 0.067361
v -0.028891 1.341737 0.038891
v -0.045000 1.532263 -0.000000
v -0.085263 1.492000 -0.000000
v -0.100000 1.437000 -0.000000
v -0.085263 1.382000 -0.000000
v -0.045000 1.341737 -0.000000
v -0.028891 1.532263 -0.038891
v -0.057361 1.492000 -0.067361
v -0.067782 1.437000 -0.077782
v -0.057361 1.382000 -0.067361
v -0.028891 1.341737 -0.038891
v -0.055000 2.467000 0.440000
v -0.055000 2.457451 0.410611
v -0.055000 2.376549 0.410611
v -0.055000 2.367000 0.440000
v -0.034219 2.457451 0.419219
v -0.021375 2.432451 0.406375
v -0.021375 2.401549 0.406375
v -0.034219 2.376549 0.419219
v -0.025611 2.457451 0.440000
v -0.007447 2.432451 0.440000
v -0.007447 2.401549 0.440000
v -0.025611 2.376549 0.440000
v -0.034219 2.457451 0.460781
v -0.021375 2.432451 0.473625
v -0.021375 2.401549 0.473625
v -0.034219 2.376549 0.460781
v -0.055000 2.457451 0.469389
v -0.055000 2.432451 0.487553
v -0.055000 2.401549 0.487553
v -0.055000 2.376549 0.469389
v -0.075781 2.457451 0.460781
v -0.088625 2.432451 0.473625
v -0.088625 2.401549 0.473625
v -0.075781 2.376549 0.460781
v -0.084389 2.457451 0.440000
v -0.102553 2.432451 0.440000
v -0.102553 2.401549 0.440000
v -0.084389 2.376549 0.440000
v -0.075781 2.457451 0.419219
v -0.088625 2.432451 0.406375
v -0.088625 2.401549 0.406375
v -0.075781 2.376549 0.419219
v -0.055000 2.432451 0.392447
v -0.055000 2.401549 0.392447
v -0.055000 2.467000 -0.440000
v -0.055000 2.457451 -0.469389
v -0.055000 2.376549 -0.469389
v -0.055000 2.367000 -0.440000
v -0.034219 2.457451 -0.460781
v -0.021375 2.432451 -0.473625
v -0.021375 2.401549 -0.473625
v -0.034219 2.376549 -0.460781
v -0.025611 2.457451 -0.440000
v -0.007447 2.432451 -0.440000
v -0.007447 2.401549 -0.440000
v -0.025611 2.376549 -0.440000
v -0.034219 2.457451 -0.419219
v -0.021375 2.432451 -0.406375
v -0.021375 2.401549 -0.406375
v -0.034219 2.376549 -0.419219
v -0.055000 2.457451 -0.410611
v -0.055000 2.432451 -0.392447
v -0.055000 2.401549 -0.392447
v -0.055000 2.376549 -0.410611
v -0.075781 2.457451 -0.419219
v -0.088625 2.432451 -0.406375
v -0.088625 2.401549 -0.406375
v -0.075781 2.376549 -0.419219
v -0.084389 2.457451 -0.440000
v -0.102553 2.432451 -0.440000
v -0.102553 2.401549 -0.440000
v -0.084389 2.376549 -0.440000
v -0.075781 2.457451 -0.460781
v -0.088625 2.432451 -0.473625
v -0.088625 2.401549 -0.473625
v -0.075781 2.376549 -0.460781
v -0.055000 2.432451 -0.487553
v -0.055000 2.401549 -0.487553
vn 0.5000 0.8660 -0.0000
vn 1.0000 -0.0000 -0.0000
vn 0.5000 -0.8660 -0.0000
vn -0.5000 -0.8660 -0.0000
vn -0.0000 -0.0000 1.0000
vn -1.0000 -0.0000 -0.0000
vn -0.5000 0.8660 -0.0000
vn -0.0000 -0.0000 -1.0000
vn -0.0000 -1.0000 -0.0000
vn -0.0000 1.0000 -0.0000
vn -0.0000 0.5620 -0.8271
vn -0.0000 -0.5646 0.8253
vn -0.0000 -0.8253 -0.5646
vn -0.0000 0.8256 0.5642
vn -0.0000 -0.5646 -0.8253
vn -0.0000 0.5620 0.8271
vn -0.0000 -0.8253 0.5646
vn -0.0000 0.8256 -0.5642
vn 0.1066 -0.9604 -0.2573
vn 0.3715 -0.2403 -0.8968
vn 0.2811 0.6786 -0.6786
vn 0.2811 -0.6786 -0.6786
vn 0.3715 0.2403 -0.8968
vn 0.1066 0.9604 -0.2573
vn 0.6786 0.6786 -0.2811
vn 0.6786 -0.6786 -0.2811
vn 0.8968 0.2403 -0.3715
vn 0.2573 0.9604 -0.1066
vn 0.2574 -0.9604 -0.1066
vn 0.8968 -0.2403 -0.3715
vn 0.6786 -0.6786 0.2811
vn 0.8968 0.2403 0.3715
vn 0.2573 0.9604 0.1066
vn 0.2573 -0.9604 0.1066
vn 0.8968 -0.2403 0.3715
vn 0.6786 0.6786 0.2811
vn 0.2811 -0.6786 0.6786
vn 0.3715 0.2403 0.8968
vn 0.1066 0.9604 0.2573
vn 0.1066 -0.9604 0.2573
vn 0.3715 -0.2403 0.8968
vn 0.2811 0.6786 0.6786
vn -0.2811 -0.6786 0.6786
vn -0.3715 0.2403 0.8968
vn -0.1066 0.9604 0.2573
vn -0.1066 -0.9604 0.2573
vn -0.3715 -0.2403 0.8968
vn -0.2811 0.6786 0.6786
vn -0.6786 -0.6786 0.2811
vn -0.8968 0.2403 0.3715
vn -0.2573 0.9604 0.1066
vn -0.2573 -0.9604 0.1066
vn -0.8968 -0.2403 0.3715
vn -0.6786 0.6786 0.2811
vn -0.8968 0.2403 -0.3715
vn -0.2573 0.9604 -0.1066
vn -0.2574 -0.9604 -0.1066
vn -0.8968 -0.2403 -0.3715
vn -0.6786 0.6786 -0.2811
vn -0.6786 -0.6786 -0.2811
vn -0.1066 0.9604 -0.2573
vn -0.1066 -0.9604 -0.2573
vn -0.3715 -0.2403 -0.8968
vn -0.2811 0.6786 -0.6786
vn -0.2811 -0.6786 -0.6786
vn -0.3715 0.2403 -0.8968
vn 0.1270 0.9434 -0.3065
vn 0.3177 -0.5573 -0.7671
vn 0.3177 0.5573 -0.7671
vn 0.1269 -0.9434 -0.3065
vn 0.3827 -0.0000 -0.9239
vn 0.3065 -0.9434 -0.1270
vn 0.9239 -0.0000 -0.3827
vn 0.3065 0.9434 -0.1270
vn 0.7671 -0.5573 -0.3177
vn 0.7671 0.5573 -0.3177
vn 0.3065 -0.9434 0.1270
vn 0.9239 -0.0000 0.3827
vn 0.3065 0.9434 0.1270
vn 0.7671 -0.5573 0.3177
vn 0.7671 0.5573 0.3177
vn 0.1269 -0.9434 0.3065
vn 0.3827 -0.0000 0.9239
vn 0.1270 0.9434 0.3065
vn 0.3177 -0.5573 0.7671
vn 0.3177 0.5573 0.7671
vn -0.1269 -0.9434 0.3065
vn -0.3827 -0.0000 0.9239
vn -0.1270 0.9434 0.3065
vn -0.3177 -0.5573 0.7671
vn -0.3177 0.5573 0.7671
vn -0.3065 -0.9434 0.1270
vn -0.9239 -0.0000 0.3827
vn -0.3065 0.9434 0.1270
vn -0.7671 -0.5573 0.3177
vn -0.7671 0.5573 0.3177
vn -0.3065 -0.9434 -0.1270
vn -0.9239 -0.0000 -0.3827
vn -0.3065 0.9434 -0.1270
vn -0.7671 -0.5573 -0.3177
vn -0.7671 0.5573 -0.3177
vn -0.1269 -0.9434 -0.3065
vn -0.3827 -0.0000 -0.9239
vn -0.1270 0.9434 -0.3065
vn -0.3177 -0.5573 -0.7671
vn -0.3177 0.5573 -0.7671
vt 0.250000 0.250000
vt 0.750000 0.250000
vt 0.250000 0.750000
s 0
usemtl slot0
f 1/1/1 2/1/1 4/1/1 3/1/1
f 3/1/2 4/1/2 6/1/2 5/1/2
f 5/1/3 6/1/3 8/1/3 7/1/3
f 7/1/4 8/1/4 10/1/4 9/1/4
f 4/1/5 2/1/5 12/1/5 10/1/5 8/1/5 6/1/5
f 9/1/6 10/1/6 12/1/6 11/1/6
f 11/1/7 12/1/7 2/1/7 1/1/7
f 1/1/8 3/1/8 5/1/8 7/1/8 9/1/8 11/1/8
f 13/1/6 14/1/6 16/1/6 15/1/6
f 15/1/8 16/1/8 20/1/8 19/1/8
f 19/1/2 20/1/2 18/1/2 17/1/2
f 17/1/5 18/1/5 14/1/5 13/1/5
f 15/1/9 19/1/9 17/1/9 13/1/9
f 20/1/10 16/1/10 14/1/10 18/1/10
f 21/1/6 22/1/6 24/1/6 23/1/6
f 23/1/8 24/1/8 28/1/8 27/1/8
f 27/1/2 28/1/2 26/1/2 25/1/2
f 25/1/5 26/1/5 22/1/5 21/1/5
f 23/1/9 27/1/9 25/1/9 21/1/9
f 28/1/10 24/1/10 22/1/10 26/1/10
f 29/2/6 30/2/6 32/2/6 31/2/6
f 31/2/8 32/2/8 36/2/8 35/2/8
f 35/2/2 36/2/2 34/2/2 33/2/2
f 33/2/5 34/2/5 30/2/5 29/2/5
f 31/2/9 35/2/9 33/2/9 29/2/9
f 36/2/10 32/2/10 30/2/10 34/2/10
f 37/2/6 38/2/6 40/2/6 39/2/6
f 39/2/8 40/2/8 44/2/8 43/2/8
f 43/2/2 44/2/2 42/2/2 41/2/2
f 41/2/5 42/2/5 38/2/5 37/2/5
f 39/2/9 43/2/9 41/2/9 37/2/9
f 44/2/10 40/2/10 38/2/10 42/2/10
f 45/2/6 46/2/6 48/2/6 47/2/6
f 47/2/8 48/2/8 52/2/8 51/2/8
f 51/2/2 52/2/2 50/2/2 49/2/2
f 49/2/5 50/2/5 46/2/5 45/2/5
f 47/2/9 51/2/9 49/2/9 45/2/9
f 52/2/10 48/2/10 46/2/10 50/2/10
f 53/2/6 54/2/6 56/2/6 55/2/6
f 55/2/8 56/2/8 60/2/8 59/2/8
f 59/2/2 60/2/2 58/2/2 57/2/2
f 57/2/5 58/2/5 54/2/5 53/2/5
f 55/2/9 59/2/9 57/2/9 53/2/9
f 60/2/10 56/2/10 54/2/10 58/2/10
f 61/3/6 62/3/6 64/3/6 63/3/6
f 63/3/11 64/3/11 68/3/11 67/3/11
f 67/3/2 68/3/2 66/3/2 65/3/2
f 65/3/12 66/3/12 62/3/12 61/3/12
f 63/3/13 67/3/13 65/3/13 61/3/13
f 68/3/14 64/3/14 62/3/14 66/3/14
f 69/3/6 64/3/6 71/3/6 70/3/6
f 70/3/15 71/3/15 74/3/15 73/3/15
f 73/3/2 74/3/2 68/3/2 72/3/2
f 72/3/16 68/3/16 64/3/16 69/3/16
f 70/3/17 73/3/17 72/3/17 69/3/17
f 74/3/18 71/3/18 64/3/18 68/3/18
f 81/3/19 80/3/19 86/3/19
f 79/3/20 78/3/20 84/3/20 85/3/20
f 77/3/21 76/3/21 82/3/21 83/3/21
f 80/3/22 79/3/22 85/3/22 86/3/22
f 78/3/23 77/3/23 83/3/23 84/3/23
f 76/3/24 75/3/24 82/3/24
f 83/3/25 82/3/25 87/3/25 88/3/25
f 86/3/26 85/3/26 90/3/26 91/3/26
f 84/3/27 83/3/27 88/3/27 89/3/27
f 82/3/28 75/3/28 87/3/28
f 81/3/29 86/3/29 91/3/29
f 85/3/30 84/3/30 89/3/30 90/3/30
f 91/3/31 90/3/31 95/3/31 96/3/31
f 89/3/32 88/3/32 93/3/32 94/3/32
f 87/3/33 75/3/33 92/3/33
f 81/3/34 91/3/34 96/3/34
f 90/3/35 89/3/35 94/3/35 95/3/35
f 88/3/36 87/3/36 92/3/36 93/3/36
f 96/3/37 95/3/37 100/3/37 101/3/37
f 94/3/38 93/3/38 98/3/38 99/3/38
f 92/3/39 75/3/39 97/3/39
f 81/3/40 96/3/40 101/3/40
f 95/3/41 94/3/41 99/3/41 100/3/41
f 93/3/42 92/3/42 97/3/42 98/3/42
f 101/3/43 100/3/43 105/3/43 106/3/43
f 99/3/44 98/3/44 103/3/44 104/3/44
f 97/3/45 75/3/45 102/3/45
f 81/3/46 101/3/46 106/3/46
f 100/3/47 99/3/47 104/3/47 105/3/47
f 98/3/48 97/3/48 102/3/48 103/3/48
f 106/3/49 105/3/49 110/3/49 111/3/49
f 104/3/50 103/3/50 108/3/50 109/3/50
f 102/3/51 75/3/51 107/3/51
f 81/3/52 106/3/52 111/3/52
f 105/3/53 104/3/53 109/3/53 110/3/53
f 103/3/54 102/3/54 107/3/54 108/3/54
f 109/3/55 108/3/55 113/3/55 114/3/55
f 107/3/56 75/3/56 112/3/56
f 81/3/57 111/3/57 116/3/57
f 110/3/58 109/3/58 114/3/58 115/3/58
f 108/3/59 107/3/59 112/3/59 113/3/59
f 111/3/60 110/3/60 115/3/60 116/3/60
f 112/3/61 75/3/61 76/3/61
f 81/3/62 116/3/62 80/3/62
f 115/3/63 114/3/63 78/3/63 79/3/63
f 113/3/64 112/3/64 76/3/64 77/3/64
f 116/3/65 115/3/65 79/3/65 80/3/65
f 114/3/66 113/3/66 77/3/66 78/3/66
f 118/3/67 117/3/67 121/3/67
f 119/3/68 150/3/68 123/3/68 124/3/68
f 149/3/69 118/3/69 121/3/69 122/3/69
f 120/3/70 119/3/70 124/3/70
f 150/3/71 149/3/71 122/3/71 123/3/71
f 120/3/72 124/3/72 128/3/72
f 123/3/73 122/3/73 126/3/73 127/3/73
f 121/3/74 117/3/74 125/3/74
f 124/3/75 123/3/75 127/3/75 128/3/75
f 122/3/76 121/3/76 125/3/76 126/3/76
f 120/3/77 128/3/77 132/3/77
f 127/3/78 126/3/78 130/3/78 131/3/78
f 125/3/79 117/3/79 129/3/79
f 128/3/80 127/3/80 131/3/80 132/3/80
f 126/3/81 125/3/81 129/3/81 130/3/81
f 120/3/82 132/3/82 136/3/82
f 131/3/83 130/3/83 134/3/83 135/3/83
f 129/3/84 117/3/84 133/3/84
f 132/3/85 131/3/85 135/3/85 136/3/85
f 130/3/86 129/3/86 133/3/86 134/3/86
f 120/3/87 136/3/87 140/3/87
f 135/3/88 134/3/88 138/3/88 139/3/88
f 133/3/89 117/3/89 137/3/89
f 136/3/90 135/3/90 139/3/90 140/3/90
f 134/3/91 133/3/91 137/3/91 138/3/91
f 120/3/92 140/3/92 144/3/92
f 139/3/93 138/3/93 142/3/93 143/3/93
f 137/3/94 117/3/94 141/3/94
f 140/3/95 139/3/95 143/3/95 144/3/95
f 138/3/96 137/3/96 141/3/96 142/3/96
f 120/3/97 144/3/97 148/3/97
f 143/3/98 142/3/98 146/3/98 147/3/98
f 141/3/99 117/3/99 145/3/99
f 144/3/100 143/3/100 147/3/100 148/3/100
f 142/3/101 141/3/101 145/3/101 146/3/101
f 120/3/102 148/3/102 119/3/102
f 147/3/103 146/3/103 149/3/103 150/3/103
f 145/3/104 117/3/104 118/3/104
f 148/3/105 147/3/105 150/3/105 119/3/105
f 146/3/106 145/3/106 118/3/106 149/3/106
f 154/3/70 153/3/70 158/3/70
f 184/3/71 183/3/71 156/3/71 157/3/71
f 152/3/67 151/3/67 155/3/67
f 153/3/68 184/3/68 157/3/68 158/3/68
f 183/3/69 152/3/69 155/3/69 156/3/69
f 154/3/72 158/3/72 162/3/72
f 157/3/73 156/3/73 160/3/73 161/3/73
f 155/3/74 151/3/74 159/3/74
f 158/3/75 157/3/75 161/3/75 162/3/75
f 156/3/76 155/3/76 159/3/76 160/3/76
f 154/3/77 162/3/77 166/3/77
f 161/3/78 160/3/78 164/3/78 165/3/78
f 159/3/79 151/3/79 163/3/79
f 162/3/80 161/3/80 165/3/80 166/3/80
f 160/3/81 159/3/81 163/3/81 164/3/81
f 154/3/82 166/3/82 170/3/82
f 165/3/83 164/3/83 168/3/83 169/3/83
f 163/3/84 151/3/84 167/3/84
f 166/3/85 165/3/85 169/3/85 170/3/85
f 164/3/86 163/3/86 167/3/86 168/3/86
f 154/3/87 170/3/87 174/3/87
f 169/3/88 168/3/88 172/3/88 173/3/88
f 167/3/89 151/3/89 171/3/89
f 170/3/90 169/3/90 173/3/90 174/3/90
f 168/3/91 167/3/91 171/3/91 172/3/91
f 154/3/92 174/3/92 178/3/92
f 173/3/93 172/3/93 176/3/93 177/3/93
f 171/3/94 151/3/94 175/3/94
f 174/3/95 173/3/95 177/3/95 178/3/95
f 172/3/96 171/3/96 175/3/96 176/3/96
f 154/3/97 178/3/97 182/3/97
f 177/3/98 176/3/98 180/3/98 181/3/98
f 175/3/99 151/3/99 179/3/99
f 178/3/100 177/3/100 181/3/100 182/3/100
f 176/3/101 175/3/101 179/3/101 180/3/101
f 154/3/102 182/3/102 153/3/102
f 181/3/103 180/3/103 183/3/103 184/3/103
f 179/3/104 151/3/104 152/3/104
f 182/3/105 181/3/105 184/3/105 153/3/105
f 180/3/106 179/3/106 152/3/106 183/3/106
