# Blender 5.2.0 LTS
# www.blender.org
mtllib aldrich_impaled_stake_02.mtl
o aldrich_impaled_stake
v 0.000000 0.000000 -0.120000
v 0.000000 2.360000 -0.120000
v 0.063640 0.000000 -0.093640
v 0.063640 2.360000 -0.093640
v 0.090000 0.000000 -0.030000
v 0.090000 2.360000 -0.030000
v 0.063640 0.000000 0.033640
v 0.063640 2.360000 0.033640
v 0.000000 0.000000 0.060000
v 0.000000 2.360000 0.060000
v -0.063640 0.000000 0.033640
v -0.063640 2.360000 0.033640
v -0.090000 0.000000 -0.030000
v -0.090000 2.360000 -0.030000
v -0.063640 0.000000 -0.093640
v -0.063640 2.360000 -0.093640
v -0.310000 0.000000 0.310000
v -0.310000 0.200000 0.310000
v -0.310000 0.000000 -0.310000
v -0.310000 0.200000 -0.310000
v 0.310000 0.000000 0.310000
v 0.310000 0.200000 0.310000
v 0.310000 0.000000 -0.310000
v 0.310000 0.200000 -0.310000
v -0.094775 0.091794 0.030000
v -0.399251 0.722107 0.030000
v -0.094775 0.091794 -0.030000
v -0.399251 0.722107 -0.030000
v -0.040749 0.117892 0.030000
v -0.345225 0.748205 0.030000
v -0.040749 0.117892 -0.030000
v -0.345225 0.748205 -0.030000
v 0.040749 0.117892 0.030000
v 0.345225 0.748205 0.030000
v 0.040749 0.117892 -0.030000
v 0.345225 0.748205 -0.030000
v 0.094775 0.091794 0.030000
v 0.399251 0.722107 0.030000
v 0.094775 0.091794 -0.030000
v 0.399251 0.722107 -0.030000
v -0.040000 2.375000 0.135000
v -0.040000 2.505000 0.135000
v -0.040000 2.375000 0.035000
v -0.040000 2.505000 0.035000
v 0.110000 2.375000 0.135000
v 0.110000 2.505000 0.135000
v 0.110000 2.375000 0.035000
v 0.110000 2.505000 0.035000
v -0.070000 2.620000 0.065000
v -0.070000 2.670000 0.065000
v -0.070000 2.620000 -0.145000
v -0.070000 2.670000 -0.145000
v 0.140000 2.620000 0.065000
v 0.140000 2.670000 0.065000
v 0.140000 2.620000 -0.145000
v 0.140000 2.670000 -0.145000
v 0.017500 2.190000 -0.090000
v 0.017500 2.610000 -0.090000
v 0.065131 2.190000 -0.062500
v 0.065131 2.610000 -0.062500
v 0.065131 2.190000 -0.007500
v 0.065131 2.610000 -0.007500
v 0.017500 2.190000 0.020000
v 0.017500 2.610000 0.020000
v -0.030131 2.190000 -0.007500
v -0.030131 2.610000 -0.007500
v -0.030131 2.190000 -0.062500
v -0.030131 2.610000 -0.062500
v -0.200000 2.230000 0.110000
v -0.200000 2.430000 0.110000
v -0.200000 2.230000 -0.150000
v -0.200000 2.430000 -0.150000
v 0.200000 2.230000 0.110000
v 0.200000 2.430000 0.110000
v 0.200000 2.230000 -0.150000
v 0.200000 2.430000 -0.150000
v -0.065000 2.380000 0.025000
v -0.065000 2.500000 0.025000
v -0.065000 2.380000 -0.105000
v -0.065000 2.500000 -0.105000
v 0.065000 2.380000 0.025000
v 0.065000 2.500000 0.025000
v 0.065000 2.380000 -0.105000
v 0.065000 2.500000 -0.105000
v 0.035000 2.675000 -0.040000
v 0.035000 2.659650 -0.107252
v 0.035000 2.616641 -0.161184
v 0.035000 2.423359 -0.161184
v 0.035000 2.380350 -0.107252
v 0.035000 2.365000 -0.040000
v 0.074530 2.659650 -0.094408
v 0.106230 2.616641 -0.138040
v 0.123822 2.554491 -0.162254
v 0.123822 2.485509 -0.162254
v 0.106230 2.423359 -0.138040
v 0.074530 2.380350 -0.094408
v 0.098960 2.659650 -0.060782
v 0.150253 2.616641 -0.077448
v 0.178718 2.554491 -0.086697
v 0.178718 2.485509 -0.086697
v 0.150253 2.423359 -0.077448
v 0.098960 2.380350 -0.060782
v 0.098960 2.659650 -0.019218
v 0.150253 2.616641 -0.002552
v 0.178718 2.554491 0.006697
v 0.178718 2.485509 0.006697
v 0.150253 2.423359 -0.002552
v 0.098960 2.380350 -0.019218
v 0.074530 2.659650 0.014408
v 0.106230 2.616641 0.058040
v 0.123822 2.554491 0.082254
v 0.123822 2.485509 0.082254
v 0.106230 2.423359 0.058040
v 0.074530 2.380350 0.014408
v 0.035000 2.659650 0.027252
v 0.035000 2.616641 0.081184
v 0.035000 2.554491 0.111114
v 0.035000 2.485509 0.111114
v 0.035000 2.423359 0.081184
v 0.035000 2.380350 0.027252
v -0.004530 2.659650 0.014408
v -0.036230 2.616641 0.058040
v -0.053822 2.554491 0.082254
v -0.053822 2.485509 0.082254
v -0.036230 2.423359 0.058040
v -0.004530 2.380350 0.014408
v -0.028960 2.659650 -0.019218
v -0.080253 2.616641 -0.002552
v -0.108718 2.554491 0.006697
v -0.108718 2.485509 0.006697
v -0.080253 2.423359 -0.002552
v -0.028960 2.380350 -0.019218
v -0.028960 2.659650 -0.060782
v -0.080253 2.616641 -0.077448
v -0.108718 2.554491 -0.086697
v -0.108718 2.485509 -0.086697
v -0.080253 2.423359 -0.077448
v -0.028960 2.380350 -0.060782
v -0.004530 2.659650 -0.094408
v -0.036230 2.616641 -0.138040
v -0.053822 2.554491 -0.162254
v -0.053822 2.485509 -0.162254
v -0.036230 2.423359 -0.138040
v -0.004530 2.380350 -0.094408
v 0.035000 2.554491 -0.191114
v 0.035000 2.485509 -0.191114
v -0.343351 1.546058 0.010000
v -0.366137 1.925374 0.010000
v -0.343351 1.546058 -0.090000
v -0.366137 1.925374 -0.090000
v -0.243531 1.552054 0.010000
v -0.266317 1.931370 0.010000
v -0.243531 1.552054 -0.090000
v -0.266317 1.931370 -0.090000
v -0.371227 1.439056 0.005000
v -0.371227 1.559056 0.005000
v -0.371227 1.439056 -0.085000
v -0.371227 1.559056 -0.085000
v -0.261227 1.439056 0.005000
v -0.261227 1.559056 0.005000
v -0.261227 1.439056 -0.085000
v -0.261227 1.559056 -0.085000
v -0.174429 0.784328 0.020000
v -0.224708 1.201307 0.020000
v -0.174429 0.784328 -0.100000
v -0.224708 1.201307 -0.100000
v -0.055292 0.798693 0.020000
v -0.105571 1.215672 0.020000
v -0.055292 0.798693 -0.100000
v -0.105571 1.215672 -0.100000
v 0.243531 1.552054 0.010000
v 0.266317 1.931370 0.010000
v 0.243531 1.552054 -0.090000
v 0.266317 1.931370 -0.090000
v 0.343351 1.546058 0.010000
v 0.366137 1.925374 0.010000
v 0.343351 1.546058 -0.090000
v 0.366137 1.925374 -0.090000
v 0.261227 1.439056 0.005000
v 0.261227 1.559056 0.005000
v 0.261227 1.439056 -0.085000
v 0.261227 1.559056 -0.085000
v 0.371227 1.439056 0.005000
v 0.371227 1.559056 0.005000
v 0.371227 1.439056 -0.085000
v 0.371227 1.559056 -0.085000
v 0.055292 0.798693 0.020000
v 0.105571 1.215672 0.020000
v 0.055292 0.798693 -0.100000
v 0.105571 1.215672 -0.100000
v 0.174429 0.784328 0.020000
v 0.224708 1.201307 0.020000
v 0.174429 0.784328 -0.100000
v 0.224708 1.201307 -0.100000
v -0.220000 1.710000 0.130000
v -0.220000 2.330000 0.130000
v -0.220000 1.710000 -0.170000
v -0.220000 2.330000 -0.170000
v 0.220000 1.710000 0.130000
v 0.220000 2.330000 0.130000
v 0.220000 1.710000 -0.170000
v 0.220000 2.330000 -0.170000
v -0.200000 1.390000 0.120000
v -0.200000 1.730000 0.120000
v -0.200000 1.390000 -0.160000
v -0.200000 1.730000 -0.160000
v 0.200000 1.390000 0.120000
v 0.200000 1.730000 0.120000
v 0.200000 1.390000 -0.160000
v 0.200000 1.730000 -0.160000
v -0.225000 1.710000 0.135000
v -0.225000 1.770000 0.135000
v -0.225000 1.710000 -0.175000
v -0.225000 1.770000 -0.175000
v 0.225000 1.710000 0.135000
v 0.225000 1.770000 0.135000
v 0.225000 1.710000 -0.175000
v 0.225000 1.770000 -0.175000
v -0.273704 1.915458 0.025000
v -0.357145 2.327086 0.025000
v -0.273704 1.915458 -0.105000
v -0.357145 2.327086 -0.105000
v -0.146296 1.941285 0.025000
v -0.229737 2.352913 0.025000
v -0.146296 1.941285 -0.105000
v -0.229737 2.352913 -0.105000
v -0.172912 1.192316 0.035000
v -0.216009 1.549727 0.035000
v -0.172912 1.192316 -0.115000
v -0.216009 1.549727 -0.115000
v -0.023991 1.210273 0.035000
v -0.067088 1.567684 0.035000
v -0.023991 1.210273 -0.115000
v -0.067088 1.567684 -0.115000
v 0.146296 1.941285 0.025000
v 0.229737 2.352913 0.025000
v 0.146296 1.941285 -0.105000
v 0.229737 2.352913 -0.105000
v 0.273704 1.915458 0.025000
v 0.357145 2.327086 0.025000
v 0.273704 1.915458 -0.105000
v 0.357145 2.327086 -0.105000
v 0.023991 1.210273 0.035000
v 0.067088 1.567684 0.035000
v 0.023991 1.210273 -0.115000
v 0.067088 1.567684 -0.115000
v 0.172912 1.192316 0.035000
v 0.216009 1.549727 0.035000
v 0.172912 1.192316 -0.115000
v 0.216009 1.549727 -0.115000
v -0.130000 1.910000 0.155000
v -0.130000 2.210000 0.155000
v -0.130000 1.910000 0.125000
v -0.130000 2.210000 0.125000
v 0.130000 1.910000 0.155000
v 0.130000 2.210000 0.155000
v 0.130000 1.910000 0.125000
v 0.130000 2.210000 0.125000
v -0.097500 1.730000 0.154000
v -0.097500 1.930000 0.154000
v -0.097500 1.730000 0.126000
v -0.097500 1.930000 0.126000
v -0.042500 1.730000 0.154000
v -0.042500 1.930000 0.154000
v -0.042500 1.730000 0.126000
v -0.042500 1.930000 0.126000
v 0.057500 1.790000 0.154000
v 0.057500 1.930000 0.154000
v 0.057500 1.790000 0.126000
v 0.057500 1.930000 0.126000
v 0.102500 1.790000 0.154000
v 0.102500 1.930000 0.154000
v 0.102500 1.790000 0.126000
v 0.102500 1.930000 0.126000
v 0.035000 2.620000 -0.090000
v 0.082631 2.620000 -0.062500
v 0.082631 2.620000 -0.007500
v 0.035000 2.620000 0.020000
v -0.012631 2.620000 -0.007500
v -0.012631 2.620000 -0.062500
v 0.035000 2.920000 -0.035000
v 0.012500 2.340000 0.118000
v 0.012500 2.500000 0.118000
v 0.012500 2.340000 0.092000
v 0.012500 2.500000 0.092000
v 0.057500 2.340000 0.118000
v 0.057500 2.500000 0.118000
v 0.057500 2.340000 0.092000
v 0.057500 2.500000 0.092000
v -0.067500 2.320000 0.089000
v -0.067500 2.400000 0.089000
v -0.067500 2.320000 0.061000
v -0.067500 2.400000 0.061000
v 0.102500 2.320000 0.089000
v 0.102500 2.400000 0.089000
v 0.102500 2.320000 0.061000
v 0.102500 2.400000 0.061000
v -0.035000 0.610000 0.080000
v -0.035000 1.910000 0.080000
v -0.035000 0.610000 0.040000
v -0.035000 1.910000 0.040000
v 0.035000 0.610000 0.080000
v 0.035000 1.910000 0.080000
v 0.035000 0.610000 0.040000
v 0.035000 1.910000 0.040000
v 0.000000 1.070000 0.080000
v 0.000000 1.060451 0.050611
v 0.000000 0.979549 0.050611
v 0.000000 0.970000 0.080000
v 0.020781 1.060451 0.059219
v 0.033625 1.035451 0.046375
v 0.033625 1.004549 0.046375
v 0.020781 0.979549 0.059219
v 0.029389 1.060451 0.080000
v 0.047553 1.035451 0.080000
v 0.047553 1.004549 0.080000
v 0.029389 0.979549 0.080000
v 0.020781 1.060451 0.100781
v 0.033625 1.035451 0.113625
v 0.033625 1.004549 0.113625
v 0.020781 0.979549 0.100781
v 0.000000 1.060451 0.109389
v 0.000000 1.035451 0.127553
v 0.000000 1.004549 0.127553
v 0.000000 0.979549 0.109389
v -0.020781 1.060451 0.100781
v -0.033625 1.035451 0.113625
v -0.033625 1.004549 0.113625
v -0.020781 0.979549 0.100781
v -0.029389 1.060451 0.080000
v -0.047553 1.035451 0.080000
v -0.047553 1.004549 0.080000
v -0.029389 0.979549 0.080000
v -0.020781 1.060451 0.059219
v -0.033625 1.035451 0.046375
v -0.033625 1.004549 0.046375
v -0.020781 0.979549 0.059219
v 0.000000 1.035451 0.032447
v 0.000000 1.004549 0.032447
v 0.000000 1.490000 0.080000
v 0.000000 1.480451 0.050611
v 0.000000 1.399549 0.050611
v 0.000000 1.390000 0.080000
v 0.020781 1.480451 0.059219
v 0.033625 1.455451 0.046375
v 0.033625 1.424549 0.046375
v 0.020781 1.399549 0.059219
v 0.029389 1.480451 0.080000
v 0.047553 1.455451 0.080000
v 0.047553 1.424549 0.080000
v 0.029389 1.399549 0.080000
v 0.020781 1.480451 0.100781
v 0.033625 1.455451 0.113625
v 0.033625 1.424549 0.113625
v 0.020781 1.399549 0.100781
v 0.000000 1.480451 0.109389
v 0.000000 1.455451 0.127553
v 0.000000 1.424549 0.127553
v 0.000000 1.399549 0.109389
v -0.020781 1.480451 0.100781
v -0.033625 1.455451 0.113625
v -0.033625 1.424549 0.113625
v -0.020781 1.399549 0.100781
v -0.029389 1.480451 0.080000
v -0.047553 1.455451 0.080000
v -0.047553 1.424549 0.080000
v -0.029389 1.399549 0.080000
v -0.020781 1.480451 0.059219
v -0.033625 1.455451 0.046375
v -0.033625 1.424549 0.046375
v -0.020781 1.399549 0.059219
v 0.000000 1.455451 0.032447
v 0.000000 1.424549 0.032447
v 0.000000 1.910000 0.080000
v 0.000000 1.900451 0.050611
v 0.000000 1.819549 0.050611
v 0.000000 1.810000 0.080000
v 0.020781 1.900451 0.059219
v 0.033625 1.875451 0.046375
v 0.033625 1.844549 0.046375
v 0.020781 1.819549 0.059219
v 0.029389 1.900451 0.080000
v 0.047553 1.875451 0.080000
v 0.047553 1.844549 0.080000
v 0.029389 1.819549 0.080000
v 0.020781 1.900451 0.100781
v 0.033625 1.875451 0.113625
v 0.033625 1.844549 0.113625
v 0.020781 1.819549 0.100781
v 0.000000 1.900451 0.109389
v 0.000000 1.875451 0.127553
v 0.000000 1.844549 0.127553
v 0.000000 1.819549 0.109389
v -0.020781 1.900451 0.100781
v -0.033625 1.875451 0.113625
v -0.033625 1.844549 0.113625
v -0.020781 1.819549 0.100781
v -0.029389 1.900451 0.080000
v -0.047553 1.875451 0.080000
v -0.047553 1.844549 0.080000
v -0.029389 1.819549 0.080000
v -0.020781 1.900451 0.059219
v -0.033625 1.875451 0.046375
v -0.033625 1.844549 0.046375
v -0.020781 1.819549 0.059219
v 0.000000 1.875451 0.032447
v 0.000000 1.844549 0.032447
vn 0.3827 -0.0000 -0.9239
vn 0.9239 -0.0000 -0.3827
vn 0.9239 -0.0000 0.3827
vn 0.3827 -0.0000 0.9239
vn -0.3827 -0.0000 0.9239
vn -0.9239 -0.0000 0.3827
vn -0.0000 1.0000 -0.0000
vn -0.9239 -0.0000 -0.3827
vn -0.3827 -0.0000 -0.9239
vn -0.0000 -1.0000 -0.0000
vn -1.0000 -0.0000 -0.0000
vn -0.0000 -0.0000 -1.0000
vn 1.0000 -0.0000 -0.0000
vn -0.0000 -0.0000 1.0000
vn -0.9004 -0.4350 -0.0000
vn 0.9004 0.4350 -0.0000
vn 0.4350 -0.9004 -0.0000
vn -0.4350 0.9004 -0.0000
vn -0.9004 0.4350 -0.0000
vn 0.9004 -0.4350 -0.0000
vn -0.4350 -0.9004 -0.0000
vn 0.4350 0.9004 -0.0000
vn 0.5000 -0.0000 -0.8660
vn 0.5000 -0.0000 0.8660
vn -0.5000 -0.0000 0.8660
vn -0.5000 -0.0000 -0.8660
vn 0.0721 -0.9724 -0.2219
vn 0.2810 -0.4164 -0.8647
vn 0.2810 0.4164 -0.8647
vn 0.0721 0.9724 -0.2219
vn 0.1986 -0.7663 -0.6111
vn 0.3090 -0.0000 -0.9511
vn 0.1986 0.7663 -0.6111
vn 0.1888 -0.9724 -0.1372
vn 0.7355 -0.4164 -0.5344
vn 0.7355 0.4164 -0.5344
vn 0.1888 0.9724 -0.1372
vn 0.5198 -0.7663 -0.3777
vn 0.8090 -0.0000 -0.5878
vn 0.5198 0.7663 -0.3777
vn 0.2334 -0.9724 -0.0000
vn 0.9092 -0.4164 -0.0000
vn 0.9092 0.4164 -0.0000
vn 0.2334 0.9724 -0.0000
vn 0.6425 -0.7663 -0.0000
vn 0.6425 0.7663 -0.0000
vn 0.7355 0.4164 0.5344
vn 0.1888 0.9724 0.1372
vn 0.5198 -0.7663 0.3777
vn 0.8090 -0.0000 0.5878
vn 0.5198 0.7663 0.3777
vn 0.1888 -0.9724 0.1372
vn 0.7355 -0.4164 0.5344
vn 0.1986 -0.7663 0.6111
vn 0.3090 -0.0000 0.9511
vn 0.1986 0.7663 0.6111
vn 0.0721 -0.9724 0.2219
vn 0.2810 -0.4164 0.8647
vn 0.2810 0.4164 0.8647
vn 0.0721 0.9724 0.2219
vn -0.1986 -0.7663 0.6111
vn -0.3090 -0.0000 0.9511
vn -0.1986 0.7663 0.6111
vn -0.0721 -0.9724 0.2219
vn -0.2810 -0.4164 0.8647
vn -0.2810 0.4164 0.8647
vn -0.0721 0.9724 0.2219
vn -0.5198 0.7663 0.3777
vn -0.1888 -0.9724 0.1372
vn -0.7355 -0.4164 0.5344
vn -0.7355 0.4164 0.5344
vn -0.1888 0.9724 0.1372
vn -0.5198 -0.7663 0.3777
vn -0.8090 -0.0000 0.5878
vn -0.2334 -0.9724 -0.0000
vn -0.9092 -0.4164 -0.0000
vn -0.9092 0.4164 -0.0000
vn -0.2334 0.9724 -0.0000
vn -0.6425 -0.7663 -0.0000
vn -0.6425 0.7663 -0.0000
vn -0.7355 -0.4164 -0.5344
vn -0.7355 0.4164 -0.5344
vn -0.1888 0.9724 -0.1372
vn -0.5198 -0.7663 -0.3777
vn -0.8090 -0.0000 -0.5878
vn -0.5198 0.7663 -0.3777
vn -0.1888 -0.9724 -0.1372
vn -0.0721 0.9724 -0.2219
vn -0.1986 -0.7663 -0.6111
vn -0.3090 -0.0000 -0.9511
vn -0.1986 0.7663 -0.6111
vn -0.0721 -0.9724 -0.2219
vn -0.2810 -0.4164 -0.8647
vn -0.2810 0.4164 -0.8647
vn -0.9982 -0.0600 -0.0000
vn 0.9982 0.0600 -0.0000
vn 0.0600 -0.9982 -0.0000
vn -0.0600 0.9982 -0.0000
vn -0.9928 -0.1197 -0.0000
vn 0.9928 0.1197 -0.0000
vn 0.1197 -0.9928 -0.0000
vn -0.1197 0.9928 -0.0000
vn -0.9982 0.0600 -0.0000
vn 0.9982 -0.0600 -0.0000
vn -0.0600 -0.9982 -0.0000
vn 0.0600 0.9982 -0.0000
vn -0.9928 0.1197 -0.0000
vn 0.9928 -0.1197 -0.0000
vn -0.1197 -0.9928 -0.0000
vn 0.1197 0.9928 -0.0000
vn -0.9801 -0.1987 -0.0000
vn 0.9801 0.1987 -0.0000
vn 0.1987 -0.9801 -0.0000
vn -0.1987 0.9801 -0.0000
vn -0.9801 0.1987 -0.0000
vn 0.9801 -0.1987 -0.0000
vn -0.1987 -0.9801 -0.0000
vn 0.1987 0.9801 -0.0000
vn 0.4938 0.1568 -0.8553
vn 0.9876 0.1568 -0.0000
vn 0.4938 0.1568 0.8553
vn -0.4938 0.1568 0.8553
vn -0.9876 0.1568 -0.0000
vn -0.4938 0.1568 -0.8553
vn 0.3177 -0.5573 -0.7671
vn 0.3177 0.5573 -0.7671
vn 0.1270 -0.9434 -0.3065
vn 0.1270 0.9434 -0.3065
vn 0.7671 -0.5573 -0.3177
vn 0.7671 0.5573 -0.3177
vn 0.3065 -0.9434 -0.1270
vn 0.3065 0.9434 -0.1270
vn 0.7671 -0.5573 0.3177
vn 0.7671 0.5573 0.3177
vn 0.3065 -0.9434 0.1270
vn 0.3065 0.9434 0.1270
vn 0.3177 -0.5573 0.7671
vn 0.3177 0.5573 0.7671
vn 0.1270 -0.9434 0.3065
vn 0.1270 0.9434 0.3065
vn -0.3177 -0.5573 0.7671
vn -0.3177 0.5573 0.7671
vn -0.1270 -0.9434 0.3065
vn -0.1270 0.9434 0.3065
vn -0.7671 -0.5573 0.3177
vn -0.7671 0.5573 0.3177
vn -0.3065 -0.9434 0.1270
vn -0.3065 0.9434 0.1270
vn -0.7671 -0.5573 -0.3177
vn -0.7671 0.5573 -0.3177
vn -0.3065 -0.9434 -0.1270
vn -0.3065 0.9434 -0.1270
vn -0.3177 -0.5573 -0.7671
vn -0.3177 0.5573 -0.7671
vn -0.1270 -0.9434 -0.3065
vn -0.1270 0.9434 -0.3065
vt 0.250000 0.250000
vt 0.750000 0.250000
vt 0.250000 0.750000
vt 0.750000 0.750000
s 0
usemtl slot0
f 1/1/1 2/1/1 4/1/1 3/1/1
f 3/1/2 4/1/2 6/1/2 5/1/2
f 5/1/3 6/1/3 8/1/3 7/1/3
f 7/1/4 8/1/4 10/1/4 9/1/4
f 9/1/5 10/1/5 12/1/5 11/1/5
f 11/1/6 12/1/6 14/1/6 13/1/6
f 4/1/7 2/1/7 16/1/7 14/1/7 12/1/7 10/1/7 8/1/7 6/1/7
f 13/1/8 14/1/8 16/1/8 15/1/8
f 15/1/9 16/1/9 2/1/9 1/1/9
f 1/1/10 3/1/10 5/1/10 7/1/10 9/1/10 11/1/10 13/1/10 15/1/10
f 17/1/11 18/1/11 20/1/11 19/1/11
f 19/1/12 20/1/12 24/1/12 23/1/12
f 23/1/13 24/1/13 22/1/13 21/1/13
f 21/1/14 22/1/14 18/1/14 17/1/14
f 19/1/10 23/1/10 21/1/10 17/1/10
f 24/1/7 20/1/7 18/1/7 22/1/7
f 25/1/15 26/1/15 28/1/15 27/1/15
f 27/1/12 28/1/12 32/1/12 31/1/12
f 31/1/16 32/1/16 30/1/16 29/1/16
f 29/1/14 30/1/14 26/1/14 25/1/14
f 27/1/17 31/1/17 29/1/17 25/1/17
f 32/1/18 28/1/18 26/1/18 30/1/18
f 33/1/19 34/1/19 36/1/19 35/1/19
f 35/1/12 36/1/12 40/1/12 39/1/12
f 39/1/20 40/1/20 38/1/20 37/1/20
f 37/1/14 38/1/14 34/1/14 33/1/14
f 35/1/21 39/1/21 37/1/21 33/1/21
f 40/1/22 36/1/22 34/1/22 38/1/22
f 41/1/11 42/1/11 44/1/11 43/1/11
f 43/1/12 44/1/12 48/1/12 47/1/12
f 47/1/13 48/1/13 46/1/13 45/1/13
f 45/1/14 46/1/14 42/1/14 41/1/14
f 43/1/10 47/1/10 45/1/10 41/1/10
f 48/1/7 44/1/7 42/1/7 46/1/7
f 49/1/11 50/1/11 52/1/11 51/1/11
f 51/1/12 52/1/12 56/1/12 55/1/12
f 55/1/13 56/1/13 54/1/13 53/1/13
f 53/1/14 54/1/14 50/1/14 49/1/14
f 51/1/10 55/1/10 53/1/10 49/1/10
f 56/1/7 52/1/7 50/1/7 54/1/7
f 57/1/23 58/1/23 60/1/23 59/1/23
f 59/1/13 60/1/13 62/1/13 61/1/13
f 61/1/24 62/1/24 64/1/24 63/1/24
f 63/1/25 64/1/25 66/1/25 65/1/25
f 60/1/7 58/1/7 68/1/7 66/1/7 64/1/7 62/1/7
f 65/1/11 66/1/11 68/1/11 67/1/11
f 67/1/26 68/1/26 58/1/26 57/1/26
f 57/1/10 59/1/10 61/1/10 63/1/10 65/1/10 67/1/10
f 69/2/11 70/2/11 72/2/11 71/2/11
f 71/2/12 72/2/12 76/2/12 75/2/12
f 75/2/13 76/2/13 74/2/13 73/2/13
f 73/2/14 74/2/14 70/2/14 69/2/14
f 71/2/10 75/2/10 73/2/10 69/2/10
f 76/2/7 72/2/7 70/2/7 74/2/7
f 77/2/11 78/2/11 80/2/11 79/2/11
f 79/2/12 80/2/12 84/2/12 83/2/12
f 83/2/13 84/2/13 82/2/13 81/2/13
f 81/2/14 82/2/14 78/2/14 77/2/14
f 79/2/10 83/2/10 81/2/10 77/2/10
f 84/2/7 80/2/7 78/2/7 82/2/7
f 90/2/27 89/2/27 96/2/27
f 88/2/28 146/2/28 94/2/28 95/2/28
f 145/2/29 87/2/29 92/2/29 93/2/29
f 86/2/30 85/2/30 91/2/30
f 89/2/31 88/2/31 95/2/31 96/2/31
f 146/2/32 145/2/32 93/2/32 94/2/32
f 87/2/33 86/2/33 91/2/33 92/2/33
f 90/2/34 96/2/34 102/2/34
f 95/2/35 94/2/35 100/2/35 101/2/35
f 93/2/36 92/2/36 98/2/36 99/2/36
f 91/2/37 85/2/37 97/2/37
f 96/2/38 95/2/38 101/2/38 102/2/38
f 94/2/39 93/2/39 99/2/39 100/2/39
f 92/2/40 91/2/40 97/2/40 98/2/40
f 90/2/41 102/2/41 108/2/41
f 101/2/42 100/2/42 106/2/42 107/2/42
f 99/2/43 98/2/43 104/2/43 105/2/43
f 97/2/44 85/2/44 103/2/44
f 102/2/45 101/2/45 107/2/45 108/2/45
f 100/2/13 99/2/13 105/2/13 106/2/13
f 98/2/46 97/2/46 103/2/46 104/2/46
f 105/2/47 104/2/47 110/2/47 111/2/47
f 103/2/48 85/2/48 109/2/48
f 108/2/49 107/2/49 113/2/49 114/2/49
f 106/2/50 105/2/50 111/2/50 112/2/50
f 104/2/51 103/2/51 109/2/51 110/2/51
f 90/2/52 108/2/52 114/2/52
f 107/2/53 106/2/53 112/2/53 113/2/53
f 114/2/54 113/2/54 119/2/54 120/2/54
f 112/2/55 111/2/55 117/2/55 118/2/55
f 110/2/56 109/2/56 115/2/56 116/2/56
f 90/2/57 114/2/57 120/2/57
f 113/2/58 112/2/58 118/2/58 119/2/58
f 111/2/59 110/2/59 116/2/59 117/2/59
f 109/2/60 85/2/60 115/2/60
f 120/2/61 119/2/61 125/2/61 126/2/61
f 118/2/62 117/2/62 123/2/62 124/2/62
f 116/2/63 115/2/63 121/2/63 122/2/63
f 90/2/64 120/2/64 126/2/64
f 119/2/65 118/2/65 124/2/65 125/2/65
f 117/2/66 116/2/66 122/2/66 123/2/66
f 115/2/67 85/2/67 121/2/67
f 122/2/68 121/2/68 127/2/68 128/2/68
f 90/2/69 126/2/69 132/2/69
f 125/2/70 124/2/70 130/2/70 131/2/70
f 123/2/71 122/2/71 128/2/71 129/2/71
f 121/2/72 85/2/72 127/2/72
f 126/2/73 125/2/73 131/2/73 132/2/73
f 124/2/74 123/2/74 129/2/74 130/2/74
f 90/2/75 132/2/75 138/2/75
f 131/2/76 130/2/76 136/2/76 137/2/76
f 129/2/77 128/2/77 134/2/77 135/2/77
f 127/2/78 85/2/78 133/2/78
f 132/2/79 131/2/79 137/2/79 138/2/79
f 130/2/11 129/2/11 135/2/11 136/2/11
f 128/2/80 127/2/80 133/2/80 134/2/80
f 137/2/81 136/2/81 142/2/81 143/2/81
f 135/2/82 134/2/82 140/2/82 141/2/82
f 133/2/83 85/2/83 139/2/83
f 138/2/84 137/2/84 143/2/84 144/2/84
f 136/2/85 135/2/85 141/2/85 142/2/85
f 134/2/86 133/2/86 139/2/86 140/2/86
f 90/2/87 138/2/87 144/2/87
f 139/2/88 85/2/88 86/2/88
f 144/2/89 143/2/89 88/2/89 89/2/89
f 142/2/90 141/2/90 145/2/90 146/2/90
f 140/2/91 139/2/91 86/2/91 87/2/91
f 90/2/92 144/2/92 89/2/92
f 143/2/93 142/2/93 146/2/93 88/2/93
f 141/2/94 140/2/94 87/2/94 145/2/94
f 147/2/95 148/2/95 150/2/95 149/2/95
f 149/2/12 150/2/12 154/2/12 153/2/12
f 153/2/96 154/2/96 152/2/96 151/2/96
f 151/2/14 152/2/14 148/2/14 147/2/14
f 149/2/97 153/2/97 151/2/97 147/2/97
f 154/2/98 150/2/98 148/2/98 152/2/98
f 155/2/11 156/2/11 158/2/11 157/2/11
f 157/2/12 158/2/12 162/2/12 161/2/12
f 161/2/13 162/2/13 160/2/13 159/2/13
f 159/2/14 160/2/14 156/2/14 155/2/14
f 157/2/10 161/2/10 159/2/10 155/2/10
f 162/2/7 158/2/7 156/2/7 160/2/7
f 163/2/99 164/2/99 166/2/99 165/2/99
f 165/2/12 166/2/12 170/2/12 169/2/12
f 169/2/100 170/2/100 168/2/100 167/2/100
f 167/2/14 168/2/14 164/2/14 163/2/14
f 165/2/101 169/2/101 167/2/101 163/2/101
f 170/2/102 166/2/102 164/2/102 168/2/102
f 171/2/103 172/2/103 174/2/103 173/2/103
f 173/2/12 174/2/12 178/2/12 177/2/12
f 177/2/104 178/2/104 176/2/104 175/2/104
f 175/2/14 176/2/14 172/2/14 171/2/14
f 173/2/105 177/2/105 175/2/105 171/2/105
f 178/2/106 174/2/106 172/2/106 176/2/106
f 179/2/11 180/2/11 182/2/11 181/2/11
f 181/2/12 182/2/12 186/2/12 185/2/12
f 185/2/13 186/2/13 184/2/13 183/2/13
f 183/2/14 184/2/14 180/2/14 179/2/14
f 181/2/10 185/2/10 183/2/10 179/2/10
f 186/2/7 182/2/7 180/2/7 184/2/7
f 187/2/107 188/2/107 190/2/107 189/2/107
f 189/2/12 190/2/12 194/2/12 193/2/12
f 193/2/108 194/2/108 192/2/108 191/2/108
f 191/2/14 192/2/14 188/2/14 187/2/14
f 189/2/109 193/2/109 191/2/109 187/2/109
f 194/2/110 190/2/110 188/2/110 192/2/110
f 195/3/11 196/3/11 198/3/11 197/3/11
f 197/3/12 198/3/12 202/3/12 201/3/12
f 201/3/13 202/3/13 200/3/13 199/3/13
f 199/3/14 200/3/14 196/3/14 195/3/14
f 197/3/10 201/3/10 199/3/10 195/3/10
f 202/3/7 198/3/7 196/3/7 200/3/7
f 203/3/11 204/3/11 206/3/11 205/3/11
f 205/3/12 206/3/12 210/3/12 209/3/12
f 209/3/13 210/3/13 208/3/13 207/3/13
f 207/3/14 208/3/14 204/3/14 203/3/14
f 205/3/10 209/3/10 207/3/10 203/3/10
f 210/3/7 206/3/7 204/3/7 208/3/7
f 211/3/11 212/3/11 214/3/11 213/3/11
f 213/3/12 214/3/12 218/3/12 217/3/12
f 217/3/13 218/3/13 216/3/13 215/3/13
f 215/3/14 216/3/14 212/3/14 211/3/14
f 213/3/10 217/3/10 215/3/10 211/3/10
f 218/3/7 214/3/7 212/3/7 216/3/7
f 219/3/111 220/3/111 222/3/111 221/3/111
f 221/3/12 222/3/12 226/3/12 225/3/12
f 225/3/112 226/3/112 224/3/112 223/3/112
f 223/3/14 224/3/14 220/3/14 219/3/14
f 221/3/113 225/3/113 223/3/113 219/3/113
f 226/3/114 222/3/114 220/3/114 224/3/114
f 227/3/99 228/3/99 230/3/99 229/3/99
f 229/3/12 230/3/12 234/3/12 233/3/12
f 233/3/100 234/3/100 232/3/100 231/3/100
f 231/3/14 232/3/14 228/3/14 227/3/14
f 229/3/101 233/3/101 231/3/101 227/3/101
f 234/3/102 230/3/102 228/3/102 232/3/102
f 235/3/115 236/3/115 238/3/115 237/3/115
f 237/3/12 238/3/12 242/3/12 241/3/12
f 241/3/116 242/3/116 240/3/116 239/3/116
f 239/3/14 240/3/14 236/3/14 235/3/14
f 237/3/117 241/3/117 239/3/117 235/3/117
f 242/3/118 238/3/118 236/3/118 240/3/118
f 243/3/107 244/3/107 246/3/107 245/3/107
f 245/3/12 246/3/12 250/3/12 249/3/12
f 249/3/108 250/3/108 248/3/108 247/3/108
f 247/3/14 248/3/14 244/3/14 243/3/14
f 245/3/109 249/3/109 247/3/109 243/3/109
f 250/3/110 246/3/110 244/3/110 248/3/110
f 251/4/11 252/4/11 254/4/11 253/4/11
f 253/4/12 254/4/12 258/4/12 257/4/12
f 257/4/13 258/4/13 256/4/13 255/4/13
f 255/4/14 256/4/14 252/4/14 251/4/14
f 253/4/10 257/4/10 255/4/10 251/4/10
f 258/4/7 254/4/7 252/4/7 256/4/7
f 259/4/11 260/4/11 262/4/11 261/4/11
f 261/4/12 262/4/12 266/4/12 265/4/12
f 265/4/13 266/4/13 264/4/13 263/4/13
f 263/4/14 264/4/14 260/4/14 259/4/14
f 261/4/10 265/4/10 263/4/10 259/4/10
f 266/4/7 262/4/7 260/4/7 264/4/7
f 267/4/11 268/4/11 270/4/11 269/4/11
f 269/4/12 270/4/12 274/4/12 273/4/12
f 273/4/13 274/4/13 272/4/13 271/4/13
f 271/4/14 272/4/14 268/4/14 267/4/14
f 269/4/10 273/4/10 271/4/10 267/4/10
f 274/4/7 270/4/7 268/4/7 272/4/7
f 275/4/119 281/4/119 276/4/119
f 276/4/120 281/4/120 277/4/120
f 277/4/121 281/4/121 278/4/121
f 278/4/122 281/4/122 279/4/122
f 275/4/10 276/4/10 277/4/10 278/4/10 279/4/10 280/4/10
f 279/4/123 281/4/123 280/4/123
f 280/4/124 281/4/124 275/4/124
f 282/4/11 283/4/11 285/4/11 284/4/11
f 284/4/12 285/4/12 289/4/12 288/4/12
f 288/4/13 289/4/13 287/4/13 286/4/13
f 286/4/14 287/4/14 283/4/14 282/4/14
f 284/4/10 288/4/10 286/4/10 282/4/10
f 289/4/7 285/4/7 283/4/7 287/4/7
f 290/4/11 291/4/11 293/4/11 292/4/11
f 292/4/12 293/4/12 297/4/12 296/4/12
f 296/4/13 297/4/13 295/4/13 294/4/13
f 294/4/14 295/4/14 291/4/14 290/4/14
f 292/4/10 296/4/10 294/4/10 290/4/10
f 297/4/7 293/4/7 291/4/7 295/4/7
f 298/4/11 299/4/11 301/4/11 300/4/11
f 300/4/12 301/4/12 305/4/12 304/4/12
f 304/4/13 305/4/13 303/4/13 302/4/13
f 302/4/14 303/4/14 299/4/14 298/4/14
f 300/4/10 304/4/10 302/4/10 298/4/10
f 305/4/7 301/4/7 299/4/7 303/4/7
f 308/4/125 339/4/125 312/4/125 313/4/125
f 338/4/126 307/4/126 310/4/126 311/4/126
f 309/4/127 308/4/127 313/4/127
f 339/4/1 338/4/1 311/4/1 312/4/1
f 307/4/128 306/4/128 310/4/128
f 313/4/129 312/4/129 316/4/129 317/4/129
f 311/4/130 310/4/130 314/4/130 315/4/130
f 309/4/131 313/4/131 317/4/131
f 312/4/2 311/4/2 315/4/2 316/4/2
f 310/4/132 306/4/132 314/4/132
f 317/4/133 316/4/133 320/4/133 321/4/133
f 315/4/134 314/4/134 318/4/134 319/4/134
f 309/4/135 317/4/135 321/4/135
f 316/4/3 315/4/3 319/4/3 320/4/3
f 314/4/136 306/4/136 318/4/136
f 321/4/137 320/4/137 324/4/137 325/4/137
f 319/4/138 318/4/138 322/4/138 323/4/138
f 309/4/139 321/4/139 325/4/139
f 320/4/4 319/4/4 323/4/4 324/4/4
f 318/4/140 306/4/140 322/4/140
f 325/4/141 324/4/141 328/4/141 329/4/141
f 323/4/142 322/4/142 326/4/142 327/4/142
f 309/4/143 325/4/143 329/4/143
f 324/4/5 323/4/5 327/4/5 328/4/5
f 322/4/144 306/4/144 326/4/144
f 329/4/145 328/4/145 332/4/145 333/4/145
f 327/4/146 326/4/146 330/4/146 331/4/146
f 309/4/147 329/4/147 333/4/147
f 328/4/6 327/4/6 331/4/6 332/4/6
f 326/4/148 306/4/148 330/4/148
f 333/4/149 332/4/149 336/4/149 337/4/149
f 331/4/150 330/4/150 334/4/150 335/4/150
f 309/4/151 333/4/151 337/4/151
f 332/4/8 331/4/8 335/4/8 336/4/8
f 330/4/152 306/4/152 334/4/152
f 337/4/153 336/4/153 339/4/153 308/4/153
f 335/4/154 334/4/154 307/4/154 338/4/154
f 309/4/155 337/4/155 308/4/155
f 336/4/9 335/4/9 338/4/9 339/4/9
f 334/4/156 306/4/156 307/4/156
f 372/4/126 341/4/126 344/4/126 345/4/126
f 343/4/127 342/4/127 347/4/127
f 373/4/1 372/4/1 345/4/1 346/4/1
f 341/4/128 340/4/128 344/4/128
f 342/4/125 373/4/125 346/4/125 347/4/125
f 347/4/129 346/4/129 350/4/129 351/4/129
f 345/4/130 344/4/130 348/4/130 349/4/130
f 343/4/131 347/4/131 351/4/131
f 346/4/2 345/4/2 349/4/2 350/4/2
f 344/4/132 340/4/132 348/4/132
f 351/4/133 350/4/133 354/4/133 355/4/133
f 349/4/134 348/4/134 352/4/134 353/4/134
f 343/4/135 351/4/135 355/4/135
f 350/4/3 349/4/3 353/4/3 354/4/3
f 348/4/136 340/4/136 352/4/136
f 355/4/137 354/4/137 358/4/137 359/4/137
f 353/4/138 352/4/138 356/4/138 357/4/138
f 343/4/139 355/4/139 359/4/139
f 354/4/4 353/4/4 357/4/4 358/4/4
f 352/4/140 340/4/140 356/4/140
f 359/4/141 358/4/141 362/4/141 363/4/141
f 357/4/142 356/4/142 360/4/142 361/4/142
f 343/4/143 359/4/143 363/4/143
f 358/4/5 357/4/5 361/4/5 362/4/5
f 356/4/144 340/4/144 360/4/144
f 363/4/145 362/4/145 366/4/145 367/4/145
f 361/4/146 360/4/146 364/4/146 365/4/146
f 343/4/147 363/4/147 367/4/147
f 362/4/6 361/4/6 365/4/6 366/4/6
f 360/4/148 340/4/148 364/4/148
f 367/4/149 366/4/149 370/4/149 371/4/149
f 365/4/150 364/4/150 368/4/150 369/4/150
f 343/4/151 367/4/151 371/4/151
f 366/4/8 365/4/8 369/4/8 370/4/8
f 364/4/152 340/4/152 368/4/152
f 371/4/153 370/4/153 373/4/153 342/4/153
f 369/4/154 368/4/154 341/4/154 372/4/154
f 343/4/155 371/4/155 342/4/155
f 370/4/9 369/4/9 372/4/9 373/4/9
f 368/4/156 340/4/156 341/4/156
f 407/4/1 406/4/1 379/4/1 380/4/1
f 375/4/128 374/4/128 378/4/128
f 376/4/125 407/4/125 380/4/125 381/4/125
f 406/4/126 375/4/126 378/4/126 379/4/126
f 377/4/127 376/4/127 381/4/127
f 377/4/131 381/4/131 385/4/131
f 380/4/2 379/4/2 383/4/2 384/4/2
f 378/4/132 374/4/132 382/4/132
f 381/4/129 380/4/129 384/4/129 385/4/129
f 379/4/130 378/4/130 382/4/130 383/4/130
f 377/4/135 385/4/135 389/4/135
f 384/4/3 383/4/3 387/4/3 388/4/3
f 382/4/136 374/4/136 386/4/136
f 385/4/133 384/4/133 388/4/133 389/4/133
f 383/4/134 382/4/134 386/4/134 387/4/134
f 377/4/139 389/4/139 393/4/139
f 388/4/4 387/4/4 391/4/4 392/4/4
f 386/4/140 374/4/140 390/4/140
f 389/4/137 388/4/137 392/4/137 393/4/137
f 387/4/138 386/4/138 390/4/138 391/4/138
f 377/4/143 393/4/143 397/4/143
f 392/4/5 391/4/5 395/4/5 396/4/5
f 390/4/144 374/4/144 394/4/144
f 393/4/141 392/4/141 396/4/141 397/4/141
f 391/4/142 390/4/142 394/4/142 395/4/142
f 377/4/147 397/4/147 401/4/147
f 396/4/6 395/4/6 399/4/6 400/4/6
f 394/4/148 374/4/148 398/4/148
f 397/4/145 396/4/145 400/4/145 401/4/145
f 395/4/146 394/4/146 398/4/146 399/4/146
f 377/4/151 401/4/151 405/4/151
f 400/4/8 399/4/8 403/4/8 404/4/8
f 398/4/152 374/4/152 402/4/152
f 401/4/149 400/4/149 404/4/149 405/4/149
f 399/4/150 398/4/150 402/4/150 403/4/150
f 377/4/155 405/4/155 376/4/155
f 404/4/9 403/4/9 406/4/9 407/4/9
f 402/4/156 374/4/156 375/4/156
f 405/4/153 404/4/153 407/4/153 376/4/153
f 403/4/154 402/4/154 375/4/154 406/4/154
