# Blender 5.2.0 LTS
# www.blender.org
mtllib aldrich_court_banner.mtl
o aldrich_court_banner
v 0.000000 0.000000 -0.055000
v 0.000000 2.860000 -0.055000
v 0.038891 0.000000 -0.038891
v 0.038891 2.860000 -0.038891
v 0.055000 0.000000 0.000000
v 0.055000 2.860000 0.000000
v 0.038891 0.000000 0.038891
v 0.038891 2.860000 0.038891
v 0.000000 0.000000 0.055000
v 0.000000 2.860000 0.055000
v -0.038891 0.000000 0.038891
v -0.038891 2.860000 0.038891
v -0.055000 0.000000 0.000000
v -0.055000 2.860000 0.000000
v -0.038891 0.000000 -0.038891
v -0.038891 2.860000 -0.038891
v -0.210000 0.000000 0.210000
v -0.210000 0.120000 0.210000
v -0.210000 0.000000 -0.210000
v -0.210000 0.120000 -0.210000
v 0.210000 0.000000 0.210000
v 0.210000 0.120000 0.210000
v 0.210000 0.000000 -0.210000
v 0.210000 0.120000 -0.210000
v -0.440000 2.620001 -0.040000
v 0.440000 2.619998 -0.040000
v -0.440000 2.585361 -0.020000
v 0.440000 2.585357 -0.020000
v -0.440000 2.585361 0.020000
v 0.440000 2.585357 0.020000
v -0.440000 2.620001 0.040000
v 0.440000 2.619998 0.040000
v -0.440000 2.654643 0.020000
v 0.440000 2.654639 0.020000
v -0.440000 2.654643 -0.020000
v 0.440000 2.654639 -0.020000
v -0.400000 0.910000 -0.035000
v -0.400000 2.530000 -0.035000
v -0.400000 0.910000 -0.085000
v -0.400000 2.530000 -0.085000
v 0.400000 0.910000 -0.035000
v 0.400000 2.530000 -0.035000
v 0.400000 0.910000 -0.085000
v 0.400000 2.530000 -0.085000
v -0.410000 0.630000 -0.035000
v -0.410000 0.930000 -0.035000
v -0.410000 0.630000 -0.085000
v -0.410000 0.930000 -0.085000
v -0.150000 0.630000 -0.035000
v -0.150000 0.930000 -0.035000
v -0.150000 0.630000 -0.085000
v -0.150000 0.930000 -0.085000
v -0.130000 0.630000 -0.035000
v -0.130000 0.930000 -0.035000
v -0.130000 0.630000 -0.085000
v -0.130000 0.930000 -0.085000
v 0.130000 0.630000 -0.035000
v 0.130000 0.930000 -0.035000
v 0.130000 0.630000 -0.085000
v 0.130000 0.930000 -0.085000
v 0.150000 0.630000 -0.035000
v 0.150000 0.930000 -0.035000
v 0.150000 0.630000 -0.085000
v 0.150000 0.930000 -0.085000
v 0.410000 0.630000 -0.035000
v 0.410000 0.930000 -0.035000
v 0.410000 0.630000 -0.085000
v 0.410000 0.930000 -0.085000
v -0.330476 1.935789 -0.075000
v -0.279658 2.010069 -0.075000
v -0.330476 1.935789 -0.105000
v -0.279658 2.010069 -0.105000
v 0.000000 1.709932 -0.075000
v 0.050476 1.784212 -0.075000
v 0.000000 1.709932 -0.105000
v 0.050476 1.784212 -0.105000
v -0.050476 1.784212 -0.075000
v -0.050476 1.784212 -0.105000
v 0.330476 1.935789 -0.075000
v 0.279658 2.010069 -0.075000
v 0.330476 1.935789 -0.105000
v 0.279658 2.010069 -0.105000
v 0.000000 1.670000 -0.090000
v 0.000000 1.655263 -0.145000
v 0.000000 1.615000 -0.185263
v 0.000000 1.560000 -0.200000
v 0.000000 1.505000 -0.185263
v 0.000000 1.464737 -0.145000
v 0.000000 1.450000 -0.090000
v 0.038891 1.655263 -0.128891
v 0.067361 1.615000 -0.157361
v 0.077782 1.560000 -0.167782
v 0.067361 1.505000 -0.157361
v 0.038891 1.464737 -0.128891
v 0.055000 1.655263 -0.090000
v 0.095263 1.615000 -0.090000
v 0.110000 1.560000 -0.090000
v 0.095263 1.505000 -0.090000
v 0.055000 1.464737 -0.090000
v 0.038891 1.655263 -0.051109
v 0.067361 1.615000 -0.022639
v 0.077782 1.560000 -0.012218
v 0.067361 1.505000 -0.022639
v 0.038891 1.464737 -0.051109
v 0.000000 1.655263 -0.035000
v 0.000000 1.615000 0.005263
v 0.000000 1.560000 0.020000
v 0.000000 1.505000 0.005263
v 0.000000 1.464737 -0.035000
v -0.038891 1.655263 -0.051109
v -0.067361 1.615000 -0.022639
v -0.077782 1.560000 -0.012218
v -0.067361 1.505000 -0.022639
v -0.038891 1.464737 -0.051109
v -0.055000 1.655263 -0.090000
v -0.095263 1.615000 -0.090000
v -0.110000 1.560000 -0.090000
v -0.095263 1.505000 -0.090000
v -0.055000 1.464737 -0.090000
v -0.038891 1.655263 -0.128891
v -0.067361 1.615000 -0.157361
v -0.077782 1.560000 -0.167782
v -0.067361 1.505000 -0.157361
v -0.038891 1.464737 -0.128891
v 0.000000 2.985000 0.000000
v 0.000000 2.815000 0.000000
v 0.021678 2.976583 -0.029837
v 0.039062 2.952997 -0.053764
v 0.048709 2.918914 -0.067042
v 0.048709 2.881086 -0.067042
v 0.039062 2.847003 -0.053764
v 0.021678 2.823418 -0.029837
v 0.035075 2.976583 -0.011397
v 0.063203 2.952997 -0.020536
v 0.078813 2.918914 -0.025608
v 0.078813 2.881086 -0.025608
v 0.063203 2.847003 -0.020536
v 0.035075 2.823418 -0.011397
v 0.035075 2.976583 0.011397
v 0.063203 2.952997 0.020536
v 0.078813 2.918914 0.025608
v 0.078813 2.881086 0.025608
v 0.063203 2.847003 0.020536
v 0.035075 2.823418 0.011397
v 0.021678 2.976583 0.029837
v 0.039062 2.952997 0.053764
v 0.048709 2.918914 0.067042
v 0.048709 2.881086 0.067042
v 0.039062 2.847003 0.053764
v 0.021678 2.823418 0.029837
v 0.000000 2.976583 0.036880
v 0.000000 2.952997 0.066456
v 0.000000 2.918914 0.082869
v 0.000000 2.881086 0.082869
v 0.000000 2.847003 0.066456
v 0.000000 2.823418 0.036880
v -0.021678 2.976583 0.029837
v -0.039062 2.952997 0.053764
v -0.048709 2.918914 0.067042
v -0.048709 2.881086 0.067042
v -0.039062 2.847003 0.053764
v -0.021678 2.823418 0.029837
v -0.035075 2.976583 0.011397
v -0.063203 2.952997 0.020536
v -0.078813 2.918914 0.025608
v -0.078813 2.881086 0.025608
v -0.063203 2.847003 0.020536
v -0.035075 2.823418 0.011397
v -0.035075 2.976583 -0.011397
v -0.063203 2.952997 -0.020536
v -0.078813 2.918914 -0.025608
v -0.078813 2.881086 -0.025608
v -0.063203 2.847003 -0.020536
v -0.035075 2.823418 -0.011397
v -0.021678 2.976583 -0.029837
v -0.039062 2.952997 -0.053764
v -0.048709 2.918914 -0.067042
v -0.048709 2.881086 -0.067042
v -0.039062 2.847003 -0.053764
v -0.021678 2.823418 -0.029837
v -0.000000 2.976583 -0.036880
v -0.000000 2.952997 -0.066456
v -0.000000 2.918914 -0.082869
v -0.000000 2.881086 -0.082869
v -0.000000 2.847003 -0.066456
v -0.000000 2.823418 -0.036880
v -0.430000 2.670000 0.000000
v -0.430000 2.660451 -0.029389
v -0.430000 2.579549 -0.029389
v -0.430000 2.570000 0.000000
v -0.409219 2.660451 -0.020781
v -0.396375 2.635451 -0.033625
v -0.396375 2.604549 -0.033625
v -0.409219 2.579549 -0.020781
v -0.400611 2.660451 0.000000
v -0.382447 2.635451 0.000000
v -0.382447 2.604549 0.000000
v -0.400611 2.579549 0.000000
v -0.409219 2.660451 0.020781
v -0.396375 2.635451 0.033625
v -0.396375 2.604549 0.033625
v -0.409219 2.579549 0.020781
v -0.430000 2.660451 0.029389
v -0.430000 2.635451 0.047553
v -0.430000 2.604549 0.047553
v -0.430000 2.579549 0.029389
v -0.450781 2.660451 0.020781
v -0.463625 2.635451 0.033625
v -0.463625 2.604549 0.033625
v -0.450781 2.579549 0.020781
v -0.459389 2.660451 0.000000
v -0.477553 2.635451 0.000000
v -0.477553 2.604549 0.000000
v -0.459389 2.579549 0.000000
v -0.450781 2.660451 -0.020781
v -0.463625 2.635451 -0.033625
v -0.463625 2.604549 -0.033625
v -0.450781 2.579549 -0.020781
v -0.430000 2.635451 -0.047553
v -0.430000 2.604549 -0.047553
v 0.430000 2.670000 0.000000
v 0.430000 2.660451 -0.029389
v 0.430000 2.579549 -0.029389
v 0.430000 2.570000 0.000000
v 0.450781 2.660451 -0.020781
v 0.463625 2.635451 -0.033625
v 0.463625 2.604549 -0.033625
v 0.450781 2.579549 -0.020781
v 0.459389 2.660451 0.000000
v 0.477553 2.635451 0.000000
v 0.477553 2.604549 0.000000
v 0.459389 2.579549 0.000000
v 0.450781 2.660451 0.020781
v 0.463625 2.635451 0.033625
v 0.463625 2.604549 0.033625
v 0.450781 2.579549 0.020781
v 0.430000 2.660451 0.029389
v 0.430000 2.635451 0.047553
v 0.430000 2.604549 0.047553
v 0.430000 2.579549 0.029389
v 0.409219 2.660451 0.020781
v 0.396375 2.635451 0.033625
v 0.396375 2.604549 0.033625
v 0.409219 2.579549 0.020781
v 0.400611 2.660451 0.000000
v 0.382447 2.635451 0.000000
v 0.382447 2.604549 0.000000
v 0.400611 2.579549 0.000000
v 0.409219 2.660451 -0.020781
v 0.396375 2.635451 -0.033625
v 0.396375 2.604549 -0.033625
v 0.409219 2.579549 -0.020781
v 0.430000 2.635451 -0.047553
v 0.430000 2.604549 -0.047553
vn 0.3827 -0.0000 -0.9239
vn 0.9239 -0.0000 -0.3827
vn 0.9239 -0.0000 0.3827
vn 0.3827 -0.0000 0.9239
vn -0.3827 -0.0000 0.9239
vn -0.9239 -0.0000 0.3827
vn -0.0000 1.0000 -0.0000
vn -0.9239 -0.0000 -0.3827
vn -0.3827 -0.0000 -0.9239
vn -0.0000 -1.0000 -0.0000
vn -1.0000 -0.0000 -0.0000
vn -0.0000 -0.0000 -1.0000
vn 1.0000 -0.0000 -0.0000
vn -0.0000 -0.0000 1.0000
vn -0.0000 -0.5000 -0.8660
vn -0.0000 -0.5000 0.8660
vn -0.0000 0.5000 0.8660
vn -0.0000 0.5000 -0.8660
vn -0.8253 0.5646 -0.0000
vn 0.8271 -0.5620 -0.0000
vn -0.5642 -0.8256 -0.0000
vn 0.5646 0.8253 -0.0000
vn -0.8271 -0.5620 -0.0000
vn 0.8253 0.5646 -0.0000
vn 0.5642 -0.8256 -0.0000
vn -0.5646 0.8253 -0.0000
vn 0.2811 -0.6786 -0.6786
vn 0.3715 0.2403 -0.8968
vn 0.1066 0.9604 -0.2573
vn 0.1066 -0.9604 -0.2573
vn 0.3715 -0.2403 -0.8968
vn 0.2811 0.6786 -0.6786
vn 0.8968 0.2403 -0.3715
vn 0.2573 0.9604 -0.1066
vn 0.2573 -0.9604 -0.1066
vn 0.8968 -0.2403 -0.3715
vn 0.6786 0.6786 -0.2811
vn 0.6786 -0.6786 -0.2811
vn 0.2573 0.9604 0.1066
vn 0.2573 -0.9604 0.1066
vn 0.8968 -0.2403 0.3715
vn 0.6786 0.6786 0.2811
vn 0.6786 -0.6786 0.2811
vn 0.8968 0.2403 0.3715
vn 0.1066 -0.9604 0.2573
vn 0.3715 -0.2403 0.8968
vn 0.2811 0.6786 0.6786
vn 0.2811 -0.6786 0.6786
vn 0.3715 0.2403 0.8968
vn 0.1066 0.9604 0.2573
vn -0.1066 -0.9604 0.2573
vn -0.3715 -0.2403 0.8968
vn -0.2811 0.6786 0.6786
vn -0.2811 -0.6786 0.6786
vn -0.3715 0.2403 0.8968
vn -0.1066 0.9604 0.2573
vn -0.2573 -0.9604 0.1066
vn -0.8968 -0.2403 0.3715
vn -0.6786 0.6786 0.2811
vn -0.6786 -0.6786 0.2811
vn -0.8968 0.2403 0.3715
vn -0.2573 0.9604 0.1066
vn -0.8968 -0.2403 -0.3715
vn -0.6786 0.6786 -0.2811
vn -0.6786 -0.6786 -0.2811
vn -0.8968 0.2403 -0.3715
vn -0.2573 0.9604 -0.1066
vn -0.2573 -0.9604 -0.1066
vn -0.2811 0.6786 -0.6786
vn -0.2811 -0.6786 -0.6786
vn -0.3715 0.2403 -0.8968
vn -0.1066 0.9604 -0.2573
vn -0.1066 -0.9604 -0.2573
vn -0.3715 -0.2403 -0.8968
vn 0.1985 0.7663 -0.6111
vn 0.0721 -0.9724 -0.2219
vn 0.2810 -0.4164 -0.8647
vn 0.2810 0.4164 -0.8647
vn 0.0721 0.9724 -0.2219
vn 0.1985 -0.7663 -0.6111
vn 0.3090 -0.0000 -0.9511
vn 0.5198 -0.7663 -0.3777
vn 0.8090 -0.0000 -0.5878
vn 0.5198 0.7663 -0.3777
vn 0.1888 -0.9724 -0.1372
vn 0.7355 -0.4164 -0.5344
vn 0.7355 0.4164 -0.5344
vn 0.1888 0.9724 -0.1372
vn 0.6425 0.7663 -0.0000
vn 0.2334 -0.9724 -0.0000
vn 0.9092 -0.4164 -0.0000
vn 0.9092 0.4164 -0.0000
vn 0.2334 0.9724 -0.0000
vn 0.6425 -0.7663 -0.0000
vn 0.1888 -0.9724 0.1372
vn 0.7355 -0.4164 0.5344
vn 0.7355 0.4164 0.5344
vn 0.1888 0.9724 0.1372
vn 0.5198 -0.7663 0.3777
vn 0.8090 -0.0000 0.5878
vn 0.5198 0.7663 0.3777
vn 0.2810 -0.4164 0.8647
vn 0.2810 0.4164 0.8647
vn 0.0721 0.9724 0.2219
vn 0.1985 -0.7663 0.6111
vn 0.3090 -0.0000 0.9511
vn 0.1985 0.7663 0.6111
vn 0.0721 -0.9724 0.2219
vn -0.0721 0.9724 0.2219
vn -0.1986 -0.7663 0.6111
vn -0.3090 -0.0000 0.9511
vn -0.1985 0.7663 0.6111
vn -0.0721 -0.9724 0.2219
vn -0.2810 -0.4164 0.8647
vn -0.2810 0.4164 0.8647
vn -0.5198 -0.7663 0.3777
vn -0.8090 -0.0000 0.5878
vn -0.5198 0.7663 0.3777
vn -0.1888 -0.9724 0.1372
vn -0.7355 -0.4164 0.5344
vn -0.7355 0.4164 0.5344
vn -0.1888 0.9724 0.1372
vn -0.6425 0.7663 -0.0000
vn -0.2334 -0.9724 -0.0000
vn -0.9092 -0.4164 -0.0000
vn -0.9092 0.4164 -0.0000
vn -0.2334 0.9724 -0.0000
vn -0.6425 -0.7663 -0.0000
vn -0.1888 -0.9724 -0.1372
vn -0.7355 -0.4164 -0.5344
vn -0.7355 0.4164 -0.5344
vn -0.1888 0.9724 -0.1372
vn -0.5198 -0.7663 -0.3777
vn -0.8090 -0.0000 -0.5878
vn -0.5198 0.7663 -0.3777
vn -0.0721 -0.9724 -0.2219
vn -0.2810 -0.4164 -0.8647
vn -0.2809 0.4164 -0.8647
vn -0.0721 0.9724 -0.2219
vn -0.1985 -0.7663 -0.6111
vn -0.3090 -0.0000 -0.9511
vn -0.1985 0.7663 -0.6111
vn 0.1270 0.9434 -0.3065
vn 0.3177 -0.5573 -0.7671
vn 0.3177 0.5573 -0.7671
vn 0.1270 -0.9434 -0.3065
vn 0.3065 -0.9434 -0.1270
vn 0.3065 0.9434 -0.1270
vn 0.7671 -0.5573 -0.3177
vn 0.7671 0.5573 -0.3177
vn 0.3065 -0.9434 0.1270
vn 0.3065 0.9434 0.1270
vn 0.7671 -0.5573 0.3177
vn 0.7671 0.5573 0.3177
vn 0.1270 -0.9434 0.3065
vn 0.1270 0.9434 0.3065
vn 0.3177 -0.5573 0.7671
vn 0.3177 0.5573 0.7671
vn -0.1270 -0.9434 0.3065
vn -0.1270 0.9434 0.3065
vn -0.3177 -0.5573 0.7671
vn -0.3177 0.5573 0.7671
vn -0.3065 -0.9434 0.1270
vn -0.3065 0.9434 0.1270
vn -0.7671 -0.5573 0.3177
vn -0.7671 0.5573 0.3177
vn -0.3065 -0.9434 -0.1270
vn -0.3065 0.9434 -0.1270
vn -0.7671 -0.5573 -0.3177
vn -0.7671 0.5573 -0.3177
vn -0.1270 -0.9434 -0.3065
vn -0.1270 0.9434 -0.3065
vn -0.3177 -0.5573 -0.7671
vn -0.3177 0.5573 -0.7671
vt 0.250000 0.250000
vt 0.750000 0.250000
vt 0.250000 0.750000
s 0
usemtl slot0
f 1/1/1 2/1/1 4/1/1 3/1/1
f 3/1/2 4/1/2 6/1/2 5/1/2
f 5/1/3 6/1/3 8/1/3 7/1/3
f 7/1/4 8/1/4 10/1/4 9/1/4
f 9/1/5 10/1/5 12/1/5 11/1/5
f 11/1/6 12/1/6 14/1/6 13/1/6
f 4/1/7 2/1/7 16/1/7 14/1/7 12/1/7 10/1/7 8/1/7 6/1/7
f 13/1/8 14/1/8 16/1/8 15/1/8
f 15/1/9 16/1/9 2/1/9 1/1/9
f 1/1/10 3/1/10 5/1/10 7/1/10 9/1/10 11/1/10 13/1/10 15/1/10
f 17/1/11 18/1/11 20/1/11 19/1/11
f 19/1/12 20/1/12 24/1/12 23/1/12
f 23/1/13 24/1/13 22/1/13 21/1/13
f 21/1/14 22/1/14 18/1/14 17/1/14
f 19/1/10 23/1/10 21/1/10 17/1/10
f 24/1/7 20/1/7 18/1/7 22/1/7
f 25/1/15 26/1/15 28/1/15 27/1/15
f 27/1/10 28/1/10 30/1/10 29/1/10
f 29/1/16 30/1/16 32/1/16 31/1/16
f 31/1/17 32/1/17 34/1/17 33/1/17
f 28/1/13 26/1/13 36/1/13 34/1/13 32/1/13 30/1/13
f 33/1/7 34/1/7 36/1/7 35/1/7
f 35/1/18 36/1/18 26/1/18 25/1/18
f 25/1/11 27/1/11 29/1/11 31/1/11 33/1/11 35/1/11
f 37/2/11 38/2/11 40/2/11 39/2/11
f 39/2/12 40/2/12 44/2/12 43/2/12
f 43/2/13 44/2/13 42/2/13 41/2/13
f 41/2/14 42/2/14 38/2/14 37/2/14
f 39/2/10 43/2/10 41/2/10 37/2/10
f 44/2/7 40/2/7 38/2/7 42/2/7
f 45/2/11 46/2/11 48/2/11 47/2/11
f 47/2/12 48/2/12 52/2/12 51/2/12
f 51/2/13 52/2/13 50/2/13 49/2/13
f 49/2/14 50/2/14 46/2/14 45/2/14
f 47/2/10 51/2/10 49/2/10 45/2/10
f 52/2/7 48/2/7 46/2/7 50/2/7
f 53/2/11 54/2/11 56/2/11 55/2/11
f 55/2/12 56/2/12 60/2/12 59/2/12
f 59/2/13 60/2/13 58/2/13 57/2/13
f 57/2/14 58/2/14 54/2/14 53/2/14
f 55/2/10 59/2/10 57/2/10 53/2/10
f 60/2/7 56/2/7 54/2/7 58/2/7
f 61/2/11 62/2/11 64/2/11 63/2/11
f 63/2/12 64/2/12 68/2/12 67/2/12
f 67/2/13 68/2/13 66/2/13 65/2/13
f 65/2/14 66/2/14 62/2/14 61/2/14
f 63/2/10 67/2/10 65/2/10 61/2/10
f 68/2/7 64/2/7 62/2/7 66/2/7
f 69/2/19 70/2/19 72/2/19 71/2/19
f 71/2/12 72/2/12 76/2/12 75/2/12
f 75/2/20 76/2/20 74/2/20 73/2/20
f 73/2/14 74/2/14 70/2/14 69/2/14
f 71/2/21 75/2/21 73/2/21 69/2/21
f 76/2/22 72/2/22 70/2/22 74/2/22
f 73/2/23 77/2/23 78/2/23 75/2/23
f 75/2/12 78/2/12 82/2/12 81/2/12
f 81/2/24 82/2/24 80/2/24 79/2/24
f 79/2/14 80/2/14 77/2/14 73/2/14
f 75/2/25 81/2/25 79/2/25 73/2/25
f 82/2/26 78/2/26 77/2/26 80/2/26
f 88/2/27 87/2/27 93/2/27 94/2/27
f 86/2/28 85/2/28 91/2/28 92/2/28
f 84/2/29 83/2/29 90/2/29
f 89/2/30 88/2/30 94/2/30
f 87/2/31 86/2/31 92/2/31 93/2/31
f 85/2/32 84/2/32 90/2/32 91/2/32
f 92/2/33 91/2/33 96/2/33 97/2/33
f 90/2/34 83/2/34 95/2/34
f 89/2/35 94/2/35 99/2/35
f 93/2/36 92/2/36 97/2/36 98/2/36
f 91/2/37 90/2/37 95/2/37 96/2/37
f 94/2/38 93/2/38 98/2/38 99/2/38
f 95/2/39 83/2/39 100/2/39
f 89/2/40 99/2/40 104/2/40
f 98/2/41 97/2/41 102/2/41 103/2/41
f 96/2/42 95/2/42 100/2/42 101/2/42
f 99/2/43 98/2/43 103/2/43 104/2/43
f 97/2/44 96/2/44 101/2/44 102/2/44
f 89/2/45 104/2/45 109/2/45
f 103/2/46 102/2/46 107/2/46 108/2/46
f 101/2/47 100/2/47 105/2/47 106/2/47
f 104/2/48 103/2/48 108/2/48 109/2/48
f 102/2/49 101/2/49 106/2/49 107/2/49
f 100/2/50 83/2/50 105/2/50
f 89/2/51 109/2/51 114/2/51
f 108/2/52 107/2/52 112/2/52 113/2/52
f 106/2/53 105/2/53 110/2/53 111/2/53
f 109/2/54 108/2/54 113/2/54 114/2/54
f 107/2/55 106/2/55 111/2/55 112/2/55
f 105/2/56 83/2/56 110/2/56
f 89/2/57 114/2/57 119/2/57
f 113/2/58 112/2/58 117/2/58 118/2/58
f 111/2/59 110/2/59 115/2/59 116/2/59
f 114/2/60 113/2/60 118/2/60 119/2/60
f 112/2/61 111/2/61 116/2/61 117/2/61
f 110/2/62 83/2/62 115/2/62
f 118/2/63 117/2/63 122/2/63 123/2/63
f 116/2/64 115/2/64 120/2/64 121/2/64
f 119/2/65 118/2/65 123/2/65 124/2/65
f 117/2/66 116/2/66 121/2/66 122/2/66
f 115/2/67 83/2/67 120/2/67
f 89/2/68 119/2/68 124/2/68
f 121/2/69 120/2/69 84/2/69 85/2/69
f 124/2/70 123/2/70 87/2/70 88/2/70
f 122/2/71 121/2/71 85/2/71 86/2/71
f 120/2/72 83/2/72 84/2/72
f 89/2/73 124/2/73 88/2/73
f 123/2/74 122/2/74 86/2/74 87/2/74
f 182/3/75 181/3/75 127/3/75 128/3/75
f 126/3/76 186/3/76 132/3/76
f 185/3/77 184/3/77 130/3/77 131/3/77
f 183/3/78 182/3/78 128/3/78 129/3/78
f 181/3/79 125/3/79 127/3/79
f 186/3/80 185/3/80 131/3/80 132/3/80
f 184/3/81 183/3/81 129/3/81 130/3/81
f 132/3/82 131/3/82 137/3/82 138/3/82
f 130/3/83 129/3/83 135/3/83 136/3/83
f 128/3/84 127/3/84 133/3/84 134/3/84
f 126/3/85 132/3/85 138/3/85
f 131/3/86 130/3/86 136/3/86 137/3/86
f 129/3/87 128/3/87 134/3/87 135/3/87
f 127/3/88 125/3/88 133/3/88
f 134/3/89 133/3/89 139/3/89 140/3/89
f 126/3/90 138/3/90 144/3/90
f 137/3/91 136/3/91 142/3/91 143/3/91
f 135/3/92 134/3/92 140/3/92 141/3/92
f 133/3/93 125/3/93 139/3/93
f 138/3/94 137/3/94 143/3/94 144/3/94
f 136/3/13 135/3/13 141/3/13 142/3/13
f 126/3/95 144/3/95 150/3/95
f 143/3/96 142/3/96 148/3/96 149/3/96
f 141/3/97 140/3/97 146/3/97 147/3/97
f 139/3/98 125/3/98 145/3/98
f 144/3/99 143/3/99 149/3/99 150/3/99
f 142/3/100 141/3/100 147/3/100 148/3/100
f 140/3/101 139/3/101 145/3/101 146/3/101
f 149/3/102 148/3/102 154/3/102 155/3/102
f 147/3/103 146/3/103 152/3/103 153/3/103
f 145/3/104 125/3/104 151/3/104
f 150/3/105 149/3/105 155/3/105 156/3/105
f 148/3/106 147/3/106 153/3/106 154/3/106
f 146/3/107 145/3/107 151/3/107 152/3/107
f 126/3/108 150/3/108 156/3/108
f 151/3/109 125/3/109 157/3/109
f 156/3/110 155/3/110 161/3/110 162/3/110
f 154/3/111 153/3/111 159/3/111 160/3/111
f 152/3/112 151/3/112 157/3/112 158/3/112
f 126/3/113 156/3/113 162/3/113
f 155/3/114 154/3/114 160/3/114 161/3/114
f 153/3/115 152/3/115 158/3/115 159/3/115
f 162/3/116 161/3/116 167/3/116 168/3/116
f 160/3/117 159/3/117 165/3/117 166/3/117
f 158/3/118 157/3/118 163/3/118 164/3/118
f 126/3/119 162/3/119 168/3/119
f 161/3/120 160/3/120 166/3/120 167/3/120
f 159/3/121 158/3/121 164/3/121 165/3/121
f 157/3/122 125/3/122 163/3/122
f 166/3/11 165/3/11 171/3/11 172/3/11
f 164/3/123 163/3/123 169/3/123 170/3/123
f 126/3/124 168/3/124 174/3/124
f 167/3/125 166/3/125 172/3/125 173/3/125
f 165/3/126 164/3/126 170/3/126 171/3/126
f 163/3/127 125/3/127 169/3/127
f 168/3/128 167/3/128 173/3/128 174/3/128
f 126/3/129 174/3/129 180/3/129
f 173/3/130 172/3/130 178/3/130 179/3/130
f 171/3/131 170/3/131 176/3/131 177/3/131
f 169/3/132 125/3/132 175/3/132
f 174/3/133 173/3/133 179/3/133 180/3/133
f 172/3/134 171/3/134 177/3/134 178/3/134
f 170/3/135 169/3/135 175/3/135 176/3/135
f 126/3/136 180/3/136 186/3/136
f 179/3/137 178/3/137 184/3/137 185/3/137
f 177/3/138 176/3/138 182/3/138 183/3/138
f 175/3/139 125/3/139 181/3/139
f 180/3/140 179/3/140 185/3/140 186/3/140
f 178/3/141 177/3/141 183/3/141 184/3/141
f 176/3/142 175/3/142 181/3/142 182/3/142
f 220/3/1 219/3/1 192/3/1 193/3/1
f 188/3/143 187/3/143 191/3/143
f 189/3/144 220/3/144 193/3/144 194/3/144
f 219/3/145 188/3/145 191/3/145 192/3/145
f 190/3/146 189/3/146 194/3/146
f 190/3/147 194/3/147 198/3/147
f 193/3/2 192/3/2 196/3/2 197/3/2
f 191/3/148 187/3/148 195/3/148
f 194/3/149 193/3/149 197/3/149 198/3/149
f 192/3/150 191/3/150 195/3/150 196/3/150
f 190/3/151 198/3/151 202/3/151
f 197/3/3 196/3/3 200/3/3 201/3/3
f 195/3/152 187/3/152 199/3/152
f 198/3/153 197/3/153 201/3/153 202/3/153
f 196/3/154 195/3/154 199/3/154 200/3/154
f 190/3/155 202/3/155 206/3/155
f 201/3/4 200/3/4 204/3/4 205/3/4
f 199/3/156 187/3/156 203/3/156
f 202/3/157 201/3/157 205/3/157 206/3/157
f 200/3/158 199/3/158 203/3/158 204/3/158
f 190/3/159 206/3/159 210/3/159
f 205/3/5 204/3/5 208/3/5 209/3/5
f 203/3/160 187/3/160 207/3/160
f 206/3/161 205/3/161 209/3/161 210/3/161
f 204/3/162 203/3/162 207/3/162 208/3/162
f 190/3/163 210/3/163 214/3/163
f 209/3/6 208/3/6 212/3/6 213/3/6
f 207/3/164 187/3/164 211/3/164
f 210/3/165 209/3/165 213/3/165 214/3/165
f 208/3/166 207/3/166 211/3/166 212/3/166
f 190/3/167 214/3/167 218/3/167
f 213/3/8 212/3/8 216/3/8 217/3/8
f 211/3/168 187/3/168 215/3/168
f 214/3/169 213/3/169 217/3/169 218/3/169
f 212/3/170 211/3/170 215/3/170 216/3/170
f 190/3/171 218/3/171 189/3/171
f 217/3/9 216/3/9 219/3/9 220/3/9
f 215/3/172 187/3/172 188/3/172
f 218/3/173 217/3/173 220/3/173 189/3/173
f 216/3/174 215/3/174 188/3/174 219/3/174
f 224/3/146 223/3/146 228/3/146
f 254/3/1 253/3/1 226/3/1 227/3/1
f 222/3/143 221/3/143 225/3/143
f 223/3/144 254/3/144 227/3/144 228/3/144
f 253/3/145 222/3/145 225/3/145 226/3/145
f 226/3/150 225/3/150 229/3/150 230/3/150
f 224/3/147 228/3/147 232/3/147
f 227/3/2 226/3/2 230/3/2 231/3/2
f 225/3/148 221/3/148 229/3/148
f 228/3/149 227/3/149 231/3/149 232/3/149
f 230/3/154 229/3/154 233/3/154 234/3/154
f 224/3/151 232/3/151 236/3/151
f 231/3/3 230/3/3 234/3/3 235/3/3
f 229/3/152 221/3/152 233/3/152
f 232/3/153 231/3/153 235/3/153 236/3/153
f 234/3/158 233/3/158 237/3/158 238/3/158
f 224/3/155 236/3/155 240/3/155
f 235/3/4 234/3/4 238/3/4 239/3/4
f 233/3/156 221/3/156 237/3/156
f 236/3/157 235/3/157 239/3/157 240/3/157
f 238/3/162 237/3/162 241/3/162 242/3/162
f 224/3/159 240/3/159 244/3/159
f 239/3/5 238/3/5 242/3/5 243/3/5
f 237/3/160 221/3/160 241/3/160
f 240/3/161 239/3/161 243/3/161 244/3/161
f 242/3/166 241/3/166 245/3/166 246/3/166
f 224/3/163 244/3/163 248/3/163
f 243/3/6 242/3/6 246/3/6 247/3/6
f 241/3/164 221/3/164 245/3/164
f 244/3/165 243/3/165 247/3/165 248/3/165
f 246/3/170 245/3/170 249/3/170 250/3/170
f 224/3/167 248/3/167 252/3/167
f 247/3/8 246/3/8 250/3/8 251/3/8
f 245/3/168 221/3/168 249/3/168
f 248/3/169 247/3/169 251/3/169 252/3/169
f 250/3/174 249/3/174 222/3/174 253/3/174
f 224/3/171 252/3/171 223/3/171
f 251/3/9 250/3/9 253/3/9 254/3/9
f 249/3/172 221/3/172 222/3/172
f 252/3/173 251/3/173 254/3/173 223/3/173
