# Blender 5.2.0 LTS
# www.blender.org
mtllib aldrich_impaled_stake.mtl
o aldrich_impaled_stake
v 0.000000 0.000000 -0.120000
v 0.000000 2.360000 -0.120000
v 0.063640 0.000000 -0.093640
v 0.063640 2.360000 -0.093640
v 0.090000 0.000000 -0.030000
v 0.090000 2.360000 -0.030000
v 0.063640 0.000000 0.033640
v 0.063640 2.360000 0.033640
v 0.000000 0.000000 0.060000
v 0.000000 2.360000 0.060000
v -0.063640 0.000000 0.033640
v -0.063640 2.360000 0.033640
v -0.090000 0.000000 -0.030000
v -0.090000 2.360000 -0.030000
v -0.063640 0.000000 -0.093640
v -0.063640 2.360000 -0.093640
v -0.310000 0.000000 0.310000
v -0.310000 0.200000 0.310000
v -0.310000 0.000000 -0.310000
v -0.310000 0.200000 -0.310000
v 0.310000 0.000000 0.310000
v 0.310000 0.200000 0.310000
v 0.310000 0.000000 -0.310000
v 0.310000 0.200000 -0.310000
v -0.094775 0.091794 0.030000
v -0.399251 0.722107 0.030000
v -0.094775 0.091794 -0.030000
v -0.399251 0.722107 -0.030000
v -0.040749 0.117892 0.030000
v -0.345225 0.748205 0.030000
v -0.040749 0.117892 -0.030000
v -0.345225 0.748205 -0.030000
v 0.040749 0.117892 0.030000
v 0.345225 0.748205 0.030000
v 0.040749 0.117892 -0.030000
v 0.345225 0.748205 -0.030000
v 0.094775 0.091794 0.030000
v 0.399251 0.722107 0.030000
v 0.094775 0.091794 -0.030000
v 0.399251 0.722107 -0.030000
v 0.000000 2.190000 -0.090000
v 0.000000 2.610000 -0.090000
v 0.047631 2.190000 -0.062500
v 0.047631 2.610000 -0.062500
v 0.047631 2.190000 -0.007500
v 0.047631 2.610000 -0.007500
v 0.000000 2.190000 0.020000
v 0.000000 2.610000 0.020000
v -0.047631 2.190000 -0.007500
v -0.047631 2.610000 -0.007500
v -0.047631 2.190000 -0.062500
v -0.047631 2.610000 -0.062500
v -0.200000 2.230000 0.110000
v -0.200000 2.430000 0.110000
v -0.200000 2.230000 -0.150000
v -0.200000 2.430000 -0.150000
v 0.200000 2.230000 0.110000
v 0.200000 2.430000 0.110000
v 0.200000 2.230000 -0.150000
v 0.200000 2.430000 -0.150000
v -0.065000 2.380000 0.025000
v -0.065000 2.500000 0.025000
v -0.065000 2.380000 -0.105000
v -0.065000 2.500000 -0.105000
v 0.065000 2.380000 0.025000
v 0.065000 2.500000 0.025000
v 0.065000 2.380000 -0.105000
v 0.065000 2.500000 -0.105000
v 0.000000 2.675000 -0.040000
v 0.000000 2.659650 -0.107252
v 0.000000 2.616641 -0.161184
v 0.000000 2.423359 -0.161184
v 0.000000 2.380350 -0.107252
v 0.000000 2.365000 -0.040000
v 0.039530 2.659650 -0.094408
v 0.071230 2.616641 -0.138040
v 0.088822 2.554491 -0.162254
v 0.088822 2.485509 -0.162254
v 0.071230 2.423359 -0.138040
v 0.039530 2.380350 -0.094408
v 0.063960 2.659650 -0.060782
v 0.115253 2.616641 -0.077448
v 0.143718 2.554491 -0.086697
v 0.143718 2.485509 -0.086697
v 0.115253 2.423359 -0.077448
v 0.063960 2.380350 -0.060782
v 0.063960 2.659650 -0.019218
v 0.115253 2.616641 -0.002552
v 0.143718 2.554491 0.006697
v 0.143718 2.485509 0.006697
v 0.115253 2.423359 -0.002552
v 0.063960 2.380350 -0.019218
v 0.039530 2.659650 0.014408
v 0.071230 2.616641 0.058040
v 0.088822 2.554491 0.082254
v 0.088822 2.485509 0.082254
v 0.071230 2.423359 0.058040
v 0.039530 2.380350 0.014408
v 0.000000 2.659650 0.027252
v 0.000000 2.616641 0.081184
v 0.000000 2.554491 0.111114
v 0.000000 2.485509 0.111114
v 0.000000 2.423359 0.081184
v 0.000000 2.380350 0.027252
v -0.039530 2.659650 0.014408
v -0.071230 2.616641 0.058040
v -0.088822 2.554491 0.082254
v -0.088822 2.485509 0.082254
v -0.071230 2.423359 0.058040
v -0.039530 2.380350 0.014408
v -0.063960 2.659650 -0.019218
v -0.115253 2.616641 -0.002552
v -0.143718 2.554491 0.006697
v -0.143718 2.485509 0.006697
v -0.115253 2.423359 -0.002552
v -0.063960 2.380350 -0.019218
v -0.063960 2.659650 -0.060782
v -0.115253 2.616641 -0.077448
v -0.143718 2.554491 -0.086697
v -0.143718 2.485509 -0.086697
v -0.115253 2.423359 -0.077448
v -0.063960 2.380350 -0.060782
v -0.039530 2.659650 -0.094408
v -0.071230 2.616641 -0.138040
v -0.088822 2.554491 -0.162254
v -0.088822 2.485509 -0.162254
v -0.071230 2.423359 -0.138040
v -0.039530 2.380350 -0.094408
v -0.000000 2.554491 -0.191114
v -0.000000 2.485509 -0.191114
v -0.343351 1.546058 0.010000
v -0.366137 1.925374 0.010000
v -0.343351 1.546058 -0.090000
v -0.366137 1.925374 -0.090000
v -0.243531 1.552054 0.010000
v -0.266317 1.931370 0.010000
v -0.243531 1.552054 -0.090000
v -0.266317 1.931370 -0.090000
v -0.371227 1.439056 0.005000
v -0.371227 1.559056 0.005000
v -0.371227 1.439056 -0.085000
v -0.371227 1.559056 -0.085000
v -0.261227 1.439056 0.005000
v -0.261227 1.559056 0.005000
v -0.261227 1.439056 -0.085000
v -0.261227 1.559056 -0.085000
v -0.174429 0.784328 0.020000
v -0.224708 1.201307 0.020000
v -0.174429 0.784328 -0.100000
v -0.224708 1.201307 -0.100000
v -0.055292 0.798693 0.020000
v -0.105571 1.215672 0.020000
v -0.055292 0.798693 -0.100000
v -0.105571 1.215672 -0.100000
v 0.243531 1.552054 0.010000
v 0.266317 1.931370 0.010000
v 0.243531 1.552054 -0.090000
v 0.266317 1.931370 -0.090000
v 0.343351 1.546058 0.010000
v 0.366137 1.925374 0.010000
v 0.343351 1.546058 -0.090000
v 0.366137 1.925374 -0.090000
v 0.261227 1.439056 0.005000
v 0.261227 1.559056 0.005000
v 0.261227 1.439056 -0.085000
v 0.261227 1.559056 -0.085000
v 0.371227 1.439056 0.005000
v 0.371227 1.559056 0.005000
v 0.371227 1.439056 -0.085000
v 0.371227 1.559056 -0.085000
v 0.055292 0.798693 0.020000
v 0.105571 1.215672 0.020000
v 0.055292 0.798693 -0.100000
v 0.105571 1.215672 -0.100000
v 0.174429 0.784328 0.020000
v 0.224708 1.201307 0.020000
v 0.174429 0.784328 -0.100000
v 0.224708 1.201307 -0.100000
v -0.220000 1.710000 0.130000
v -0.220000 2.330000 0.130000
v -0.220000 1.710000 -0.170000
v -0.220000 2.330000 -0.170000
v 0.220000 1.710000 0.130000
v 0.220000 2.330000 0.130000
v 0.220000 1.710000 -0.170000
v 0.220000 2.330000 -0.170000
v -0.200000 1.390000 0.120000
v -0.200000 1.730000 0.120000
v -0.200000 1.390000 -0.160000
v -0.200000 1.730000 -0.160000
v 0.200000 1.390000 0.120000
v 0.200000 1.730000 0.120000
v 0.200000 1.390000 -0.160000
v 0.200000 1.730000 -0.160000
v -0.225000 1.710000 0.135000
v -0.225000 1.770000 0.135000
v -0.225000 1.710000 -0.175000
v -0.225000 1.770000 -0.175000
v 0.225000 1.710000 0.135000
v 0.225000 1.770000 0.135000
v 0.225000 1.710000 -0.175000
v 0.225000 1.770000 -0.175000
v -0.273704 1.915458 0.025000
v -0.357145 2.327086 0.025000
v -0.273704 1.915458 -0.105000
v -0.357145 2.327086 -0.105000
v -0.146296 1.941285 0.025000
v -0.229737 2.352913 0.025000
v -0.146296 1.941285 -0.105000
v -0.229737 2.352913 -0.105000
v -0.172912 1.192316 0.035000
v -0.216009 1.549727 0.035000
v -0.172912 1.192316 -0.115000
v -0.216009 1.549727 -0.115000
v -0.023991 1.210273 0.035000
v -0.067088 1.567684 0.035000
v -0.023991 1.210273 -0.115000
v -0.067088 1.567684 -0.115000
v 0.146296 1.941285 0.025000
v 0.229737 2.352913 0.025000
v 0.146296 1.941285 -0.105000
v 0.229737 2.352913 -0.105000
v 0.273704 1.915458 0.025000
v 0.357145 2.327086 0.025000
v 0.273704 1.915458 -0.105000
v 0.357145 2.327086 -0.105000
v 0.023991 1.210273 0.035000
v 0.067088 1.567684 0.035000
v 0.023991 1.210273 -0.115000
v 0.067088 1.567684 -0.115000
v 0.172912 1.192316 0.035000
v 0.216009 1.549727 0.035000
v 0.172912 1.192316 -0.115000
v 0.216009 1.549727 -0.115000
v -0.130000 1.910000 0.155000
v -0.130000 2.210000 0.155000
v -0.130000 1.910000 0.125000
v -0.130000 2.210000 0.125000
v 0.130000 1.910000 0.155000
v 0.130000 2.210000 0.155000
v 0.130000 1.910000 0.125000
v 0.130000 2.210000 0.125000
v -0.097500 1.730000 0.154000
v -0.097500 1.930000 0.154000
v -0.097500 1.730000 0.126000
v -0.097500 1.930000 0.126000
v -0.042500 1.730000 0.154000
v -0.042500 1.930000 0.154000
v -0.042500 1.730000 0.126000
v -0.042500 1.930000 0.126000
v 0.057500 1.790000 0.154000
v 0.057500 1.930000 0.154000
v 0.057500 1.790000 0.126000
v 0.057500 1.930000 0.126000
v 0.102500 1.790000 0.154000
v 0.102500 1.930000 0.154000
v 0.102500 1.790000 0.126000
v 0.102500 1.930000 0.126000
v 0.000000 2.620000 -0.090000
v 0.047631 2.620000 -0.062500
v 0.047631 2.620000 -0.007500
v 0.000000 2.620000 0.020000
v -0.047631 2.620000 -0.007500
v -0.047631 2.620000 -0.062500
v 0.000000 2.920000 -0.035000
v -0.022500 2.340000 0.118000
v -0.022500 2.500000 0.118000
v -0.022500 2.340000 0.092000
v -0.022500 2.500000 0.092000
v 0.022500 2.340000 0.118000
v 0.022500 2.500000 0.118000
v 0.022500 2.340000 0.092000
v 0.022500 2.500000 0.092000
v -0.085000 2.320000 0.089000
v -0.085000 2.400000 0.089000
v -0.085000 2.320000 0.061000
v -0.085000 2.400000 0.061000
v 0.085000 2.320000 0.089000
v 0.085000 2.400000 0.089000
v 0.085000 2.320000 0.061000
v 0.085000 2.400000 0.061000
v -0.035000 0.610000 0.080000
v -0.035000 1.910000 0.080000
v -0.035000 0.610000 0.040000
v -0.035000 1.910000 0.040000
v 0.035000 0.610000 0.080000
v 0.035000 1.910000 0.080000
v 0.035000 0.610000 0.040000
v 0.035000 1.910000 0.040000
v 0.000000 1.070000 0.080000
v 0.000000 1.060451 0.050611
v 0.000000 0.979549 0.050611
v 0.000000 0.970000 0.080000
v 0.020781 1.060451 0.059219
v 0.033625 1.035451 0.046375
v 0.033625 1.004549 0.046375
v 0.020781 0.979549 0.059219
v 0.029389 1.060451 0.080000
v 0.047553 1.035451 0.080000
v 0.047553 1.004549 0.080000
v 0.029389 0.979549 0.080000
v 0.020781 1.060451 0.100781
v 0.033625 1.035451 0.113625
v 0.033625 1.004549 0.113625
v 0.020781 0.979549 0.100781
v 0.000000 1.060451 0.109389
v 0.000000 1.035451 0.127553
v 0.000000 1.004549 0.127553
v 0.000000 0.979549 0.109389
v -0.020781 1.060451 0.100781
v -0.033625 1.035451 0.113625
v -0.033625 1.004549 0.113625
v -0.020781 0.979549 0.100781
v -0.029389 1.060451 0.080000
v -0.047553 1.035451 0.080000
v -0.047553 1.004549 0.080000
v -0.029389 0.979549 0.080000
v -0.020781 1.060451 0.059219
v -0.033625 1.035451 0.046375
v -0.033625 1.004549 0.046375
v -0.020781 0.979549 0.059219
v 0.000000 1.035451 0.032447
v 0.000000 1.004549 0.032447
v 0.000000 1.490000 0.080000
v 0.000000 1.480451 0.050611
v 0.000000 1.399549 0.050611
v 0.000000 1.390000 0.080000
v 0.020781 1.480451 0.059219
v 0.033625 1.455451 0.046375
v 0.033625 1.424549 0.046375
v 0.020781 1.399549 0.059219
v 0.029389 1.480451 0.080000
v 0.047553 1.455451 0.080000
v 0.047553 1.424549 0.080000
v 0.029389 1.399549 0.080000
v 0.020781 1.480451 0.100781
v 0.033625 1.455451 0.113625
v 0.033625 1.424549 0.113625
v 0.020781 1.399549 0.100781
v 0.000000 1.480451 0.109389
v 0.000000 1.455451 0.127553
v 0.000000 1.424549 0.127553
v 0.000000 1.399549 0.109389
v -0.020781 1.480451 0.100781
v -0.033625 1.455451 0.113625
v -0.033625 1.424549 0.113625
v -0.020781 1.399549 0.100781
v -0.029389 1.480451 0.080000
v -0.047553 1.455451 0.080000
v -0.047553 1.424549 0.080000
v -0.029389 1.399549 0.080000
v -0.020781 1.480451 0.059219
v -0.033625 1.455451 0.046375
v -0.033625 1.424549 0.046375
v -0.020781 1.399549 0.059219
v 0.000000 1.455451 0.032447
v 0.000000 1.424549 0.032447
v 0.000000 1.910000 0.080000
v 0.000000 1.900451 0.050611
v 0.000000 1.819549 0.050611
v 0.000000 1.810000 0.080000
v 0.020781 1.900451 0.059219
v 0.033625 1.875451 0.046375
v 0.033625 1.844549 0.046375
v 0.020781 1.819549 0.059219
v 0.029389 1.900451 0.080000
v 0.047553 1.875451 0.080000
v 0.047553 1.844549 0.080000
v 0.029389 1.819549 0.080000
v 0.020781 1.900451 0.100781
v 0.033625 1.875451 0.113625
v 0.033625 1.844549 0.113625
v 0.020781 1.819549 0.100781
v 0.000000 1.900451 0.109389
v 0.000000 1.875451 0.127553
v 0.000000 1.844549 0.127553
v 0.000000 1.819549 0.109389
v -0.020781 1.900451 0.100781
v -0.033625 1.875451 0.113625
v -0.033625 1.844549 0.113625
v -0.020781 1.819549 0.100781
v -0.029389 1.900451 0.080000
v -0.047553 1.875451 0.080000
v -0.047553 1.844549 0.080000
v -0.029389 1.819549 0.080000
v -0.020781 1.900451 0.059219
v -0.033625 1.875451 0.046375
v -0.033625 1.844549 0.046375
v -0.020781 1.819549 0.059219
v 0.000000 1.875451 0.032447
v 0.000000 1.844549 0.032447
vn 0.3827 -0.0000 -0.9239
vn 0.9239 -0.0000 -0.3827
vn 0.9239 -0.0000 0.3827
vn 0.3827 -0.0000 0.9239
vn -0.3827 -0.0000 0.9239
vn -0.9239 -0.0000 0.3827
vn -0.0000 1.0000 -0.0000
vn -0.9239 -0.0000 -0.3827
vn -0.3827 -0.0000 -0.9239
vn -0.0000 -1.0000 -0.0000
vn -1.0000 -0.0000 -0.0000
vn -0.0000 -0.0000 -1.0000
vn 1.0000 -0.0000 -0.0000
vn -0.0000 -0.0000 1.0000
vn -0.9004 -0.4350 -0.0000
vn 0.9004 0.4350 -0.0000
vn 0.4350 -0.9004 -0.0000
vn -0.4350 0.9004 -0.0000
vn -0.9004 0.4350 -0.0000
vn 0.9004 -0.4350 -0.0000
vn -0.4350 -0.9004 -0.0000
vn 0.4350 0.9004 -0.0000
vn 0.5000 -0.0000 -0.8660
vn 0.5000 -0.0000 0.8660
vn -0.5000 -0.0000 0.8660
vn -0.5000 -0.0000 -0.8660
vn 0.0721 -0.9724 -0.2219
vn 0.2810 -0.4164 -0.8647
vn 0.2810 0.4164 -0.8647
vn 0.0721 0.9724 -0.2219
vn 0.1986 -0.7663 -0.6111
vn 0.3090 -0.0000 -0.9511
vn 0.1986 0.7663 -0.6111
vn 0.8090 -0.0000 -0.5878
vn 0.5198 0.7663 -0.3777
vn 0.1888 -0.9724 -0.1372
vn 0.7355 -0.4164 -0.5344
vn 0.7355 0.4164 -0.5344
vn 0.1888 0.9724 -0.1372
vn 0.5198 -0.7663 -0.3777
vn 0.2334 -0.9724 -0.0000
vn 0.9092 -0.4164 -0.0000
vn 0.9092 0.4164 -0.0000
vn 0.2334 0.9724 -0.0000
vn 0.6425 -0.7663 -0.0000
vn 0.6425 0.7663 -0.0000
vn 0.1888 -0.9724 0.1372
vn 0.7355 -0.4164 0.5344
vn 0.7355 0.4164 0.5344
vn 0.1888 0.9724 0.1372
vn 0.5198 -0.7663 0.3777
vn 0.8090 -0.0000 0.5878
vn 0.5198 0.7663 0.3777
vn 0.2810 0.4164 0.8647
vn 0.0721 0.9724 0.2219
vn 0.1986 -0.7663 0.6111
vn 0.3090 -0.0000 0.9511
vn 0.1986 0.7663 0.6111
vn 0.0721 -0.9724 0.2219
vn 0.2810 -0.4164 0.8647
vn -0.1986 -0.7663 0.6111
vn -0.3090 -0.0000 0.9511
vn -0.1986 0.7663 0.6111
vn -0.0721 -0.9724 0.2219
vn -0.2810 -0.4164 0.8647
vn -0.2810 0.4164 0.8647
vn -0.0721 0.9724 0.2219
vn -0.5198 -0.7663 0.3777
vn -0.8090 -0.0000 0.5878
vn -0.5198 0.7663 0.3777
vn -0.1888 -0.9724 0.1372
vn -0.7355 -0.4164 0.5344
vn -0.7355 0.4164 0.5344
vn -0.1888 0.9724 0.1372
vn -0.6425 0.7663 -0.0000
vn -0.2334 -0.9724 -0.0000
vn -0.9092 -0.4164 -0.0000
vn -0.9092 0.4164 -0.0000
vn -0.2334 0.9724 -0.0000
vn -0.6425 -0.7663 -0.0000
vn -0.1888 -0.9724 -0.1372
vn -0.7355 -0.4164 -0.5344
vn -0.7355 0.4164 -0.5344
vn -0.1888 0.9724 -0.1372
vn -0.5198 -0.7663 -0.3777
vn -0.8090 -0.0000 -0.5878
vn -0.5198 0.7663 -0.3777
vn -0.2810 -0.4164 -0.8647
vn -0.2810 0.4164 -0.8647
vn -0.0721 0.9724 -0.2219
vn -0.1986 -0.7663 -0.6111
vn -0.3090 -0.0000 -0.9511
vn -0.1986 0.7663 -0.6111
vn -0.0721 -0.9724 -0.2219
vn -0.9982 -0.0600 -0.0000
vn 0.9982 0.0600 -0.0000
vn 0.0600 -0.9982 -0.0000
vn -0.0600 0.9982 -0.0000
vn -0.9928 -0.1197 -0.0000
vn 0.9928 0.1197 -0.0000
vn 0.1197 -0.9928 -0.0000
vn -0.1197 0.9928 -0.0000
vn -0.9982 0.0600 -0.0000
vn 0.9982 -0.0600 -0.0000
vn -0.0600 -0.9982 -0.0000
vn 0.0600 0.9982 -0.0000
vn -0.9928 0.1197 -0.0000
vn 0.9928 -0.1197 -0.0000
vn -0.1197 -0.9928 -0.0000
vn 0.1197 0.9928 -0.0000
vn -0.9801 -0.1987 -0.0000
vn 0.9801 0.1987 -0.0000
vn 0.1987 -0.9801 -0.0000
vn -0.1987 0.9801 -0.0000
vn -0.9801 0.1987 -0.0000
vn 0.9801 -0.1987 -0.0000
vn -0.1987 -0.9801 -0.0000
vn 0.1987 0.9801 -0.0000
vn 0.4938 0.1568 -0.8553
vn 0.9876 0.1568 -0.0000
vn 0.4938 0.1568 0.8553
vn -0.4938 0.1568 0.8553
vn -0.9876 0.1568 -0.0000
vn -0.4938 0.1568 -0.8553
vn 0.3177 -0.5573 -0.7671
vn 0.3177 0.5573 -0.7671
vn 0.1270 -0.9434 -0.3065
vn 0.1270 0.9434 -0.3065
vn 0.7671 -0.5573 -0.3177
vn 0.7671 0.5573 -0.3177
vn 0.3065 -0.9434 -0.1270
vn 0.3065 0.9434 -0.1270
vn 0.7671 -0.5573 0.3177
vn 0.7671 0.5573 0.3177
vn 0.3065 -0.9434 0.1270
vn 0.3065 0.9434 0.1270
vn 0.3177 -0.5573 0.7671
vn 0.3177 0.5573 0.7671
vn 0.1270 -0.9434 0.3065
vn 0.1270 0.9434 0.3065
vn -0.3177 -0.5573 0.7671
vn -0.3177 0.5573 0.7671
vn -0.1270 -0.9434 0.3065
vn -0.1270 0.9434 0.3065
vn -0.7671 -0.5573 0.3177
vn -0.7671 0.5573 0.3177
vn -0.3065 -0.9434 0.1270
vn -0.3065 0.9434 0.1270
vn -0.7671 -0.5573 -0.3177
vn -0.7671 0.5573 -0.3177
vn -0.3065 -0.9434 -0.1270
vn -0.3065 0.9434 -0.1270
vn -0.3177 -0.5573 -0.7671
vn -0.3177 0.5573 -0.7671
vn -0.1270 -0.9434 -0.3065
vn -0.1270 0.9434 -0.3065
vt 0.250000 0.250000
vt 0.750000 0.250000
vt 0.250000 0.750000
vt 0.750000 0.750000
s 0
usemtl slot0
f 1/1/1 2/1/1 4/1/1 3/1/1
f 3/1/2 4/1/2 6/1/2 5/1/2
f 5/1/3 6/1/3 8/1/3 7/1/3
f 7/1/4 8/1/4 10/1/4 9/1/4
f 9/1/5 10/1/5 12/1/5 11/1/5
f 11/1/6 12/1/6 14/1/6 13/1/6
f 4/1/7 2/1/7 16/1/7 14/1/7 12/1/7 10/1/7 8/1/7 6/1/7
f 13/1/8 14/1/8 16/1/8 15/1/8
f 15/1/9 16/1/9 2/1/9 1/1/9
f 1/1/10 3/1/10 5/1/10 7/1/10 9/1/10 11/1/10 13/1/10 15/1/10
f 17/1/11 18/1/11 20/1/11 19/1/11
f 19/1/12 20/1/12 24/1/12 23/1/12
f 23/1/13 24/1/13 22/1/13 21/1/13
f 21/1/14 22/1/14 18/1/14 17/1/14
f 19/1/10 23/1/10 21/1/10 17/1/10
f 24/1/7 20/1/7 18/1/7 22/1/7
f 25/1/15 26/1/15 28/1/15 27/1/15
f 27/1/12 28/1/12 32/1/12 31/1/12
f 31/1/16 32/1/16 30/1/16 29/1/16
f 29/1/14 30/1/14 26/1/14 25/1/14
f 27/1/17 31/1/17 29/1/17 25/1/17
f 32/1/18 28/1/18 26/1/18 30/1/18
f 33/1/19 34/1/19 36/1/19 35/1/19
f 35/1/12 36/1/12 40/1/12 39/1/12
f 39/1/20 40/1/20 38/1/20 37/1/20
f 37/1/14 38/1/14 34/1/14 33/1/14
f 35/1/21 39/1/21 37/1/21 33/1/21
f 40/1/22 36/1/22 34/1/22 38/1/22
f 41/1/23 42/1/23 44/1/23 43/1/23
f 43/1/13 44/1/13 46/1/13 45/1/13
f 45/1/24 46/1/24 48/1/24 47/1/24
f 47/1/25 48/1/25 50/1/25 49/1/25
f 44/1/7 42/1/7 52/1/7 50/1/7 48/1/7 46/1/7
f 49/1/11 50/1/11 52/1/11 51/1/11
f 51/1/26 52/1/26 42/1/26 41/1/26
f 41/1/10 43/1/10 45/1/10 47/1/10 49/1/10 51/1/10
f 53/2/11 54/2/11 56/2/11 55/2/11
f 55/2/12 56/2/12 60/2/12 59/2/12
f 59/2/13 60/2/13 58/2/13 57/2/13
f 57/2/14 58/2/14 54/2/14 53/2/14
f 55/2/10 59/2/10 57/2/10 53/2/10
f 60/2/7 56/2/7 54/2/7 58/2/7
f 61/2/11 62/2/11 64/2/11 63/2/11
f 63/2/12 64/2/12 68/2/12 67/2/12
f 67/2/13 68/2/13 66/2/13 65/2/13
f 65/2/14 66/2/14 62/2/14 61/2/14
f 63/2/10 67/2/10 65/2/10 61/2/10
f 68/2/7 64/2/7 62/2/7 66/2/7
f 74/2/27 73/2/27 80/2/27
f 72/2/28 130/2/28 78/2/28 79/2/28
f 129/2/29 71/2/29 76/2/29 77/2/29
f 70/2/30 69/2/30 75/2/30
f 73/2/31 72/2/31 79/2/31 80/2/31
f 130/2/32 129/2/32 77/2/32 78/2/32
f 71/2/33 70/2/33 75/2/33 76/2/33
f 78/2/34 77/2/34 83/2/34 84/2/34
f 76/2/35 75/2/35 81/2/35 82/2/35
f 74/2/36 80/2/36 86/2/36
f 79/2/37 78/2/37 84/2/37 85/2/37
f 77/2/38 76/2/38 82/2/38 83/2/38
f 75/2/39 69/2/39 81/2/39
f 80/2/40 79/2/40 85/2/40 86/2/40
f 74/2/41 86/2/41 92/2/41
f 85/2/42 84/2/42 90/2/42 91/2/42
f 83/2/43 82/2/43 88/2/43 89/2/43
f 81/2/44 69/2/44 87/2/44
f 86/2/45 85/2/45 91/2/45 92/2/45
f 84/2/13 83/2/13 89/2/13 90/2/13
f 82/2/46 81/2/46 87/2/46 88/2/46
f 74/2/47 92/2/47 98/2/47
f 91/2/48 90/2/48 96/2/48 97/2/48
f 89/2/49 88/2/49 94/2/49 95/2/49
f 87/2/50 69/2/50 93/2/50
f 92/2/51 91/2/51 97/2/51 98/2/51
f 90/2/52 89/2/52 95/2/52 96/2/52
f 88/2/53 87/2/53 93/2/53 94/2/53
f 95/2/54 94/2/54 100/2/54 101/2/54
f 93/2/55 69/2/55 99/2/55
f 98/2/56 97/2/56 103/2/56 104/2/56
f 96/2/57 95/2/57 101/2/57 102/2/57
f 94/2/58 93/2/58 99/2/58 100/2/58
f 74/2/59 98/2/59 104/2/59
f 97/2/60 96/2/60 102/2/60 103/2/60
f 104/2/61 103/2/61 109/2/61 110/2/61
f 102/2/62 101/2/62 107/2/62 108/2/62
f 100/2/63 99/2/63 105/2/63 106/2/63
f 74/2/64 104/2/64 110/2/64
f 103/2/65 102/2/65 108/2/65 109/2/65
f 101/2/66 100/2/66 106/2/66 107/2/66
f 99/2/67 69/2/67 105/2/67
f 110/2/68 109/2/68 115/2/68 116/2/68
f 108/2/69 107/2/69 113/2/69 114/2/69
f 106/2/70 105/2/70 111/2/70 112/2/70
f 74/2/71 110/2/71 116/2/71
f 109/2/72 108/2/72 114/2/72 115/2/72
f 107/2/73 106/2/73 112/2/73 113/2/73
f 105/2/74 69/2/74 111/2/74
f 112/2/75 111/2/75 117/2/75 118/2/75
f 74/2/76 116/2/76 122/2/76
f 115/2/77 114/2/77 120/2/77 121/2/77
f 113/2/78 112/2/78 118/2/78 119/2/78
f 111/2/79 69/2/79 117/2/79
f 116/2/80 115/2/80 121/2/80 122/2/80
f 114/2/11 113/2/11 119/2/11 120/2/11
f 74/2/81 122/2/81 128/2/81
f 121/2/82 120/2/82 126/2/82 127/2/82
f 119/2/83 118/2/83 124/2/83 125/2/83
f 117/2/84 69/2/84 123/2/84
f 122/2/85 121/2/85 127/2/85 128/2/85
f 120/2/86 119/2/86 125/2/86 126/2/86
f 118/2/87 117/2/87 123/2/87 124/2/87
f 127/2/88 126/2/88 130/2/88 72/2/88
f 125/2/89 124/2/89 71/2/89 129/2/89
f 123/2/90 69/2/90 70/2/90
f 128/2/91 127/2/91 72/2/91 73/2/91
f 126/2/92 125/2/92 129/2/92 130/2/92
f 124/2/93 123/2/93 70/2/93 71/2/93
f 74/2/94 128/2/94 73/2/94
f 131/2/95 132/2/95 134/2/95 133/2/95
f 133/2/12 134/2/12 138/2/12 137/2/12
f 137/2/96 138/2/96 136/2/96 135/2/96
f 135/2/14 136/2/14 132/2/14 131/2/14
f 133/2/97 137/2/97 135/2/97 131/2/97
f 138/2/98 134/2/98 132/2/98 136/2/98
f 139/2/11 140/2/11 142/2/11 141/2/11
f 141/2/12 142/2/12 146/2/12 145/2/12
f 145/2/13 146/2/13 144/2/13 143/2/13
f 143/2/14 144/2/14 140/2/14 139/2/14
f 141/2/10 145/2/10 143/2/10 139/2/10
f 146/2/7 142/2/7 140/2/7 144/2/7
f 147/2/99 148/2/99 150/2/99 149/2/99
f 149/2/12 150/2/12 154/2/12 153/2/12
f 153/2/100 154/2/100 152/2/100 151/2/100
f 151/2/14 152/2/14 148/2/14 147/2/14
f 149/2/101 153/2/101 151/2/101 147/2/101
f 154/2/102 150/2/102 148/2/102 152/2/102
f 155/2/103 156/2/103 158/2/103 157/2/103
f 157/2/12 158/2/12 162/2/12 161/2/12
f 161/2/104 162/2/104 160/2/104 159/2/104
f 159/2/14 160/2/14 156/2/14 155/2/14
f 157/2/105 161/2/105 159/2/105 155/2/105
f 162/2/106 158/2/106 156/2/106 160/2/106
f 163/2/11 164/2/11 166/2/11 165/2/11
f 165/2/12 166/2/12 170/2/12 169/2/12
f 169/2/13 170/2/13 168/2/13 167/2/13
f 167/2/14 168/2/14 164/2/14 163/2/14
f 165/2/10 169/2/10 167/2/10 163/2/10
f 170/2/7 166/2/7 164/2/7 168/2/7
f 171/2/107 172/2/107 174/2/107 173/2/107
f 173/2/12 174/2/12 178/2/12 177/2/12
f 177/2/108 178/2/108 176/2/108 175/2/108
f 175/2/14 176/2/14 172/2/14 171/2/14
f 173/2/109 177/2/109 175/2/109 171/2/109
f 178/2/110 174/2/110 172/2/110 176/2/110
f 179/3/11 180/3/11 182/3/11 181/3/11
f 181/3/12 182/3/12 186/3/12 185/3/12
f 185/3/13 186/3/13 184/3/13 183/3/13
f 183/3/14 184/3/14 180/3/14 179/3/14
f 181/3/10 185/3/10 183/3/10 179/3/10
f 186/3/7 182/3/7 180/3/7 184/3/7
f 187/3/11 188/3/11 190/3/11 189/3/11
f 189/3/12 190/3/12 194/3/12 193/3/12
f 193/3/13 194/3/13 192/3/13 191/3/13
f 191/3/14 192/3/14 188/3/14 187/3/14
f 189/3/10 193/3/10 191/3/10 187/3/10
f 194/3/7 190/3/7 188/3/7 192/3/7
f 195/3/11 196/3/11 198/3/11 197/3/11
f 197/3/12 198/3/12 202/3/12 201/3/12
f 201/3/13 202/3/13 200/3/13 199/3/13
f 199/3/14 200/3/14 196/3/14 195/3/14
f 197/3/10 201/3/10 199/3/10 195/3/10
f 202/3/7 198/3/7 196/3/7 200/3/7
f 203/3/111 204/3/111 206/3/111 205/3/111
f 205/3/12 206/3/12 210/3/12 209/3/12
f 209/3/112 210/3/112 208/3/112 207/3/112
f 207/3/14 208/3/14 204/3/14 203/3/14
f 205/3/113 209/3/113 207/3/113 203/3/113
f 210/3/114 206/3/114 204/3/114 208/3/114
f 211/3/99 212/3/99 214/3/99 213/3/99
f 213/3/12 214/3/12 218/3/12 217/3/12
f 217/3/100 218/3/100 216/3/100 215/3/100
f 215/3/14 216/3/14 212/3/14 211/3/14
f 213/3/101 217/3/101 215/3/101 211/3/101
f 218/3/102 214/3/102 212/3/102 216/3/102
f 219/3/115 220/3/115 222/3/115 221/3/115
f 221/3/12 222/3/12 226/3/12 225/3/12
f 225/3/116 226/3/116 224/3/116 223/3/116
f 223/3/14 224/3/14 220/3/14 219/3/14
f 221/3/117 225/3/117 223/3/117 219/3/117
f 226/3/118 222/3/118 220/3/118 224/3/118
f 227/3/107 228/3/107 230/3/107 229/3/107
f 229/3/12 230/3/12 234/3/12 233/3/12
f 233/3/108 234/3/108 232/3/108 231/3/108
f 231/3/14 232/3/14 228/3/14 227/3/14
f 229/3/109 233/3/109 231/3/109 227/3/109
f 234/3/110 230/3/110 228/3/110 232/3/110
f 235/4/11 236/4/11 238/4/11 237/4/11
f 237/4/12 238/4/12 242/4/12 241/4/12
f 241/4/13 242/4/13 240/4/13 239/4/13
f 239/4/14 240/4/14 236/4/14 235/4/14
f 237/4/10 241/4/10 239/4/10 235/4/10
f 242/4/7 238/4/7 236/4/7 240/4/7
f 243/4/11 244/4/11 246/4/11 245/4/11
f 245/4/12 246/4/12 250/4/12 249/4/12
f 249/4/13 250/4/13 248/4/13 247/4/13
f 247/4/14 248/4/14 244/4/14 243/4/14
f 245/4/10 249/4/10 247/4/10 243/4/10
f 250/4/7 246/4/7 244/4/7 248/4/7
f 251/4/11 252/4/11 254/4/11 253/4/11
f 253/4/12 254/4/12 258/4/12 257/4/12
f 257/4/13 258/4/13 256/4/13 255/4/13
f 255/4/14 256/4/14 252/4/14 251/4/14
f 253/4/10 257/4/10 255/4/10 251/4/10
f 258/4/7 254/4/7 252/4/7 256/4/7
f 259/4/119 265/4/119 260/4/119
f 260/4/120 265/4/120 261/4/120
f 261/4/121 265/4/121 262/4/121
f 262/4/122 265/4/122 263/4/122
f 259/4/10 260/4/10 261/4/10 262/4/10 263/4/10 264/4/10
f 263/4/123 265/4/123 264/4/123
f 264/4/124 265/4/124 259/4/124
f 266/4/11 267/4/11 269/4/11 268/4/11
f 268/4/12 269/4/12 273/4/12 272/4/12
f 272/4/13 273/4/13 271/4/13 270/4/13
f 270/4/14 271/4/14 267/4/14 266/4/14
f 268/4/10 272/4/10 270/4/10 266/4/10
f 273/4/7 269/4/7 267/4/7 271/4/7
f 274/4/11 275/4/11 277/4/11 276/4/11
f 276/4/12 277/4/12 281/4/12 280/4/12
f 280/4/13 281/4/13 279/4/13 278/4/13
f 278/4/14 279/4/14 275/4/14 274/4/14
f 276/4/10 280/4/10 278/4/10 274/4/10
f 281/4/7 277/4/7 275/4/7 279/4/7
f 282/4/11 283/4/11 285/4/11 284/4/11
f 284/4/12 285/4/12 289/4/12 288/4/12
f 288/4/13 289/4/13 287/4/13 286/4/13
f 286/4/14 287/4/14 283/4/14 282/4/14
f 284/4/10 288/4/10 286/4/10 282/4/10
f 289/4/7 285/4/7 283/4/7 287/4/7
f 292/4/125 323/4/125 296/4/125 297/4/125
f 322/4/126 291/4/126 294/4/126 295/4/126
f 293/4/127 292/4/127 297/4/127
f 323/4/1 322/4/1 295/4/1 296/4/1
f 291/4/128 290/4/128 294/4/128
f 297/4/129 296/4/129 300/4/129 301/4/129
f 295/4/130 294/4/130 298/4/130 299/4/130
f 293/4/131 297/4/131 301/4/131
f 296/4/2 295/4/2 299/4/2 300/4/2
f 294/4/132 290/4/132 298/4/132
f 301/4/133 300/4/133 304/4/133 305/4/133
f 299/4/134 298/4/134 302/4/134 303/4/134
f 293/4/135 301/4/135 305/4/135
f 300/4/3 299/4/3 303/4/3 304/4/3
f 298/4/136 290/4/136 302/4/136
f 305/4/137 304/4/137 308/4/137 309/4/137
f 303/4/138 302/4/138 306/4/138 307/4/138
f 293/4/139 305/4/139 309/4/139
f 304/4/4 303/4/4 307/4/4 308/4/4
f 302/4/140 290/4/140 306/4/140
f 309/4/141 308/4/141 312/4/141 313/4/141
f 307/4/142 306/4/142 310/4/142 311/4/142
f 293/4/143 309/4/143 313/4/143
f 308/4/5 307/4/5 311/4/5 312/4/5
f 306/4/144 290/4/144 310/4/144
f 313/4/145 312/4/145 316/4/145 317/4/145
f 311/4/146 310/4/146 314/4/146 315/4/146
f 293/4/147 313/4/147 317/4/147
f 312/4/6 311/4/6 315/4/6 316/4/6
f 310/4/148 290/4/148 314/4/148
f 317/4/149 316/4/149 320/4/149 321/4/149
f 315/4/150 314/4/150 318/4/150 319/4/150
f 293/4/151 317/4/151 321/4/151
f 316/4/8 315/4/8 319/4/8 320/4/8
f 314/4/152 290/4/152 318/4/152
f 321/4/153 320/4/153 323/4/153 292/4/153
f 319/4/154 318/4/154 291/4/154 322/4/154
f 293/4/155 321/4/155 292/4/155
f 320/4/9 319/4/9 322/4/9 323/4/9
f 318/4/156 290/4/156 291/4/156
f 327/4/127 326/4/127 331/4/127
f 357/4/1 356/4/1 329/4/1 330/4/1
f 325/4/128 324/4/128 328/4/128
f 326/4/125 357/4/125 330/4/125 331/4/125
f 356/4/126 325/4/126 328/4/126 329/4/126
f 327/4/131 331/4/131 335/4/131
f 330/4/2 329/4/2 333/4/2 334/4/2
f 328/4/132 324/4/132 332/4/132
f 331/4/129 330/4/129 334/4/129 335/4/129
f 329/4/130 328/4/130 332/4/130 333/4/130
f 327/4/135 335/4/135 339/4/135
f 334/4/3 333/4/3 337/4/3 338/4/3
f 332/4/136 324/4/136 336/4/136
f 335/4/133 334/4/133 338/4/133 339/4/133
f 333/4/134 332/4/134 336/4/134 337/4/134
f 327/4/139 339/4/139 343/4/139
f 338/4/4 337/4/4 341/4/4 342/4/4
f 336/4/140 324/4/140 340/4/140
f 339/4/137 338/4/137 342/4/137 343/4/137
f 337/4/138 336/4/138 340/4/138 341/4/138
f 327/4/143 343/4/143 347/4/143
f 342/4/5 341/4/5 345/4/5 346/4/5
f 340/4/144 324/4/144 344/4/144
f 343/4/141 342/4/141 346/4/141 347/4/141
f 341/4/142 340/4/142 344/4/142 345/4/142
f 327/4/147 347/4/147 351/4/147
f 346/4/6 345/4/6 349/4/6 350/4/6
f 344/4/148 324/4/148 348/4/148
f 347/4/145 346/4/145 350/4/145 351/4/145
f 345/4/146 344/4/146 348/4/146 349/4/146
f 327/4/151 351/4/151 355/4/151
f 350/4/8 349/4/8 353/4/8 354/4/8
f 348/4/152 324/4/152 352/4/152
f 351/4/149 350/4/149 354/4/149 355/4/149
f 349/4/150 348/4/150 352/4/150 353/4/150
f 327/4/155 355/4/155 326/4/155
f 354/4/9 353/4/9 356/4/9 357/4/9
f 352/4/156 324/4/156 325/4/156
f 355/4/153 354/4/153 357/4/153 326/4/153
f 353/4/154 352/4/154 325/4/154 356/4/154
f 360/4/125 391/4/125 364/4/125 365/4/125
f 390/4/126 359/4/126 362/4/126 363/4/126
f 361/4/127 360/4/127 365/4/127
f 391/4/1 390/4/1 363/4/1 364/4/1
f 359/4/128 358/4/128 362/4/128
f 362/4/132 358/4/132 366/4/132
f 365/4/129 364/4/129 368/4/129 369/4/129
f 363/4/130 362/4/130 366/4/130 367/4/130
f 361/4/131 365/4/131 369/4/131
f 364/4/2 363/4/2 367/4/2 368/4/2
f 366/4/136 358/4/136 370/4/136
f 369/4/133 368/4/133 372/4/133 373/4/133
f 367/4/134 366/4/134 370/4/134 371/4/134
f 361/4/135 369/4/135 373/4/135
f 368/4/3 367/4/3 371/4/3 372/4/3
f 370/4/140 358/4/140 374/4/140
f 373/4/137 372/4/137 376/4/137 377/4/137
f 371/4/138 370/4/138 374/4/138 375/4/138
f 361/4/139 373/4/139 377/4/139
f 372/4/4 371/4/4 375/4/4 376/4/4
f 374/4/144 358/4/144 378/4/144
f 377/4/141 376/4/141 380/4/141 381/4/141
f 375/4/142 374/4/142 378/4/142 379/4/142
f 361/4/143 377/4/143 381/4/143
f 376/4/5 375/4/5 379/4/5 380/4/5
f 378/4/148 358/4/148 382/4/148
f 381/4/145 380/4/145 384/4/145 385/4/145
f 379/4/146 378/4/146 382/4/146 383/4/146
f 361/4/147 381/4/147 385/4/147
f 380/4/6 379/4/6 383/4/6 384/4/6
f 382/4/152 358/4/152 386/4/152
f 385/4/149 384/4/149 388/4/149 389/4/149
f 383/4/150 382/4/150 386/4/150 387/4/150
f 361/4/151 385/4/151 389/4/151
f 384/4/8 383/4/8 387/4/8 388/4/8
f 386/4/156 358/4/156 359/4/156
f 389/4/153 388/4/153 391/4/153 360/4/153
f 387/4/154 386/4/154 359/4/154 390/4/154
f 361/4/155 389/4/155 360/4/155
f 388/4/9 387/4/9 390/4/9 391/4/9
