# Blender 5.2.0 LTS
# www.blender.org
mtllib aldrich_vigil_table.mtl
o aldrich_vigil_table
v -4.350000 0.690000 1.350000
v -4.350000 0.830000 1.350000
v -4.350000 0.690000 -0.350000
v -4.350000 0.830000 -0.350000
v 0.350000 0.690000 1.350000
v 0.350000 0.830000 1.350000
v 0.350000 0.690000 -0.350000
v 0.350000 0.830000 -0.350000
v -4.200000 0.610000 1.220000
v -4.200000 0.710000 1.220000
v -4.200000 0.610000 -0.220000
v -4.200000 0.710000 -0.220000
v 0.200000 0.610000 1.220000
v 0.200000 0.710000 1.220000
v 0.200000 0.610000 -0.220000
v 0.200000 0.710000 -0.220000
v -4.070000 0.040000 1.100000
v -4.070000 0.660000 1.100000
v -4.070000 0.040000 -0.100000
v -4.070000 0.660000 -0.100000
v -3.730000 0.040000 1.100000
v -3.730000 0.660000 1.100000
v -3.730000 0.040000 -0.100000
v -3.730000 0.660000 -0.100000
v -4.130000 0.000000 1.170000
v -4.130000 0.080000 1.170000
v -4.130000 0.000000 -0.170000
v -4.130000 0.080000 -0.170000
v -3.670000 0.000000 1.170000
v -3.670000 0.080000 1.170000
v -3.670000 0.000000 -0.170000
v -3.670000 0.080000 -0.170000
v -2.170000 0.040000 1.100000
v -2.170000 0.660000 1.100000
v -2.170000 0.040000 -0.100000
v -2.170000 0.660000 -0.100000
v -1.830000 0.040000 1.100000
v -1.830000 0.660000 1.100000
v -1.830000 0.040000 -0.100000
v -1.830000 0.660000 -0.100000
v -2.230000 0.000000 1.170000
v -2.230000 0.080000 1.170000
v -2.230000 0.000000 -0.170000
v -2.230000 0.080000 -0.170000
v -1.770000 0.000000 1.170000
v -1.770000 0.080000 1.170000
v -1.770000 0.000000 -0.170000
v -1.770000 0.080000 -0.170000
v -0.270000 0.040000 1.100000
v -0.270000 0.660000 1.100000
v -0.270000 0.040000 -0.100000
v -0.270000 0.660000 -0.100000
v 0.070000 0.040000 1.100000
v 0.070000 0.660000 1.100000
v 0.070000 0.040000 -0.100000
v 0.070000 0.660000 -0.100000
v -0.330000 0.000000 1.170000
v -0.330000 0.080000 1.170000
v -0.330000 0.000000 -0.170000
v -0.330000 0.080000 -0.170000
v 0.130000 0.000000 1.170000
v 0.130000 0.080000 1.170000
v 0.130000 0.000000 -0.170000
v 0.130000 0.080000 -0.170000
v -3.550000 0.830000 0.340000
v -3.550000 1.070000 0.430000
v -3.436863 0.830000 0.386863
v -3.500503 1.070000 0.450502
v -3.390000 0.830000 0.500000
v -3.480000 1.070000 0.500000
v -3.436863 0.830000 0.613137
v -3.500503 1.070000 0.549497
v -3.550000 0.830000 0.660000
v -3.550000 1.070000 0.570000
v -3.663137 0.830000 0.613137
v -3.599497 1.070000 0.549497
v -3.710000 0.830000 0.500000
v -3.620000 1.070000 0.500000
v -3.663137 0.830000 0.386863
v -3.599497 1.070000 0.450502
v -2.000000 0.830000 0.340000
v -2.000000 1.070000 0.430000
v -1.886863 0.830000 0.386863
v -1.950503 1.070000 0.450502
v -1.840000 0.830000 0.500000
v -1.930000 1.070000 0.500000
v -1.886863 0.830000 0.613137
v -1.950503 1.070000 0.549497
v -2.000000 0.830000 0.660000
v -2.000000 1.070000 0.570000
v -2.113137 0.830000 0.613137
v -2.049497 1.070000 0.549497
v -2.160000 0.830000 0.500000
v -2.070000 1.070000 0.500000
v -2.113137 0.830000 0.386863
v -2.049497 1.070000 0.450502
v -0.450000 0.830000 0.340000
v -0.450000 1.070000 0.430000
v -0.336863 0.830000 0.386863
v -0.400503 1.070000 0.450502
v -0.290000 0.830000 0.500000
v -0.380000 1.070000 0.500000
v -0.336863 0.830000 0.613137
v -0.400503 1.070000 0.549497
v -0.450000 0.830000 0.660000
v -0.450000 1.070000 0.570000
v -0.563137 0.830000 0.613137
v -0.499498 1.070000 0.549497
v -0.610000 0.830000 0.500000
v -0.520000 1.070000 0.500000
v -0.563137 0.830000 0.386863
v -0.499498 1.070000 0.450502
v -4.350000 0.805000 1.365000
v -4.350000 0.855000 1.365000
v -4.350000 0.805000 1.315000
v -4.350000 0.855000 1.315000
v 0.350000 0.805000 1.365000
v 0.350000 0.855000 1.365000
v 0.350000 0.805000 1.315000
v 0.350000 0.855000 1.315000
v -4.350000 0.805000 -0.315000
v -4.350000 0.855000 -0.315000
v -4.350000 0.805000 -0.365000
v -4.350000 0.855000 -0.365000
v 0.350000 0.805000 -0.315000
v 0.350000 0.855000 -0.315000
v 0.350000 0.805000 -0.365000
v 0.350000 0.855000 -0.365000
v -3.650000 0.820000 0.650000
v -3.650000 0.850000 0.650000
v -3.650000 0.820000 0.350000
v -3.650000 0.850000 0.350000
v -0.350000 0.820000 0.650000
v -0.350000 0.850000 0.650000
v -0.350000 0.820000 0.350000
v -0.350000 0.850000 0.350000
v -3.405000 1.090000 0.500000
v -3.440000 1.125000 0.500000
v -3.475000 1.090000 0.500000
v -3.440000 1.055000 0.500000
v -3.432693 1.090000 0.414771
v -3.461008 1.125000 0.435344
v -3.489324 1.090000 0.455916
v -3.461008 1.055000 0.435344
v -3.505193 1.090000 0.362097
v -3.516008 1.125000 0.395384
v -3.526824 1.090000 0.428671
v -3.516008 1.055000 0.395384
v -3.594807 1.090000 0.362097
v -3.583992 1.125000 0.395384
v -3.573176 1.090000 0.428671
v -3.583992 1.055000 0.395384
v -3.667307 1.090000 0.414771
v -3.638992 1.125000 0.435344
v -3.610676 1.090000 0.455916
v -3.638992 1.055000 0.435344
v -3.695000 1.090000 0.500000
v -3.660000 1.125000 0.500000
v -3.625000 1.090000 0.500000
v -3.660000 1.055000 0.500000
v -3.667307 1.090000 0.585229
v -3.638992 1.125000 0.564656
v -3.610676 1.090000 0.544084
v -3.638992 1.055000 0.564656
v -3.594807 1.090000 0.637903
v -3.583992 1.125000 0.604616
v -3.573176 1.090000 0.571329
v -3.583992 1.055000 0.604616
v -3.505193 1.090000 0.637903
v -3.516008 1.125000 0.604616
v -3.526824 1.090000 0.571329
v -3.516008 1.055000 0.604616
v -3.432693 1.090000 0.585229
v -3.461008 1.125000 0.564656
v -3.489324 1.090000 0.544084
v -3.461008 1.055000 0.564656
v -1.855000 1.090000 0.500000
v -1.890000 1.125000 0.500000
v -1.925000 1.090000 0.500000
v -1.890000 1.055000 0.500000
v -1.882693 1.090000 0.414771
v -1.911008 1.125000 0.435344
v -1.939324 1.090000 0.455916
v -1.911008 1.055000 0.435344
v -1.955193 1.090000 0.362097
v -1.966008 1.125000 0.395384
v -1.976824 1.090000 0.428671
v -1.966008 1.055000 0.395384
v -2.044807 1.090000 0.362097
v -2.033992 1.125000 0.395384
v -2.023176 1.090000 0.428671
v -2.033992 1.055000 0.395384
v -2.117307 1.090000 0.414771
v -2.088992 1.125000 0.435344
v -2.060676 1.090000 0.455916
v -2.088992 1.055000 0.435344
v -2.145000 1.090000 0.500000
v -2.110000 1.125000 0.500000
v -2.075000 1.090000 0.500000
v -2.110000 1.055000 0.500000
v -2.117307 1.090000 0.585229
v -2.088992 1.125000 0.564656
v -2.060676 1.090000 0.544084
v -2.088992 1.055000 0.564656
v -2.044807 1.090000 0.637903
v -2.033992 1.125000 0.604616
v -2.023176 1.090000 0.571329
v -2.033992 1.055000 0.604616
v -1.955193 1.090000 0.637903
v -1.966008 1.125000 0.604616
v -1.976824 1.090000 0.571329
v -1.966008 1.055000 0.604616
v -1.882693 1.090000 0.585229
v -1.911008 1.125000 0.564656
v -1.939324 1.090000 0.544084
v -1.911008 1.055000 0.564656
v -0.305000 1.090000 0.500000
v -0.340000 1.125000 0.500000
v -0.375000 1.090000 0.500000
v -0.340000 1.055000 0.500000
v -0.332693 1.090000 0.414771
v -0.361008 1.125000 0.435344
v -0.389324 1.090000 0.455916
v -0.361008 1.055000 0.435344
v -0.405193 1.090000 0.362097
v -0.416008 1.125000 0.395384
v -0.426824 1.090000 0.428671
v -0.416008 1.055000 0.395384
v -0.494807 1.090000 0.362097
v -0.483992 1.125000 0.395384
v -0.473176 1.090000 0.428671
v -0.483992 1.055000 0.395384
v -0.567308 1.090000 0.414771
v -0.538992 1.125000 0.435344
v -0.510677 1.090000 0.455916
v -0.538992 1.055000 0.435344
v -0.595000 1.090000 0.500000
v -0.560000 1.125000 0.500000
v -0.525000 1.090000 0.500000
v -0.560000 1.055000 0.500000
v -0.567308 1.090000 0.585229
v -0.538992 1.125000 0.564656
v -0.510677 1.090000 0.544084
v -0.538992 1.055000 0.564656
v -0.494807 1.090000 0.637903
v -0.483992 1.125000 0.604616
v -0.473176 1.090000 0.571329
v -0.483992 1.055000 0.604616
v -0.405193 1.090000 0.637903
v -0.416008 1.125000 0.604616
v -0.426824 1.090000 0.571329
v -0.416008 1.055000 0.604616
v -0.332693 1.090000 0.585229
v -0.361008 1.125000 0.564656
v -0.389324 1.090000 0.544084
v -0.361008 1.055000 0.564656
v -3.550000 1.060000 0.445000
v -3.550000 1.280000 0.445000
v -3.502368 1.060000 0.472500
v -3.502368 1.280000 0.472500
v -3.502368 1.060000 0.527500
v -3.502368 1.280000 0.527500
v -3.550000 1.060000 0.555000
v -3.550000 1.280000 0.555000
v -3.597631 1.060000 0.527500
v -3.597631 1.280000 0.527500
v -3.597631 1.060000 0.472500
v -3.597631 1.280000 0.472500
v -2.000000 1.060000 0.445000
v -2.000000 1.280000 0.445000
v -1.952369 1.060000 0.472500
v -1.952369 1.280000 0.472500
v -1.952369 1.060000 0.527500
v -1.952369 1.280000 0.527500
v -2.000000 1.060000 0.555000
v -2.000000 1.280000 0.555000
v -2.047631 1.060000 0.527500
v -2.047631 1.280000 0.527500
v -2.047631 1.060000 0.472500
v -2.047631 1.280000 0.472500
v -0.450000 1.060000 0.445000
v -0.450000 1.280000 0.445000
v -0.402369 1.060000 0.472500
v -0.402369 1.280000 0.472500
v -0.402369 1.060000 0.527500
v -0.402369 1.280000 0.527500
v -0.450000 1.060000 0.555000
v -0.450000 1.280000 0.555000
v -0.497632 1.060000 0.527500
v -0.497632 1.280000 0.527500
v -0.497632 1.060000 0.472500
v -0.497632 1.280000 0.472500
vn -1.0000 -0.0000 -0.0000
vn -0.0000 -0.0000 -1.0000
vn 1.0000 -0.0000 -0.0000
vn -0.0000 -0.0000 1.0000
vn -0.0000 -1.0000 -0.0000
vn -0.0000 1.0000 -0.0000
vn 0.3616 0.3274 -0.8730
vn 0.8730 0.3274 -0.3616
vn 0.8730 0.3274 0.3616
vn 0.3616 0.3274 0.8730
vn -0.3616 0.3274 0.8730
vn -0.8730 0.3274 0.3616
vn -0.8730 0.3274 -0.3616
vn -0.3616 0.3274 -0.8730
vn 0.6891 0.6892 -0.2239
vn -0.6892 0.6892 0.2239
vn -0.6892 -0.6892 0.2239
vn 0.6892 -0.6892 -0.2239
vn 0.4259 0.6892 -0.5862
vn -0.4259 0.6892 0.5862
vn -0.4259 -0.6892 0.5862
vn 0.4259 -0.6892 -0.5862
vn -0.0000 0.6892 -0.7246
vn -0.0000 0.6892 0.7246
vn -0.0000 -0.6892 0.7246
vn -0.0000 -0.6892 -0.7246
vn -0.4259 0.6892 -0.5862
vn 0.4259 0.6892 0.5862
vn 0.4259 -0.6892 0.5862
vn -0.4259 -0.6892 -0.5862
vn -0.6892 0.6892 -0.2239
vn 0.6892 0.6892 0.2239
vn 0.6892 -0.6892 0.2239
vn -0.6892 -0.6892 -0.2239
vn 0.6892 0.6892 -0.2239
vn 0.5000 -0.0000 -0.8660
vn 0.5000 -0.0000 0.8660
vn -0.5000 -0.0000 0.8660
vn -0.5000 -0.0000 -0.8660
vt 0.250000 0.250000
vt 0.750000 0.250000
vt 0.250000 0.750000
s 0
usemtl slot0
f 1/1/1 2/1/1 4/1/1 3/1/1
f 3/1/2 4/1/2 8/1/2 7/1/2
f 7/1/3 8/1/3 6/1/3 5/1/3
f 5/1/4 6/1/4 2/1/4 1/1/4
f 3/1/5 7/1/5 5/1/5 1/1/5
f 8/1/6 4/1/6 2/1/6 6/1/6
f 9/1/1 10/1/1 12/1/1 11/1/1
f 11/1/2 12/1/2 16/1/2 15/1/2
f 15/1/3 16/1/3 14/1/3 13/1/3
f 13/1/4 14/1/4 10/1/4 9/1/4
f 11/1/5 15/1/5 13/1/5 9/1/5
f 16/1/6 12/1/6 10/1/6 14/1/6
f 17/1/1 18/1/1 20/1/1 19/1/1
f 19/1/2 20/1/2 24/1/2 23/1/2
f 23/1/3 24/1/3 22/1/3 21/1/3
f 21/1/4 22/1/4 18/1/4 17/1/4
f 19/1/5 23/1/5 21/1/5 17/1/5
f 24/1/6 20/1/6 18/1/6 22/1/6
f 25/1/1 26/1/1 28/1/1 27/1/1
f 27/1/2 28/1/2 32/1/2 31/1/2
f 31/1/3 32/1/3 30/1/3 29/1/3
f 29/1/4 30/1/4 26/1/4 25/1/4
f 27/1/5 31/1/5 29/1/5 25/1/5
f 32/1/6 28/1/6 26/1/6 30/1/6
f 33/1/1 34/1/1 36/1/1 35/1/1
f 35/1/2 36/1/2 40/1/2 39/1/2
f 39/1/3 40/1/3 38/1/3 37/1/3
f 37/1/4 38/1/4 34/1/4 33/1/4
f 35/1/5 39/1/5 37/1/5 33/1/5
f 40/1/6 36/1/6 34/1/6 38/1/6
f 41/1/1 42/1/1 44/1/1 43/1/1
f 43/1/2 44/1/2 48/1/2 47/1/2
f 47/1/3 48/1/3 46/1/3 45/1/3
f 45/1/4 46/1/4 42/1/4 41/1/4
f 43/1/5 47/1/5 45/1/5 41/1/5
f 48/1/6 44/1/6 42/1/6 46/1/6
f 49/1/1 50/1/1 52/1/1 51/1/1
f 51/1/2 52/1/2 56/1/2 55/1/2
f 55/1/3 56/1/3 54/1/3 53/1/3
f 53/1/4 54/1/4 50/1/4 49/1/4
f 51/1/5 55/1/5 53/1/5 49/1/5
f 56/1/6 52/1/6 50/1/6 54/1/6
f 57/1/1 58/1/1 60/1/1 59/1/1
f 59/1/2 60/1/2 64/1/2 63/1/2
f 63/1/3 64/1/3 62/1/3 61/1/3
f 61/1/4 62/1/4 58/1/4 57/1/4
f 59/1/5 63/1/5 61/1/5 57/1/5
f 64/1/6 60/1/6 58/1/6 62/1/6
f 65/1/7 66/1/7 68/1/7 67/1/7
f 67/1/8 68/1/8 70/1/8 69/1/8
f 69/1/9 70/1/9 72/1/9 71/1/9
f 71/1/10 72/1/10 74/1/10 73/1/10
f 73/1/11 74/1/11 76/1/11 75/1/11
f 75/1/12 76/1/12 78/1/12 77/1/12
f 68/1/6 66/1/6 80/1/6 78/1/6 76/1/6 74/1/6 72/1/6 70/1/6
f 77/1/13 78/1/13 80/1/13 79/1/13
f 79/1/14 80/1/14 66/1/14 65/1/14
f 65/1/5 67/1/5 69/1/5 71/1/5 73/1/5 75/1/5 77/1/5 79/1/5
f 81/1/7 82/1/7 84/1/7 83/1/7
f 83/1/8 84/1/8 86/1/8 85/1/8
f 85/1/9 86/1/9 88/1/9 87/1/9
f 87/1/10 88/1/10 90/1/10 89/1/10
f 89/1/11 90/1/11 92/1/11 91/1/11
f 91/1/12 92/1/12 94/1/12 93/1/12
f 84/1/6 82/1/6 96/1/6 94/1/6 92/1/6 90/1/6 88/1/6 86/1/6
f 93/1/13 94/1/13 96/1/13 95/1/13
f 95/1/14 96/1/14 82/1/14 81/1/14
f 81/1/5 83/1/5 85/1/5 87/1/5 89/1/5 91/1/5 93/1/5 95/1/5
f 97/1/7 98/1/7 100/1/7 99/1/7
f 99/1/8 100/1/8 102/1/8 101/1/8
f 101/1/9 102/1/9 104/1/9 103/1/9
f 103/1/10 104/1/10 106/1/10 105/1/10
f 105/1/11 106/1/11 108/1/11 107/1/11
f 107/1/12 108/1/12 110/1/12 109/1/12
f 100/1/6 98/1/6 112/1/6 110/1/6 108/1/6 106/1/6 104/1/6 102/1/6
f 109/1/13 110/1/13 112/1/13 111/1/13
f 111/1/14 112/1/14 98/1/14 97/1/14
f 97/1/5 99/1/5 101/1/5 103/1/5 105/1/5 107/1/5 109/1/5 111/1/5
f 113/2/1 114/2/1 116/2/1 115/2/1
f 115/2/2 116/2/2 120/2/2 119/2/2
f 119/2/3 120/2/3 118/2/3 117/2/3
f 117/2/4 118/2/4 114/2/4 113/2/4
f 115/2/5 119/2/5 117/2/5 113/2/5
f 120/2/6 116/2/6 114/2/6 118/2/6
f 121/2/1 122/2/1 124/2/1 123/2/1
f 123/2/2 124/2/2 128/2/2 127/2/2
f 127/2/3 128/2/3 126/2/3 125/2/3
f 125/2/4 126/2/4 122/2/4 121/2/4
f 123/2/5 127/2/5 125/2/5 121/2/5
f 128/2/6 124/2/6 122/2/6 126/2/6
f 129/2/1 130/2/1 132/2/1 131/2/1
f 131/2/2 132/2/2 136/2/2 135/2/2
f 135/2/3 136/2/3 134/2/3 133/2/3
f 133/2/4 134/2/4 130/2/4 129/2/4
f 131/2/5 135/2/5 133/2/5 129/2/5
f 136/2/6 132/2/6 130/2/6 134/2/6
f 137/2/15 141/2/15 142/2/15 138/2/15
f 138/2/16 142/2/16 143/2/16 139/2/16
f 139/2/17 143/2/17 144/2/17 140/2/17
f 140/2/18 144/2/18 141/2/18 137/2/18
f 141/2/19 145/2/19 146/2/19 142/2/19
f 142/2/20 146/2/20 147/2/20 143/2/20
f 143/2/21 147/2/21 148/2/21 144/2/21
f 144/2/22 148/2/22 145/2/22 141/2/22
f 145/2/23 149/2/23 150/2/23 146/2/23
f 146/2/24 150/2/24 151/2/24 147/2/24
f 147/2/25 151/2/25 152/2/25 148/2/25
f 148/2/26 152/2/26 149/2/26 145/2/26
f 149/2/27 153/2/27 154/2/27 150/2/27
f 150/2/28 154/2/28 155/2/28 151/2/28
f 151/2/29 155/2/29 156/2/29 152/2/29
f 152/2/30 156/2/30 153/2/30 149/2/30
f 153/2/31 157/2/31 158/2/31 154/2/31
f 154/2/32 158/2/32 159/2/32 155/2/32
f 155/2/33 159/2/33 160/2/33 156/2/33
f 156/2/34 160/2/34 157/2/34 153/2/34
f 157/2/16 161/2/16 162/2/16 158/2/16
f 158/2/35 162/2/35 163/2/35 159/2/35
f 159/2/18 163/2/18 164/2/18 160/2/18
f 160/2/17 164/2/17 161/2/17 157/2/17
f 161/2/20 165/2/20 166/2/20 162/2/20
f 162/2/19 166/2/19 167/2/19 163/2/19
f 163/2/22 167/2/22 168/2/22 164/2/22
f 164/2/21 168/2/21 165/2/21 161/2/21
f 165/2/24 169/2/24 170/2/24 166/2/24
f 166/2/23 170/2/23 171/2/23 167/2/23
f 167/2/26 171/2/26 172/2/26 168/2/26
f 168/2/25 172/2/25 169/2/25 165/2/25
f 169/2/28 173/2/28 174/2/28 170/2/28
f 170/2/27 174/2/27 175/2/27 171/2/27
f 171/2/30 175/2/30 176/2/30 172/2/30
f 172/2/29 176/2/29 173/2/29 169/2/29
f 173/2/32 137/2/32 138/2/32 174/2/32
f 174/2/31 138/2/31 139/2/31 175/2/31
f 175/2/34 139/2/34 140/2/34 176/2/34
f 176/2/33 140/2/33 137/2/33 173/2/33
f 177/2/35 181/2/35 182/2/35 178/2/35
f 178/2/16 182/2/16 183/2/16 179/2/16
f 179/2/17 183/2/17 184/2/17 180/2/17
f 180/2/18 184/2/18 181/2/18 177/2/18
f 181/2/19 185/2/19 186/2/19 182/2/19
f 182/2/20 186/2/20 187/2/20 183/2/20
f 183/2/21 187/2/21 188/2/21 184/2/21
f 184/2/22 188/2/22 185/2/22 181/2/22
f 185/2/23 189/2/23 190/2/23 186/2/23
f 186/2/24 190/2/24 191/2/24 187/2/24
f 187/2/25 191/2/25 192/2/25 188/2/25
f 188/2/26 192/2/26 189/2/26 185/2/26
f 189/2/27 193/2/27 194/2/27 190/2/27
f 190/2/28 194/2/28 195/2/28 191/2/28
f 191/2/29 195/2/29 196/2/29 192/2/29
f 192/2/30 196/2/30 193/2/30 189/2/30
f 193/2/31 197/2/31 198/2/31 194/2/31
f 194/2/32 198/2/32 199/2/32 195/2/32
f 195/2/33 199/2/33 200/2/33 196/2/33
f 196/2/34 200/2/34 197/2/34 193/2/34
f 197/2/16 201/2/16 202/2/16 198/2/16
f 198/2/35 202/2/35 203/2/35 199/2/35
f 199/2/18 203/2/18 204/2/18 200/2/18
f 200/2/17 204/2/17 201/2/17 197/2/17
f 201/2/20 205/2/20 206/2/20 202/2/20
f 202/2/19 206/2/19 207/2/19 203/2/19
f 203/2/22 207/2/22 208/2/22 204/2/22
f 204/2/21 208/2/21 205/2/21 201/2/21
f 205/2/24 209/2/24 210/2/24 206/2/24
f 206/2/23 210/2/23 211/2/23 207/2/23
f 207/2/26 211/2/26 212/2/26 208/2/26
f 208/2/25 212/2/25 209/2/25 205/2/25
f 209/2/28 213/2/28 214/2/28 210/2/28
f 210/2/27 214/2/27 215/2/27 211/2/27
f 211/2/30 215/2/30 216/2/30 212/2/30
f 212/2/29 216/2/29 213/2/29 209/2/29
f 213/2/32 177/2/32 178/2/32 214/2/32
f 214/2/31 178/2/31 179/2/31 215/2/31
f 215/2/34 179/2/34 180/2/34 216/2/34
f 216/2/33 180/2/33 177/2/33 213/2/33
f 217/2/35 221/2/35 222/2/35 218/2/35
f 218/2/16 222/2/16 223/2/16 219/2/16
f 219/2/17 223/2/17 224/2/17 220/2/17
f 220/2/18 224/2/18 221/2/18 217/2/18
f 221/2/19 225/2/19 226/2/19 222/2/19
f 222/2/20 226/2/20 227/2/20 223/2/20
f 223/2/21 227/2/21 228/2/21 224/2/21
f 224/2/22 228/2/22 225/2/22 221/2/22
f 225/2/23 229/2/23 230/2/23 226/2/23
f 226/2/24 230/2/24 231/2/24 227/2/24
f 227/2/25 231/2/25 232/2/25 228/2/25
f 228/2/26 232/2/26 229/2/26 225/2/26
f 229/2/27 233/2/27 234/2/27 230/2/27
f 230/2/28 234/2/28 235/2/28 231/2/28
f 231/2/29 235/2/29 236/2/29 232/2/29
f 232/2/30 236/2/30 233/2/30 229/2/30
f 233/2/31 237/2/31 238/2/31 234/2/31
f 234/2/32 238/2/32 239/2/32 235/2/32
f 235/2/33 239/2/33 240/2/33 236/2/33
f 236/2/34 240/2/34 237/2/34 233/2/34
f 237/2/16 241/2/16 242/2/16 238/2/16
f 238/2/35 242/2/35 243/2/35 239/2/35
f 239/2/18 243/2/18 244/2/18 240/2/18
f 240/2/17 244/2/17 241/2/17 237/2/17
f 241/2/20 245/2/20 246/2/20 242/2/20
f 242/2/19 246/2/19 247/2/19 243/2/19
f 243/2/22 247/2/22 248/2/22 244/2/22
f 244/2/21 248/2/21 245/2/21 241/2/21
f 245/2/24 249/2/24 250/2/24 246/2/24
f 246/2/23 250/2/23 251/2/23 247/2/23
f 247/2/26 251/2/26 252/2/26 248/2/26
f 248/2/25 252/2/25 249/2/25 245/2/25
f 249/2/28 253/2/28 254/2/28 250/2/28
f 250/2/27 254/2/27 255/2/27 251/2/27
f 251/2/30 255/2/30 256/2/30 252/2/30
f 252/2/29 256/2/29 253/2/29 249/2/29
f 253/2/32 217/2/32 218/2/32 254/2/32
f 254/2/31 218/2/31 219/2/31 255/2/31
f 255/2/34 219/2/34 220/2/34 256/2/34
f 256/2/33 220/2/33 217/2/33 253/2/33
f 257/3/36 258/3/36 260/3/36 259/3/36
f 259/3/3 260/3/3 262/3/3 261/3/3
f 261/3/37 262/3/37 264/3/37 263/3/37
f 263/3/38 264/3/38 266/3/38 265/3/38
f 260/3/6 258/3/6 268/3/6 266/3/6 264/3/6 262/3/6
f 265/3/1 266/3/1 268/3/1 267/3/1
f 267/3/39 268/3/39 258/3/39 257/3/39
f 257/3/5 259/3/5 261/3/5 263/3/5 265/3/5 267/3/5
f 269/3/36 270/3/36 272/3/36 271/3/36
f 271/3/3 272/3/3 274/3/3 273/3/3
f 273/3/37 274/3/37 276/3/37 275/3/37
f 275/3/38 276/3/38 278/3/38 277/3/38
f 272/3/6 270/3/6 280/3/6 278/3/6 276/3/6 274/3/6
f 277/3/1 278/3/1 280/3/1 279/3/1
f 279/3/39 280/3/39 270/3/39 269/3/39
f 269/3/5 271/3/5 273/3/5 275/3/5 277/3/5 279/3/5
f 281/3/36 282/3/36 284/3/36 283/3/36
f 283/3/3 284/3/3 286/3/3 285/3/3
f 285/3/37 286/3/37 288/3/37 287/3/37
f 287/3/38 288/3/38 290/3/38 289/3/38
f 284/3/6 282/3/6 292/3/6 290/3/6 288/3/6 286/3/6
f 289/3/1 290/3/1 292/3/1 291/3/1
f 291/3/39 292/3/39 282/3/39 281/3/39
f 281/3/5 283/3/5 285/3/5 287/3/5 289/3/5 291/3/5
