# Blender 5.2.0 LTS
# www.blender.org
mtllib undead_claws.mtl
o undead_claws
v -0.052500 0.000000 0.022500
v -0.052500 0.030000 0.022500
v -0.052500 0.000000 -0.022500
v -0.052500 0.030000 -0.022500
v 0.052500 0.000000 0.022500
v 0.052500 0.030000 0.022500
v 0.052500 0.000000 -0.022500
v 0.052500 0.030000 -0.022500
v -0.031102 0.030596 -0.013000
v -0.019910 0.031823 -0.006500
v -0.019910 0.031823 0.006500
v -0.031102 0.030596 0.013000
v -0.042293 0.029369 0.006500
v -0.042293 0.029369 -0.006500
v -0.052898 0.229404 0.000000
v -0.042000 0.010000 -0.016000
v -0.042000 0.040000 -0.016000
v -0.028000 0.010000 -0.008000
v -0.028000 0.040000 -0.008000
v -0.028000 0.010000 0.008000
v -0.028000 0.040000 0.008000
v -0.042000 0.010000 0.016000
v -0.042000 0.040000 0.016000
v -0.055856 0.010000 0.008000
v -0.055856 0.040000 0.008000
v -0.055856 0.010000 -0.008000
v -0.055856 0.040000 -0.008000
v -0.009451 0.030083 -0.013000
v 0.001800 0.030493 -0.006500
v 0.001800 0.030493 0.006500
v -0.009451 0.030083 0.013000
v -0.020702 0.029673 0.006500
v -0.020702 0.029673 -0.006500
v -0.018549 0.279917 0.000000
v -0.014000 0.010000 -0.016000
v -0.014000 0.040000 -0.016000
v 0.000000 0.010000 -0.008000
v 0.000000 0.040000 -0.008000
v 0.000000 0.010000 0.008000
v 0.000000 0.040000 0.008000
v -0.014000 0.010000 0.016000
v -0.014000 0.040000 0.016000
v 0.009633 0.030079 -0.013000
v 0.020884 0.029670 -0.006500
v 0.020884 0.029670 0.006500
v 0.009633 0.030079 0.013000
v -0.001618 0.030489 0.006500
v -0.001618 0.030489 -0.006500
v 0.018367 0.269920 0.000000
v 0.014000 0.010000 -0.016000
v 0.014000 0.040000 -0.016000
v 0.028000 0.010000 -0.008000
v 0.028000 0.040000 -0.008000
v 0.028000 0.010000 0.008000
v 0.028000 0.040000 0.008000
v 0.014000 0.010000 0.016000
v 0.014000 0.040000 0.016000
v 0.032192 0.030536 -0.013000
v 0.043383 0.029309 -0.006500
v 0.043383 0.029309 0.006500
v 0.032192 0.030536 0.013000
v 0.021000 0.031763 0.006500
v 0.021000 0.031763 -0.006500
v 0.051808 0.209464 0.000000
v 0.042000 0.010000 -0.016000
v 0.042000 0.040000 -0.016000
v 0.055856 0.010000 -0.008000
v 0.055856 0.040000 -0.008000
v 0.055856 0.010000 0.008000
v 0.055856 0.040000 0.008000
v 0.042000 0.010000 0.016000
v 0.042000 0.040000 0.016000
vn -1.0000 -0.0000 -0.0000
vn -0.0000 -0.0000 -1.0000
vn 1.0000 -0.0000 -0.0000
vn -0.0000 -0.0000 1.0000
vn -0.0000 -1.0000 -0.0000
vn -0.0000 1.0000 -0.0000
vn 0.4901 0.1103 -0.8647
vn 0.9863 0.1647 -0.0000
vn 0.4901 0.1103 0.8647
vn -0.5024 0.0015 0.8647
vn 0.1090 -0.9940 -0.0000
vn -0.9986 -0.0529 -0.0000
vn -0.5024 0.0015 -0.8647
vn 0.4961 -0.0000 -0.8682
vn 0.4961 -0.0000 0.8682
vn -0.5000 -0.0000 0.8660
vn -0.5000 -0.0000 -0.8660
vn 0.4975 0.0631 -0.8651
vn 0.9967 0.0813 -0.0000
vn 0.4975 0.0631 0.8651
vn -0.5008 0.0268 0.8651
vn 0.0364 -0.9993 -0.0000
vn -1.0000 0.0086 -0.0000
vn -0.5008 0.0268 -0.8651
vn -0.4961 -0.0000 0.8682
vn -0.4961 -0.0000 -0.8682
vn 0.5008 0.0287 -0.8651
vn 0.9999 0.0105 -0.0000
vn 0.5008 0.0287 0.8651
vn -0.4974 0.0650 0.8651
vn -0.0364 -0.9993 -0.0000
vn -0.9965 0.0832 -0.0000
vn -0.4974 0.0650 -0.8651
vn 0.5029 0.0077 -0.8643
vn 0.9989 -0.0467 -0.0000
vn 0.5029 0.0077 0.8643
vn -0.4892 0.1164 0.8643
vn -0.1090 -0.9940 -0.0000
vn -0.9853 0.1708 -0.0000
vn -0.4892 0.1164 -0.8643
vn 0.5000 -0.0000 -0.8660
vn 0.5000 -0.0000 0.8660
vt 0.250000 0.250000
s 0
usemtl slot0
f 1/1/1 2/1/1 4/1/1 3/1/1
f 3/1/2 4/1/2 8/1/2 7/1/2
f 7/1/3 8/1/3 6/1/3 5/1/3
f 5/1/4 6/1/4 2/1/4 1/1/4
f 3/1/5 7/1/5 5/1/5 1/1/5
f 8/1/6 4/1/6 2/1/6 6/1/6
f 9/1/7 15/1/7 10/1/7
f 10/1/8 15/1/8 11/1/8
f 11/1/9 15/1/9 12/1/9
f 12/1/10 15/1/10 13/1/10
f 9/1/11 10/1/11 11/1/11 12/1/11 13/1/11 14/1/11
f 13/1/12 15/1/12 14/1/12
f 14/1/13 15/1/13 9/1/13
f 16/1/14 17/1/14 19/1/14 18/1/14
f 18/1/1 20/1/1 21/1/1 19/1/1
f 20/1/15 21/1/15 23/1/15 22/1/15
f 22/1/16 23/1/16 25/1/16 24/1/16
f 19/1/6 17/1/6 27/1/6 25/1/6 23/1/6 21/1/6
f 24/1/1 25/1/1 27/1/1 26/1/1
f 26/1/17 27/1/17 17/1/17 16/1/17
f 16/1/5 18/1/5 20/1/5 22/1/5 24/1/5 26/1/5
f 28/1/18 34/1/18 29/1/18
f 29/1/19 34/1/19 30/1/19
f 30/1/20 34/1/20 31/1/20
f 31/1/21 34/1/21 32/1/21
f 28/1/22 29/1/22 30/1/22 31/1/22 32/1/22 33/1/22
f 32/1/23 34/1/23 33/1/23
f 33/1/24 34/1/24 28/1/24
f 35/1/14 36/1/14 38/1/14 37/1/14
f 37/1/3 38/1/3 40/1/3 39/1/3
f 39/1/15 40/1/15 42/1/15 41/1/15
f 41/1/25 42/1/25 21/1/25 20/1/25
f 38/1/6 36/1/6 19/1/6 21/1/6 42/1/6 40/1/6
f 18/1/26 19/1/26 36/1/26 35/1/26
f 35/1/5 37/1/5 39/1/5 41/1/5 20/1/5 18/1/5
f 43/1/27 49/1/27 44/1/27
f 44/1/28 49/1/28 45/1/28
f 45/1/29 49/1/29 46/1/29
f 46/1/30 49/1/30 47/1/30
f 43/1/31 44/1/31 45/1/31 46/1/31 47/1/31 48/1/31
f 47/1/32 49/1/32 48/1/32
f 48/1/33 49/1/33 43/1/33
f 50/1/14 51/1/14 53/1/14 52/1/14
f 52/1/3 53/1/3 55/1/3 54/1/3
f 54/1/15 55/1/15 57/1/15 56/1/15
f 56/1/25 57/1/25 40/1/25 39/1/25
f 53/1/6 51/1/6 38/1/6 40/1/6 57/1/6 55/1/6
f 37/1/26 38/1/26 51/1/26 50/1/26
f 50/1/5 52/1/5 54/1/5 56/1/5 39/1/5 37/1/5
f 58/1/34 64/1/34 59/1/34
f 59/1/35 64/1/35 60/1/35
f 60/1/36 64/1/36 61/1/36
f 61/1/37 64/1/37 62/1/37
f 58/1/38 59/1/38 60/1/38 61/1/38 62/1/38 63/1/38
f 62/1/39 64/1/39 63/1/39
f 63/1/40 64/1/40 58/1/40
f 65/1/41 66/1/41 68/1/41 67/1/41
f 67/1/3 68/1/3 70/1/3 69/1/3
f 69/1/42 70/1/42 72/1/42 71/1/42
f 71/1/25 72/1/25 55/1/25 54/1/25
f 68/1/6 66/1/6 53/1/6 55/1/6 72/1/6 70/1/6
f 52/1/26 53/1/26 66/1/26 65/1/26
f 65/1/5 67/1/5 69/1/5 71/1/5 54/1/5 52/1/5
